<svg width="51" height="107" viewBox="0 0 51 107" fill="none" xmlns="http://www.w3.org/2000/svg">
<path d="M21.9395 37.1981C21.6421 37.188 21.3456 37.1769 21.0491 37.1668C20.7736 37.1567 20.4954 37.1061 20.2216 37.0748C19.9304 37.0417 19.6382 37.0086 19.3452 36.9745C19.0767 36.9442 18.8063 36.8752 18.5404 36.8246C18.2736 36.7749 18.0085 36.7262 17.7425 36.6765C16.9621 36.5311 16.1886 36.2938 15.4352 36.038C14.0173 35.5541 12.6474 34.8953 11.3682 34.0885C10.7281 33.6846 10.1204 33.2191 9.52652 32.7416C8.89607 32.2365 8.30398 31.6818 7.73457 31.1022C6.60969 29.9577 5.65746 28.6338 4.8404 27.2317C4.03031 25.8398 3.44347 24.3172 3.09467 22.7265C2.75285 21.1689 2.74324 19.5626 2.94205 17.9848C3.14174 16.3886 3.64316 14.8522 4.29716 13.4032C5.60952 10.4942 7.56452 7.88967 9.88753 5.8077C10.845 4.94842 11.8844 4.15722 12.9901 3.5215C13.5063 3.22526 14.0138 2.90786 14.5501 2.65302C15.0751 2.40462 15.5939 2.13875 16.1345 1.92991C16.4746 1.79835 16.8138 1.6677 17.1539 1.53614C17.3693 1.45334 17.5899 1.39078 17.8097 1.3227C18.141 1.22058 18.4733 1.11846 18.8055 1.01726C19.0348 0.946424 19.272 0.899508 19.5048 0.843388C19.7821 0.776228 20.0577 0.708147 20.3341 0.640987C20.6402 0.567387 20.955 0.520461 21.2637 0.459741C21.861 0.343821 22.4591 0.254589 23.0608 0.165349C23.2596 0.135909 23.455 0.114744 23.6547 0.0972641C23.9956 0.0687441 24.3383 0.0218199 24.6802 0.0153799C24.9697 0.0107799 25.2609 0.006188 25.5504 0.000667998C25.8286 -0.003932 26.105 0.0163069 26.3823 0.0282669C26.8593 0.0503469 27.3328 0.0991117 27.8037 0.185592C28.1036 0.240792 28.3984 0.324511 28.6905 0.417431C28.8073 0.391671 28.9285 0.388911 29.0506 0.417431C31.1617 0.896751 33.2781 1.42759 35.3063 2.21603C36.3109 2.60703 37.2797 3.09555 38.2179 3.63743C38.6949 3.91251 39.1614 4.20875 39.6079 4.53719C40.0849 4.88771 40.5383 5.25846 40.9865 5.65038C41.8777 6.43054 42.6494 7.3533 43.3741 8.30182C44.0316 9.16202 44.6114 10.1142 45.0945 11.094C45.3657 11.6451 45.6256 12.2008 45.8445 12.7776C46.0659 13.36 46.2438 13.9506 46.3964 14.5569C46.536 15.1117 46.6249 15.6784 46.6772 16.2497C46.7103 16.6131 46.7095 16.9811 46.7217 17.3454C46.7313 17.6527 46.7165 17.9729 46.6912 18.2802C46.6676 18.5525 46.6598 18.8312 46.6214 19.1026C46.5761 19.4136 46.5429 19.7291 46.4775 20.0355C46.42 20.3069 46.379 20.5884 46.3014 20.8534C46.2142 21.1533 46.1401 21.4615 46.0337 21.7541C45.9377 22.0163 45.854 22.2886 45.7442 22.5434C45.6134 22.8424 45.4922 23.1479 45.3483 23.4386C45.2149 23.71 45.0806 23.9805 44.9472 24.2509C44.6795 24.7928 44.3551 25.3034 44.0403 25.815C43.7569 26.2759 43.4421 26.7239 43.1029 27.1407C42.9093 27.3789 42.7236 27.6283 42.5178 27.8555C42.2858 28.1094 42.0548 28.3633 41.8228 28.6173C41.4749 28.9991 41.0955 29.356 40.7188 29.7065C40.2418 30.1481 39.7588 30.5741 39.267 30.9955C38.8528 31.3506 38.4159 31.6744 37.986 32.0084C37.7828 32.1657 37.5596 32.3019 37.3477 32.4463C37.1314 32.5944 36.9169 32.7499 36.6928 32.887C36.1879 33.1961 35.6883 33.5098 35.1668 33.7895C34.8826 33.9422 34.5974 34.0959 34.3123 34.2486C34.0559 34.3866 33.783 34.4988 33.5205 34.623C33.2694 34.7408 33.0182 34.8595 32.7671 34.9772C32.502 35.1024 32.2203 35.1971 31.9491 35.3057C31.7076 35.4023 31.4661 35.4998 31.2236 35.5973C30.9429 35.7105 30.6446 35.7896 30.3569 35.8853C30.1005 35.9699 29.845 36.0555 29.5878 36.1401C29.3017 36.2339 29.007 36.3002 28.7166 36.3775C28.4132 36.4575 28.1097 36.5375 27.8071 36.6176C27.5708 36.6792 27.3258 36.7133 27.0869 36.7602C26.766 36.8218 26.4442 36.8853 26.1242 36.9479C25.8704 36.9976 25.6123 37.0169 25.3559 37.0454C25.0316 37.0831 24.7072 37.119 24.3819 37.1567C24.1325 37.1843 23.8744 37.1779 23.6242 37.1861C23.3059 37.1972 22.9876 37.2082 22.6693 37.2202C22.6362 37.2211 22.6022 37.222 22.5682 37.222C22.3589 37.2239 22.147 37.2064 21.9395 37.1981ZM22.6859 35.049C22.9466 35.0582 23.2152 35.0315 23.4759 35.0214C23.7009 35.0131 23.9259 35.0057 24.1508 34.9975C24.6758 34.9377 25.2016 34.8779 25.7265 34.8181C26.2515 34.7159 26.7764 34.6129 27.3022 34.5108C27.5839 34.4556 27.8647 34.3617 28.1428 34.2881C28.4201 34.2155 28.6974 34.1409 28.9739 34.0683C29.3759 33.9349 29.7778 33.8015 30.1798 33.6681C30.4999 33.5623 30.8112 33.4362 31.126 33.3093C31.4678 33.1722 31.8157 33.048 32.1497 32.8907C32.5473 32.7039 32.9458 32.5162 33.3435 32.3295C33.762 32.1059 34.1788 31.8805 34.5974 31.656C34.7718 31.5622 34.9392 31.4481 35.1084 31.3441C35.322 31.2135 35.5348 31.0829 35.7493 30.9522C36.2464 30.6128 36.7417 30.276 37.2186 29.9062C37.4602 29.7194 37.7061 29.5382 37.9372 29.3385C38.2049 29.1085 38.4734 28.8795 38.7412 28.6495C39.1274 28.2916 39.5155 27.9374 39.887 27.5629C40.2872 27.16 40.6709 26.7478 41.0537 26.3274C41.2551 26.0781 41.4565 25.8297 41.6588 25.5803C41.7556 25.4607 41.8385 25.3246 41.9274 25.1985C42.0242 25.0615 42.121 24.9244 42.2178 24.7864C42.4498 24.411 42.6826 24.0366 42.8953 23.6483C43.1168 23.2454 43.3235 22.8387 43.5275 22.4266C43.6383 22.1727 43.7482 21.9178 43.8589 21.6639C43.9548 21.4431 44.0298 21.2085 44.11 20.9794C44.1815 20.7329 44.2531 20.4854 44.3246 20.2388C44.3978 19.9877 44.4371 19.719 44.4911 19.4614C44.4833 19.4982 44.4754 19.535 44.4684 19.5718C44.5077 19.3004 44.5469 19.0309 44.587 18.7595C44.6245 18.4945 44.6324 18.2203 44.655 17.9526C44.6507 17.9995 44.6481 18.0455 44.6437 18.0906C44.6498 17.8257 44.6559 17.5607 44.662 17.2957C44.6672 17.0869 44.6533 16.8753 44.6428 16.6655C44.621 16.3785 44.5905 16.0942 44.5495 15.8109C44.4763 15.4005 44.376 15.0022 44.2757 14.5992C44.2068 14.3839 44.1388 14.1677 44.0699 13.9515C43.9967 13.7206 43.8973 13.4943 43.811 13.268C43.6217 12.8402 43.4246 12.4207 43.2189 12.0011C43.0192 11.5982 42.789 11.2127 42.5605 10.8263C42.1838 10.2495 41.7914 9.69287 41.3755 9.14731C40.9647 8.65511 40.5409 8.18498 40.0962 7.72682C39.8172 7.4637 39.5355 7.20703 39.2478 6.95403C38.9687 6.71115 38.6696 6.4931 38.3723 6.27506C37.8883 5.94754 37.3974 5.64303 36.8942 5.35047C36.0301 4.88679 35.152 4.47463 34.2434 4.11859C32.7357 3.58407 31.1984 3.15718 29.6497 2.78182C29.348 2.9189 28.9922 2.90051 28.6992 2.71743C28.6442 2.69259 28.5893 2.66866 28.5344 2.64658C28.2274 2.54262 27.9214 2.44142 27.6083 2.36138C27.3066 2.29882 27.0049 2.25467 26.6988 2.22339C26.0352 2.17003 25.3743 2.17647 24.7098 2.18751C24.5276 2.20315 24.3444 2.21879 24.1613 2.23351C23.9573 2.25007 23.7497 2.2565 23.5483 2.28594C23.0922 2.3531 22.6362 2.42027 22.1801 2.48743C21.813 2.55919 21.445 2.63094 21.0779 2.7027C20.7431 2.76802 20.4126 2.85175 20.0812 2.93179C19.7525 3.01183 19.4246 3.08635 19.102 3.18571C18.7296 3.29979 18.3573 3.41478 17.9849 3.52886C17.5036 3.71378 17.024 3.89963 16.5427 4.08547C16.3151 4.17287 16.0936 4.2989 15.8721 4.40378C15.6541 4.50682 15.4361 4.61078 15.2172 4.71474C14.6007 5.06894 13.9781 5.41211 13.379 5.79851C12.6465 6.28795 11.9472 6.8243 11.2775 7.40574C10.6183 7.99914 9.99653 8.63119 9.40706 9.30003C8.78009 10.0333 8.20021 10.8033 7.66218 11.6102C7.20264 12.3222 6.77974 13.0564 6.39868 13.8191C6.08563 14.4714 5.80571 15.1374 5.5633 15.8219C5.39238 16.338 5.24676 16.8578 5.13166 17.3905C5.02964 17.9241 4.95464 18.4614 4.90493 19.0042C4.8718 19.4725 4.86221 19.9389 4.87617 20.409C4.89971 20.8451 4.94243 21.2775 5.00608 21.709C5.09154 22.2003 5.20316 22.6833 5.33745 23.1626C5.50051 23.698 5.69148 24.2197 5.9086 24.733C6.17456 25.3246 6.47716 25.8904 6.80416 26.4461C7.20179 27.0965 7.63604 27.7184 8.10082 28.3164C8.56124 28.8877 9.05042 29.4269 9.56926 29.9393C10.232 30.5713 10.9322 31.151 11.6621 31.6938C12.2367 32.1059 12.8297 32.4776 13.4453 32.8152C14.1682 33.197 14.9085 33.5319 15.6689 33.8226C16.411 34.0922 17.1644 34.313 17.93 34.4942C18.4959 34.6203 19.0697 34.7123 19.6391 34.8171C19.8676 34.8595 20.1056 34.8714 20.3358 34.8981C20.6 34.9285 20.8634 34.9588 21.1285 34.9883C21.6465 35.0122 22.167 35.0306 22.6859 35.049Z" fill="black"/>
<path d="M21.5087 16.3712C20.9585 16.3574 20.4745 15.8504 20.5024 15.2589C20.5669 13.9019 20.6942 12.5504 20.8294 11.2008C20.8974 10.5282 20.9785 9.85848 21.0683 9.18872C21.1154 8.84464 21.1704 8.50332 21.2279 8.162C21.2532 8.01112 21.2855 7.86117 21.316 7.71213C21.3753 7.42049 21.4651 7.08928 21.6918 6.88872C22.0153 6.6026 22.4129 6.50509 22.8132 6.67713C22.9388 6.73141 23.0565 6.82064 23.1498 6.92552C23.4463 7.25396 23.5073 7.74156 23.3364 8.13532C23.3338 8.14452 23.3312 8.15464 23.3286 8.16384C23.1524 9.05992 23.0364 9.9698 22.9353 10.8778C22.8341 11.7914 22.7496 12.7068 22.6728 13.6231C22.6283 14.1843 22.59 14.7464 22.5638 15.3086C22.5359 15.8918 22.0947 16.3712 21.5322 16.3712C21.5244 16.3712 21.5165 16.3712 21.5087 16.3712Z" fill="black"/>
<path d="M27.9798 14.5238C27.7078 14.5173 27.4462 14.395 27.2587 14.1871C27.0634 13.9718 26.9814 13.7041 26.9735 13.4115C26.9395 12.1796 26.9456 10.9478 26.9587 9.71587C26.9648 9.09671 26.9727 8.47663 26.9919 7.85747C27.0032 7.52719 27.0145 7.19692 27.0276 6.86572C27.0381 6.58328 27.0372 6.29624 27.066 6.01472C27.1253 5.425 27.7025 5.01835 28.2397 5.10391C28.5109 5.14715 28.7585 5.30724 28.919 5.54092C29.0689 5.75896 29.123 6.01011 29.109 6.27231C29.1108 6.25023 29.1134 6.22724 29.1152 6.20516C29.0751 6.79028 29.0698 7.38183 29.0506 7.96879C29.0306 8.59531 29.0253 9.22367 29.0184 9.85111C29.0044 11.0545 29.0018 12.2578 29.0341 13.4612C29.0498 14.0454 28.5335 14.5229 28.0007 14.5229C27.9938 14.5247 27.9868 14.5247 27.9798 14.5238Z" fill="black"/>
<path d="M23.1751 79.359C20.934 79.2605 18.6878 79.1262 16.4563 78.8833C15.3149 78.7582 14.1804 78.6055 13.052 78.3791C12.555 78.2798 12.0501 78.1685 11.5792 77.9725C11.3263 77.8667 11.0447 77.749 10.8363 77.5576C10.5982 77.3396 10.402 77.1068 10.273 76.7995C10.1291 76.4591 10.0942 76.0874 10.0785 75.7194C10.0646 75.4076 10.0628 75.1003 10.075 74.7893C10.1212 73.6936 10.2128 72.5979 10.28 71.504C10.3497 70.3531 10.4212 69.2022 10.4936 68.0503C10.6366 65.7752 10.8058 63.5009 10.9714 61.2267C11.1415 58.8972 11.3011 56.5669 11.4563 54.2365C11.6141 51.8556 11.7763 49.4737 11.9681 47.0964C12.1696 44.6032 12.3841 42.1109 12.6012 39.6186C12.6849 38.6591 12.7695 37.6995 12.8541 36.74C12.8951 36.28 12.9352 35.82 12.9753 35.36C12.9962 35.1226 13.0172 34.8871 13.0364 34.6497C13.0529 34.4501 13.0634 34.2431 13.1357 34.0572C13.3267 33.5595 13.8822 33.2863 14.3722 33.4344C14.8841 33.588 15.1771 34.1235 15.1021 34.658C15.103 34.6552 15.1038 34.6516 15.1047 34.6488C15.048 35.0067 15.0402 35.3802 15.0079 35.7408C14.9661 36.2183 14.9242 36.6949 14.8824 37.1714C14.803 38.0666 14.7237 38.9627 14.646 39.8588C14.4795 41.7742 14.3156 43.6887 14.1534 45.6042C13.9702 47.8766 13.7906 50.1499 13.6398 52.425C13.4767 54.8824 13.3145 57.3406 13.1392 59.7961C12.977 62.0731 12.7992 64.3473 12.6492 66.6252C12.4975 68.9041 12.3649 71.1848 12.221 73.4645C12.1809 74.1094 12.1225 74.7544 12.1233 75.4002C12.1303 75.5575 12.139 75.7148 12.1539 75.8712C12.2079 75.8979 12.2637 75.9228 12.3195 75.9458C12.6152 76.046 12.9125 76.1288 13.2151 76.2006C13.8133 76.3202 14.4106 76.4398 15.0158 76.5189C15.7352 76.6137 16.4528 76.6993 17.174 76.7765C18.979 76.9357 20.7849 77.0562 22.5943 77.1565C24.3872 77.2558 26.1782 77.2457 27.9711 77.1795C29.4605 77.105 30.9524 77.0194 32.4357 76.8529C33.9138 76.6882 35.3848 76.4757 36.8507 76.2153C36.8297 76.219 36.8079 76.2227 36.787 76.2273C37.4672 76.1031 38.1621 76.001 38.8283 75.805C38.8536 75.7949 38.8789 75.7848 38.9042 75.7746C38.9234 75.7645 38.9426 75.7535 38.9618 75.7434C38.974 75.7314 38.9853 75.7194 38.9975 75.7075C39.0045 75.6992 39.0115 75.69 39.0193 75.6817C39.0158 75.6863 39.0132 75.6909 39.0106 75.6955L39.0141 75.6918C39.0341 75.6596 39.0533 75.6265 39.0717 75.5925C39.1135 75.4986 39.151 75.4039 39.185 75.3073C39.2312 75.1472 39.2731 74.9881 39.3106 74.8252C39.3934 74.3891 39.4396 73.9521 39.4859 73.5105C39.5452 72.4479 39.5757 71.3844 39.5626 70.319C39.5486 69.147 39.5155 67.9767 39.4736 66.8056C39.4754 66.8525 39.4771 66.8985 39.478 66.9445C39.2844 62.2782 39.0106 57.6102 38.4656 52.9734C38.1831 50.5602 37.8631 48.1516 37.5448 45.7431C37.2413 43.444 36.9701 41.1422 36.726 38.8348C36.4748 36.4538 36.2429 34.0701 35.956 31.6928C35.8854 31.105 36.324 30.5576 36.8733 30.4978C37.441 30.4352 37.9354 30.8777 38.0061 31.4656C38.2668 33.6267 38.4822 35.7942 38.708 37.959C38.9487 40.2682 39.212 42.5746 39.5111 44.8755C39.812 47.1856 40.1346 49.4921 40.4058 51.8059C40.6805 54.1473 40.9159 56.4933 41.0868 58.8457C41.2604 61.2331 41.3981 63.6205 41.4984 66.0125C41.597 68.387 41.7025 70.7772 41.569 73.1526C41.5263 73.9006 41.467 74.655 41.3005 75.3855C41.1583 76.0157 40.9552 76.6376 40.5488 77.1362C40.3892 77.3304 40.1878 77.5227 39.9689 77.6413C39.7326 77.7683 39.4954 77.8612 39.2417 77.9394C39.022 78.0066 38.7926 78.0452 38.5676 78.0921C38.306 78.1464 38.0427 78.1961 37.7802 78.2458C37.2788 78.3405 36.7765 78.4298 36.2725 78.5135C34.123 78.8695 31.9657 79.1087 29.7944 79.2504C28.3303 79.3452 26.8654 79.4031 25.3995 79.4031C24.6592 79.4059 23.9172 79.3912 23.1751 79.359Z" fill="black"/>
<path d="M11.6316 105.83C11.1555 105.633 10.7421 105.284 10.396 104.894C9.98437 104.429 9.6722 103.844 9.50652 103.232C9.17952 102.019 9.35741 100.576 10.3114 99.7223C10.8782 99.2153 11.6534 99.1537 12.3676 99.1482C12.807 99.1445 13.2422 99.2383 13.6694 99.3331C14.0967 99.4278 14.5214 99.5521 14.9312 99.7131C15.6637 99.9983 16.3369 100.43 17.065 100.725C17.0703 100.727 17.0763 100.729 17.0816 100.731C17.1121 100.536 17.1313 100.34 17.1496 100.143C17.3153 97.9651 17.4618 95.7856 17.6231 93.607C17.7966 91.2684 17.9902 88.9316 18.2021 86.5957C18.434 84.0473 18.646 81.4952 18.9337 78.9523C19 78.3635 19.5659 77.9551 20.1074 78.0416C20.676 78.1326 21.037 78.692 20.9707 79.2798C20.7579 81.1622 20.5949 83.0519 20.4213 84.9388C20.2452 86.8616 20.0717 88.7853 19.9104 90.7109C19.9112 90.6952 19.913 90.6796 19.9138 90.664C19.9112 90.6906 19.9095 90.7173 19.9077 90.7431C19.906 90.7633 19.9042 90.7826 19.9025 90.8029C19.9034 90.7882 19.9051 90.7725 19.9069 90.7578C19.7281 93.0182 19.5659 95.2805 19.4028 97.5419C19.3636 98.0847 19.3244 98.6265 19.286 99.1684C19.2441 99.7416 19.218 100.319 19.1439 100.889C19.116 101.108 19.0785 101.325 19.0061 101.532C18.9014 101.83 18.7541 102.089 18.5727 102.342C18.4916 102.455 18.3983 102.554 18.2954 102.64C18.3093 102.853 18.2649 103.072 18.1533 103.265C17.7338 103.991 17.2045 104.629 16.5462 105.122C15.6812 105.769 14.6557 106.069 13.6084 106.134C13.4968 106.141 13.3852 106.145 13.2753 106.145C12.7129 106.145 12.167 106.051 11.6316 105.83ZM13.4096 103.971C13.6075 103.957 13.8046 103.939 14.0017 103.91C14.1787 103.874 14.354 103.831 14.5275 103.779C14.6417 103.739 14.7533 103.693 14.8641 103.643C14.9888 103.579 15.1117 103.509 15.2312 103.434C15.3559 103.348 15.4762 103.256 15.5931 103.158C15.6968 103.061 15.7963 102.961 15.8913 102.855C15.948 102.787 16.0029 102.717 16.057 102.646C15.8869 102.569 15.7212 102.487 15.5591 102.406C15.0777 102.165 14.6025 101.908 14.1054 101.706C13.8281 101.617 13.55 101.534 13.2674 101.462C13.0477 101.414 12.8288 101.37 12.6074 101.338C12.4678 101.329 12.3292 101.323 12.1888 101.323C12.0562 101.332 11.9246 101.343 11.7929 101.36C11.7371 101.371 11.6821 101.382 11.6272 101.394C11.6228 101.398 11.6194 101.402 11.615 101.406C11.5993 101.426 11.5836 101.446 11.5688 101.467C11.5496 101.501 11.5304 101.536 11.5112 101.57C11.499 101.597 11.4877 101.625 11.4772 101.653C11.465 101.697 11.4528 101.739 11.4415 101.781C11.4319 101.835 11.424 101.889 11.4188 101.943C11.4153 102.008 11.4136 102.072 11.4136 102.137C11.4205 102.245 11.4319 102.351 11.4458 102.457C11.4581 102.518 11.4729 102.579 11.4886 102.64C11.5104 102.709 11.5339 102.777 11.5601 102.844C11.6019 102.936 11.6464 103.025 11.6935 103.114C11.7449 103.195 11.799 103.273 11.8548 103.351C11.9124 103.419 11.9708 103.484 12.0318 103.549C12.0903 103.601 12.1495 103.652 12.2106 103.7C12.2455 103.723 12.2803 103.745 12.3161 103.767C12.3797 103.799 12.4443 103.828 12.5097 103.857C12.5795 103.88 12.6492 103.901 12.7198 103.919C12.8009 103.935 12.8812 103.948 12.9631 103.96C13.1122 103.971 13.2596 103.974 13.4096 103.971Z" fill="black"/>
<path d="M35.4694 104.995C34.9175 104.868 34.396 104.68 33.8937 104.406C32.9528 103.89 32.2195 103.044 31.7033 102.077C31.5812 101.849 31.5541 101.589 31.6047 101.345C31.3893 101.098 31.2638 100.778 31.2193 100.446C31.1347 99.8207 31.1408 99.1804 31.1208 98.5493C31.1042 98.012 31.0885 97.4756 31.0745 96.9383C31.0118 94.6199 30.9629 92.3006 30.9228 89.9813C30.8775 87.3648 30.8347 84.7483 30.7406 82.1337C30.7057 81.3646 30.649 80.5927 30.6377 79.8226C30.6298 79.2292 31.1469 78.7472 31.6919 78.761C32.2692 78.7748 32.6904 79.2808 32.6991 79.8733C32.6991 79.8825 32.6991 79.8926 32.6991 79.9018C32.747 81.0039 32.8063 82.107 32.8377 83.2092C32.8744 84.4622 32.904 85.7152 32.9293 86.9683C32.9764 89.237 33.0069 91.5048 33.0566 93.7726C33.0976 95.6246 33.1403 97.4775 33.2049 99.3303C33.5013 99.1611 33.7952 98.9863 34.0987 98.8308C34.553 98.5989 35.0221 98.4149 35.5165 98.3018C36.1025 98.1684 36.7234 98.1647 37.3163 98.2457C37.4846 98.2687 37.6521 98.2916 37.8195 98.3137C38.1282 98.356 38.4194 98.4471 38.7107 98.5566C39.2775 98.771 39.7928 99.1684 40.207 99.6211C40.5419 99.9872 40.8104 100.464 40.9264 100.959C41.0494 101.486 41.0389 102.007 40.8976 102.528C40.6203 103.549 39.7667 104.389 38.8528 104.784C38.5397 104.919 38.2049 105.029 37.8683 105.079C37.5666 105.125 37.2675 105.143 36.9623 105.153C36.9109 105.155 36.8603 105.156 36.8088 105.156C36.3606 105.156 35.9028 105.094 35.4694 104.995ZM37.1585 102.974C37.298 102.962 37.4358 102.947 37.5736 102.927C37.6887 102.899 37.8012 102.869 37.9137 102.835C37.9703 102.814 38.0261 102.791 38.0811 102.767C38.1482 102.733 38.2145 102.698 38.2799 102.659C38.3662 102.597 38.4508 102.533 38.5328 102.465C38.5886 102.412 38.6418 102.358 38.6941 102.303C38.7351 102.251 38.7734 102.2 38.8109 102.146C38.831 102.113 38.8493 102.08 38.8676 102.046C38.8816 102.016 38.8938 101.985 38.906 101.954C38.9208 101.904 38.9348 101.854 38.947 101.803C38.9505 101.782 38.9531 101.761 38.9557 101.74C38.9566 101.716 38.9566 101.692 38.9566 101.668C38.9548 101.64 38.9522 101.612 38.9487 101.583C38.9417 101.55 38.9347 101.517 38.926 101.484C38.9191 101.464 38.9121 101.444 38.9042 101.423C38.8789 101.371 38.8519 101.318 38.824 101.268C38.8048 101.238 38.7839 101.209 38.763 101.18C38.7089 101.117 38.654 101.056 38.5964 100.997C38.531 100.939 38.4639 100.883 38.395 100.83C38.3122 100.774 38.2284 100.722 38.143 100.672C38.0445 100.624 37.9459 100.579 37.8456 100.538C37.809 100.528 37.7724 100.517 37.7358 100.506C37.4532 100.448 37.1646 100.412 36.8777 100.382C36.7173 100.373 36.5586 100.368 36.3981 100.372C36.2813 100.381 36.1662 100.393 36.0502 100.409C35.9159 100.436 35.7842 100.468 35.6525 100.507C35.4712 100.572 35.2942 100.645 35.118 100.725C34.6646 100.96 34.226 101.223 33.7777 101.469C33.8222 101.534 33.8685 101.598 33.9155 101.662C34.0341 101.805 34.1597 101.942 34.2905 102.075C34.3603 102.137 34.4309 102.199 34.5033 102.257C34.6532 102.359 34.8067 102.456 34.9637 102.545C35.084 102.603 35.2061 102.656 35.3299 102.706C35.4686 102.755 35.6081 102.798 35.7502 102.837C36.0188 102.894 36.2874 102.939 36.5603 102.968C36.7591 102.976 36.9579 102.978 37.1585 102.974Z" fill="black"/>
<path d="M21.1434 7.02947C20.1144 6.99635 19.0881 6.92275 18.0765 6.71483C17.1147 6.51795 16.159 6.2171 15.3393 5.63474C15.1736 5.5179 15.0062 5.38544 14.8702 5.22996C14.6967 5.034 14.5615 4.83067 14.4377 4.59607C14.2589 4.25935 14.0732 3.89595 14.0566 3.50035C14.0453 3.21055 14.1002 2.94099 14.2755 2.70915C14.4464 2.48191 14.7001 2.33564 14.9739 2.30528C15.5067 2.2464 16.0823 2.68062 16.1067 3.2731C16.1067 3.27586 16.1067 3.27863 16.1067 3.28139C16.1076 3.28323 16.1084 3.28599 16.1093 3.28783C16.1712 3.41295 16.2366 3.5353 16.302 3.65766C16.3055 3.66318 16.309 3.66871 16.3125 3.67423C16.3273 3.69079 16.3421 3.70735 16.3569 3.72391C16.3909 3.75427 16.4258 3.78372 16.4616 3.81224C16.5741 3.8886 16.6874 3.95942 16.8043 4.02658C16.9743 4.11214 17.1461 4.19127 17.3222 4.26395C17.6222 4.37159 17.9248 4.45623 18.2335 4.53075C18.6224 4.61447 19.0122 4.68347 19.4072 4.73775C19.9069 4.78375 20.403 4.82882 20.9044 4.84538C21.4782 4.8647 22.0476 4.86286 22.6223 4.8555C23.0539 4.82974 23.4847 4.80583 23.9154 4.75891C24.3689 4.70831 24.8162 4.64391 25.267 4.57491C25.7484 4.48199 26.2297 4.39275 26.705 4.27131C27.236 4.13515 27.761 3.98518 28.2833 3.8205C29.1431 3.51782 29.9776 3.16546 30.8042 2.77354C30.7632 2.79286 30.7223 2.81311 30.6822 2.83335C31.3955 2.48835 32.0992 2.12587 32.8011 1.75327C33.3016 1.48647 33.9251 1.66403 34.1972 2.19579C34.4571 2.70731 34.2783 3.40283 33.7769 3.66871C32.8194 4.17747 31.8541 4.66508 30.8714 5.1168C29.8598 5.58324 28.8117 5.93467 27.7479 6.24195C27.2499 6.38547 26.739 6.49863 26.2306 6.59707C25.6856 6.70103 25.138 6.81051 24.5869 6.87123C24.3087 6.90159 24.0297 6.94483 23.7515 6.96231C23.421 6.98255 23.0914 7.00279 22.7609 7.02303C22.5019 7.03867 22.2412 7.04511 21.9796 7.04511C21.6997 7.04603 21.4207 7.03867 21.1434 7.02947Z" fill="black"/>
<path d="M5.69412 25.5629C5.12296 25.5491 4.68784 25.0431 4.68784 24.4506C4.68784 24.0762 4.90059 23.7689 5.10638 23.4846C5.44907 23.0108 5.93131 22.6538 6.38737 22.3098C6.60973 22.1414 6.83295 21.9841 7.06665 21.8341C7.30209 21.6842 7.53229 21.5259 7.77645 21.3953C8.06683 21.2398 8.35896 21.0843 8.65021 20.9288C8.92751 20.7816 9.22486 20.6712 9.51087 20.5461C9.7001 20.4633 9.88758 20.375 10.082 20.3069C10.4378 20.1809 10.7944 20.0539 11.1502 19.927C11.7109 19.7273 12.2891 19.5792 12.8585 19.4127C13.4 19.2544 13.9528 19.1321 14.5004 18.9968C15.5634 18.7319 16.6386 18.5313 17.7138 18.3308C18.2649 18.2286 18.8256 18.1771 19.3802 18.1035C19.6235 18.0722 19.8737 18.0713 20.1187 18.0557C20.4388 18.0354 20.7614 18.0005 21.0814 17.9959C22.1688 17.983 23.2536 17.9766 24.341 18.0299C26.5994 18.1403 28.8466 18.3998 31.0789 18.7779C32.1532 18.96 33.2275 19.1459 34.2879 19.4053C35.3125 19.6546 36.3301 19.9316 37.3434 20.226C38.3436 20.5167 39.3306 20.8442 40.2986 21.237C41.2351 21.6179 42.1237 22.0862 42.9721 22.6511C43.4465 22.9676 43.6209 23.6263 43.327 24.1433C43.0436 24.642 42.387 24.8342 41.9135 24.5168C41.5743 24.2914 41.229 24.078 40.8758 23.8793C40.2367 23.5398 39.5774 23.2666 38.906 23.009C37.2239 22.4008 35.4964 21.9307 33.7655 21.5066C31.3013 20.9583 28.8056 20.5986 26.3012 20.3318C25.478 20.2683 24.654 20.2011 23.8282 20.1827C23.3818 20.1726 22.9353 20.1487 22.4897 20.1542C22.0214 20.1588 21.5514 20.1643 21.0832 20.1708C20.5905 20.202 20.0978 20.2342 19.606 20.2655C19.3697 20.2812 19.1334 20.3272 18.8988 20.3584C18.639 20.3934 18.3782 20.4265 18.1175 20.4606C17.1348 20.6427 16.1485 20.8203 15.178 21.0622C14.6234 21.2002 14.0679 21.3401 13.5125 21.4772C13.0058 21.6032 12.5062 21.7697 12.0039 21.9178C11.5784 22.0687 11.1528 22.2205 10.7264 22.3714C10.5625 22.4303 10.4029 22.5103 10.2433 22.5802C10.021 22.6778 9.79949 22.7753 9.57713 22.8728C9.26757 23.0384 8.95888 23.2031 8.64845 23.3678C8.39644 23.5021 8.15838 23.6723 7.91858 23.8305C7.63082 24.0476 7.34306 24.2611 7.06489 24.4911C6.9681 24.5785 6.87568 24.6668 6.78412 24.7606C6.74226 24.8131 6.70128 24.8664 6.66117 24.9207C6.49636 25.2979 6.12227 25.5638 5.71679 25.5638C5.70894 25.5638 5.70196 25.5638 5.69412 25.5629Z" fill="black"/>
<path d="M19.8554 33.3691C19.6513 32.3359 19.5441 31.2788 19.4368 30.2309C19.3235 29.1104 19.2267 27.988 19.149 26.8638C19.0749 25.7726 19.0156 24.6806 18.9581 23.5876C18.931 23.054 18.9005 22.5195 18.877 21.9859C18.8639 21.6952 18.8482 21.4045 18.8395 21.1147C18.829 20.7476 18.788 20.3584 18.843 19.9941C18.9154 19.512 19.2903 19.1275 19.7533 19.0769C19.9739 19.052 20.2007 19.1036 20.3908 19.225C20.6376 19.3814 20.7841 19.6224 20.8643 19.9076C20.866 19.915 20.8686 19.9242 20.8704 19.9316C20.9148 20.0907 20.9148 20.2526 20.8817 20.4072C20.8808 20.6501 20.8913 20.8939 20.8992 21.1368C20.9864 23.1074 21.0927 25.0771 21.2279 27.045C21.2924 27.988 21.3788 28.9292 21.4738 29.8694C21.5628 30.7443 21.6587 31.6201 21.7912 32.4895C21.8139 32.6156 21.8365 32.7407 21.8618 32.8658C21.9752 33.4454 21.6552 34.0361 21.0971 34.1759C21.0221 34.1943 20.9454 34.2035 20.8695 34.2035C20.4047 34.2044 19.9539 33.8686 19.8554 33.3691Z" fill="black"/>
<path d="M26.9884 35.4639C26.766 35.2772 26.6465 35.0186 26.6047 34.727C26.446 33.6175 26.3597 32.4969 26.2629 31.381C26.1617 30.2218 26.0745 29.0616 25.9951 27.9006C25.9202 26.7957 25.8643 25.6889 25.805 24.5831C25.7353 23.2914 25.6429 22.0016 25.5993 20.709C25.5836 20.2241 25.6507 19.7255 26.0501 19.42C26.2454 19.2701 26.4617 19.2167 26.6971 19.2084C27.2595 19.19 27.7165 19.7531 27.7043 20.3216C27.7016 20.421 27.6868 20.5185 27.6589 20.6124C27.6589 20.6768 27.6598 20.7412 27.6615 20.8056C27.7226 22.0154 27.7932 23.2233 27.8586 24.4322C27.9179 25.5233 27.9728 26.6135 28.047 27.7037C28.1254 28.8537 28.2118 30.0037 28.312 31.1528C28.4097 32.2688 28.496 33.3893 28.6547 34.4988C28.7385 35.084 28.278 35.6341 27.7374 35.6939C27.7025 35.6976 27.6676 35.6994 27.6328 35.6994C27.4008 35.7004 27.1715 35.6176 26.9884 35.4639Z" fill="black"/>
<path d="M33.572 32.9348C33.2999 32.9284 33.0383 32.806 32.8499 32.5981C32.6555 32.3828 32.5727 32.1142 32.5657 31.8216C32.5221 30.0635 32.4872 28.3036 32.4497 26.5445C32.4113 24.779 32.3573 23.0145 32.3712 21.2499C32.3756 20.6565 32.87 20.1744 33.4255 20.1882C33.9931 20.202 34.437 20.708 34.4317 21.3005C34.4178 23.0467 34.4701 24.7928 34.5094 26.539C34.5477 28.3174 34.5826 30.0948 34.6262 31.8741C34.6401 32.4583 34.1257 32.9358 33.5929 32.9358C33.5859 32.9348 33.5789 32.9348 33.572 32.9348Z" fill="black"/>
<path d="M15.5625 32.8658C15.3393 32.6772 15.2233 32.4206 15.1789 32.1289C15.1501 31.9403 15.1213 31.7517 15.0908 31.5631C14.9539 30.7462 14.7847 29.9338 14.6958 29.1095C14.6051 28.2622 14.5807 27.4038 14.5388 26.5528C14.4961 25.6862 14.4647 24.8177 14.4281 23.951C14.4115 23.561 14.3906 23.1709 14.3662 22.7817C14.3365 22.3245 14.3138 21.8645 14.2563 21.41C14.2327 21.3162 14.2197 21.2186 14.2197 21.1174C14.2197 21.0098 14.238 20.939 14.2606 20.8341C14.34 20.4615 14.6696 20.1625 15.0123 20.076C15.3629 19.9886 15.75 20.1036 15.9959 20.3833C16.3465 20.7798 16.3273 21.3695 16.3709 21.8783C16.3988 22.2132 16.4171 22.5499 16.4345 22.8848C16.4764 23.71 16.5121 24.5343 16.5453 25.3596C16.5741 26.0762 16.6098 26.7938 16.6499 27.5105C16.6909 28.218 16.7363 28.92 16.8435 29.6192C16.9769 30.38 17.1129 31.1381 17.228 31.9017C17.317 32.4868 16.847 33.0379 16.3107 33.0968C16.275 33.1004 16.2392 33.1023 16.2043 33.1023C15.9741 33.1023 15.7448 33.0195 15.5625 32.8658Z" fill="black"/>
<path d="M10.007 30.4499C9.44547 30.4361 8.98852 29.9301 9.00073 29.3376C9.02602 28.1435 9.05392 26.9484 9.08705 25.7533C9.11932 24.5592 9.14375 23.3632 9.27717 22.1754C9.34257 21.5866 9.91022 21.1782 10.4509 21.2637C11.0203 21.3557 11.3804 21.9151 11.315 22.503C11.2985 22.6492 11.2836 22.7955 11.2688 22.9427C11.1903 23.9667 11.1676 24.9943 11.1424 26.021C11.1144 27.1434 11.0857 28.2658 11.0621 29.3873C11.0499 29.9715 10.5817 30.449 10.0306 30.449C10.0227 30.4499 10.0149 30.4499 10.007 30.4499Z" fill="black"/>
<path d="M37.7541 28.7498C37.6119 27.7083 37.4933 26.6623 37.3878 25.6162C37.3364 25.1084 37.2788 24.5987 37.2457 24.089C37.2099 23.5398 37.1646 22.9924 37.2143 22.4432C37.2684 21.8525 37.8561 21.4468 38.388 21.5314C38.6592 21.5747 38.9069 21.7348 39.0682 21.9684C39.2225 22.1948 39.2722 22.4505 39.2557 22.721C39.2469 22.893 39.2513 23.0651 39.2548 23.2371C39.3708 25.0044 39.5643 26.7708 39.8041 28.5234C39.8835 29.1095 39.4292 29.6587 38.8868 29.7185C38.8502 29.7222 38.8135 29.725 38.7778 29.725C38.2528 29.724 37.8282 29.2999 37.7541 28.7498Z" fill="black"/>
<path d="M5.94699 64.4062C5.69237 64.1247 5.51185 63.6812 5.58335 63.2875C5.62521 63.0538 5.67405 62.8404 5.81793 62.6499C5.95658 62.4668 6.1275 62.3049 6.32283 62.1936C6.74051 61.9572 7.19394 61.7787 7.63256 61.5901C8.42084 61.2506 9.2135 60.9203 9.99394 60.5606C10.0471 60.533 10.1003 60.5063 10.1535 60.4787C9.74892 60.0896 9.34778 59.6958 8.94492 59.3039C8.9798 59.337 9.01382 59.3701 9.0487 59.4032C8.28309 58.6645 7.49653 57.9552 6.69342 57.2615C5.83886 56.5236 4.9939 55.7738 4.17335 54.9946C3.76351 54.6054 3.3519 54.2144 2.96386 53.8023C2.22005 53.0102 1.48061 52.2144 0.895499 51.2796C0.532747 50.701 0.250222 50.0763 0.0915176 49.4019C-0.0759064 48.6981 0.00256938 47.9695 0.196153 47.2822C0.430721 46.4515 0.891999 45.709 1.34108 44.9924C1.76574 44.3152 2.26714 43.6906 2.80255 43.1091C3.36324 42.5001 3.96929 41.9518 4.5858 41.4071C5.14475 40.9122 5.72028 40.4384 6.28969 39.9572C6.85213 39.4816 7.40933 38.9976 7.9648 38.5128C8.8429 37.7188 9.71053 36.912 10.5825 36.1107C11.1083 35.6277 11.6377 35.1539 12.1783 34.6902C12.3815 34.5163 12.5925 34.3461 12.807 34.1879C13.148 33.9376 13.4898 33.6653 13.9232 33.6653C14.4856 33.6653 14.9425 34.1952 14.9303 34.7776C14.9199 35.221 14.6583 35.5872 14.2964 35.7491C14.2789 35.7602 14.2624 35.7703 14.2449 35.7813C13.7348 36.1585 13.2526 36.567 12.7695 36.981C11.6324 38.0261 10.5015 39.0777 9.35652 40.1136C8.25518 41.109 7.10675 42.0502 5.97664 43.0098C5.98885 42.9987 6.00105 42.9877 6.01326 42.9766C5.69585 43.2572 5.37497 43.5342 5.06802 43.8295C4.88839 44.0024 4.69916 44.168 4.52912 44.353C4.35733 44.5406 4.18467 44.7265 4.01288 44.9142C3.85069 45.1166 3.68851 45.318 3.52632 45.5204C3.37634 45.7072 3.24639 45.9133 3.11036 46.1111C2.87056 46.4929 2.63426 46.8756 2.42847 47.2804C2.34825 47.4534 2.27411 47.6282 2.20435 47.8066C2.16511 47.9318 2.13026 48.0569 2.09886 48.1857C2.08317 48.2749 2.07096 48.3642 2.06137 48.4543C2.06486 48.4083 2.06834 48.3614 2.0727 48.3154C2.06137 48.4138 2.057 48.5114 2.057 48.6098C2.06136 48.6724 2.06747 48.7358 2.07619 48.7984C2.09014 48.8757 2.10669 48.953 2.12587 49.0293C2.1686 49.1636 2.21483 49.2952 2.26628 49.4268C2.34824 49.6062 2.43631 49.78 2.53311 49.953C2.72931 50.2704 2.94207 50.5712 3.16792 50.8656C3.7975 51.6458 4.49946 52.3524 5.20403 53.0562C6.25392 54.0479 7.33348 54.9983 8.42086 55.945C9.48209 56.8696 10.4849 57.8595 11.4964 58.842C11.4894 58.8356 11.4833 58.8292 11.4763 58.8227C11.6595 58.9994 11.8435 59.1742 12.0292 59.3471C12.1312 59.4428 12.242 59.533 12.3361 59.636C12.5306 59.8485 12.6945 60.13 12.7172 60.4318C12.7407 60.7474 12.7015 61.0473 12.5437 61.3242C12.535 61.3389 12.5262 61.3536 12.5175 61.3684C12.4443 61.557 12.3196 61.7124 12.1644 61.8486C11.5287 62.4061 10.9026 62.9839 10.232 63.4945C9.69921 63.8993 9.15421 64.2719 8.54817 64.547C8.0956 64.7521 7.61163 64.8432 7.12157 64.8542C7.10936 64.8542 7.09803 64.8542 7.08583 64.8542C6.68645 64.8542 6.22778 64.7162 5.94699 64.4062Z" fill="black"/>
<path d="M44.3664 64.5157C44.0316 64.5074 43.7229 64.3427 43.4386 64.1716C43.1413 63.994 42.8858 63.7383 42.632 63.4991C42.4027 63.2838 42.1786 63.0612 41.9589 62.8348C41.4758 62.338 41.0249 61.7962 40.6395 61.2101C40.3012 60.6958 40.0117 60.1264 39.8408 59.5247C39.6576 58.8807 39.6297 58.1594 39.8931 57.531C40.0143 57.2422 40.1599 56.9809 40.3648 56.749C40.4895 56.6083 40.6229 56.485 40.7607 56.359C40.9822 56.1575 41.2098 55.9652 41.4365 55.7702C42.2972 55.0268 43.1762 54.3064 44.0351 53.5603C44.0368 53.5585 44.0386 53.5576 44.0403 53.5557C45.221 52.506 46.4052 51.4471 47.4647 50.2594C47.742 49.9355 48.0027 49.5997 48.2434 49.2446C48.3463 49.0781 48.443 48.9106 48.532 48.7358C48.5826 48.6208 48.6296 48.5049 48.6732 48.3872C48.6933 48.3209 48.7107 48.2538 48.7264 48.1857C48.736 48.1314 48.7439 48.0762 48.75 48.0201C48.7509 47.9612 48.7517 47.9023 48.7526 47.8425C48.7491 47.7901 48.7439 47.7376 48.7369 47.6852C48.7055 47.526 48.6663 47.3715 48.6244 47.216C48.5145 46.8756 48.3942 46.5426 48.2643 46.2104C48.0794 45.8029 47.8762 45.4119 47.6574 45.0236C47.4629 44.7173 47.2658 44.4164 47.0574 44.1193C46.8848 43.8718 46.699 43.6354 46.515 43.3971C45.2428 41.8533 43.9034 40.3721 42.6111 38.8477C41.91 38.0197 41.2089 37.1917 40.5087 36.3628C40.1677 35.9589 39.8129 35.5688 39.4649 35.1714C39.015 34.6571 38.5397 34.1538 38.0567 33.6727C37.9145 33.5383 37.7715 33.4068 37.6224 33.2808C37.2361 33.2016 36.9065 32.8898 36.8071 32.4656C36.7748 32.3276 36.7661 32.1722 36.7914 32.0323C36.8672 31.6174 37.155 31.2163 37.5718 31.1381C37.8238 31.0912 38.0296 31.0958 38.272 31.1887C38.5467 31.2945 38.7804 31.4748 39.008 31.6652C39.4449 32.0296 39.839 32.4583 40.2262 32.8796C40.6369 33.3249 41.0433 33.772 41.4435 34.2274C42.2065 35.0987 42.9503 35.9874 43.6994 36.8715C44.465 37.7759 45.2393 38.671 46.0163 39.5644C46.7296 40.385 47.469 41.19 48.1335 42.0557C48.8232 42.9546 49.506 43.8902 49.9751 44.9427C50.2228 45.4983 50.4513 46.0614 50.6134 46.6511C50.7547 47.1617 50.8506 47.6797 50.7992 48.2142C50.7277 48.9465 50.4582 49.6052 50.0964 50.2272C49.52 51.2171 48.7195 52.0377 47.9294 52.8363C47.5623 53.2079 47.1856 53.5704 46.8011 53.9219C45.9378 54.7131 45.0649 55.4914 44.1711 56.244C43.5136 56.7969 42.8535 57.348 42.2056 57.9128C42.1315 57.98 42.0582 58.0471 41.9859 58.1161C42.7506 58.9947 43.5197 59.8706 44.2479 60.7851C44.2461 60.7823 44.2435 60.7796 44.2417 60.7768C44.2452 60.7805 44.2478 60.7842 44.2505 60.7878C44.2775 60.8219 44.3045 60.8559 44.3316 60.89C44.315 60.8697 44.2993 60.8495 44.2827 60.8292C44.4336 61.0215 44.5801 61.2175 44.717 61.4208C44.8269 61.5846 44.935 61.7474 45.0379 61.9158C45.2184 62.2092 45.4198 62.5413 45.4939 62.8873C45.6038 63.3914 45.5184 63.9453 45.0963 64.2682C44.8992 64.4191 44.6307 64.5147 44.3865 64.5147C44.3813 64.5157 44.3734 64.5157 44.3664 64.5157Z" fill="black"/>
</svg>
