<svg width="53" height="107" viewBox="0 0 53 107" fill="none" xmlns="http://www.w3.org/2000/svg">
<path d="M22.5435 37.1954C22.2461 37.1852 21.9497 37.1742 21.6532 37.1641C21.3776 37.1539 21.0995 37.1033 20.8257 37.0721C20.5344 37.0389 20.2423 37.0058 19.9493 36.9718C19.6807 36.9414 19.4104 36.8724 19.1444 36.8227C18.8776 36.7731 18.6125 36.7243 18.3466 36.6746C17.5661 36.5293 16.7927 36.2928 16.0392 36.0361C14.6214 35.5522 13.2515 34.8935 11.9722 34.0867C11.3322 33.6828 10.7244 33.2173 10.1306 32.7398C9.50012 32.2347 8.90804 31.68 8.33862 31.1004C7.21374 29.9559 6.26152 28.632 5.44445 27.2299C4.63437 25.8389 4.04751 24.3153 3.69871 22.7247C3.35689 21.1671 3.34729 19.5608 3.54611 17.983C3.7458 16.3868 4.2472 14.8504 4.9012 13.4014C6.21356 10.4923 8.16858 7.88783 10.4916 5.80587C11.449 4.94659 12.4885 4.15539 13.5942 3.51967C14.1104 3.22343 14.6188 2.90603 15.155 2.65119C15.68 2.40187 16.1988 2.13599 16.7395 1.92807C17.0796 1.79651 17.4188 1.66587 17.7588 1.53523C17.9742 1.45243 18.1948 1.38987 18.4146 1.32179C18.7459 1.21967 19.0782 1.11755 19.4104 1.01635C19.6397 0.945508 19.8769 0.898589 20.1089 0.842469C20.3862 0.775309 20.6617 0.707228 20.9382 0.640068C21.2442 0.566468 21.559 0.519549 21.8677 0.458829C22.465 0.342909 23.0632 0.253669 23.6649 0.165349C23.8637 0.135909 24.059 0.114747 24.2587 0.0972675C24.5997 0.0687475 24.9424 0.0218303 25.2842 0.0153903C25.5737 0.0107903 25.865 0.0061879 26.1545 0.000667901C26.4326 -0.0039321 26.709 0.0163103 26.9863 0.0282703C27.4633 0.0503503 27.9368 0.0991081 28.4077 0.185588C28.7077 0.240788 29.0024 0.324511 29.2945 0.417431C29.4114 0.391671 29.5326 0.389831 29.6547 0.417431C31.7658 0.896751 33.8821 1.42759 35.9104 2.21603C36.9149 2.60703 37.8837 3.09555 38.822 3.63743C39.299 3.91251 39.7655 4.20875 40.212 4.53719C40.689 4.88771 41.1424 5.25847 41.5906 5.65039C42.4818 6.43055 43.2535 7.35331 43.9781 8.30183C44.6356 9.16203 45.2155 10.1142 45.6986 11.094C45.9698 11.6451 46.2288 12.2008 46.4485 12.7776C46.67 13.36 46.8479 13.9506 47.0005 14.5569C47.14 15.1117 47.2289 15.6784 47.2813 16.2497C47.3144 16.6131 47.3135 16.9811 47.3257 17.3454C47.3353 17.6527 47.3214 17.9729 47.2952 18.2801C47.2717 18.5534 47.2638 18.8312 47.2255 19.1026C47.1801 19.4136 47.147 19.7291 47.0816 20.0355C47.024 20.306 46.9822 20.5884 46.9054 20.8534C46.8182 21.1533 46.7441 21.4615 46.6377 21.7541C46.5418 22.0163 46.4581 22.2886 46.3482 22.5434C46.2174 22.8424 46.0962 23.1479 45.9523 23.4386C45.8189 23.71 45.6846 23.9805 45.5512 24.251C45.2844 24.7928 44.9591 25.3034 44.6443 25.815C44.3609 26.275 44.0462 26.7239 43.7069 27.1407C43.5134 27.379 43.3276 27.6283 43.1218 27.8555C42.8899 28.1094 42.6588 28.3633 42.4268 28.6173C42.0789 28.9991 41.6996 29.356 41.3229 29.7065C40.8459 30.1481 40.3628 30.5741 39.871 30.9955C39.4568 31.3506 39.0199 31.6744 38.59 32.0084C38.3869 32.1657 38.1636 32.3019 37.9517 32.4463C37.7355 32.5953 37.521 32.7499 37.2969 32.887C36.792 33.1961 36.2923 33.5098 35.7709 33.7895C35.4866 33.9422 35.2015 34.0949 34.9163 34.2486C34.6591 34.3875 34.387 34.4988 34.1245 34.623C33.8734 34.7408 33.6223 34.8595 33.3711 34.9772C33.106 35.1023 32.8244 35.1971 32.5532 35.3057C32.3116 35.4023 32.0701 35.4998 31.8277 35.5973C31.5469 35.7105 31.2487 35.7896 30.9609 35.8853C30.7045 35.9699 30.4491 36.0555 30.1918 36.1401C29.9058 36.2349 29.6111 36.3002 29.3207 36.3775C29.0172 36.4575 28.7138 36.5375 28.4112 36.6176C28.1749 36.6792 27.9298 36.7133 27.6909 36.7602C27.37 36.8218 27.0483 36.8853 26.7282 36.9479C26.4745 36.9975 26.2164 37.0169 25.96 37.0454C25.6356 37.0831 25.3112 37.119 24.986 37.1567C24.7366 37.1843 24.4785 37.1779 24.2282 37.1861C23.9099 37.1972 23.5925 37.2082 23.2734 37.2202C23.2402 37.2211 23.2062 37.222 23.1722 37.222C22.9638 37.2211 22.7519 37.2036 22.5435 37.1954ZM23.2899 35.0462C23.5507 35.0554 23.8192 35.0287 24.08 35.0186C24.3049 35.0103 24.5299 35.003 24.7549 34.9947C25.2798 34.9349 25.8057 34.8751 26.3306 34.8153C26.8555 34.7132 27.3805 34.6101 27.9063 34.508C28.188 34.4528 28.4687 34.359 28.7469 34.2854C29.0242 34.2127 29.3015 34.1382 29.5779 34.0655C29.9799 33.9312 30.3819 33.7987 30.7839 33.6653C31.1039 33.5595 31.4152 33.4335 31.73 33.3065C32.0718 33.1694 32.4198 33.0452 32.7537 32.8879C33.1514 32.7011 33.5499 32.5135 33.9475 32.3267C34.3661 32.1022 34.7829 31.8777 35.2015 31.6533C35.3759 31.5594 35.5433 31.4453 35.7124 31.3414C35.9261 31.2107 36.1389 31.0801 36.3534 30.9495C36.8504 30.61 37.3448 30.2733 37.8218 29.9025C38.0634 29.7157 38.3093 29.5345 38.5412 29.3349C38.8089 29.1049 39.0775 28.8758 39.3452 28.6458C39.7315 28.2879 40.1195 27.9337 40.491 27.5593C40.8913 27.1563 41.2749 26.7442 41.6577 26.3237C41.8592 26.0744 42.0606 25.826 42.2629 25.5767C42.3597 25.4571 42.4425 25.3209 42.5306 25.1949C42.6274 25.0578 42.7242 24.9207 42.821 24.7827C43.0529 24.4073 43.2858 24.0329 43.4985 23.6447C43.72 23.2417 43.9267 22.8351 44.1307 22.4229C44.2415 22.169 44.3513 21.9142 44.4621 21.6602C44.558 21.4394 44.633 21.2048 44.7132 20.9757C44.7847 20.7292 44.8562 20.4817 44.9277 20.2351C45.001 19.984 45.0402 19.7154 45.0943 19.4578C45.0864 19.4946 45.0786 19.5313 45.0716 19.5681C45.1109 19.2967 45.1501 19.0272 45.1902 18.7558C45.2277 18.4908 45.2356 18.2167 45.2574 17.949C45.253 17.9959 45.2504 18.0419 45.246 18.0879C45.2521 17.8229 45.2582 17.558 45.2643 17.293C45.2696 17.0842 45.2556 16.8725 45.246 16.6628C45.2242 16.3757 45.1937 16.0915 45.1527 15.8081C45.0795 15.3978 44.9792 14.9994 44.8789 14.5965C44.81 14.3803 44.742 14.1641 44.6731 13.9488C44.5999 13.7179 44.5005 13.4916 44.4141 13.2652C44.2249 12.8374 44.0278 12.4179 43.822 11.9984C43.6232 11.5954 43.3921 11.2099 43.1637 10.8235C42.787 10.2467 42.3946 9.69011 41.9795 9.14455C41.5688 8.65235 41.145 8.18223 40.7003 7.72407C40.4212 7.46095 40.1396 7.20427 39.8518 6.95127C39.5728 6.70747 39.2737 6.49035 38.9763 6.27231C38.4924 5.94479 38.0015 5.64027 37.4983 5.34771C36.6342 4.88403 35.756 4.47187 34.8474 4.11583C33.3397 3.58131 31.8024 3.15443 30.2537 2.77907C29.952 2.91615 29.5962 2.89775 29.3032 2.71467C29.2483 2.68983 29.1934 2.66591 29.1384 2.64383C28.8315 2.53987 28.5254 2.43867 28.2124 2.35955C27.9107 2.29607 27.609 2.25283 27.3029 2.22155C26.6393 2.16819 25.9783 2.17463 25.3138 2.18567C25.1316 2.20131 24.9485 2.21695 24.7654 2.23167C24.5613 2.24823 24.3538 2.25467 24.1523 2.28411C23.6963 2.35127 23.2402 2.41843 22.7842 2.48559C22.4171 2.55735 22.05 2.62911 21.682 2.70087C21.3471 2.76619 21.0166 2.84991 20.6853 2.92995C20.3565 3.00999 20.0287 3.08451 19.706 3.18387C19.3337 3.29795 18.9613 3.41295 18.589 3.52703C18.1076 3.71195 17.628 3.89779 17.1467 4.08363C16.9191 4.17103 16.6976 4.29707 16.4761 4.40195C16.2581 4.50499 16.0401 4.60895 15.8212 4.71291C15.2047 5.06711 14.5821 5.41027 13.9831 5.79759C13.2506 6.28703 12.5513 6.82339 11.8816 7.40575C11.2223 7.99915 10.6006 8.63119 10.0111 9.30003C9.38415 10.0333 8.80426 10.8033 8.26624 11.6101C7.8067 12.3222 7.38378 13.0564 7.00272 13.8191C6.68967 14.4713 6.40975 15.1374 6.16734 15.8219C5.99643 16.338 5.85081 16.8578 5.7357 17.3905C5.63368 17.9241 5.55869 18.4614 5.50899 19.0042C5.47585 19.4725 5.46625 19.9389 5.48021 20.409C5.50375 20.8451 5.54648 21.2775 5.61014 21.709C5.69559 22.2003 5.8072 22.6833 5.94149 23.1626C6.10455 23.698 6.29552 24.2197 6.51265 24.733C6.77861 25.3246 7.0812 25.8904 7.4082 26.4461C7.80583 27.0965 8.24008 27.7184 8.70486 28.3164C9.16528 28.8878 9.65447 29.4269 10.1733 29.9393C10.836 30.5714 11.5362 31.1509 12.2661 31.6937C12.8408 32.1059 13.4337 32.4776 14.0493 32.8152C14.7722 33.197 15.5126 33.5319 16.273 33.8226C17.015 34.0922 17.7684 34.313 18.534 34.4942C19.1 34.6203 19.6737 34.7123 20.2432 34.8171C20.4716 34.8595 20.7097 34.8714 20.9399 34.8981C21.2041 34.9285 21.4674 34.9588 21.7317 34.9883C22.2514 35.0094 22.7711 35.0278 23.2899 35.0462Z" fill="black"/>
<path d="M23.7791 79.3562C21.5381 79.2577 19.2918 79.1234 17.0604 78.8805C15.9189 78.7554 14.7845 78.6027 13.6561 78.3764C13.159 78.277 12.6542 78.1657 12.1833 77.9697C11.9304 77.8639 11.6487 77.7462 11.4403 77.5548C11.2023 77.3368 11.0061 77.104 10.877 76.7967C10.7331 76.4563 10.6983 76.0847 10.6826 75.7167C10.6686 75.4048 10.6669 75.0975 10.6791 74.7865C10.7253 73.6908 10.8168 72.5951 10.884 71.5012C10.9538 70.3503 11.0253 69.1994 11.0976 68.0466C11.2398 65.7715 11.4098 63.4972 11.5755 61.223C11.7455 58.8935 11.9051 56.5632 12.0603 54.2328C12.2182 51.8519 12.3803 49.4709 12.5722 47.0927C12.7736 44.5995 12.9881 42.1072 13.2053 39.6149C13.289 38.6554 13.3736 37.6958 13.4581 36.7363C13.4991 36.2772 13.5392 35.8163 13.5793 35.3563C13.6003 35.1189 13.6212 34.8834 13.6404 34.646C13.657 34.4464 13.6674 34.2394 13.7398 34.0535C13.9308 33.5558 14.4862 33.2826 14.9763 33.4307C15.4882 33.5843 15.7812 34.1198 15.7062 34.6543C15.707 34.6515 15.7079 34.6479 15.7088 34.6451C15.6521 35.003 15.6443 35.3765 15.612 35.7371C15.5701 36.2146 15.5283 36.6912 15.4864 37.1677C15.4071 38.0629 15.3277 38.959 15.2501 39.8551C15.0835 41.7705 14.9196 43.685 14.7574 45.6005C14.5743 47.8729 14.3947 50.1462 14.2438 52.4213C14.0808 54.8787 13.9186 57.3369 13.7433 59.7924C13.5811 62.0694 13.4032 64.3436 13.2532 66.6215C13.1015 68.9004 12.969 71.1811 12.8251 73.4608C12.785 74.1057 12.7265 74.7507 12.7274 75.3965C12.7344 75.5538 12.7431 75.7111 12.7579 75.8675C12.812 75.8942 12.8678 75.9191 12.9236 75.9421C13.2192 76.0423 13.5166 76.1251 13.8192 76.1969C14.4173 76.3165 15.0147 76.4361 15.6198 76.5152C16.3384 76.61 17.0569 76.6955 17.778 76.7728C19.5831 76.932 21.389 77.0525 23.1984 77.1528C24.9912 77.2521 26.7823 77.242 28.5751 77.1758C30.0654 77.1013 31.5565 77.0157 33.0398 76.8492C34.5178 76.6845 35.9889 76.472 37.4547 76.2116C37.4338 76.2153 37.412 76.219 37.3911 76.2236C38.0712 76.0994 38.7662 75.9973 39.4324 75.8013C39.4577 75.7912 39.483 75.7811 39.5083 75.7709C39.5275 75.7608 39.5466 75.7498 39.5658 75.7397C39.578 75.7277 39.5894 75.7157 39.6016 75.7038C39.6086 75.6955 39.6155 75.6863 39.6234 75.678C39.6199 75.6826 39.6173 75.6872 39.6147 75.6918L39.6181 75.6881C39.6382 75.6559 39.6574 75.6228 39.6757 75.5888C39.7167 75.4949 39.7542 75.4002 39.7891 75.3036C39.8353 75.1435 39.8771 74.9843 39.9146 74.8215C39.9975 74.3854 40.0437 73.9484 40.0899 73.5068C40.1492 72.4442 40.1797 71.3807 40.1666 70.3153C40.1527 69.1433 40.1195 67.973 40.0777 66.8019C40.0794 66.8488 40.0812 66.8948 40.0821 66.9408C39.8885 62.2745 39.6147 57.6065 39.0697 52.9697C38.7871 50.5565 38.4671 48.1479 38.1488 45.7394C37.8454 43.4403 37.5742 41.1385 37.33 38.8311C37.0789 36.4501 36.8469 34.0664 36.56 31.6891C36.4894 31.1013 36.928 30.5539 37.4774 30.4941C38.0451 30.4315 38.5395 30.874 38.6101 31.4619C38.8708 33.623 39.0862 35.7905 39.3121 37.9553C39.5528 40.2645 39.8161 42.5709 40.1152 44.8718C40.4152 47.1819 40.7387 49.4884 41.0099 51.8022C41.2845 54.1436 41.52 56.4896 41.6909 58.842C41.8644 61.2294 42.0022 63.6168 42.1025 66.0088C42.201 68.3833 42.3065 70.7735 42.1731 73.1489C42.1304 73.8969 42.0711 74.6513 41.9045 75.3818C41.7624 76.012 41.5592 76.6339 41.1529 77.1325C40.9933 77.3267 40.7919 77.5189 40.573 77.6376C40.3367 77.7646 40.0995 77.8575 39.8457 77.9357C39.626 78.0029 39.3967 78.0415 39.1717 78.0884C38.9101 78.1427 38.6467 78.1924 38.3843 78.2421C37.8829 78.3368 37.3806 78.4261 36.8774 78.5098C34.728 78.8658 32.5706 79.105 30.3994 79.2467C28.9353 79.3415 27.4703 79.3994 26.0045 79.3994C25.2642 79.4031 24.5221 79.3884 23.7791 79.3562Z" fill="black"/>
<path d="M12.2356 105.827C11.7595 105.63 11.3462 105.281 11.0008 104.891C10.5893 104.426 10.2771 103.841 10.1114 103.229C9.78441 102.015 9.96229 100.573 10.9163 99.7185C11.4831 99.2116 12.2583 99.15 12.9716 99.1445C13.4111 99.1408 13.8462 99.2346 14.2735 99.3294C14.7007 99.4232 15.1254 99.5483 15.5352 99.7093C16.2677 99.9945 16.9409 100.426 17.669 100.721C17.6743 100.723 17.6804 100.725 17.6856 100.727C17.7161 100.532 17.7353 100.336 17.7536 100.139C17.9193 97.9613 18.0658 95.7819 18.2271 93.6033C18.4006 91.2647 18.5942 88.9279 18.8061 86.592C19.0381 84.0436 19.25 81.4915 19.5377 78.9486C19.604 78.3598 20.1699 77.9513 20.7114 78.0378C21.28 78.1289 21.641 78.6883 21.5747 79.2761C21.362 81.1585 21.1989 83.0481 21.0254 84.9351C20.8492 86.8579 20.6757 88.7816 20.5144 90.7071C20.5152 90.6915 20.517 90.6759 20.5179 90.6602C20.5161 90.6869 20.5135 90.7136 20.5117 90.7393C20.51 90.7596 20.5083 90.7789 20.5065 90.7991C20.5074 90.7844 20.5091 90.7688 20.51 90.7541C20.3321 93.0145 20.1691 95.2768 20.006 97.5381C19.9668 98.0809 19.9275 98.6228 19.8891 99.1647C19.8473 99.7379 19.8203 100.316 19.747 100.885C19.7191 101.104 19.6816 101.321 19.6092 101.528C19.5046 101.826 19.3572 102.086 19.1758 102.338C19.0947 102.451 19.0015 102.55 18.8986 102.636C18.9125 102.849 18.868 103.068 18.7564 103.261C18.337 103.987 17.8077 104.625 17.1493 105.118C16.2843 105.765 15.2588 106.066 14.2116 106.13C14.0999 106.137 13.9883 106.141 13.8784 106.141C13.3169 106.142 12.771 106.048 12.2356 105.827ZM14.0136 103.968C14.2116 103.954 14.4086 103.936 14.6057 103.907C14.7827 103.871 14.958 103.828 15.1315 103.777C15.2457 103.736 15.3574 103.69 15.4681 103.641C15.5928 103.576 15.7149 103.507 15.8352 103.433C15.9599 103.346 16.0802 103.254 16.1971 103.156C16.3009 103.059 16.4003 102.959 16.4953 102.853C16.552 102.785 16.6069 102.715 16.661 102.644C16.491 102.568 16.3253 102.485 16.1631 102.404C15.6817 102.163 15.2065 101.906 14.7095 101.704C14.4322 101.615 14.154 101.532 13.8715 101.46C13.6517 101.412 13.4329 101.368 13.2114 101.336C13.0718 101.327 12.9332 101.321 12.7928 101.321C12.6603 101.33 12.5286 101.341 12.3969 101.358C12.342 101.369 12.2862 101.38 12.2312 101.392C12.2269 101.397 12.2234 101.4 12.219 101.405C12.2033 101.425 12.1876 101.445 12.1728 101.466C12.1536 101.5 12.1344 101.535 12.1153 101.569C12.1031 101.596 12.0917 101.624 12.0813 101.652C12.069 101.696 12.0568 101.738 12.0455 101.78C12.0359 101.834 12.0281 101.888 12.0228 101.942C12.0193 102.007 12.0176 102.071 12.0176 102.136C12.0246 102.244 12.0359 102.349 12.0499 102.456C12.0621 102.517 12.0769 102.578 12.0926 102.639C12.1144 102.708 12.1379 102.776 12.1641 102.843C12.2059 102.935 12.2504 103.024 12.2975 103.113C12.349 103.194 12.403 103.273 12.4588 103.35C12.5164 103.418 12.5748 103.483 12.635 103.548C12.6934 103.6 12.7527 103.651 12.8146 103.699C12.8486 103.722 12.8844 103.744 12.9201 103.766C12.9838 103.798 13.0474 103.827 13.1137 103.856C13.1835 103.879 13.2532 103.9 13.3239 103.918C13.405 103.933 13.4852 103.947 13.5671 103.959C13.7171 103.968 13.8645 103.971 14.0136 103.968Z" fill="black"/>
<path d="M36.0735 104.992C35.5215 104.865 35 104.677 34.4978 104.403C33.5569 103.887 32.8235 103.042 32.3073 102.075C32.1852 101.847 32.1582 101.586 32.2088 101.342C31.9934 101.095 31.8678 100.775 31.8233 100.444C31.7387 99.8179 31.7449 99.1776 31.7248 98.5465C31.7082 98.0092 31.6925 97.4728 31.6786 96.9356C31.6158 94.6172 31.567 92.2978 31.5269 89.9785C31.4815 87.362 31.4388 84.7456 31.3446 82.1309C31.3097 81.3618 31.253 80.5899 31.2417 79.8199C31.2339 79.2265 31.751 78.7444 32.296 78.7582C32.8732 78.772 33.2944 79.278 33.3031 79.8705C33.3031 79.8797 33.3031 79.8898 33.3031 79.899C33.3511 81.0012 33.4104 82.1042 33.4418 83.2064C33.4784 84.4594 33.508 85.7125 33.5333 86.9655C33.5804 89.2333 33.6109 91.502 33.6606 93.7698C33.7016 95.6218 33.7444 97.4747 33.8089 99.3276C34.1054 99.1583 34.3992 98.9835 34.7027 98.828C35.157 98.5961 35.6261 98.4121 36.1206 98.299C36.7065 98.1656 37.3274 98.1619 37.9204 98.2429C38.0887 98.2659 38.2561 98.2889 38.4235 98.3109C38.7322 98.3533 39.0234 98.4444 39.3147 98.5538C39.8815 98.7682 40.3968 99.1656 40.811 99.6183C41.1459 99.9844 41.4145 100.461 41.5304 100.956C41.6534 101.482 41.6429 102.004 41.5017 102.525C41.2244 103.547 40.3707 104.387 39.4568 104.781C39.1438 104.917 38.8089 105.026 38.4723 105.076C38.1706 105.122 37.8715 105.14 37.5663 105.15C37.5149 105.152 37.4643 105.153 37.4129 105.153C36.9646 105.153 36.5077 105.091 36.0735 104.992ZM37.7625 102.971C37.902 102.959 38.0398 102.944 38.1776 102.924C38.2927 102.896 38.4052 102.866 38.5177 102.832C38.5744 102.812 38.6293 102.789 38.6851 102.765C38.7522 102.731 38.8185 102.695 38.8839 102.656C38.9711 102.594 39.0548 102.53 39.1368 102.463C39.1926 102.41 39.2458 102.356 39.2981 102.301C39.3391 102.249 39.3775 102.198 39.415 102.145C39.435 102.111 39.4533 102.078 39.4716 102.044C39.4856 102.014 39.4978 101.984 39.51 101.952C39.5248 101.903 39.5388 101.852 39.551 101.801C39.5545 101.78 39.5571 101.759 39.5597 101.738C39.5606 101.714 39.5606 101.69 39.5606 101.666C39.5588 101.638 39.5562 101.61 39.5527 101.582C39.5458 101.548 39.5388 101.515 39.5301 101.482C39.5231 101.462 39.5161 101.442 39.5083 101.421C39.483 101.369 39.456 101.317 39.428 101.266C39.4089 101.237 39.3879 101.207 39.367 101.179C39.3129 101.115 39.258 101.054 39.2005 100.996C39.1351 100.938 39.0679 100.881 38.999 100.827C38.9162 100.771 38.8325 100.72 38.747 100.669C38.6485 100.621 38.5499 100.576 38.4497 100.536C38.413 100.524 38.3764 100.514 38.3398 100.503C38.0573 100.445 37.7686 100.409 37.4817 100.379C37.3213 100.37 37.1626 100.365 37.0021 100.369C36.8862 100.378 36.7702 100.39 36.6542 100.406C36.5199 100.433 36.3882 100.466 36.2566 100.504C36.0752 100.57 35.8982 100.642 35.722 100.722C35.2686 100.957 34.83 101.22 34.3818 101.467C34.4263 101.531 34.4725 101.595 34.5196 101.659C34.6382 101.802 34.7637 101.939 34.8945 102.072C34.9643 102.134 35.0349 102.196 35.1073 102.254C35.2573 102.356 35.4107 102.452 35.5677 102.542C35.688 102.6 35.8101 102.653 35.9339 102.703C36.0726 102.752 36.2121 102.795 36.3542 102.835C36.6228 102.892 36.8914 102.936 37.1643 102.965C37.3631 102.974 37.562 102.974 37.7625 102.971Z" fill="black"/>
<path d="M26.4065 14.1944C26.1187 14.1935 25.8283 14.1613 25.5414 14.1457C25.2301 14.1282 24.9188 14.0813 24.6102 14.0463C23.6841 13.9433 22.7667 13.7234 21.8677 13.4768C21.3942 13.3471 20.9303 13.1925 20.4647 13.038C20.251 12.9671 20.0417 12.8779 19.8316 12.7979C19.6371 12.7233 19.4392 12.6534 19.2482 12.5688C18.7826 12.3618 18.323 12.1529 17.8687 11.9202C17.4057 11.6828 16.9592 11.4243 16.5084 11.1612C16.0829 10.9119 15.68 10.6092 15.2902 10.3019C14.8185 9.93023 14.3607 9.49047 13.9997 8.99827C13.7014 8.59163 13.4233 8.11415 13.4355 7.57963C13.4433 7.21347 13.6064 6.90251 13.8732 6.67619C14.3118 6.30543 14.9946 6.45815 15.312 6.91999C15.4271 7.08743 15.4934 7.28707 15.5056 7.49131C15.5457 7.55387 15.5884 7.61551 15.6329 7.67439C15.7811 7.85379 15.9372 8.02399 16.1012 8.18775C16.3375 8.40579 16.5834 8.60819 16.8371 8.80323C17.3255 9.15191 17.8356 9.44907 18.3509 9.75083C18.7887 9.97531 19.2247 10.1961 19.6729 10.3948C20.1185 10.5935 20.5702 10.7683 21.0236 10.9431C21.3471 11.0499 21.6706 11.1566 21.9959 11.2633C22.3098 11.3663 22.6359 11.439 22.9534 11.5264C23.3562 11.6166 23.7573 11.7086 24.1637 11.7776C24.6372 11.8576 25.1089 11.9156 25.5868 11.969C25.8754 11.9855 26.1641 12.0021 26.4536 12.0177C26.7474 12.0343 27.0465 12.0195 27.3413 12.0186C27.7153 11.9993 28.0894 11.9809 28.4627 11.9441C28.862 11.9046 29.257 11.8493 29.6538 11.7914C30.0549 11.7123 30.4534 11.6276 30.8519 11.5319C31.2182 11.4436 31.5792 11.3277 31.9393 11.2136C32.6971 10.9487 33.4383 10.6515 34.1673 10.3102C34.8788 9.96519 35.5851 9.60639 36.2505 9.16663C36.7266 8.85199 37.3937 9.11419 37.6466 9.60915C37.773 9.85755 37.8026 10.1538 37.7285 10.4243C37.65 10.7177 37.4652 10.9238 37.2262 11.0821C36.3621 11.6543 35.4247 12.1088 34.489 12.5338C33.4862 12.9892 32.4494 13.3351 31.3961 13.6323C30.8702 13.7813 30.3218 13.889 29.7829 13.9681C29.2562 14.0445 28.7277 14.1227 28.1967 14.1503C27.8967 14.1659 27.5959 14.1944 27.2968 14.1944C27.0012 14.1944 26.7038 14.1944 26.4065 14.1944Z" fill="black"/>
<path d="M23.3161 23.1847C22.7807 23.1709 22.261 22.663 22.3089 22.0724C22.4266 20.6188 22.5461 19.1661 22.6656 17.7134C22.7249 16.983 22.7868 16.2534 22.8426 15.5229C22.8714 15.1402 22.9001 14.7593 22.9228 14.3766C22.9341 14.1935 22.9455 14.0104 22.9533 13.8274C22.9621 13.6378 22.9551 13.44 22.983 13.2524C23.0466 12.82 23.3579 12.4602 23.7634 12.359C24.2029 12.2486 24.7043 12.4676 24.9101 12.9018C25.013 13.119 25.0461 13.3563 25.0147 13.5817C25.0165 13.5817 25.0182 13.5808 25.02 13.5808C25.0243 13.5366 25.0278 13.4925 25.0313 13.4483C24.9694 14.9212 24.8377 16.3895 24.7174 17.8579C24.6006 19.2793 24.4837 20.6998 24.3695 22.1212C24.3451 22.4137 24.2561 22.675 24.0503 22.882C23.8593 23.0743 23.6021 23.1828 23.3388 23.1828C23.3318 23.1847 23.3239 23.1847 23.3161 23.1847Z" fill="black"/>
<path d="M28.3214 23.2206C27.772 23.2068 27.2854 22.6998 27.3151 22.1074C27.3883 20.6381 27.4947 19.1698 27.6063 17.7024C27.6639 16.9544 27.7267 16.2083 27.7947 15.4613C27.8296 15.0758 27.8627 14.6894 27.9028 14.3048C27.936 13.9883 27.949 13.6572 28.0101 13.3444C28.0667 13.0546 28.1932 12.8034 28.4243 12.6268C28.6414 12.4602 28.9178 12.3903 29.1838 12.4335C29.7166 12.5182 30.1604 13.0923 30.0479 13.6719C30.0026 13.9009 29.9913 14.142 29.9677 14.3747C29.9372 14.6793 29.9067 14.9838 29.8779 15.2892C29.8212 15.9148 29.7663 16.5413 29.714 17.1679C29.5814 18.8294 29.4585 20.4937 29.3756 22.1589C29.3469 22.7431 28.9082 23.2215 28.3449 23.2215C28.3371 23.2206 28.3292 23.2206 28.3214 23.2206Z" fill="black"/>
<path d="M28.2691 31.2632C27.9063 31.0819 27.534 30.9246 27.1581 30.7783C26.614 30.5787 26.0664 30.4067 25.5066 30.2668C25.0514 30.1721 24.5979 30.1012 24.1375 30.0506C23.7347 30.0276 23.3353 30.0203 22.9324 30.0304C22.6211 30.0552 22.3142 30.0883 22.0046 30.1362C21.8564 30.1656 21.709 30.1969 21.5608 30.2227C21.0062 30.3193 20.483 29.8188 20.428 29.2548C20.4001 28.9724 20.4786 28.6853 20.646 28.4636C20.8187 28.2364 21.0498 28.1168 21.314 28.0643C21.2826 28.0699 21.2512 28.0754 21.2198 28.0818C22.5479 27.8058 23.9152 27.7644 25.2519 28.0055C26.5704 28.2428 27.8758 28.6642 29.0879 29.2659C29.5962 29.5179 29.8517 30.1399 29.6241 30.6965C29.4611 31.0939 29.0669 31.3543 28.6649 31.3552C28.5315 31.3552 28.3964 31.3257 28.2691 31.2632Z" fill="black"/>
<path d="M8.30549 65.3961C8.10057 65.3786 7.90874 65.3326 7.71428 65.2655C7.54511 65.2075 7.36025 65.1183 7.2216 64.9978C7.07336 64.8699 6.95477 64.7466 6.85013 64.5755C6.74723 64.409 6.6923 64.2507 6.65917 64.0566C6.6269 63.8671 6.62341 63.6923 6.67137 63.5046C6.69142 63.4098 6.71846 63.3178 6.75247 63.2277C6.81176 63.0842 6.90594 62.9646 6.99488 62.8394C7.18672 62.5726 7.51372 62.3785 7.80235 62.2562C8.07093 62.1421 8.34823 62.0694 8.62988 62.005C8.95165 61.9314 9.27603 61.8679 9.59955 61.809C9.69023 61.7925 9.78179 61.7778 9.87335 61.764C9.576 61.4732 9.27777 61.1834 8.97868 60.8955C9.01356 60.9286 9.04757 60.9617 9.08245 60.9948C7.4771 59.4492 5.83774 57.9404 4.28558 56.3332C3.86877 55.9017 3.45717 55.4656 3.04907 55.025C2.64621 54.5907 2.28085 54.1215 1.91635 53.6532C1.55621 53.1914 1.25973 52.6817 0.963252 52.173C0.689444 51.7028 0.452267 51.218 0.261299 50.7037C0.0101626 50.0294 -0.0482575 49.3007 0.0363265 48.5868C0.120038 47.8766 0.461851 47.2399 0.844659 46.6649C1.15422 46.1994 1.5536 45.7955 1.9242 45.3843C2.31486 44.95 2.71685 44.5287 3.11623 44.1055C3.88882 43.2913 4.69716 42.5176 5.5055 41.7448C7.16579 40.1559 8.87229 38.6232 10.557 37.0647C11.1081 36.555 11.6592 36.0463 12.206 35.532C12.485 35.2698 12.764 35.0067 13.0422 34.7426C13.268 34.5283 13.4869 34.302 13.7442 34.1318C14.222 33.818 14.8874 34.0793 15.1402 34.5752C15.2667 34.8236 15.2963 35.1198 15.2231 35.3894C15.1463 35.6755 14.9685 35.8798 14.7382 36.0362C14.7627 36.0196 14.7879 36.004 14.8124 35.9865C14.8281 35.9736 14.8429 35.9598 14.8586 35.9469C14.8464 35.958 14.835 35.969 14.8228 35.98C14.8272 35.9773 14.8315 35.9745 14.835 35.9718C14.8289 35.9764 14.8237 35.98 14.8176 35.9846C14.0337 36.7078 13.2646 37.4474 12.4815 38.1724C11.606 38.9829 10.7262 39.787 9.84633 40.5929C8.11889 42.1726 6.40105 43.7715 4.76082 45.4514C4.12862 46.0982 3.5095 46.7615 2.91131 47.4432C2.73168 47.6558 2.56076 47.8729 2.40118 48.1029C2.34363 48.1949 2.29044 48.2896 2.23986 48.3872C2.20324 48.4681 2.16923 48.55 2.13958 48.6346C2.1544 48.5905 2.16924 48.5463 2.18406 48.5022C2.14569 48.608 2.11342 48.7156 2.08726 48.826C2.07505 48.8941 2.06547 48.9622 2.05849 49.0302C2.05501 49.091 2.05325 49.1517 2.05325 49.2124C2.0611 49.332 2.07331 49.4488 2.08988 49.5666C2.10296 49.6338 2.11866 49.7009 2.13523 49.7672C2.19016 49.9355 2.2512 50.0984 2.3166 50.2621C2.52413 50.712 2.7744 51.1352 3.02292 51.5602C3.17028 51.781 3.31853 52.0018 3.4659 52.2226C3.60281 52.4269 3.76499 52.6164 3.91933 52.8087C3.91497 52.8041 3.91148 52.7986 3.908 52.794C4.52712 53.5116 5.16194 54.2098 5.82641 54.8814C6.54232 55.6055 7.26608 56.3203 7.99507 57.0296C9.21848 58.2072 10.4567 59.3674 11.6679 60.5597C11.926 60.8145 12.1824 61.0712 12.4353 61.3316C12.6498 61.5514 12.8695 61.7787 12.9847 62.0758C13.1364 62.4668 13.1024 62.9296 12.8469 63.2672C12.5617 63.6435 12.1562 63.7438 11.7359 63.7843C11.7403 64.2277 11.4813 64.6491 11.0723 64.8202C10.4558 65.0787 9.82714 65.2866 9.16529 65.3704C8.97606 65.3943 8.78772 65.409 8.59849 65.409C8.5017 65.4081 8.40315 65.4044 8.30549 65.3961Z" fill="black"/>
<path d="M42.5594 64.7779C42.0161 64.3188 41.5601 63.7613 41.2165 63.1219C40.9575 62.6398 40.8067 62.0657 40.8511 61.51C40.8947 60.9562 41.1328 60.4815 41.4598 60.0537C41.7868 59.6268 42.174 59.2459 42.5376 58.854C42.9056 58.4575 43.2753 58.0619 43.645 57.6654C44.4882 56.761 45.328 55.853 46.1494 54.9265C46.5505 54.4582 46.9455 53.9881 47.3257 53.5014C47.7112 53.0074 48.0704 52.494 48.4262 51.9752C48.6172 51.6743 48.809 51.3753 48.9878 51.0644C49.1831 50.7249 49.3601 50.3799 49.5354 50.0284C49.6383 49.7929 49.7351 49.5565 49.8223 49.3136C49.8999 49.0735 49.967 48.8315 50.0254 48.585C50.0507 48.4451 50.0717 48.3071 50.0882 48.1664C50.0908 48.1231 50.0908 48.0808 50.0908 48.0385C50.0882 47.9971 50.0839 47.9566 50.0786 47.9161C50.0717 47.8894 50.0638 47.8618 50.0568 47.8352C50.0472 47.8085 50.0377 47.7818 50.0289 47.756C49.9871 47.6668 49.9417 47.5812 49.8938 47.4957C49.4709 46.8351 48.9834 46.216 48.5143 45.5922C48.0129 44.9252 47.5028 44.2656 46.9865 43.6105C45.5739 41.8404 44.156 40.0768 42.6658 38.3785C41.1607 36.6636 39.6539 34.9395 38.0381 33.3387C37.9012 33.209 37.7651 33.0793 37.623 32.9551C37.2672 32.645 37.1338 32.1243 37.3187 31.6726C37.4992 31.2328 37.9657 30.9449 38.42 31.0295C38.4645 31.0378 38.5081 31.047 38.5508 31.0599C38.6833 31.1013 38.8028 31.1684 38.9057 31.2568L38.9066 31.254C39.6949 31.9431 40.4116 32.7297 41.1267 33.4997C41.9254 34.3599 42.7068 35.2367 43.4872 36.1153C45.0306 37.8513 46.5069 39.6481 47.964 41.466C48.6826 42.3621 49.3932 43.2655 50.0847 44.1855C50.4126 44.6207 50.7379 45.0568 51.0605 45.4956C51.2114 45.7008 51.3553 45.9096 51.4991 46.1194C51.8732 46.6668 52.1287 47.2979 52.1461 47.9778C52.1645 48.665 51.9927 49.3467 51.7782 49.9907C51.6107 50.4958 51.3927 50.9696 51.1573 51.4415C50.8922 51.9751 50.5844 52.4784 50.2679 52.978C49.6383 53.9697 48.925 54.8897 48.1838 55.7895C47.3475 56.8052 46.4433 57.7583 45.5503 58.7188C44.851 59.4713 44.1394 60.2128 43.4497 60.9755C44.1639 61.4098 44.8214 61.9949 45.2835 62.7134C45.4187 62.9232 45.5277 63.1384 45.6253 63.3703C45.7352 63.627 45.7579 63.9287 45.7535 64.2056C45.7448 64.7852 45.3655 65.3538 44.8527 65.559C44.6783 65.6289 44.5057 65.6592 44.3356 65.6592C43.6816 65.6592 43.0643 65.2038 42.5594 64.7779Z" fill="black"/>
</svg>
