<svg width="71" height="107" viewBox="0 0 71 107" fill="none" xmlns="http://www.w3.org/2000/svg">
<path d="M26.4504 37.1963C26.1531 37.1861 25.8575 37.1751 25.5601 37.165C25.2846 37.1549 25.0064 37.1043 24.7326 37.073C24.4414 37.0399 24.1492 37.0067 23.8563 36.9727C23.5877 36.9423 23.3174 36.8733 23.0514 36.8227C22.7846 36.7731 22.5195 36.7243 22.2535 36.6746C21.4731 36.5292 20.6996 36.2919 19.9471 36.0361C18.5292 35.5522 17.1593 34.8935 15.8801 34.0867C15.24 33.6828 14.6322 33.2163 14.0384 32.7398C13.4079 32.2347 12.8159 31.6799 12.2464 31.1003C11.1216 29.9559 10.1693 28.632 9.35227 27.2299C8.54218 25.8379 7.95532 24.3153 7.60652 22.7247C7.2647 21.168 7.25512 19.5608 7.45394 17.983C7.65362 16.3868 8.15501 14.8504 8.80901 13.4014C10.1214 10.4923 12.0764 7.88783 14.3994 5.80587C15.3569 4.94659 16.3963 4.15537 17.502 3.51965C18.0182 3.22341 18.5257 2.90601 19.062 2.65117C19.5869 2.40185 20.1058 2.13599 20.6464 1.92807C20.9865 1.79651 21.3257 1.66587 21.6658 1.53523C21.8812 1.45151 22.1018 1.38987 22.3215 1.32179C22.6529 1.21967 22.9851 1.11755 23.3173 1.01635C23.5467 0.945512 23.7839 0.898568 24.0158 0.842448C24.2931 0.775288 24.5687 0.707207 24.8451 0.640047C25.1512 0.566447 25.466 0.519535 25.7755 0.458815C26.3728 0.342895 26.971 0.253655 27.5727 0.165335C27.7715 0.135895 27.966 0.11473 28.1657 0.09725C28.5066 0.06873 28.8493 0.0218199 29.1911 0.0153799C29.4807 0.0107799 29.7719 0.006188 30.0614 0.000667998C30.3387 -0.003932 30.616 0.0163069 30.8933 0.0282669C31.3703 0.0503469 31.8446 0.0990977 32.3147 0.185578C32.6146 0.240778 32.9094 0.324511 33.2015 0.417431C33.3183 0.391671 33.4395 0.389831 33.5616 0.417431C35.6727 0.896751 37.7891 1.42758 39.8173 2.21602C40.821 2.60702 41.7907 3.09555 42.7289 3.63743C43.2059 3.91251 43.6725 4.20875 44.1189 4.53719C44.5959 4.88771 45.0493 5.25846 45.4975 5.65038C46.3887 6.43054 47.1605 7.35329 47.8851 8.30181C48.5417 9.16201 49.1224 10.1142 49.6055 11.094C49.8767 11.6451 50.1366 12.2008 50.3555 12.7776C50.5769 13.36 50.7548 13.9506 50.9074 14.5569C51.047 15.1117 51.1359 15.6784 51.1882 16.2497C51.2214 16.6131 51.2205 16.9811 51.2327 17.3454C51.2423 17.6527 51.2275 17.9729 51.2022 18.2801C51.1786 18.5525 51.1708 18.8312 51.1324 19.1026C51.0871 19.4136 51.0539 19.7291 50.9885 20.0355C50.9301 20.3069 50.8891 20.5884 50.8124 20.8534C50.7252 21.1533 50.6511 21.4615 50.5447 21.7541C50.4488 22.0163 50.3651 22.2886 50.2543 22.5434C50.1235 22.8424 50.0023 23.1479 49.8584 23.4386C49.725 23.7091 49.5907 23.9804 49.4573 24.2509C49.1896 24.7928 48.8652 25.3034 48.5504 25.8149C48.267 26.2759 47.9522 26.7239 47.613 27.1407C47.4194 27.3799 47.2337 27.6282 47.0279 27.8555C46.796 28.1094 46.5649 28.3633 46.3329 28.6173C45.985 28.9991 45.6057 29.356 45.229 29.7065C44.752 30.1481 44.2689 30.5741 43.7771 30.9955C43.3629 31.3506 42.926 31.6744 42.4961 32.0084C42.2929 32.1657 42.0697 32.3019 41.8578 32.4463C41.6416 32.5953 41.427 32.7499 41.2029 32.887C40.6981 33.1961 40.1984 33.5098 39.6769 33.7895C39.3927 33.9422 39.1075 34.0959 38.8224 34.2486C38.5651 34.3866 38.2931 34.4988 38.0306 34.623C37.7795 34.7408 37.5283 34.8594 37.2772 34.9772C37.0121 35.1023 36.7305 35.1971 36.4593 35.3057C36.2177 35.4023 35.9762 35.4998 35.7338 35.5973C35.453 35.7105 35.1548 35.7896 34.8679 35.8852C34.6115 35.9699 34.356 36.0555 34.0988 36.1401C33.8128 36.2349 33.518 36.3002 33.2276 36.3774C32.9242 36.4575 32.6207 36.5375 32.3181 36.6176C32.0818 36.6792 31.8368 36.7133 31.5979 36.7602C31.277 36.8218 30.9552 36.8853 30.6352 36.9479C30.3814 36.9976 30.1233 37.0169 29.8669 37.0454C29.5426 37.0831 29.2182 37.119 28.8929 37.1567C28.6435 37.1843 28.3854 37.1778 28.1352 37.1861C27.8169 37.1972 27.4986 37.2082 27.1803 37.2202C27.1472 37.2211 27.1132 37.222 27.0792 37.222C26.8699 37.222 26.658 37.2036 26.4504 37.1963ZM27.1969 35.0462C27.4576 35.0554 27.7262 35.0287 27.9869 35.0186C28.2119 35.0103 28.4369 35.003 28.6618 34.9947C29.1868 34.9349 29.7126 34.8751 30.2375 34.8153C30.7625 34.7132 31.2874 34.6101 31.8133 34.508C32.0949 34.4528 32.3757 34.359 32.6539 34.2854C32.9311 34.2127 33.2084 34.1391 33.4849 34.0655C33.8869 33.9312 34.2889 33.7987 34.6909 33.6653C35.0118 33.5595 35.3222 33.4335 35.637 33.3065C35.9788 33.1694 36.3267 33.0452 36.6607 32.8879C37.0583 32.7011 37.4568 32.5135 37.8545 32.3267C38.273 32.1022 38.6898 31.8777 39.1084 31.6533C39.2828 31.5594 39.4502 31.4453 39.6194 31.3414C39.833 31.2107 40.0458 31.0801 40.2603 30.9495C40.7574 30.61 41.2527 30.2733 41.7296 29.9025C41.9712 29.7157 42.2171 29.5345 42.449 29.3349C42.7176 29.1049 42.9853 28.8758 43.253 28.6458C43.6393 28.2879 44.0274 27.9337 44.3988 27.5593C44.7991 27.1563 45.1828 26.7441 45.5656 26.3237C45.767 26.0744 45.9684 25.826 46.1707 25.5767C46.2675 25.4571 46.3504 25.3209 46.4384 25.1948C46.5352 25.0578 46.632 24.9207 46.7288 24.7827C46.9608 24.4073 47.1936 24.0329 47.4064 23.6447C47.6278 23.2417 47.8345 22.835 48.0386 22.4229C48.1484 22.169 48.2592 21.9141 48.3699 21.6602C48.4658 21.4394 48.5408 21.2039 48.6219 20.9757C48.6934 20.7292 48.7649 20.4817 48.8364 20.2351C48.9097 19.984 48.9489 19.7153 49.003 19.4577C48.9951 19.4945 48.9873 19.5313 48.9803 19.5681C49.0196 19.2967 49.0588 19.0272 49.0989 18.7558C49.1364 18.4908 49.1443 18.2167 49.1669 17.949C49.1626 17.9959 49.16 18.0419 49.1556 18.0879C49.1617 17.8229 49.1678 17.5579 49.1739 17.293C49.1791 17.0841 49.1652 16.8725 49.1556 16.6628C49.1338 16.3757 49.1033 16.0914 49.0623 15.8081C48.989 15.3978 48.8888 14.9994 48.7885 14.5965C48.7196 14.3812 48.6516 14.164 48.5827 13.9488C48.5094 13.7178 48.41 13.4915 48.3237 13.2652C48.1345 12.8374 47.9374 12.4179 47.7316 11.9984C47.5328 11.5954 47.3017 11.2099 47.0733 10.8235C46.6966 10.2467 46.3042 9.6901 45.8891 9.14454C45.4784 8.65234 45.0546 8.18222 44.6099 7.72406C44.3308 7.46094 44.0492 7.20426 43.7614 6.95126C43.4832 6.70838 43.1841 6.49034 42.8868 6.2723C42.4028 5.94478 41.9119 5.64025 41.4087 5.34769C40.5446 4.88401 39.6665 4.47186 38.7579 4.11582C37.2502 3.5813 35.7128 3.15442 34.1642 2.77906C33.8625 2.91614 33.5067 2.89773 33.2137 2.71465C33.1588 2.68981 33.1038 2.66589 33.0489 2.64381C32.7419 2.53985 32.4359 2.43866 32.1228 2.35862C31.8211 2.29606 31.5194 2.2519 31.2133 2.22062C30.5497 2.16726 29.8887 2.1737 29.2243 2.18474C29.042 2.20038 28.8589 2.21601 28.6758 2.23073C28.4717 2.24729 28.2642 2.25374 28.0628 2.28318C27.6067 2.35034 27.1507 2.41749 26.6946 2.48465C26.3275 2.55641 25.9595 2.62818 25.5924 2.69994C25.2576 2.76526 24.9271 2.84897 24.5957 2.92901C24.267 3.00905 23.9391 3.08357 23.6164 3.18293C23.2441 3.29701 22.8718 3.41203 22.4994 3.52611C22.0181 3.71195 21.5385 3.89685 21.0571 4.08269C20.8295 4.17009 20.6081 4.29614 20.3866 4.40102C20.1686 4.50406 19.9506 4.60803 19.7317 4.71199C19.1152 5.06619 18.4926 5.40933 17.8935 5.79573C17.161 6.28517 16.4617 6.82154 15.792 7.40298C15.1328 7.99638 14.511 8.62841 13.9216 9.29725C13.2946 10.0305 12.7147 10.8005 12.1767 11.6074C11.7171 12.3195 11.2942 13.0536 10.9132 13.8163C10.6001 14.4686 10.3202 15.1347 10.0778 15.8191C9.90686 16.3353 9.76124 16.8551 9.64614 17.3877C9.54411 17.9223 9.46913 18.4586 9.41942 19.0014C9.38716 19.4697 9.37582 19.9361 9.39064 20.4063C9.41419 20.8423 9.45692 21.2747 9.52057 21.7062C9.60603 22.1975 9.71765 22.6805 9.85194 23.1598C10.015 23.6953 10.206 24.2169 10.4231 24.7302C10.6891 25.3218 10.9916 25.8876 11.3186 26.4433C11.7163 27.0938 12.1496 27.7157 12.6153 28.3137C13.0757 28.885 13.5649 29.4241 14.0837 29.9365C14.7465 30.5686 15.4467 31.1482 16.1765 31.691C16.7512 32.1031 17.3441 32.4748 17.9598 32.8124C18.6827 33.1942 19.423 33.5291 20.1834 33.8198C20.9255 34.0894 21.6789 34.3102 22.4445 34.4915C23.0104 34.6175 23.5842 34.7095 24.1536 34.8144C24.3821 34.8567 24.6201 34.8687 24.8503 34.8953C25.1145 34.9257 25.3779 34.9561 25.6421 34.9864C26.1575 35.0103 26.678 35.0278 27.1969 35.0462Z" fill="black"/>
<path d="M26.0197 16.3684C25.4695 16.3546 24.9855 15.8477 25.0134 15.2561C25.0779 13.8991 25.2052 12.5476 25.3404 11.198C25.4075 10.5255 25.4895 9.8557 25.5793 9.18686C25.6264 8.84278 25.6814 8.50146 25.7389 8.16014C25.7642 8.00926 25.7973 7.85929 25.827 7.71025C25.8863 7.41861 25.9761 7.08742 26.2028 6.88686C26.5263 6.60074 26.9239 6.50321 27.3242 6.67525C27.4498 6.72953 27.5675 6.81878 27.6608 6.92366C27.9573 7.25302 28.0183 7.73971 27.8474 8.13347C27.8448 8.14267 27.8422 8.15279 27.8396 8.16199C27.6634 9.05807 27.5474 9.96793 27.4463 10.876C27.3451 11.7895 27.2605 12.7049 27.1838 13.6213C27.1393 14.1825 27.101 14.7446 27.0739 15.3067C27.046 15.89 26.6048 16.3693 26.0424 16.3693C26.0354 16.3693 26.0275 16.3684 26.0197 16.3684Z" fill="black"/>
<path d="M32.4908 14.522C32.2187 14.5155 31.9571 14.3932 31.7697 14.1852C31.5743 13.97 31.4924 13.7022 31.4845 13.4097C31.4505 12.1778 31.4566 10.9459 31.4697 9.71402C31.4758 9.09486 31.4836 8.47479 31.5028 7.85563C31.5142 7.52535 31.5255 7.19507 31.5386 6.86387C31.549 6.58143 31.5482 6.2944 31.5769 6.01288C31.6362 5.42316 32.2135 5.0165 32.7507 5.10206C33.0218 5.1453 33.2695 5.3054 33.4299 5.54C33.5799 5.75804 33.634 6.00918 33.62 6.27138C33.6218 6.2493 33.6244 6.2263 33.6261 6.20422C33.586 6.78934 33.5808 7.38092 33.5616 7.96788C33.5416 8.5944 33.5363 9.22275 33.5294 9.85019C33.5154 11.0536 33.5128 12.2569 33.545 13.4603C33.5607 14.0445 33.0445 14.522 32.5117 14.522C32.5047 14.522 32.4978 14.522 32.4908 14.522Z" fill="black"/>
<path d="M27.6852 79.3562C25.4442 79.2577 23.1979 79.1234 20.9664 78.8805C19.825 78.7554 18.6905 78.6027 17.5622 78.3764C17.0651 78.277 16.5602 78.1657 16.0894 77.9698C15.8365 77.8649 15.5548 77.7462 15.3464 77.5548C15.1083 77.3368 14.9121 77.104 14.7831 76.7968C14.6392 76.4564 14.6043 76.0847 14.5886 75.7167C14.5747 75.4048 14.5729 75.0975 14.5851 74.7866C14.6314 73.6908 14.7229 72.5951 14.7909 71.5012C14.8607 70.3503 14.9322 69.1994 15.0046 68.0476C15.1467 65.7724 15.3167 63.4982 15.4824 61.2239C15.6525 58.8945 15.8121 56.5641 15.9673 54.2337C16.1251 51.8528 16.2882 49.4718 16.4791 47.0936C16.6806 44.6004 16.8942 42.1082 17.1122 39.6159C17.1959 38.6563 17.2805 37.6968 17.3651 36.7372C17.4061 36.2772 17.4462 35.8172 17.4863 35.3572C17.5072 35.1198 17.5281 34.8843 17.5473 34.647C17.5639 34.4473 17.5744 34.2403 17.6467 34.0545C17.8377 33.5567 18.3932 33.2835 18.8832 33.4316C19.3951 33.5853 19.6881 34.1207 19.6131 34.6552C19.614 34.6525 19.6148 34.6488 19.6157 34.646C19.559 35.0039 19.5512 35.3774 19.5189 35.7372C19.4771 36.2146 19.4352 36.6912 19.3933 37.1677C19.314 38.0629 19.2346 38.959 19.157 39.8551C18.9905 41.7705 18.8265 43.685 18.6644 45.6005C18.4812 47.8729 18.3016 50.1462 18.1508 52.4204C17.9886 54.8778 17.8255 57.336 17.6511 59.7915C17.4889 62.0685 17.311 64.3436 17.161 66.6206C17.0093 68.8995 16.8768 71.1801 16.7329 73.4599C16.6928 74.1048 16.6343 74.7498 16.6352 75.3956C16.6422 75.5529 16.6509 75.7102 16.6657 75.8666C16.7198 75.8933 16.7756 75.9181 16.8314 75.9411C17.127 76.0414 17.4244 76.1242 17.727 76.196C18.3252 76.3156 18.9225 76.4352 19.5276 76.5143C20.247 76.6091 20.9647 76.6946 21.6858 76.7719C23.4909 76.9311 25.2968 77.0516 27.1053 77.1519C28.8982 77.2503 30.6892 77.2411 32.4821 77.1749C33.9715 77.1003 35.4634 77.0148 36.9467 76.8483C38.4248 76.6836 39.8958 76.472 41.3616 76.2107C41.3407 76.2144 41.3189 76.219 41.298 76.2227C41.9782 76.0985 42.6731 75.9964 43.3394 75.8004C43.3646 75.7903 43.3899 75.7802 43.4152 75.77C43.4344 75.7599 43.4536 75.7489 43.4728 75.7387C43.485 75.7268 43.4963 75.7148 43.5085 75.7029C43.5155 75.6946 43.5225 75.6854 43.5303 75.6771C43.5277 75.6817 43.5242 75.6863 43.5216 75.6909L43.5251 75.6872C43.5451 75.655 43.5643 75.6219 43.5826 75.5879C43.6236 75.494 43.6611 75.3993 43.696 75.3027C43.7422 75.1426 43.7841 74.9834 43.8216 74.8206C43.9044 74.3845 43.9506 73.9475 43.9968 73.5059C44.0553 72.4433 44.0867 71.3798 44.0736 70.3144C44.0596 69.1423 44.0274 67.9721 43.9846 66.8009C43.9864 66.8479 43.9881 66.8939 43.9899 66.9399C43.7963 62.2736 43.5225 57.6055 42.9775 52.9687C42.6949 50.5556 42.3749 48.147 42.0566 45.7385C41.7532 43.4394 41.482 41.1376 41.2378 38.8302C40.9867 36.4492 40.7547 34.0655 40.4679 31.6882C40.3972 31.1004 40.8358 30.5529 41.3852 30.4931C41.9529 30.4306 42.4473 30.8731 42.5179 31.461C42.7787 33.6221 42.994 35.7896 43.2199 37.9544C43.4606 40.2636 43.7239 42.57 44.0239 44.8709C44.3238 47.181 44.6473 49.4875 44.9185 51.8013C45.1932 54.1427 45.4287 56.4887 45.5996 58.8411C45.7731 61.2285 45.9109 63.6159 46.0112 66.0079C46.1106 68.3824 46.2161 70.7726 46.0818 73.148C46.0391 73.896 45.9798 74.6504 45.8132 75.3818C45.6711 76.012 45.4679 76.6339 45.0615 77.1326C44.902 77.3267 44.7005 77.519 44.4817 77.6376C44.2454 77.7646 44.0082 77.8575 43.7544 77.9357C43.5347 78.0029 43.3053 78.0415 43.0804 78.0884C42.8188 78.1427 42.5554 78.1924 42.2929 78.2421C41.7915 78.3359 41.2884 78.4261 40.7853 78.5098C38.6367 78.8658 36.4785 79.105 34.3072 79.2467C32.8431 79.3415 31.3781 79.3994 29.9123 79.3994C29.1702 79.404 28.4281 79.3893 27.6852 79.3562Z" fill="black"/>
<path d="M16.1425 105.828C15.6664 105.631 15.2531 105.282 14.9078 104.892C14.4962 104.427 14.184 103.842 14.0192 103.23C13.6922 102.016 13.8701 100.574 14.8241 99.7195C15.3909 99.2126 16.1661 99.1509 16.8794 99.1454C17.3189 99.1417 17.754 99.2355 18.1813 99.3303C18.6085 99.4241 19.0332 99.5493 19.4431 99.7103C20.1755 99.9955 20.8487 100.427 21.5768 100.722C21.5821 100.724 21.5873 100.726 21.5934 100.728C21.6239 100.533 21.6431 100.337 21.6614 100.14C21.8271 97.9623 21.9736 95.7828 22.1349 93.6042C22.3085 91.2656 22.502 88.9288 22.7139 86.5929C22.9459 84.0445 23.1578 81.4924 23.4447 78.9496C23.5109 78.3608 24.0769 77.9523 24.6184 78.0387C25.1869 78.1298 25.5479 78.6892 25.4817 79.2771C25.2689 81.1594 25.1058 83.0491 24.9323 84.936C24.7562 86.8588 24.5826 88.7825 24.4213 90.7081C24.4222 90.6924 24.4239 90.6768 24.4248 90.6611C24.423 90.6878 24.4204 90.7145 24.4187 90.7403C24.4169 90.7605 24.4152 90.7798 24.4135 90.8001C24.4143 90.7853 24.4161 90.7697 24.4169 90.755C24.2391 93.0154 24.076 95.2777 23.9129 97.5391C23.8737 98.0819 23.8345 98.6238 23.7961 99.1656C23.7542 99.7388 23.7281 100.317 23.6539 100.886C23.626 101.105 23.5886 101.322 23.5162 101.529C23.4115 101.827 23.2642 102.087 23.0828 102.339C23.0017 102.452 22.9084 102.551 22.8055 102.637C22.8194 102.85 22.775 103.069 22.6642 103.262C22.2448 103.988 21.7155 104.626 21.0571 105.119C20.1921 105.766 19.1666 106.067 18.1194 106.131C18.0077 106.138 17.8961 106.142 17.7863 106.142C17.2238 106.143 16.6779 106.049 16.1425 105.828ZM17.9205 103.968C18.1185 103.954 18.3156 103.936 18.5126 103.907C18.6897 103.871 18.8649 103.828 19.0384 103.777C19.1527 103.736 19.2643 103.69 19.375 103.641C19.4997 103.575 19.6227 103.506 19.7422 103.432C19.8669 103.345 19.9872 103.253 20.104 103.155C20.2078 103.058 20.3072 102.958 20.4023 102.852C20.4589 102.784 20.5139 102.714 20.5679 102.643C20.3979 102.567 20.2322 102.484 20.07 102.403C19.5887 102.162 19.1134 101.905 18.6164 101.703C18.3391 101.614 18.0609 101.531 17.7784 101.459C17.5587 101.411 17.3398 101.367 17.1183 101.335C16.9788 101.326 16.8401 101.32 16.6998 101.32C16.5672 101.329 16.4355 101.341 16.3039 101.357C16.248 101.368 16.1931 101.379 16.1373 101.391C16.1329 101.395 16.1295 101.399 16.1251 101.403C16.1094 101.423 16.0937 101.444 16.0789 101.464C16.0597 101.498 16.0405 101.532 16.0213 101.567C16.0091 101.594 15.9978 101.622 15.9873 101.651C15.9751 101.694 15.9629 101.736 15.9516 101.778C15.942 101.832 15.9341 101.886 15.928 101.94C15.9245 102.005 15.9228 102.069 15.9228 102.134C15.9298 102.242 15.9411 102.347 15.9551 102.454C15.9673 102.515 15.9821 102.576 15.9978 102.637C16.0196 102.706 16.0431 102.774 16.0693 102.841C16.1111 102.933 16.1556 103.022 16.2036 103.111C16.255 103.192 16.3091 103.27 16.3649 103.348C16.4225 103.416 16.4809 103.481 16.541 103.545C16.5995 103.597 16.6588 103.648 16.7198 103.697C16.7547 103.72 16.7896 103.742 16.8253 103.763C16.889 103.795 16.9535 103.825 17.0189 103.853C17.0887 103.876 17.1584 103.897 17.229 103.917C17.3101 103.931 17.3904 103.945 17.4723 103.957C17.6232 103.969 17.7706 103.972 17.9205 103.968Z" fill="black"/>
<path d="M39.9804 104.993C39.4284 104.866 38.907 104.678 38.4047 104.404C37.4638 103.889 36.7305 103.043 36.2142 102.076C36.0922 101.847 36.0651 101.587 36.1157 101.343C35.9003 101.096 35.7747 100.776 35.7311 100.444C35.6466 99.8188 35.6527 99.1785 35.6317 98.5474C35.6152 98.0101 35.5995 97.4737 35.5855 96.9365C35.5227 94.6181 35.4739 92.2987 35.4338 89.9794C35.3884 87.3629 35.3457 84.7465 35.2515 82.1318C35.2167 81.3627 35.16 80.5908 35.1486 79.8208C35.1408 79.2274 35.6579 78.7453 36.2029 78.7591C36.7802 78.7729 37.2013 79.2789 37.2101 79.8714C37.2101 79.8806 37.2101 79.8907 37.2101 79.8999C37.258 81.0021 37.3173 82.1051 37.3487 83.2073C37.3853 84.4603 37.415 85.7134 37.4403 86.9664C37.4874 89.2351 37.5179 91.5029 37.5676 93.7707C37.6077 95.6227 37.6513 97.4756 37.7158 99.3285C38.0123 99.1592 38.3062 98.9844 38.6096 98.8289C39.0639 98.5971 39.5331 98.4131 40.0275 98.2999C40.6135 98.1665 41.2343 98.1628 41.8273 98.2438C41.9956 98.2668 42.163 98.2898 42.3304 98.3119C42.6391 98.3542 42.9304 98.4453 43.2216 98.5547C43.7884 98.7691 44.3038 99.1665 44.7189 99.6192C45.0537 99.9853 45.3223 100.462 45.4383 100.957C45.5612 101.484 45.5507 102.005 45.4095 102.526C45.1322 103.548 44.2785 104.388 43.3646 104.782C43.0516 104.917 42.7167 105.027 42.3801 105.077C42.0784 105.123 41.7793 105.141 41.4741 105.151C41.4227 105.153 41.3721 105.154 41.3198 105.154C40.8716 105.153 40.4138 105.092 39.9804 104.993ZM41.6695 102.972C41.809 102.96 41.9459 102.944 42.0845 102.925C42.1996 102.897 42.3121 102.867 42.4246 102.833C42.4813 102.813 42.5362 102.79 42.592 102.766C42.6592 102.732 42.7255 102.696 42.79 102.657C42.8772 102.595 42.9609 102.531 43.0429 102.464C43.0987 102.411 43.1519 102.357 43.2042 102.301C43.2452 102.249 43.2835 102.198 43.321 102.145C43.3411 102.111 43.3594 102.078 43.3777 102.044C43.3917 102.014 43.4039 101.984 43.4161 101.952C43.4309 101.903 43.4449 101.852 43.4571 101.801C43.4606 101.78 43.4632 101.759 43.4658 101.738C43.4667 101.714 43.4675 101.69 43.4667 101.666C43.4649 101.638 43.4614 101.61 43.4579 101.582C43.4518 101.548 43.444 101.515 43.4353 101.482C43.4283 101.462 43.4213 101.442 43.4135 101.421C43.3882 101.369 43.3611 101.317 43.3332 101.266C43.3132 101.237 43.2931 101.207 43.2731 101.179C43.219 101.115 43.1641 101.054 43.1065 100.995C43.0402 100.938 42.974 100.881 42.9051 100.827C42.8223 100.771 42.7385 100.72 42.6522 100.669C42.5537 100.621 42.4551 100.576 42.3548 100.535C42.3182 100.524 42.2816 100.514 42.245 100.503C41.9625 100.445 41.6738 100.409 41.3869 100.379C41.2265 100.37 41.0669 100.365 40.9073 100.369C40.7914 100.378 40.6754 100.39 40.5594 100.406C40.4251 100.433 40.2934 100.466 40.1618 100.504C39.9804 100.57 39.8034 100.642 39.6272 100.722C39.1738 100.957 38.7352 101.22 38.287 101.467C38.3314 101.531 38.3777 101.595 38.4248 101.659C38.5433 101.802 38.6689 101.939 38.7997 102.071C38.8695 102.134 38.9401 102.195 39.0125 102.253C39.1625 102.355 39.3159 102.452 39.4729 102.541C39.5941 102.599 39.7153 102.652 39.8391 102.702C39.9778 102.75 40.1173 102.794 40.2594 102.834C40.528 102.891 40.7966 102.935 41.0695 102.964C41.2701 102.974 41.4689 102.975 41.6695 102.972Z" fill="black"/>
<path d="M19.7326 19.1523C19.178 19.1431 18.7272 18.6178 18.7402 18.0401C18.7533 17.4375 19.2329 16.9784 19.7945 16.9784C19.8878 16.9784 19.9854 16.9949 20.0796 17.0069C20.8138 17.0593 21.5455 17.0363 22.2806 17.0115C26.7234 16.7585 31.1654 16.4576 35.5977 16.051C37.3182 15.8928 39.0352 15.7032 40.7539 15.5312C41.3128 15.4751 41.8282 15.9047 41.8866 16.499C41.945 17.0832 41.5291 17.638 40.9693 17.6941C39.9272 17.799 38.8878 17.9214 37.8449 18.0244C36.7566 18.1311 35.6658 18.2277 34.5766 18.3271C32.4158 18.523 30.2515 18.673 28.0863 18.8202C26.672 18.9168 25.2558 19.0171 23.8406 19.0981C22.9363 19.1496 22.0251 19.2195 21.1164 19.2195C20.6543 19.2195 20.193 19.2011 19.7326 19.1523Z" fill="black"/>
<path d="M26.5865 32.9652C25.9002 32.7591 25.2471 32.4261 24.6018 32.1124C24.0786 31.8594 23.5833 31.541 23.0915 31.2292C22.9729 31.1537 22.8613 31.07 22.7479 30.9872C22.5753 30.8612 22.3887 30.7443 22.2247 30.6054C21.8385 30.2788 21.4609 29.9531 21.0999 29.5934C20.4188 28.9144 19.8503 28.1168 19.3742 27.2685C18.9303 26.4755 18.626 25.6052 18.3853 24.7238C18.0156 23.3714 17.9118 21.9602 18.0034 20.5608C18.0479 19.8791 18.1037 19.1983 18.1813 18.5203C18.2484 17.9315 18.8135 17.5221 19.355 17.6085C19.9235 17.7005 20.2854 18.2599 20.2191 18.8478C20.1686 19.2894 20.1293 19.7328 20.0927 20.1754C20.0535 20.7798 20.0195 21.3815 20.036 21.9868C20.0578 22.3769 20.0988 22.7624 20.1572 23.1479C20.2375 23.5959 20.3395 24.0375 20.4633 24.4745C20.5749 24.8315 20.6987 25.182 20.8409 25.5261C20.9839 25.8426 21.14 26.1498 21.3118 26.4498C21.5097 26.7708 21.7225 27.0772 21.9518 27.3744C22.1881 27.6614 22.4358 27.9328 22.6965 28.195C22.9581 28.4406 23.231 28.6679 23.504 28.8979C23.7882 29.1058 24.0716 29.311 24.3681 29.4996C24.7047 29.7139 25.0474 29.908 25.3936 30.1012C25.8898 30.3414 26.3859 30.5824 26.8987 30.7839C27.1297 30.8658 27.3617 30.9348 27.598 30.9946C27.864 31.0507 28.1291 31.0939 28.3976 31.1261C28.7604 31.1546 29.1223 31.1629 29.4859 31.1528C29.928 31.1261 30.3649 31.0663 30.8044 31.0093C31.0633 30.9568 31.3223 30.9035 31.5822 30.851C31.8438 30.7977 32.1045 30.7121 32.3635 30.6413C32.7175 30.5235 33.0689 30.4039 33.4169 30.2668C33.7735 30.1261 34.1223 29.9706 34.4737 29.8133C34.7632 29.6688 35.0527 29.5253 35.3361 29.368C35.6204 29.2098 35.8968 29.0405 36.1733 28.8684C36.4 28.7093 36.6197 28.5427 36.8325 28.3633C37.0531 28.1628 37.2615 27.9475 37.4717 27.7341C37.4403 27.7709 37.4089 27.8067 37.3775 27.8435C37.5702 27.62 37.7629 27.401 37.9425 27.1664C38.1187 26.9355 38.2844 26.7009 38.4492 26.4626C38.7701 25.9474 39.0648 25.423 39.3386 24.8775C39.4869 24.5472 39.622 24.2142 39.7441 23.8719C39.8592 23.4901 39.9595 23.1074 40.0493 22.7173C40.2132 21.8728 40.3379 21.0236 40.4173 20.1652C40.4504 19.6822 40.4644 19.202 40.4504 18.7181C40.4278 18.2921 40.3876 17.868 40.3249 17.4466C40.3205 17.4218 40.3161 17.397 40.3118 17.373C40.2621 17.0915 40.2882 16.8137 40.4304 16.5634C40.5725 16.3132 40.8088 16.131 41.0774 16.0639C41.6049 15.9323 42.2145 16.2874 42.3182 16.8698C42.4918 17.8349 42.545 18.8202 42.5057 19.8009C42.4604 20.9224 42.286 22.0439 42.0689 23.1405C41.9424 23.779 41.7567 24.3954 41.5422 25.0063C41.3538 25.5454 41.0852 26.0588 40.8201 26.5583C40.5463 27.0735 40.2377 27.5639 39.9089 28.0404C39.7511 28.2686 39.5819 28.4866 39.4136 28.7065C39.3351 28.8086 39.2453 28.9025 39.1616 29.0009C39.0587 29.1196 38.9584 29.2447 38.8486 29.356C38.5625 29.6458 38.2765 29.9255 37.9696 30.1886C37.5981 30.506 37.1883 30.7609 36.7784 31.0176C36.3276 31.2991 35.848 31.5318 35.3745 31.7683C34.8539 32.0286 34.3107 32.2375 33.7709 32.45C33.518 32.5503 33.2529 32.623 32.9957 32.7085C32.6931 32.8097 32.3801 32.8815 32.0731 32.9643C31.8045 33.036 31.5255 33.0765 31.2543 33.1317C30.9543 33.1924 30.6491 33.2219 30.3457 33.2614C29.9524 33.313 29.5556 33.3387 29.1589 33.3387C28.2895 33.3396 27.421 33.2154 26.5865 32.9652Z" fill="black"/>
<path d="M4.05488 66.0493C3.53691 65.8929 3.16457 65.2636 3.34856 64.7033C3.53343 64.1421 3.72526 63.5828 3.92146 63.0253C4.10633 62.499 4.28421 61.9682 4.48477 61.4493C4.89636 60.384 5.33846 59.3342 5.79714 58.2909C6.75285 56.1142 7.75826 53.9642 8.78112 51.8215C8.94941 51.4692 9.1151 51.1159 9.28514 50.7654C9.27729 50.7819 9.26945 50.7985 9.2616 50.8141C10.2766 48.7165 11.3221 46.6355 12.345 44.5416C12.3241 44.5839 12.304 44.6253 12.2831 44.6685C13.0653 43.018 13.8379 41.3648 14.5991 39.7042C15.0107 38.8044 15.4223 37.9028 15.8557 37.0159C16.0458 36.6268 16.2341 36.2367 16.4286 35.8512C16.7364 35.245 17.0503 34.3857 17.7898 34.301C18.3478 34.2385 18.8641 34.681 18.9225 35.2689C18.9539 35.5817 18.851 35.8807 18.6652 36.1024C18.6522 36.1208 18.6391 36.1401 18.6251 36.1585C18.2545 36.7924 17.9476 37.4732 17.6241 38.1337C17.645 38.0923 17.6651 38.05 17.686 38.0068C16.7843 39.9103 15.9246 41.8349 15.0238 43.7384C14.5032 44.8424 13.9756 45.9427 13.4376 47.0384C12.9789 47.9722 12.5072 48.8978 12.0494 49.8316C12.0703 49.7902 12.0904 49.7478 12.1113 49.7055C11.7886 50.3707 11.4669 51.0377 11.1425 51.7028C10.1127 53.863 9.0933 56.0268 8.10532 58.21C7.62834 59.2606 7.17925 60.3269 6.73628 61.395C6.31597 62.4089 5.96195 63.454 5.60269 64.4945C5.56606 64.6003 5.53031 64.7052 5.49369 64.811C5.43788 64.9747 5.38293 65.1404 5.32887 65.305C5.23644 65.5856 5.07949 65.8193 4.82661 65.9628C4.67662 66.0484 4.50745 66.0926 4.33741 66.0926C4.24324 66.0916 4.14731 66.0769 4.05488 66.0493Z" fill="black"/>
<path d="M53.1398 44.7329C51.6609 44.5194 50.2421 43.8635 48.996 43.0143C48.6272 42.7632 48.2758 42.4872 47.9287 42.2047C47.7098 42.0263 47.4848 41.8542 47.2712 41.6674C46.8352 41.2856 46.3975 40.9075 45.9745 40.5083C45.7592 40.3049 45.5438 40.1016 45.3275 39.8983C45.0755 39.661 44.8444 39.396 44.6064 39.1439C44.1896 38.7023 43.8094 38.2285 43.4213 37.7574C43.0516 37.3085 42.7263 36.8163 42.3871 36.3425C42.231 36.1245 42.0941 35.888 41.9494 35.6617C41.8151 35.4529 41.6799 35.244 41.5483 35.0324C41.2291 34.5218 40.9143 34.0085 40.5699 33.5163C40.201 33.1354 40.1583 32.4932 40.4844 32.0617C40.8359 31.5971 41.4916 31.5217 41.9328 31.8888C42.1133 32.0387 42.2441 32.2476 42.3793 32.4389C42.5153 32.6331 42.6383 32.8373 42.7673 33.036C42.974 33.3553 43.1676 33.6846 43.3725 34.0048C43.6053 34.3654 43.8242 34.7426 44.0727 35.0904C44.3422 35.4667 44.6116 35.8429 44.8819 36.2192C45.1732 36.5725 45.4635 36.9258 45.7548 37.2791C45.8812 37.4327 46.0303 37.5716 46.1664 37.7161C46.3425 37.9028 46.5187 38.0887 46.6948 38.2754C47.1456 38.7005 47.593 39.1246 48.0586 39.5312C48.6298 40.0317 49.2088 40.5221 49.8148 40.9756C50.2003 41.2525 50.5961 41.5065 51.0077 41.7365C51.353 41.9159 51.7036 42.0759 52.0637 42.2167C52.3707 42.3253 52.6794 42.4182 52.995 42.4964C53.2819 42.5562 53.5688 42.6022 53.8583 42.6344C54.1548 42.6555 54.4486 42.6611 54.7451 42.6528C55.0425 42.6335 55.3372 42.6003 55.6319 42.5534C55.9171 42.4964 56.1979 42.4265 56.4769 42.3437C56.7403 42.2526 56.9966 42.1486 57.2512 42.0318C57.5006 41.9048 57.7413 41.7677 57.9794 41.6178C58.2331 41.4439 58.4773 41.259 58.7136 41.0593C58.9037 40.8845 59.0859 40.7024 59.2612 40.511C59.4539 40.2792 59.6327 40.04 59.8045 39.7916C60.039 39.4245 60.2509 39.0436 60.448 38.6526C60.6956 38.1328 60.9145 37.6029 61.1351 37.0702C61.2738 36.7381 61.3871 36.3922 61.5101 36.0527C61.6086 35.7334 61.7063 35.4142 61.8048 35.0959C61.9095 34.7518 61.9879 34.3967 62.0786 34.0489C62.2461 33.4095 62.3751 32.7582 62.5111 32.1105C62.6594 31.3358 62.7902 30.5631 62.8957 29.7801C62.9899 29.0736 63.0457 28.3587 63.1059 27.6467C63.1041 27.666 63.1032 27.6844 63.1015 27.7037C63.1032 27.6835 63.105 27.6641 63.1059 27.6439C63.1085 27.6172 63.1102 27.5915 63.1128 27.5648C63.1102 27.5905 63.1085 27.6154 63.1067 27.6411C63.1451 27.1416 63.1809 26.642 63.2018 26.1415C63.2271 25.55 63.6857 25.066 64.256 25.0798C64.808 25.0936 65.2876 25.6006 65.2623 26.1921C65.2143 27.3467 65.1158 28.5041 64.9859 29.6504C64.8472 30.874 64.6258 32.0755 64.372 33.278C64.2604 33.8061 64.1427 34.3332 64.0066 34.8548C63.9334 35.1354 63.8715 35.4216 63.786 35.6976C63.684 36.0251 63.5837 36.3535 63.4834 36.6811C63.3186 37.2183 63.1085 37.7436 62.8931 38.2607C62.4257 39.3831 61.9112 40.4678 61.2066 41.4494C60.3085 42.6978 59.0432 43.6142 57.6794 44.2048C56.6766 44.6391 55.5796 44.8332 54.4896 44.8332C54.0353 44.8304 53.5836 44.7964 53.1398 44.7329Z" fill="black"/>
<path d="M63.2541 29.8583C62.9716 29.8123 62.7527 29.6495 62.5748 29.4204C62.0856 28.7902 61.6662 28.0938 61.2398 27.4157C60.8108 26.7349 60.4009 26.0403 59.9824 25.3522C59.5437 24.63 59.0999 23.9133 58.6133 23.2251C58.493 23.0558 58.3726 22.8875 58.2497 22.72C58.0561 22.4532 57.8477 22.168 57.8146 21.8212C57.7518 21.157 58.241 20.6004 58.8671 20.6004C59.2743 20.6004 59.6266 20.8782 59.7844 21.2526C60.148 21.7973 60.5535 22.3088 60.9023 22.8654C61.3026 23.503 61.695 24.1461 62.0839 24.7928C62.4117 25.3384 62.7422 25.8821 63.0849 26.4185C63.4582 27.0027 63.8209 27.6006 64.2447 28.1453C64.6013 28.6044 64.4479 29.3321 64.0136 29.6642C63.8375 29.7985 63.623 29.8703 63.4067 29.8703C63.3561 29.8703 63.3056 29.8666 63.2541 29.8583Z" fill="black"/>
<path d="M64.1479 29.5649C63.6029 29.552 63.1067 29.0451 63.1416 28.4526C63.2183 27.1389 63.3108 25.826 63.398 24.5122C63.4416 23.8563 63.4869 23.2012 63.5209 22.5453C63.5392 22.1957 63.5575 21.8442 63.5724 21.4946C63.5889 21.1138 63.5732 20.7126 63.6613 20.3419C63.7965 19.766 64.4112 19.4375 64.9371 19.5967C65.4201 19.742 65.6992 20.2177 65.6748 20.7172C65.6739 20.732 65.673 20.7476 65.6722 20.7623C65.6704 20.7826 65.6695 20.8028 65.6678 20.824C65.6687 20.8194 65.6695 20.8138 65.6713 20.8092C65.6704 20.8175 65.6687 20.8258 65.6678 20.8341C65.6251 21.4882 65.6076 22.1442 65.5727 22.7983C65.5396 23.4092 65.4977 24.0191 65.4559 24.6291C65.3669 25.9208 65.2797 27.2115 65.2039 28.5041C65.1699 29.0865 64.74 29.5658 64.1749 29.5667C64.1645 29.5649 64.1566 29.5649 64.1479 29.5649Z" fill="black"/>
<path d="M62.9716 29.2787C62.553 28.9264 62.4301 28.1904 62.8076 27.7506C63.5785 26.8499 64.3737 25.975 65.1699 25.0992C65.9878 24.1985 66.7831 23.2757 67.5827 22.3585C67.9638 21.9215 68.671 21.9868 69.0398 22.3944C69.2273 22.6014 69.3311 22.8838 69.325 23.1699C69.3188 23.4708 69.1942 23.7155 69.0058 23.9308C68.2341 24.8158 67.4641 25.7018 66.6793 26.5748C65.9896 27.343 65.2911 28.1002 64.6127 28.8794C64.5481 28.9549 64.4827 29.0294 64.4191 29.1048C64.2307 29.3247 64.0049 29.4774 63.7206 29.5096C63.6849 29.5133 63.6491 29.5152 63.6134 29.5152C63.3823 29.5152 63.1538 29.4324 62.9716 29.2787Z" fill="black"/>
<path d="M63.2471 30.7544C62.982 30.6744 62.7544 30.4803 62.6236 30.2245C62.3681 29.7231 62.5347 29.0037 63.0431 28.7516C64.1121 28.2198 65.1812 27.689 66.2494 27.1563C67.3481 26.6089 68.4285 26.0164 69.5377 25.4939C70.0504 25.2528 70.6774 25.5951 70.8675 26.125C70.9617 26.3872 70.9556 26.6853 70.8501 26.9429C70.7358 27.2216 70.5274 27.4065 70.2693 27.5271C70.2449 27.539 70.2214 27.5501 70.1969 27.562C69.1985 28.0459 68.2192 28.5768 67.226 29.0718C66.1587 29.6044 65.0888 30.1362 64.0206 30.667C63.8584 30.748 63.691 30.7949 63.5192 30.7949C63.4285 30.7949 63.3378 30.782 63.2471 30.7544Z" fill="black"/>
<path d="M63.6814 30.8207C62.1754 30.1463 60.6991 29.3928 59.2272 28.6412C58.4494 28.2438 57.6672 27.8491 56.912 27.4029C56.5039 27.1628 56.1063 26.9125 55.7087 26.6531C55.5465 26.5473 55.3817 26.4277 55.2299 26.3053C55.1331 26.2271 55.0355 26.1489 54.9404 26.0689C54.7913 25.9447 54.6832 25.7956 54.5855 25.6273C54.3135 25.1636 54.5018 24.5435 54.889 24.2316C55.0015 24.1406 55.134 24.0835 55.2692 24.0467C55.6721 23.9363 56.0906 24.1212 56.3313 24.4552C56.388 24.5012 56.4446 24.5472 56.5013 24.5932C57.076 25.0035 57.6733 25.3623 58.2802 25.7193C59.2769 26.2529 60.2823 26.7672 61.2912 27.2741C62.3542 27.8077 63.418 28.3404 64.5019 28.8252C65.019 29.057 65.2597 29.7158 65.0373 30.2558C64.8699 30.6643 64.4836 30.9072 64.0842 30.9072C63.9482 30.9062 63.8122 30.8786 63.6814 30.8207ZM55.8299 26.1342C55.8421 26.1305 55.8552 26.1259 55.8674 26.1222C55.9075 26.1029 55.9476 26.0836 55.9877 26.0643C56.0243 26.0394 56.0601 26.0155 56.0967 25.9916C56.0967 25.9897 56.0976 25.9888 56.0976 25.987C56.0174 26.0486 55.9275 26.0983 55.8299 26.1342Z" fill="black"/>
<path d="M4.94257 74.1931C4.53709 73.7653 4.22055 73.2741 3.92756 72.7561C3.58835 72.1553 3.31368 71.4939 3.09742 70.8351C2.66229 69.5103 2.50968 68.0816 2.63002 66.6878C2.65531 66.3971 2.71809 66.1118 2.78611 65.8294C2.84977 65.569 2.93523 65.2829 3.0669 65.0502C3.28054 64.6748 3.62498 64.4347 4.04616 64.4347C4.6086 64.4347 5.06552 64.9646 5.05244 65.547C5.0472 65.7843 4.9696 65.9996 4.84316 66.1735C4.80305 66.3032 4.76817 66.4329 4.73503 66.5654C4.70277 66.743 4.67836 66.9205 4.66092 67.1009C4.64784 67.3437 4.64347 67.5857 4.64696 67.8286C4.6644 68.1828 4.69928 68.5333 4.74985 68.8829C4.81176 69.2334 4.88851 69.5775 4.98181 69.9207C5.06552 70.1921 5.1597 70.4579 5.26346 70.722C5.44571 71.1305 5.63581 71.5288 5.85207 71.918C5.97153 72.1047 6.09361 72.286 6.22616 72.4617C6.2933 72.5399 6.36131 72.6153 6.43282 72.6908C6.82958 73.1103 6.79906 73.826 6.39881 74.2281C6.20087 74.4277 5.94886 74.5243 5.69598 74.5243C5.42304 74.5243 5.14836 74.4112 4.94257 74.1931Z" fill="black"/>
<path d="M7.58647 71.4966C6.92549 70.8591 6.25668 70.2307 5.58785 69.6014C5.23818 69.2739 4.88763 68.9464 4.53883 68.618C4.36879 68.4579 4.20224 68.2923 4.03482 68.1285C3.77234 67.87 3.47761 67.6078 3.30583 67.2702C2.9797 66.6262 3.37646 65.7145 4.10632 65.674C4.19526 65.6685 4.28508 65.6611 4.37315 65.6804C4.64783 65.7402 4.88589 65.8745 5.05331 66.1174C5.06726 66.1377 5.08035 66.1588 5.09343 66.18C5.30707 66.4164 5.53553 66.6372 5.76225 66.858C6.8008 67.8332 7.84372 68.8047 8.87093 69.7946C9.07847 69.9952 9.22322 70.2298 9.25374 70.5316C9.28164 70.8131 9.20316 71.101 9.03574 71.3228C8.83954 71.5813 8.51515 71.7349 8.19775 71.7349C7.97539 71.7349 7.75651 71.6604 7.58647 71.4966Z" fill="black"/>
<path d="M8.87095 68.8387C7.75654 68.2554 6.63688 67.6777 5.49805 67.1496C5.39515 67.1128 5.29139 67.0779 5.18675 67.0475C4.83882 67.0733 4.47956 66.9242 4.27987 66.6041C4.09588 66.3106 4.04269 65.9913 4.12727 65.65C4.21709 65.2857 4.52839 64.9665 4.87893 64.891C5.4126 64.7769 5.97242 64.9931 6.46074 65.2185C6.82872 65.3896 7.19148 65.5718 7.5551 65.754C8.26927 66.1118 8.98256 66.4716 9.6915 66.8433C9.94351 66.9748 10.1441 67.1726 10.2452 67.456C10.3394 67.7182 10.3333 68.0163 10.2278 68.2739C10.0673 68.6649 9.66795 68.9353 9.26683 68.9353C9.13167 68.9353 8.99652 68.905 8.87095 68.8387Z" fill="black"/>
<path d="M0.746512 74.3274C0.208488 74.1655 -0.118523 73.5501 0.040181 72.9824C0.333173 71.9272 0.647976 70.8793 0.964512 69.8314C1.13455 69.2674 1.30808 68.7053 1.48684 68.146C1.75454 67.306 2.07107 66.4679 2.52102 65.7172C2.82012 65.2158 3.44534 65.0327 3.93454 65.3427C4.40803 65.6417 4.59028 66.3336 4.28944 66.834C4.19962 66.9831 4.11504 67.1358 4.03482 67.2904C3.80984 67.7807 3.63283 68.2858 3.45233 68.7955C2.94657 70.3806 2.46696 71.9768 2.02137 73.5822C1.8897 74.0542 1.47201 74.3688 1.0238 74.3688C0.932242 74.3688 0.838944 74.356 0.746512 74.3274Z" fill="black"/>
</svg>
