<svg width="69" height="107" viewBox="0 0 69 107" fill="none" xmlns="http://www.w3.org/2000/svg">
<path d="M29.6727 37.1981C29.3754 37.188 29.0789 37.1769 28.7824 37.1668C28.5069 37.1567 28.2287 37.1061 27.9549 37.0748C27.6636 37.0417 27.3715 37.0086 27.0785 36.9745C26.81 36.9442 26.5396 36.8752 26.2737 36.8246C26.0068 36.7749 25.7417 36.7262 25.4758 36.6765C24.6953 36.5311 23.9219 36.2938 23.1694 36.038C21.7515 35.5541 20.3816 34.8953 19.1023 34.0885C18.4623 33.6846 17.8545 33.2182 17.2607 32.7416C16.6302 32.2365 16.0381 31.6818 15.4687 31.1022C14.3438 29.9577 13.3916 28.6338 12.5746 27.2317C11.7645 25.8407 11.1776 24.3172 10.8288 22.7265C10.487 21.1689 10.4774 19.5626 10.6753 17.9848C10.875 16.3886 11.3764 14.8522 12.0304 13.4032C13.3428 10.4942 15.2978 7.88967 17.6208 5.8077C18.5783 4.94842 19.6177 4.15722 20.7234 3.5215C21.2396 3.22526 21.748 2.90786 22.2843 2.65302C22.8092 2.40462 23.3281 2.13875 23.8687 1.92991C24.2088 1.79835 24.548 1.6677 24.8881 1.53614C25.1026 1.45334 25.3249 1.39078 25.5438 1.3227C25.8752 1.22058 26.2074 1.11846 26.5396 1.01726C26.769 0.946424 27.0061 0.899508 27.239 0.843388C27.5163 0.776228 27.7918 0.708147 28.0683 0.640987C28.3743 0.567387 28.6891 0.520461 28.9978 0.459741C29.5951 0.343821 30.1933 0.254589 30.795 0.165349C30.9938 0.135909 31.1883 0.114744 31.3879 0.0972641C31.7289 0.0687441 32.0716 0.0218199 32.4134 0.0153799C32.7029 0.0107799 32.9942 0.006188 33.2837 0.000667998C33.5618 -0.003932 33.8383 0.0163069 34.1156 0.0282669C34.5926 0.0503469 35.066 0.0991117 35.5369 0.185592C35.8369 0.240792 36.1316 0.324511 36.4238 0.417431C36.5406 0.391671 36.6618 0.388911 36.7839 0.417431C38.895 0.896751 41.0113 1.42759 43.0396 2.21603C44.0442 2.60703 45.013 3.09555 45.9512 3.63743C46.4282 3.91251 46.8947 4.20875 47.3412 4.53719C47.8182 4.88771 48.2725 5.25846 48.7198 5.65038C49.611 6.43054 50.3827 7.3533 51.1074 8.30182C51.7649 9.16202 52.3447 10.1142 52.8278 11.094C53.099 11.6451 53.3589 12.2008 53.5777 12.7776C53.7992 13.36 53.9771 13.9506 54.1297 14.5569C54.2692 15.1117 54.3582 15.6784 54.4105 16.2497C54.4436 16.6131 54.4428 16.9811 54.455 17.3454C54.4646 17.6527 54.4506 17.9729 54.4244 18.2802C54.4009 18.5525 54.3931 18.8312 54.3547 19.1026C54.3093 19.4136 54.2753 19.7291 54.2108 20.0355C54.1533 20.3069 54.1114 20.5884 54.0347 20.8534C53.9475 21.1533 53.8733 21.4615 53.767 21.7541C53.671 22.0163 53.5873 22.2886 53.4774 22.5434C53.3466 22.8424 53.2255 23.1479 53.0816 23.4386C52.9482 23.71 52.8139 23.9805 52.6804 24.2509C52.4127 24.7928 52.0884 25.3034 51.7736 25.815C51.4902 26.2759 51.1754 26.7239 50.8362 27.1407C50.6426 27.3789 50.4569 27.6283 50.2511 27.8555C50.0191 28.1094 49.788 28.3633 49.5561 28.6173C49.2082 28.9991 48.8288 29.356 48.4521 29.7065C47.9751 30.1481 47.4921 30.5741 47.0003 30.9955C46.5861 31.3506 46.1492 31.6744 45.7193 32.0084C45.5161 32.1657 45.2929 32.3019 45.081 32.4463C44.8647 32.5953 44.6502 32.7499 44.4261 32.887C43.9212 33.1961 43.4215 33.5098 42.9001 33.7895C42.6158 33.9422 42.3307 34.0959 42.0455 34.2486C41.7883 34.3866 41.5162 34.4988 41.2537 34.623C41.0026 34.7408 40.7515 34.8595 40.5004 34.9772C40.2353 35.1024 39.9536 35.1971 39.6824 35.3057C39.4409 35.4023 39.1993 35.5007 38.9569 35.5973C38.6761 35.7105 38.3779 35.7896 38.0901 35.8853C37.8338 35.9699 37.5783 36.0555 37.321 36.1401C37.035 36.2349 36.7403 36.3002 36.4499 36.3775C36.1465 36.4575 35.843 36.5375 35.5404 36.6176C35.3041 36.6792 35.0591 36.7133 34.8201 36.7602C34.4992 36.8218 34.1775 36.8853 33.8574 36.9479C33.6037 36.9976 33.3456 37.0169 33.0892 37.0454C32.7648 37.0831 32.4405 37.119 32.1152 37.1567C31.8658 37.1852 31.6077 37.1779 31.3574 37.1861C31.0391 37.1972 30.7209 37.2082 30.4026 37.2202C30.3694 37.2211 30.3354 37.222 30.3014 37.222C30.093 37.2239 29.8811 37.2064 29.6727 37.1981ZM30.4192 35.049C30.6799 35.0582 30.9485 35.0315 31.2092 35.0214C31.4342 35.0131 31.6591 35.0057 31.8841 34.9975C32.4091 34.9377 32.9349 34.8779 33.4598 34.8181C33.9848 34.7159 34.5097 34.6129 35.0355 34.5108C35.3172 34.4556 35.598 34.3617 35.8761 34.2881C36.1534 34.2155 36.4307 34.1409 36.7071 34.0683C37.1091 33.9349 37.5111 33.8015 37.9131 33.6681C38.234 33.5623 38.5445 33.4362 38.8593 33.3093C39.2002 33.1722 39.549 33.048 39.883 32.8907C40.2806 32.7039 40.6791 32.5162 41.0768 32.3295C41.4953 32.1059 41.9121 31.8805 42.3307 31.656C42.5051 31.5622 42.6725 31.4481 42.8417 31.3441C43.0553 31.2135 43.2681 31.0829 43.4826 30.9522C43.9796 30.6128 44.4741 30.276 44.9519 29.9062C45.1935 29.7194 45.4394 29.5382 45.6713 29.3385C45.939 29.1085 46.2076 28.8795 46.4753 28.6495C46.8616 28.2916 47.2496 27.9374 47.6211 27.5629C48.0213 27.16 48.405 26.7478 48.7878 26.3274C48.9893 26.0781 49.1907 25.8297 49.393 25.5803C49.4898 25.4607 49.5726 25.3246 49.6607 25.1985C49.7575 25.0615 49.8543 24.9244 49.9511 24.7864C50.1831 24.411 50.4159 24.0366 50.6286 23.6483C50.8501 23.2454 51.0568 22.8387 51.2608 22.4266C51.3707 22.1727 51.4815 21.9178 51.5922 21.6639C51.6881 21.4431 51.7631 21.2085 51.8433 20.9794C51.9148 20.7329 51.9863 20.4854 52.0578 20.2388C52.1311 19.9877 52.1703 19.719 52.2244 19.4614C52.2166 19.4982 52.2087 19.535 52.2017 19.5718C52.241 19.3004 52.2811 19.0309 52.3203 18.7595C52.3578 18.4945 52.3657 18.2203 52.3883 17.9526C52.384 17.9995 52.3814 18.0455 52.377 18.0906C52.3831 17.8257 52.3892 17.5607 52.3953 17.2957C52.4005 17.0869 52.3866 16.8753 52.377 16.6655C52.3552 16.3785 52.3247 16.0942 52.2837 15.8109C52.2104 15.4005 52.1102 15.0022 52.009 14.5992C51.9401 14.3839 51.8721 14.1677 51.8032 13.9515C51.73 13.7206 51.6306 13.4943 51.5442 13.268C51.355 12.8402 51.1579 12.4207 50.9521 12.0011C50.7533 11.5982 50.5222 11.2127 50.2938 10.8263C49.9171 10.2495 49.5247 9.69287 49.1096 9.14731C48.6989 8.65511 48.2751 8.18498 47.8304 7.72682C47.5514 7.4637 47.2697 7.20703 46.9819 6.95403C46.7029 6.71115 46.4038 6.4931 46.1073 6.27506C45.6233 5.94754 45.1324 5.64303 44.6293 5.35047C43.7651 4.88679 42.887 4.47463 41.9784 4.11859C40.4707 3.58407 38.9334 3.15718 37.3847 2.78182C37.083 2.9189 36.7272 2.90051 36.4342 2.71743C36.3793 2.69259 36.3244 2.66866 36.2694 2.64658C35.9625 2.54262 35.6564 2.44142 35.3433 2.36138C35.0416 2.29882 34.7399 2.25467 34.4339 2.22339C33.7703 2.17003 33.1093 2.17647 32.4448 2.18751C32.2626 2.20315 32.0794 2.21879 31.8963 2.23351C31.6923 2.25007 31.4847 2.2565 31.2833 2.28594C30.8273 2.3531 30.3712 2.42027 29.9151 2.48743C29.548 2.55919 29.18 2.63094 28.8129 2.7027C28.4781 2.76802 28.1476 2.85175 27.8163 2.93179C27.4875 3.01183 27.1596 3.08635 26.837 3.18571C26.4646 3.29979 26.0923 3.41478 25.7199 3.52886C25.2386 3.71378 24.759 3.89963 24.2777 4.08547C24.0501 4.17287 23.8286 4.2989 23.6071 4.40378C23.3891 4.50682 23.1711 4.61078 22.9522 4.71474C22.3357 5.06894 21.7131 5.41211 21.1141 5.79851C20.3816 6.28795 19.6822 6.8243 19.0125 7.40574C18.3533 7.99914 17.7316 8.63119 17.1421 9.30003C16.5151 10.0333 15.9352 10.8033 15.3972 11.6102C14.9377 12.3222 14.5148 13.0564 14.1337 13.8191C13.8215 14.4714 13.5407 15.1374 13.2983 15.8219C13.1274 16.338 12.9818 16.8578 12.8667 17.3905C12.7646 17.9241 12.6896 18.4614 12.6399 19.0042C12.6068 19.4725 12.5964 19.9389 12.6112 20.409C12.6347 20.8451 12.6774 21.2775 12.7411 21.709C12.8265 22.2003 12.9382 22.6833 13.0725 23.1626C13.2355 23.698 13.4265 24.2197 13.6436 24.733C13.9096 25.3246 14.2122 25.8904 14.5392 26.4461C14.9368 27.0965 15.3702 27.7184 15.8358 28.3164C16.2962 28.8877 16.7854 29.4269 17.3043 29.9393C17.967 30.5713 18.6672 31.151 19.3971 31.6938C19.9717 32.1059 20.5647 32.4776 21.1803 32.8152C21.9032 33.197 22.6435 33.5319 23.4039 33.8226C24.146 34.0922 24.8994 34.313 25.665 34.4942C26.2309 34.6203 26.8047 34.7123 27.3741 34.8171C27.6026 34.8595 27.8407 34.8714 28.0709 34.8981C28.3351 34.9285 28.5984 34.9588 28.8626 34.9883C29.3806 35.0122 29.9003 35.0306 30.4192 35.049Z" fill="black"/>
<path d="M29.2428 16.3712C28.6926 16.3574 28.2087 15.8504 28.2366 15.2589C28.3011 13.9019 28.4284 12.5504 28.5636 11.2008C28.6316 10.5282 28.7127 9.85848 28.8025 9.18872C28.8487 8.84464 28.9045 8.50332 28.9621 8.162C28.9874 8.01112 29.0196 7.86117 29.0501 7.71213C29.1094 7.42049 29.1992 7.08928 29.426 6.88872C29.7495 6.6026 30.1471 6.50509 30.5474 6.67713C30.6729 6.73141 30.7906 6.82064 30.8839 6.92552C31.1804 7.25488 31.2415 7.74156 31.0706 8.13532C31.0679 8.14452 31.0653 8.15464 31.0627 8.16384C30.8866 9.05992 30.7706 9.9698 30.6694 10.8778C30.5691 11.7914 30.4837 12.7068 30.407 13.6231C30.3625 14.1843 30.3241 14.7464 30.298 15.3095C30.2701 15.8928 29.8288 16.3712 29.2664 16.3712C29.2585 16.3712 29.2507 16.3712 29.2428 16.3712Z" fill="black"/>
<path d="M35.7131 14.5238C35.441 14.5173 35.1794 14.395 34.9919 14.1871C34.7966 13.9718 34.7146 13.7041 34.7068 13.4115C34.6728 12.1796 34.6789 10.9478 34.692 9.71587C34.6981 9.09671 34.7059 8.47663 34.7251 7.85747C34.7364 7.52719 34.7478 7.19692 34.7608 6.86572C34.7713 6.58328 34.7704 6.29624 34.7992 6.01472C34.8585 5.425 35.4358 5.01835 35.9729 5.10391C36.2441 5.14715 36.4918 5.30724 36.6522 5.54092C36.8022 5.75896 36.8563 6.01011 36.8423 6.27231C36.844 6.25023 36.8458 6.22724 36.8484 6.20516C36.8083 6.79028 36.8031 7.38183 36.7839 7.96879C36.7638 8.59531 36.7586 9.22367 36.7516 9.85111C36.7377 11.0545 36.7351 12.2578 36.7673 13.4612C36.783 14.0454 36.2668 14.5229 35.734 14.5229C35.727 14.5247 35.7201 14.5247 35.7131 14.5238Z" fill="black"/>
<path d="M30.9083 79.3589C28.6673 79.2605 26.421 79.1262 24.1896 78.8833C23.0481 78.7582 21.9137 78.6055 20.7853 78.3791C20.2882 78.2798 19.7834 78.1685 19.3125 77.9725C19.0596 77.8667 18.778 77.749 18.5695 77.5576C18.3315 77.3396 18.1353 77.1068 18.0062 76.7995C17.8624 76.4591 17.8275 76.0874 17.8118 75.7194C17.7978 75.4076 17.7961 75.1003 17.8083 74.7893C17.8545 73.6936 17.9461 72.5979 18.0141 71.504C18.0838 70.3531 18.1553 69.2022 18.2277 68.0503C18.3699 65.7752 18.5399 63.5009 18.7056 61.2267C18.8756 58.8972 19.0352 56.5669 19.1904 54.2365C19.3482 51.8556 19.5104 49.4746 19.7023 47.0964C19.9037 44.6032 20.1182 42.1109 20.3353 39.6186C20.4191 38.6591 20.5036 37.6995 20.5882 36.74C20.6292 36.28 20.6693 35.82 20.7094 35.36C20.7303 35.1226 20.7513 34.8871 20.7705 34.6497C20.787 34.4501 20.7975 34.2431 20.8699 34.0572C21.0608 33.5595 21.6163 33.2863 22.1064 33.4344C22.6182 33.588 22.9112 34.1235 22.8362 34.658C22.8371 34.6552 22.838 34.6516 22.8389 34.6488C22.7822 35.0067 22.7743 35.3802 22.7421 35.7399C22.7002 36.2174 22.6583 36.694 22.6165 37.1705C22.5371 38.0657 22.4578 38.9618 22.3802 39.8578C22.2136 41.7733 22.0497 43.6878 21.8875 45.6032C21.7044 47.8756 21.5248 50.149 21.3739 52.4241C21.2117 54.8814 21.0486 57.3397 20.8742 59.7952C20.7121 62.0722 20.5342 64.3473 20.3842 66.6243C20.2324 68.9032 20.0999 71.1838 19.956 73.4636C19.9159 74.1085 19.8575 74.7534 19.8584 75.3993C19.8653 75.5566 19.8741 75.7139 19.8889 75.8703C19.9429 75.897 19.9988 75.9218 20.0546 75.9448C20.3502 76.0451 20.6475 76.1279 20.9501 76.1997C21.5483 76.3193 22.1456 76.4389 22.7508 76.518C23.4702 76.6128 24.1878 76.6983 24.909 76.7756C26.714 76.9348 28.5208 77.0553 30.3293 77.1556C32.1222 77.254 33.9132 77.2448 35.7061 77.1786C37.1954 77.104 38.6875 77.0185 40.1707 76.852C41.6488 76.6873 43.1198 76.4748 44.5857 76.2144C44.5647 76.2181 44.5429 76.2218 44.522 76.2264C45.2022 76.1022 45.8972 76 46.5634 75.8041C46.5886 75.794 46.6139 75.7838 46.6392 75.7737C46.6584 75.7636 46.6776 75.7525 46.6968 75.7424C46.709 75.7305 46.7203 75.7185 46.7325 75.7065C46.7395 75.6983 46.7465 75.6891 46.7543 75.6808C46.7517 75.6854 46.7482 75.69 46.7456 75.6946L46.7491 75.6909C46.7691 75.6587 46.7883 75.6256 46.8066 75.5915C46.8476 75.4977 46.8851 75.403 46.92 75.3064C46.9662 75.1463 47.0072 74.9871 47.0447 74.8243C47.1275 74.3882 47.1738 73.9512 47.22 73.5096C47.2784 72.447 47.3098 71.3835 47.2967 70.3181C47.2828 69.146 47.2496 67.9758 47.2078 66.8046C47.2095 66.8516 47.2112 66.8976 47.2121 66.9436C47.0185 62.2773 46.7447 57.6092 46.1997 52.9724C45.9172 50.5593 45.5972 48.1507 45.2789 45.7422C44.9755 43.4431 44.7042 41.1412 44.4601 38.8339C44.2089 36.4529 43.977 34.0692 43.6901 31.6919C43.6195 31.104 44.0581 30.5566 44.6075 30.4968C45.1751 30.4343 45.6696 30.8768 45.7402 31.4647C46.0009 33.6258 46.2163 35.7933 46.4421 37.958C46.6828 40.2672 46.9462 42.5737 47.2461 44.8746C47.5461 47.1847 47.8696 49.4912 48.1408 51.805C48.4155 54.1464 48.6509 56.4924 48.8218 58.8448C48.9954 61.2322 49.1331 63.6196 49.2334 66.0116C49.3328 68.3861 49.4375 70.7763 49.3041 73.1517C49.2613 73.8997 49.202 74.6541 49.0355 75.3855C48.8925 76.0157 48.6902 76.6376 48.2829 77.1362C48.1234 77.3304 47.9219 77.5227 47.7031 77.6413C47.4668 77.7683 47.2296 77.8612 46.9758 77.9394C46.7561 78.0066 46.5267 78.0452 46.3017 78.0921C46.0401 78.1464 45.7768 78.1961 45.5143 78.2458C45.0129 78.3405 44.5107 78.4298 44.0066 78.5135C41.858 78.8695 39.6999 79.1087 37.5286 79.2504C36.0645 79.3452 34.5995 79.4031 33.1337 79.4031C32.3934 79.4059 31.6513 79.3911 30.9083 79.3589Z" fill="black"/>
<path d="M19.3648 105.83C18.8887 105.633 18.4754 105.284 18.1292 104.894C17.7176 104.429 17.4054 103.844 17.2406 103.232C16.9136 102.019 17.0915 100.576 18.0455 99.7223C18.6123 99.2153 19.3875 99.1537 20.1008 99.1482C20.5403 99.1445 20.9754 99.2383 21.4027 99.3331C21.83 99.4278 22.2546 99.5521 22.6645 99.7131C23.3969 99.9983 24.0701 100.43 24.7983 100.725C24.8035 100.727 24.8087 100.729 24.8148 100.731C24.8453 100.536 24.8645 100.34 24.8828 100.143C25.0494 97.9651 25.195 95.7856 25.3563 93.607C25.5299 91.2684 25.7234 88.9316 25.9353 86.5957C26.1673 84.0473 26.3792 81.4952 26.6661 78.9523C26.7324 78.3635 27.2983 77.9551 27.8398 78.0416C28.4083 78.1326 28.7702 78.692 28.7031 79.2798C28.4903 81.1622 28.3272 83.0519 28.1537 84.9388C27.9776 86.8616 27.804 88.7853 27.6427 90.7109C27.6436 90.6952 27.6453 90.6796 27.6462 90.664C27.6445 90.6906 27.6418 90.7173 27.6401 90.7431C27.6383 90.7633 27.6366 90.7826 27.6349 90.8029C27.6357 90.7882 27.6375 90.7725 27.6384 90.7578C27.4605 93.0182 27.2974 95.2805 27.1343 97.5419C27.0951 98.0847 27.0559 98.6265 27.0175 99.1684C26.9756 99.7416 26.9495 100.319 26.8754 100.889C26.8475 101.108 26.81 101.325 26.7376 101.532C26.633 101.83 26.4856 102.089 26.3042 102.342C26.2231 102.455 26.1298 102.554 26.0269 102.64C26.0409 102.853 25.9964 103.072 25.8856 103.265C25.4662 103.99 24.9369 104.629 24.2785 105.121C23.4135 105.768 22.3881 106.068 21.3399 106.133C21.2283 106.14 21.1167 106.144 21.0068 106.144C20.4461 106.145 19.9002 106.051 19.3648 105.83ZM21.1428 103.971C21.3408 103.957 21.5379 103.939 21.7349 103.91C21.9119 103.874 22.0872 103.831 22.2607 103.78C22.375 103.74 22.4866 103.694 22.5973 103.644C22.722 103.58 22.845 103.51 22.9644 103.435C23.0891 103.349 23.2095 103.257 23.3263 103.158C23.4301 103.062 23.5295 102.962 23.6245 102.856C23.6812 102.788 23.7362 102.718 23.7902 102.647C23.6202 102.57 23.4545 102.488 23.2923 102.407C22.811 102.166 22.3357 101.909 21.8387 101.707C21.5614 101.617 21.2832 101.535 21.0007 101.463C20.781 101.415 20.5621 101.371 20.3406 101.339C20.2011 101.33 20.0624 101.324 19.922 101.324C19.7895 101.333 19.6578 101.344 19.5261 101.361C19.4703 101.372 19.4154 101.383 19.3596 101.395C19.3552 101.398 19.3517 101.403 19.3474 101.407C19.3317 101.427 19.316 101.447 19.3012 101.467C19.282 101.502 19.2628 101.536 19.2436 101.571C19.2314 101.598 19.2201 101.626 19.2096 101.654C19.1974 101.697 19.1852 101.74 19.1739 101.782C19.1643 101.836 19.1564 101.89 19.1512 101.944C19.1477 102.008 19.1459 102.073 19.1459 102.138C19.1529 102.246 19.1634 102.352 19.1782 102.457C19.1904 102.519 19.2052 102.58 19.2209 102.64C19.2427 102.709 19.2663 102.778 19.2924 102.845C19.3343 102.937 19.3788 103.026 19.4259 103.115C19.4782 103.196 19.5314 103.274 19.5872 103.352C19.6447 103.42 19.7032 103.485 19.7633 103.549C19.8217 103.602 19.8811 103.653 19.9421 103.701C19.977 103.724 20.0118 103.746 20.0476 103.767C20.1112 103.8 20.1758 103.829 20.2412 103.858C20.3109 103.881 20.3807 103.902 20.4513 103.92C20.5324 103.936 20.6126 103.949 20.6946 103.961C20.8463 103.971 20.9937 103.974 21.1428 103.971Z" fill="black"/>
<path d="M43.2027 104.996C42.6507 104.868 42.1292 104.681 41.627 104.407C40.6861 103.891 39.9527 103.045 39.4356 102.078C39.3136 101.85 39.2865 101.59 39.3371 101.346C39.1217 101.098 38.9962 100.778 38.9517 100.446C38.8671 99.8207 38.8732 99.1804 38.8523 98.5493C38.8357 98.012 38.82 97.4756 38.8061 96.9383C38.7433 94.6199 38.6944 92.3006 38.6535 89.9813C38.6081 87.3648 38.5654 84.7483 38.4712 82.1337C38.4363 81.3646 38.3796 80.5927 38.3683 79.8226C38.3605 79.2292 38.8767 78.7472 39.4226 78.761C39.9998 78.7748 40.421 79.2808 40.4297 79.8733C40.4297 79.8825 40.4297 79.8926 40.4297 79.9018C40.4777 81.0039 40.537 82.107 40.5684 83.2092C40.605 84.4622 40.6346 85.7152 40.6599 86.9683C40.7061 89.237 40.7376 91.5048 40.7873 93.7726C40.8282 95.6246 40.871 97.4775 40.9355 99.3303C41.232 99.1611 41.5258 98.9863 41.8284 98.8308C42.2827 98.5989 42.7519 98.4149 43.2463 98.3018C43.8323 98.1684 44.4531 98.1647 45.0461 98.2457C45.2144 98.2687 45.3818 98.2916 45.5492 98.3137C45.8579 98.356 46.1492 98.4471 46.4404 98.5566C47.0072 98.771 47.5226 99.1684 47.9376 99.6211C48.2725 99.9872 48.5411 100.464 48.6571 100.959C48.78 101.486 48.7695 102.007 48.6283 102.528C48.351 103.549 47.4973 104.389 46.5834 104.784C46.2704 104.919 45.9355 105.029 45.5989 105.079C45.2972 105.125 44.9981 105.143 44.6929 105.153C44.6415 105.155 44.5909 105.156 44.5395 105.156C44.0939 105.156 43.6369 105.094 43.2027 104.996ZM44.8926 102.974C45.0321 102.962 45.169 102.947 45.3077 102.927C45.4228 102.899 45.5353 102.869 45.6478 102.835C45.7044 102.814 45.7594 102.791 45.8152 102.767C45.8823 102.733 45.9486 102.698 46.014 102.659C46.1003 102.597 46.1849 102.533 46.2669 102.465C46.3227 102.412 46.3759 102.358 46.4282 102.303C46.4692 102.251 46.5076 102.2 46.5451 102.146C46.5651 102.113 46.5834 102.08 46.6018 102.046C46.6157 102.016 46.6279 101.985 46.6401 101.954C46.6549 101.904 46.6689 101.854 46.6811 101.803C46.6846 101.782 46.6872 101.761 46.6898 101.74C46.6907 101.716 46.6916 101.692 46.6907 101.668C46.6889 101.64 46.6855 101.612 46.6828 101.583C46.6759 101.55 46.6689 101.517 46.6602 101.484C46.6532 101.464 46.6462 101.444 46.6384 101.423C46.6131 101.371 46.586 101.318 46.5581 101.268C46.539 101.238 46.518 101.209 46.4971 101.18C46.443 101.117 46.3881 101.056 46.3306 100.997C46.2652 100.939 46.198 100.883 46.1291 100.83C46.0463 100.774 45.9626 100.721 45.8771 100.672C45.7786 100.624 45.6801 100.579 45.5798 100.538C45.5431 100.527 45.5065 100.517 45.4699 100.506C45.1874 100.448 44.8987 100.412 44.6118 100.382C44.4514 100.373 44.2918 100.368 44.1322 100.372C44.0154 100.381 43.9003 100.393 43.7843 100.409C43.65 100.436 43.5183 100.468 43.3867 100.507C43.2053 100.572 43.0283 100.645 42.8521 100.725C42.3987 100.96 41.9601 101.223 41.5119 101.469C41.5564 101.534 41.6026 101.598 41.6496 101.661C41.7682 101.804 41.8938 101.941 42.0246 102.074C42.0944 102.137 42.165 102.198 42.2383 102.256C42.3882 102.358 42.5417 102.455 42.6987 102.544C42.819 102.602 42.9411 102.655 43.0649 102.705C43.2036 102.754 43.3431 102.797 43.4852 102.836C43.7538 102.893 44.0224 102.938 44.2953 102.967C44.4924 102.976 44.6912 102.978 44.8926 102.974Z" fill="black"/>
<path d="M27.1701 27.9282C27.1448 27.8104 27.1274 27.7056 27.1265 27.5841C27.1256 27.2897 27.2268 26.988 27.3532 26.7276C27.6384 26.1462 28.0064 25.6264 28.4206 25.1415C29.0589 24.3963 29.8445 23.8213 30.645 23.2905C31.0461 23.0246 31.4656 22.7882 31.8894 22.5646C32.2879 22.353 32.6838 22.1432 33.1041 21.9832C33.7293 21.7458 34.3711 21.6152 35.0347 21.5968C36.1744 21.5655 37.3315 21.9675 38.2977 22.5867C38.8784 22.9593 39.4016 23.4285 39.8603 23.9556C40.5413 24.7376 41.1404 25.596 41.7046 26.4755C42.0194 26.9677 41.8197 27.6734 41.3575 27.9696C41.1282 28.1168 40.8474 28.1628 40.5858 28.0975C40.3085 28.0285 40.0975 27.8473 39.9414 27.6035C39.8542 27.4682 39.767 27.333 39.6781 27.1987C39.2403 26.5565 38.7817 25.9346 38.2785 25.3485C38.0867 25.1526 37.8931 24.9667 37.6917 24.7846C37.5495 24.6714 37.4048 24.5638 37.2557 24.4607C37.0795 24.3503 36.8999 24.2501 36.7141 24.1571C36.5485 24.0845 36.3836 24.0182 36.2136 23.9584C36.0418 23.9069 35.87 23.8636 35.6948 23.8268C35.5334 23.802 35.373 23.7845 35.2108 23.7726C35.0748 23.7717 34.9414 23.7753 34.8062 23.7836C34.6414 23.8038 34.4792 23.8314 34.317 23.8655C34.1365 23.9133 33.9604 23.9685 33.7851 24.032C33.3735 24.204 32.9802 24.4156 32.5844 24.6254C32.0516 24.9345 31.5292 25.2528 31.0287 25.6181C30.7575 25.8288 30.4968 26.0496 30.2456 26.286C30.0608 26.4737 29.8864 26.6687 29.7181 26.873C29.5899 27.045 29.4687 27.2207 29.3536 27.402C29.2943 27.5078 29.2376 27.6145 29.1836 27.724C29.1818 27.7276 29.1801 27.7313 29.1792 27.735C29.1679 27.8721 29.1339 28.0055 29.0676 28.1361C28.9377 28.3928 28.7092 28.5878 28.4441 28.6688C28.356 28.6955 28.2645 28.7084 28.172 28.7084C27.7282 28.7102 27.2713 28.4075 27.1701 27.9282Z" fill="black"/>
<path d="M3.73512 45.3024C3.0942 45.0172 2.52826 44.6014 2.01204 44.1138C1.44349 43.5774 1.01273 42.9086 0.663054 42.1993C0.328206 41.5194 0.148576 40.7466 0.0543999 39.9913C-0.0415201 39.2212 -0.00140828 38.4401 0.103232 37.6747C0.262808 36.5054 0.624689 35.3784 1.02058 34.278C1.11824 34.0076 1.21502 33.7389 1.31181 33.4685C1.42168 33.1639 1.56732 32.8695 1.69376 32.5724C1.79753 32.3276 1.88996 32.07 2.00943 31.8327C2.16203 31.5282 2.31462 31.2236 2.46722 30.9191C3.53717 28.7884 4.90621 26.838 6.26391 24.9051C6.61097 24.4101 6.97633 23.929 7.33385 23.4414C7.68614 22.9602 8.05673 22.4855 8.43343 22.0246C8.8703 21.4891 9.3098 20.9565 9.75364 20.4275C9.92456 20.2251 10.0946 20.0236 10.2638 19.8193C10.4364 19.6123 10.6021 19.3832 10.8253 19.2324C11.298 18.9122 11.9555 19.1027 12.2406 19.5985C12.5205 20.0852 12.3836 20.6961 11.9729 21.0337C11.9834 21.0264 11.993 21.019 12.0034 21.0107C12.0366 20.9795 12.0688 20.9463 12.1011 20.9151C11.7549 21.2867 11.441 21.6971 11.1131 22.0862C10.7015 22.5757 10.2978 23.0715 9.89229 23.5665C9.08307 24.6125 8.2913 25.6696 7.52918 26.7552C6.76182 27.8472 6.03109 28.9632 5.31256 30.093C5.06317 30.5235 4.81377 30.9559 4.56438 31.3874C4.42748 31.6239 4.31585 31.8805 4.19377 32.1243C4.06994 32.37 3.94701 32.6147 3.82405 32.8603C3.72813 33.0848 3.63308 33.3093 3.53716 33.5338C3.43688 33.7693 3.32177 34.003 3.23632 34.244C2.98344 34.9496 2.72097 35.6489 2.50384 36.3683C2.37217 36.8357 2.25881 37.3076 2.16987 37.786C2.12016 38.1145 2.08353 38.442 2.06348 38.7741C2.05824 39.0372 2.06349 39.2976 2.08005 39.5598C2.10273 39.775 2.13411 39.9866 2.17248 40.2001C2.22044 40.4071 2.27538 40.6104 2.33904 40.8137C2.41316 41.0115 2.49338 41.2038 2.58319 41.3943C2.66255 41.5405 2.74538 41.6822 2.83345 41.822C2.95117 41.9895 3.07414 42.1486 3.20494 42.3041C3.34185 42.4495 3.48309 42.5866 3.63046 42.72C3.75254 42.8193 3.87637 42.9132 4.00456 43.0043C4.16937 43.1073 4.33765 43.2011 4.51031 43.2885C4.68471 43.3649 4.85999 43.433 5.03875 43.4937C5.28379 43.5636 5.52968 43.6207 5.7782 43.6685C6.09212 43.7154 6.4069 43.7448 6.72344 43.7632C7.12892 43.7743 7.53268 43.7623 7.93729 43.732C8.40381 43.6832 8.8642 43.6096 9.32462 43.5121C9.59842 43.4403 9.87225 43.3686 10.1461 43.2968C10.4138 43.2269 10.6771 43.1229 10.9396 43.0337C11.1654 42.9435 11.3913 42.8534 11.6163 42.7623C11.8595 42.6657 12.095 42.5415 12.3339 42.4311C12.2938 42.4532 12.2537 42.4752 12.2136 42.4982C13.8207 41.615 15.4025 40.6546 16.8892 39.5561C16.9424 39.5156 16.9947 39.4761 17.0488 39.4383C17.1203 39.3785 17.1962 39.3252 17.272 39.27C18.4056 38.4033 19.5061 37.4898 20.5691 36.5284C20.9955 36.1429 21.6721 36.2377 22.0183 36.6885C22.3802 37.1586 22.293 37.832 21.8666 38.2175C20.9057 39.0869 19.9125 39.9158 18.8957 40.7107C18.7126 40.8533 18.5225 41.0235 18.3158 41.1495C18.2827 41.1781 18.2478 41.2038 18.2103 41.2277C18.1623 41.2636 18.1126 41.2995 18.0638 41.3363C18.1013 41.3078 18.1405 41.2793 18.178 41.2507C17.2729 41.9242 16.3355 42.547 15.3807 43.1367C14.9412 43.4072 14.5026 43.6851 14.0517 43.9325C13.7945 44.0733 13.5381 44.215 13.2809 44.3567C13.0088 44.5066 12.7219 44.6253 12.4411 44.755C11.8935 45.008 11.3137 45.1883 10.7443 45.3788C10.4835 45.4653 10.2088 45.5195 9.94288 45.5894C9.30893 45.756 8.65666 45.8553 8.00528 45.905C7.69223 45.9289 7.37744 45.9418 7.06177 45.9418C5.92817 45.9446 4.78675 45.7716 3.73512 45.3024Z" fill="black"/>
<path d="M57.4137 42.5157C56.8757 42.4274 56.3385 42.3308 55.8092 42.2002C55.531 42.1321 55.2468 42.0787 54.9738 41.995C54.6486 41.8956 54.3224 41.7954 53.9972 41.696C53.2682 41.4715 52.5662 41.1652 51.866 40.8588C51.192 40.5644 50.5449 40.2056 49.9136 39.8229C48.637 39.051 47.4537 38.1282 46.2277 37.2735C45.9416 37.0951 45.6591 36.9194 45.36 36.7676C45.2432 36.717 45.1263 36.671 45.0069 36.6286C44.5028 36.5164 44.1418 36.0003 44.1959 35.452C44.2543 34.8604 44.7688 34.4252 45.3278 34.4832C45.6033 34.5117 45.8832 34.6414 46.1352 34.7537C46.4596 34.899 46.7605 35.0821 47.063 35.2707C47.4572 35.5154 47.8391 35.7831 48.2149 36.0564C48.9614 36.5983 49.7095 37.1346 50.4699 37.6544C50.79 37.8476 51.1083 38.0408 51.4274 38.234C51.6001 38.338 51.7893 38.4199 51.9672 38.5128C52.1259 38.5947 52.2846 38.6766 52.4433 38.7584C52.7868 38.9084 53.1295 39.0584 53.4731 39.2083C53.8158 39.3574 54.1759 39.4687 54.5274 39.5966C54.9538 39.7281 55.3784 39.8624 55.8118 39.9692C56.308 40.0906 56.8059 40.1973 57.3064 40.2994C57.7756 40.3767 58.2377 40.4475 58.7121 40.4779C59.2126 40.4871 59.7027 40.4522 60.1988 40.4117C60.4604 40.373 60.722 40.3353 60.9828 40.2976C61.2034 40.2654 61.4223 40.2093 61.6403 40.1596C61.8618 40.097 62.0832 40.0354 62.3047 39.9728C62.5035 39.9176 62.6989 39.8394 62.8933 39.7686C63.0756 39.6904 63.2596 39.6131 63.4418 39.5349C63.6084 39.465 63.7706 39.3702 63.9319 39.2847C64.1595 39.1522 64.381 39.0105 64.5963 38.8569C64.796 38.7023 64.9879 38.5395 65.1719 38.3656C65.3184 38.2138 65.457 38.0583 65.5896 37.8946C65.7038 37.7391 65.8119 37.5799 65.9157 37.4161C66.0325 37.211 66.1398 37.0021 66.2383 36.7859C66.329 36.5624 66.4066 36.3361 66.4764 36.1052C66.5618 35.7832 66.6333 35.4602 66.6891 35.1318C66.7266 34.854 66.7537 34.578 66.7694 34.2992C66.7772 33.9616 66.7711 33.6267 66.7493 33.29C66.7031 32.8143 66.6176 32.3525 66.5269 31.8851C66.4528 31.6091 66.3796 31.3331 66.3055 31.0562C66.227 30.7655 66.1101 30.4821 66.0125 30.1978C66.0282 30.242 66.043 30.2871 66.0587 30.3312C65.9357 30.0396 65.8119 29.7489 65.6889 29.4572C65.5817 29.2015 65.4518 28.954 65.3297 28.7047C65.0411 28.1665 64.7437 27.6384 64.435 27.1131C64.1176 26.5721 63.7653 26.0514 63.4218 25.5279C62.9605 24.8499 62.4887 24.1829 61.996 23.5288C61.56 22.951 61.0883 22.4018 60.6122 21.859C59.6931 20.8617 58.7391 19.9095 57.7259 19.0217C56.887 18.317 56.0028 17.6831 55.0942 17.0832C54.5465 16.729 53.9928 16.3886 53.4321 16.0574C53.0973 15.8596 52.7616 15.6637 52.4346 15.4521C52.1939 15.2957 52.009 15.0868 51.9288 14.7943C51.8547 14.5238 51.8843 14.2275 52.009 13.9801C52.261 13.4814 52.9264 13.222 53.4042 13.532C53.8716 13.8356 54.3565 14.108 54.8334 14.3941C55.6741 14.8992 56.4963 15.4355 57.3003 16.0004C58.2089 16.6379 59.0609 17.3473 59.8814 18.1026C60.6959 18.8524 61.4781 19.651 62.2114 20.4882C62.9718 21.3548 63.6895 22.2555 64.3618 23.1994C65.0245 24.1314 65.6715 25.09 66.2523 26.0799C66.5706 26.6218 66.8958 27.1637 67.1696 27.7332C67.3013 28.0073 67.433 28.2833 67.5646 28.5575C67.6963 28.8344 67.8053 29.127 67.9256 29.4094C68.0407 29.6817 68.1227 29.9752 68.2186 30.2567C68.3137 30.5364 68.3834 30.8225 68.4611 31.1086C68.6895 31.9615 68.8064 32.8539 68.8325 33.7389C68.877 35.2293 68.5683 36.7538 67.9265 38.0822C67.3466 39.2819 66.4092 40.2332 65.3358 40.9388C65.0123 41.1523 64.6652 41.3216 64.3217 41.4973C64.0723 41.6252 63.8037 41.7365 63.5404 41.8285C63.0102 42.0143 62.4783 42.1956 61.9289 42.3115C61.3717 42.4274 60.8136 42.536 60.2468 42.5838C59.8701 42.6151 59.496 42.6482 59.1184 42.6556C59.0722 42.6565 59.0251 42.6565 58.9789 42.6565C58.4583 42.6574 57.9343 42.6013 57.4137 42.5157Z" fill="black"/>
</svg>
