<svg width="87" height="107" viewBox="0 0 87 107" fill="none" xmlns="http://www.w3.org/2000/svg">
<path d="M41.7026 37.1963C41.4053 37.1861 41.1097 37.1751 40.8123 37.165C40.5368 37.1549 40.2586 37.1043 39.9848 37.073C39.6936 37.0399 39.4006 37.0067 39.1084 36.9727C38.8399 36.9423 38.5695 36.8733 38.3036 36.8227C38.0368 36.7731 37.7717 36.7243 37.5057 36.6746C36.7253 36.5292 35.9518 36.2919 35.1984 36.0361C33.7805 35.5522 32.4106 34.8935 31.1314 34.0867C30.4913 33.6828 29.8836 33.2163 29.2897 32.7398C28.6593 32.2347 28.0672 31.6799 27.4986 31.1003C26.3738 29.9559 25.4215 28.632 24.6045 27.2299C23.7944 25.8379 23.2075 24.3153 22.8587 22.7247C22.5169 21.168 22.5073 19.5608 22.7061 17.983C22.9058 16.3868 23.4072 14.8504 24.0612 13.4014C25.3736 10.4923 27.3286 7.88783 29.6516 5.80587C30.6091 4.94659 31.6485 4.15537 32.7542 3.51965C33.2704 3.22341 33.7788 2.90601 34.3151 2.65117C34.84 2.40185 35.3588 2.13599 35.8995 1.92807C36.2396 1.79651 36.5788 1.66587 36.9188 1.53523C37.1342 1.45151 37.3549 1.38987 37.5746 1.32179C37.906 1.21967 38.2382 1.11755 38.5704 1.01635C38.7998 0.945512 39.0369 0.898568 39.2689 0.842448C39.5462 0.775288 39.8217 0.707207 40.0982 0.640047C40.4042 0.566447 40.719 0.519535 41.0277 0.458815C41.625 0.342895 42.2232 0.253655 42.8249 0.165335C43.0237 0.135895 43.2182 0.11473 43.4179 0.09725C43.7588 0.06873 44.1015 0.0218199 44.4433 0.0153799C44.7337 0.0107799 45.0241 0.006188 45.3136 0.000667998C45.5918 -0.003932 45.8682 0.0163069 46.1455 0.0282669C46.6225 0.0503469 47.096 0.0990977 47.5668 0.185578C47.8668 0.240778 48.1615 0.324511 48.4537 0.417431C48.5705 0.391671 48.6917 0.389831 48.8138 0.417431C50.9249 0.896751 53.0413 1.42758 55.0695 2.21602C56.0732 2.60702 57.0429 3.09555 57.9811 3.63743C58.4581 3.91251 58.9246 4.20875 59.3711 4.53719C59.8481 4.88771 60.3015 5.25846 60.7497 5.65038C61.6409 6.43054 62.4126 7.35329 63.1373 8.30181C63.7948 9.16201 64.3746 10.1142 64.8577 11.094C65.1289 11.6451 65.3879 12.2008 65.6076 12.7776C65.8291 13.36 66.007 13.9506 66.1596 14.5569C66.2991 15.1117 66.3881 15.6784 66.4404 16.2497C66.4735 16.6131 66.4727 16.9811 66.4849 17.3454C66.4945 17.6527 66.4805 17.9729 66.4544 18.2801C66.4308 18.5525 66.423 18.8312 66.3846 19.1026C66.3393 19.4136 66.3061 19.7291 66.2407 20.0355C66.1832 20.3069 66.1413 20.5884 66.0646 20.8534C65.9774 21.1533 65.9033 21.4615 65.7969 21.7541C65.701 22.0163 65.6172 22.2886 65.5074 22.5434C65.3766 22.8424 65.2554 23.1479 65.1115 23.4386C64.9781 23.7091 64.8438 23.9804 64.7104 24.2509C64.4435 24.7928 64.1183 25.3034 63.8035 25.8149C63.5201 26.2759 63.2053 26.7239 62.8661 27.1407C62.6725 27.3799 62.4868 27.6282 62.281 27.8555C62.049 28.1094 61.8179 28.3633 61.586 28.6173C61.2381 28.9991 60.8587 29.356 60.482 29.7065C60.005 30.1481 59.522 30.5741 59.0302 30.9955C58.616 31.3506 58.1791 31.6744 57.7492 32.0084C57.546 32.1657 57.3228 32.3019 57.1109 32.4463C56.8946 32.5953 56.6801 32.7499 56.456 32.887C55.9511 33.1961 55.4515 33.5098 54.93 33.7895C54.6457 33.9422 54.3606 34.0959 54.0754 34.2486C53.8182 34.3866 53.5461 34.4988 53.2837 34.623C53.0325 34.7408 52.7814 34.8594 52.5303 34.9772C52.2652 35.1023 51.9835 35.1971 51.7123 35.3057C51.4708 35.4023 51.2292 35.4998 50.9868 35.5973C50.706 35.7105 50.4078 35.7896 50.1201 35.8852C49.8637 35.9699 49.6082 36.0555 49.351 36.1401C49.0649 36.2349 48.7702 36.3002 48.4798 36.3774C48.1764 36.4575 47.8729 36.5375 47.5695 36.6176C47.3331 36.6792 47.0881 36.7133 46.8492 36.7602C46.5283 36.8218 46.2065 36.8853 45.8865 36.9479C45.6327 36.9976 45.3746 37.0169 45.1183 37.0454C44.7939 37.0831 44.4695 37.119 44.1442 37.1567C43.8948 37.1843 43.6367 37.1778 43.3865 37.1861C43.0682 37.1972 42.7508 37.2082 42.4316 37.2202C42.3976 37.2211 42.3645 37.222 42.3305 37.222C42.1221 37.222 41.9102 37.2036 41.7026 37.1963ZM42.4491 35.0462C42.7098 35.0554 42.9784 35.0287 43.2391 35.0186C43.4641 35.0103 43.6891 35.003 43.914 34.9947C44.439 34.9349 44.9648 34.8751 45.4897 34.8153C46.0147 34.7132 46.5396 34.6101 47.0654 34.508C47.3471 34.4528 47.6279 34.359 47.9061 34.2854C48.1833 34.2127 48.4606 34.1391 48.7371 34.0655C49.1391 33.9312 49.5411 33.7987 49.943 33.6653C50.2639 33.5586 50.5744 33.4335 50.8892 33.3065C51.231 33.1694 51.5789 33.0452 51.9129 32.8879C52.3105 32.7011 52.709 32.5135 53.1067 32.3267C53.5252 32.1022 53.942 31.8777 54.3606 31.6533C54.535 31.5594 54.7015 31.4453 54.8716 31.3414C55.0852 31.2107 55.298 31.0801 55.5125 30.9495C56.0095 30.61 56.504 30.2733 56.981 29.9025C57.2225 29.7157 57.4684 29.5345 57.7004 29.3349C57.9681 29.1049 58.2366 28.8758 58.5043 28.6458C58.8906 28.2879 59.2787 27.9337 59.6501 27.5593C60.0504 27.1563 60.4341 26.7441 60.8169 26.3237C61.0183 26.0744 61.2197 25.826 61.4221 25.5767C61.5188 25.4571 61.6017 25.3209 61.6898 25.1948C61.7865 25.0578 61.8833 24.9207 61.9801 24.7827C62.2121 24.4073 62.4449 24.0329 62.6577 23.6447C62.8792 23.2417 63.0858 22.835 63.2899 22.4229C63.4006 22.169 63.5105 21.9141 63.6212 21.6602C63.7172 21.4394 63.7921 21.2039 63.8724 20.9757C63.9439 20.7292 64.0154 20.4817 64.0869 20.2351C64.1601 19.984 64.1994 19.7153 64.2534 19.4577C64.2456 19.4945 64.2377 19.5313 64.2308 19.5681C64.27 19.2967 64.3092 19.0272 64.3494 18.7558C64.3868 18.4908 64.3947 18.2167 64.4165 17.949C64.4121 17.9959 64.4095 18.0419 64.4052 18.0879C64.4113 17.8229 64.4174 17.5579 64.4235 17.293C64.4287 17.0841 64.4148 16.8725 64.4052 16.6628C64.3834 16.3757 64.3528 16.0914 64.3119 15.8081C64.2386 15.3978 64.1383 14.9994 64.0381 14.5965C63.9692 14.3812 63.9011 14.164 63.8323 13.9488C63.759 13.7178 63.6596 13.4915 63.5733 13.2652C63.384 12.8374 63.187 12.4179 62.9812 11.9984C62.7824 11.5954 62.5513 11.2099 62.3228 10.8235C61.9461 10.2467 61.5537 9.6901 61.1386 9.14454C60.7279 8.65234 60.3041 8.18222 59.8594 7.72406C59.5804 7.46094 59.2987 7.20426 59.011 6.95126C58.7319 6.70838 58.4337 6.49034 58.1355 6.2723C57.6515 5.94478 57.1606 5.64025 56.6574 5.34769C55.7933 4.88401 54.9152 4.47186 54.0066 4.11582C52.4989 3.5813 50.9615 3.15442 49.4129 2.77906C49.1112 2.91614 48.7554 2.89773 48.4624 2.71465C48.4075 2.68981 48.3525 2.66589 48.2976 2.64381C47.9906 2.53985 47.6846 2.43866 47.3715 2.35862C47.0698 2.29606 46.7681 2.2519 46.462 2.22062C45.7984 2.16726 45.1374 2.1737 44.473 2.18474C44.2907 2.20038 44.1076 2.21601 43.9245 2.23073C43.7205 2.24729 43.5129 2.25374 43.3115 2.28318C42.8554 2.35034 42.3994 2.41749 41.9433 2.48465C41.5762 2.55641 41.2082 2.62818 40.8411 2.69994C40.5063 2.76526 40.1758 2.84897 39.8444 2.92901C39.5157 3.00905 39.1878 3.08357 38.8652 3.18293C38.4928 3.29701 38.1205 3.41203 37.7481 3.52611C37.2668 3.71195 36.7872 3.89685 36.3058 4.08269C36.0782 4.17009 35.8568 4.29614 35.6353 4.40102C35.4173 4.50406 35.1993 4.60803 34.9804 4.71199C34.3639 5.06619 33.7413 5.40933 33.1422 5.79573C32.4097 6.28517 31.7104 6.82154 31.0407 7.40298C30.3815 7.99638 29.7597 8.62841 29.1703 9.29725C28.5433 10.0305 27.9634 10.8005 27.4254 11.6074C26.9658 12.3195 26.5429 13.0536 26.1619 13.8163C25.8488 14.4686 25.5689 15.1347 25.3265 15.8191C25.1556 16.3353 25.0099 16.8551 24.8948 17.3877C24.7928 17.9223 24.7178 18.4586 24.6681 19.0014C24.6359 19.4697 24.6254 19.9361 24.6393 20.4063C24.6638 20.8423 24.7056 21.2747 24.7693 21.7062C24.8547 22.1975 24.9663 22.6805 25.1006 23.1598C25.2637 23.6953 25.4547 24.2169 25.6718 24.7302C25.9378 25.3218 26.2403 25.8876 26.5673 26.4433C26.965 27.0938 27.3984 27.7157 27.864 28.3137C28.3244 28.885 28.8136 29.4241 29.3324 29.9365C29.9952 30.5686 30.6954 31.1482 31.4261 31.691C32.0008 32.1031 32.5937 32.4748 33.2094 32.8124C33.9322 33.1942 34.6726 33.5291 35.433 33.8198C36.175 34.0894 36.9284 34.3102 37.6941 34.4915C38.26 34.6175 38.8338 34.7095 39.4032 34.8144C39.6316 34.8567 39.8697 34.8687 40.0999 34.8953C40.3641 34.9257 40.6275 34.9561 40.8926 34.9864C41.4097 35.0103 41.9294 35.0278 42.4491 35.0462Z" fill="black"/>
<path d="M41.2719 16.3684C40.7216 16.3546 40.2377 15.8477 40.2656 15.2561C40.3301 13.8991 40.4574 12.5476 40.5926 11.198C40.6597 10.5255 40.7417 9.8557 40.8315 9.18686C40.8786 8.84278 40.9335 8.50146 40.9911 8.16014C41.0164 8.00926 41.0486 7.85929 41.0792 7.71025C41.1385 7.41861 41.2283 7.08742 41.455 6.88686C41.7785 6.60074 42.1761 6.50321 42.5764 6.67525C42.702 6.72953 42.8197 6.81878 42.913 6.92366C43.2095 7.25302 43.2705 7.73971 43.0996 8.13347C43.097 8.14267 43.0944 8.15279 43.0917 8.16199C42.9156 9.05807 42.7996 9.96793 42.6985 10.876C42.5982 11.7895 42.5127 12.7049 42.436 13.6213C42.3915 14.1825 42.3532 14.7446 42.3261 15.3067C42.2982 15.89 41.857 16.3693 41.2945 16.3693C41.2876 16.3693 41.2797 16.3684 41.2719 16.3684Z" fill="black"/>
<path d="M47.743 14.522C47.4709 14.5155 47.2093 14.3932 47.0218 14.1852C46.8265 13.97 46.7445 13.7022 46.7367 13.4097C46.7027 12.1778 46.7088 10.9459 46.7219 9.71402C46.728 9.09486 46.7358 8.47479 46.755 7.85563C46.7664 7.52535 46.7777 7.19507 46.7908 6.86387C46.8012 6.58143 46.8004 6.2944 46.8291 6.01288C46.8884 5.42316 47.4657 5.0165 48.0028 5.10206C48.274 5.1453 48.5217 5.3054 48.6821 5.54C48.8321 5.75804 48.887 6.00918 48.8722 6.27138C48.874 6.2493 48.8766 6.2263 48.8783 6.20422C48.8382 6.78934 48.833 7.38092 48.8138 7.96788C48.7938 8.5944 48.7885 9.22275 48.7815 9.85019C48.7676 11.0536 48.765 12.2569 48.7972 13.4603C48.8129 14.0445 48.2967 14.522 47.7639 14.522C47.7569 14.522 47.75 14.522 47.743 14.522Z" fill="black"/>
<path d="M42.6261 25.9005C41.9991 25.8416 41.38 25.6604 40.8001 25.4074C40.3476 25.2114 39.9368 24.9023 39.5479 24.5922C38.9628 24.1249 38.4213 23.6226 37.9173 23.0595C37.4272 22.5112 37.0392 21.8543 36.686 21.203C36.3416 20.5673 36.0617 19.8837 35.8611 19.1836C35.6719 18.5248 35.4931 17.6702 36.0146 17.1237C36.4131 16.706 37.0898 16.7373 37.4717 17.1596C37.7071 17.4199 37.7917 17.7705 37.7359 18.0989C37.7359 18.109 37.735 18.1201 37.735 18.1302C37.7359 18.144 37.7377 18.1578 37.7394 18.1716C37.7708 18.3224 37.8083 18.4706 37.8493 18.6187C37.9365 18.8956 38.0359 19.1652 38.1458 19.4329C38.3219 19.8266 38.5172 20.2075 38.7291 20.582C38.8992 20.858 39.0779 21.1248 39.268 21.3861C39.4607 21.6179 39.6613 21.8396 39.8688 22.0586C40.2787 22.4459 40.7086 22.8028 41.1585 23.1377C41.2719 23.2159 41.3861 23.2877 41.5038 23.3558C41.6163 23.4091 41.7288 23.4588 41.8439 23.5057C42.0052 23.56 42.1657 23.6088 42.3305 23.6511C42.5572 23.698 42.783 23.7321 43.0124 23.7569C43.2339 23.7698 43.4545 23.7753 43.6768 23.7716C43.9803 23.7532 44.2803 23.7192 44.5802 23.6695C44.8349 23.6161 45.086 23.5526 45.3354 23.4772C45.5909 23.3889 45.8403 23.2886 46.0871 23.1764C46.3661 23.0356 46.6373 22.8829 46.9041 22.7145C47.2669 22.4652 47.6026 22.1892 47.9374 21.9022C48.2156 21.6271 48.4833 21.3483 48.7475 21.0585C49.0789 20.65 49.3946 20.2342 49.6971 19.8018C49.9021 19.4826 50.0991 19.1596 50.2831 18.8257C50.4671 18.4899 50.6371 18.1449 50.8054 17.8008C51.1185 17.1412 51.4124 16.4751 51.6583 15.7851C51.6879 15.6958 51.7167 15.6057 51.7455 15.5165C51.9242 14.9553 52.464 14.6029 53.0212 14.7713C53.5427 14.9286 53.9063 15.5551 53.7275 16.1172C53.3831 17.2028 52.9227 18.236 52.4143 19.2461C51.9015 20.2664 51.3156 21.2444 50.6005 22.1211C50.3991 22.3677 50.1959 22.606 49.9831 22.8415C49.7826 23.0641 49.5698 23.2702 49.3579 23.4791C49.16 23.6741 48.9367 23.8461 48.7266 24.0274C48.4728 24.2463 48.1877 24.4368 47.9078 24.6152C47.5677 24.8314 47.2198 25.0292 46.8544 25.1958C46.2231 25.4856 45.5665 25.6981 44.8881 25.8186C44.4119 25.9032 43.9384 25.9428 43.4632 25.9428C43.1842 25.9401 42.906 25.9272 42.6261 25.9005Z" fill="black"/>
<path d="M42.9374 79.3562C40.6963 79.2577 38.4501 79.1234 36.2186 78.8805C35.0772 78.7554 33.9427 78.6027 32.8143 78.3764C32.3173 78.277 31.8124 78.1657 31.3415 77.9697C31.0887 77.8649 30.807 77.7462 30.5986 77.5548C30.3605 77.3368 30.1643 77.104 30.0353 76.7967C29.8914 76.4563 29.8565 76.0847 29.8417 75.7167C29.8277 75.4048 29.826 75.0975 29.8382 74.7866C29.8844 73.6908 29.976 72.5951 30.0431 71.5012C30.1129 70.3503 30.1844 69.1994 30.2568 68.0475C30.3989 65.7724 30.5689 63.4981 30.7355 61.2239C30.9055 58.8945 31.0651 56.5641 31.2203 54.2337C31.3782 51.8528 31.5403 49.4718 31.7322 47.0936C31.9336 44.6004 32.1473 42.1081 32.3653 39.6159C32.449 38.6563 32.5336 37.6967 32.6181 36.7372C32.6591 36.2772 32.6992 35.8172 32.7393 35.3572C32.7603 35.1198 32.7812 34.8843 32.8004 34.6469C32.817 34.4473 32.8274 34.2403 32.8998 34.0545C33.0908 33.5567 33.6454 33.2835 34.1363 33.4316C34.6482 33.5853 34.9412 34.1207 34.867 34.6552C34.8679 34.6525 34.8688 34.6488 34.8696 34.646C34.813 35.0039 34.8051 35.3774 34.7729 35.7381C34.731 36.2156 34.6891 36.6921 34.6473 37.1687C34.5679 38.0638 34.4886 38.9599 34.411 39.856C34.2444 41.7714 34.0805 43.6859 33.9183 45.6014C33.7352 47.8738 33.5555 50.1471 33.4047 52.4214C33.2416 54.8787 33.0794 57.3369 32.905 59.7924C32.7428 62.0694 32.565 64.3446 32.415 66.6216C32.2632 68.9004 32.1307 71.1811 31.9868 73.4608C31.9467 74.1057 31.8883 74.7507 31.8892 75.3965C31.8961 75.5538 31.9048 75.7111 31.9197 75.8675C31.9737 75.8942 32.0295 75.9191 32.0854 75.9421C32.381 76.0423 32.6783 76.1251 32.9809 76.1969C33.5791 76.3165 34.1764 76.4361 34.7816 76.5152C35.501 76.61 36.2186 76.6955 36.9398 76.7728C38.7448 76.932 40.5507 77.0525 42.3601 77.1528C44.153 77.2512 45.944 77.242 47.7369 77.1758C49.2271 77.1013 50.7182 77.0157 52.2015 76.8492C53.6796 76.6845 55.1506 76.4729 56.6165 76.2116C56.5955 76.2153 56.5737 76.2199 56.5528 76.2236C57.233 76.0994 57.9279 75.9973 58.5942 75.8013C58.6194 75.7912 58.6447 75.781 58.67 75.7709C58.6892 75.7608 58.7084 75.7498 58.7276 75.7397C58.7398 75.7277 58.7511 75.7157 58.7633 75.7038C58.7703 75.6955 58.7773 75.6863 58.7851 75.678C58.7825 75.6826 58.779 75.6872 58.7764 75.6918C58.7781 75.6909 58.7799 75.6881 58.7799 75.6881C58.7999 75.6559 58.8191 75.6228 58.8374 75.5888C58.8793 75.4949 58.9159 75.4002 58.9508 75.3036C58.997 75.1435 59.038 74.9843 59.0755 74.8215C59.1583 74.3854 59.2045 73.9484 59.2508 73.5068C59.3092 72.4442 59.3406 71.3807 59.3275 70.3153C59.3136 69.1433 59.2804 67.973 59.2377 66.8019C59.2394 66.8488 59.2412 66.8948 59.2429 66.9408C59.0493 62.2745 58.7755 57.6065 58.2305 52.9697C57.948 50.5565 57.628 48.148 57.3097 45.7394C57.0062 43.4403 56.735 41.1385 56.4909 38.8311C56.2397 36.4502 56.0078 34.0664 55.7209 31.6891C55.6503 31.1013 56.0889 30.5539 56.6383 30.4941C57.2059 30.4315 57.7004 30.874 57.771 31.4619C58.0317 33.623 58.2471 35.7905 58.4729 37.9552C58.7136 40.2644 58.977 42.5709 59.2769 44.8718C59.5769 47.1819 59.9004 49.4884 60.1716 51.8022C60.4463 54.1436 60.6817 56.4896 60.8526 58.842C61.0262 61.2294 61.1639 63.6168 61.2642 66.0088C61.3636 68.3833 61.4691 70.7735 61.3348 73.149C61.2921 73.8969 61.2328 74.6513 61.0663 75.3827C60.9241 76.0129 60.721 76.6348 60.3146 77.1335C60.155 77.3276 59.9536 77.5198 59.7347 77.6385C59.4984 77.7655 59.2612 77.8584 59.0075 77.9366C58.7877 78.0038 58.5584 78.0424 58.3334 78.0893C58.0718 78.1436 57.8085 78.1933 57.546 78.243C57.0446 78.3368 56.5423 78.427 56.0383 78.5107C53.8888 78.8667 51.7315 79.106 49.5602 79.2476C48.0961 79.3424 46.6312 79.4003 45.1653 79.4003C44.4224 79.404 43.6803 79.3893 42.9374 79.3562Z" fill="black"/>
<path d="M31.3947 105.828C30.9186 105.631 30.5053 105.282 30.16 104.892C29.7484 104.427 29.4362 103.842 29.2705 103.23C28.9435 102.016 29.1214 100.574 30.0754 99.7195C30.6422 99.2126 31.4174 99.1509 32.1307 99.1454C32.5702 99.1417 33.0053 99.2355 33.4326 99.3303C33.8599 99.4241 34.2845 99.5493 34.6944 99.7103C35.4269 99.9955 36.1 100.427 36.8282 100.722C36.8334 100.724 36.8386 100.726 36.8447 100.728C36.8752 100.533 36.8944 100.337 36.9127 100.14C37.0784 97.9623 37.2249 95.7828 37.3862 93.6042C37.5598 91.2656 37.7534 88.9288 37.9652 86.5929C38.1972 84.0445 38.4091 81.4924 38.6969 78.9496C38.7631 78.3608 39.3291 77.9523 39.8706 78.0387C40.4391 78.1298 40.8001 78.6892 40.7338 79.2771C40.5211 81.1594 40.358 83.0491 40.1845 84.936C40.0083 86.8588 39.8348 88.7825 39.6735 90.7081C39.6752 90.6924 39.6761 90.6768 39.677 90.6611C39.6752 90.6878 39.6726 90.7145 39.6709 90.7403C39.6691 90.7605 39.6674 90.7798 39.6656 90.8001C39.6665 90.7853 39.6683 90.7697 39.6691 90.755C39.4912 93.0154 39.3282 95.2777 39.1651 97.5391C39.1259 98.0819 39.0866 98.6238 39.0483 99.1656C39.0064 99.7388 38.9803 100.317 38.9061 100.886C38.8782 101.105 38.8407 101.322 38.7684 101.529C38.6637 101.827 38.5163 102.087 38.335 102.339C38.2539 102.452 38.1606 102.551 38.0577 102.637C38.0716 102.85 38.0272 103.069 37.9164 103.262C37.497 103.988 36.9677 104.626 36.3093 105.119C35.4443 105.766 34.4188 106.067 33.3716 106.131C33.2599 106.138 33.1483 106.142 33.0384 106.142C32.476 106.143 31.9293 106.049 31.3947 105.828ZM33.1727 103.968C33.3707 103.954 33.5678 103.936 33.7648 103.907C33.9418 103.871 34.1171 103.828 34.2906 103.777C34.4049 103.736 34.5165 103.69 34.6272 103.641C34.7519 103.575 34.8749 103.506 34.9943 103.432C35.119 103.345 35.2394 103.253 35.3562 103.155C35.46 103.058 35.5594 102.958 35.6544 102.852C35.7111 102.784 35.7661 102.714 35.8201 102.643C35.6501 102.567 35.4844 102.484 35.3222 102.403C34.8409 102.162 34.3656 101.905 33.8686 101.703C33.5913 101.614 33.3131 101.531 33.0306 101.459C32.8109 101.411 32.592 101.367 32.3705 101.335C32.231 101.326 32.0923 101.32 31.9519 101.32C31.8194 101.329 31.6877 101.341 31.556 101.357C31.5011 101.368 31.4453 101.379 31.3895 101.391C31.3851 101.395 31.3816 101.399 31.3773 101.403C31.3616 101.423 31.3459 101.444 31.3311 101.464C31.3119 101.498 31.2927 101.532 31.2735 101.567C31.2613 101.594 31.25 101.622 31.2395 101.651C31.2273 101.694 31.2151 101.736 31.2038 101.778C31.1942 101.832 31.1863 101.886 31.1802 101.94C31.1767 102.005 31.175 102.069 31.175 102.134C31.182 102.242 31.1924 102.347 31.2072 102.454C31.2195 102.515 31.2343 102.576 31.25 102.637C31.2718 102.706 31.2953 102.774 31.3215 102.841C31.3633 102.933 31.4078 103.022 31.4549 103.111C31.5063 103.192 31.5604 103.27 31.6162 103.348C31.6738 103.416 31.7322 103.481 31.7924 103.545C31.8508 103.597 31.9101 103.648 31.9711 103.697C32.006 103.72 32.0409 103.742 32.0766 103.763C32.1403 103.795 32.2048 103.825 32.2702 103.853C32.34 103.876 32.4097 103.897 32.4804 103.917C32.5615 103.931 32.6417 103.945 32.7237 103.957C32.8754 103.969 33.0227 103.972 33.1727 103.968Z" fill="black"/>
<path d="M55.2326 104.993C54.6806 104.866 54.1592 104.678 53.6569 104.404C52.716 103.889 51.9827 103.043 51.4664 102.076C51.3443 101.847 51.3173 101.587 51.3679 101.343C51.1516 101.096 51.0269 100.776 50.9825 100.444C50.8979 99.8188 50.904 99.1785 50.8831 98.5474C50.8665 98.0101 50.8508 97.4737 50.8368 96.9365C50.7741 94.6181 50.7252 92.2987 50.6851 89.9794C50.6398 87.3629 50.597 84.7465 50.5029 82.1318C50.468 81.3627 50.4113 80.5908 50.4 79.8208C50.3921 79.2274 50.9092 78.7453 51.4542 78.7591C52.0315 78.7729 52.4527 79.2789 52.4614 79.8714C52.4614 79.8806 52.4614 79.8907 52.4614 79.8999C52.5093 81.0021 52.5686 82.1051 52.6 83.2073C52.6366 84.4603 52.6663 85.7134 52.6916 86.9664C52.7378 89.2351 52.7692 91.5029 52.8189 93.7707C52.8599 95.6227 52.9026 97.4756 52.9671 99.3285C53.2636 99.1592 53.5575 98.9844 53.8609 98.8289C54.3152 98.5971 54.7844 98.4131 55.2788 98.2999C55.8648 98.1665 56.4857 98.1628 57.0786 98.2438C57.2469 98.2668 57.4143 98.2898 57.5818 98.3119C57.8905 98.3542 58.1817 98.4453 58.4729 98.5547C59.0397 98.7691 59.5551 99.1665 59.9702 99.6192C60.305 99.9853 60.5736 100.462 60.6896 100.957C60.8125 101.484 60.8021 102.005 60.6608 102.526C60.3835 103.548 59.5298 104.388 58.616 104.782C58.3029 104.917 57.9681 105.027 57.6315 105.077C57.3298 105.123 57.0307 105.141 56.7255 105.151C56.674 105.153 56.6226 105.154 56.572 105.154C56.1238 105.153 55.666 105.092 55.2326 104.993ZM56.9217 102.972C57.0612 102.96 57.199 102.944 57.3367 102.925C57.4518 102.897 57.5643 102.867 57.6768 102.833C57.7335 102.813 57.7884 102.79 57.8442 102.766C57.9114 102.732 57.9777 102.696 58.0431 102.657C58.1303 102.595 58.214 102.531 58.2959 102.464C58.3517 102.411 58.4049 102.357 58.4572 102.301C58.4982 102.249 58.5366 102.198 58.5741 102.145C58.5941 102.111 58.6125 102.078 58.6308 102.044C58.6439 102.014 58.6569 101.984 58.6691 101.952C58.684 101.903 58.6979 101.852 58.7101 101.801C58.7136 101.78 58.7162 101.759 58.7188 101.738C58.7197 101.714 58.7197 101.69 58.7197 101.666C58.718 101.638 58.7145 101.61 58.7119 101.582C58.7049 101.548 58.6979 101.515 58.6892 101.482C58.6822 101.462 58.6752 101.442 58.6674 101.421C58.6421 101.369 58.6151 101.317 58.5872 101.266C58.568 101.237 58.5471 101.207 58.527 101.179C58.4729 101.115 58.418 101.054 58.3605 100.995C58.2942 100.938 58.2279 100.881 58.159 100.827C58.0762 100.771 57.9925 100.72 57.907 100.669C57.8085 100.621 57.7099 100.576 57.6097 100.535C57.573 100.524 57.5364 100.514 57.4998 100.503C57.2173 100.445 56.9286 100.409 56.6417 100.379C56.4813 100.37 56.3217 100.365 56.1621 100.369C56.0462 100.378 55.9302 100.39 55.8142 100.406C55.6799 100.433 55.5483 100.466 55.4166 100.504C55.2352 100.57 55.0573 100.642 54.8821 100.722C54.4286 100.957 53.99 101.22 53.5418 101.467C53.5863 101.531 53.6325 101.595 53.6796 101.659C53.7982 101.802 53.9237 101.939 54.0545 102.071C54.1243 102.134 54.1949 102.195 54.2673 102.253C54.4173 102.355 54.5707 102.452 54.7277 102.541C54.8489 102.599 54.9701 102.652 55.0939 102.702C55.2326 102.75 55.3721 102.794 55.5142 102.834C55.7828 102.891 56.0514 102.935 56.3243 102.964C56.5223 102.974 56.7211 102.975 56.9217 102.972Z" fill="black"/>
<path d="M32.2946 41.0906C32.1708 40.9775 32.0749 40.8487 32.0095 40.7051C32.013 40.7125 32.0165 40.7208 32.02 40.7281C31.9973 40.684 31.9729 40.6407 31.9484 40.5984C30.7268 38.6517 29.4214 36.7666 28.0977 34.8953C26.7217 32.9477 25.3492 30.9973 23.947 29.0708C22.6285 27.2603 21.2874 25.4681 19.9532 23.6704C18.6138 21.8635 17.2727 20.0576 15.9298 18.2525C15.4964 17.6702 15.0622 17.0887 14.6314 16.5045C14.2303 15.9599 13.8292 15.4134 13.462 14.843C13.1106 14.2947 12.7732 13.7372 12.4226 13.1889C12.1026 12.6884 11.7913 12.1723 11.4373 11.6985C11.344 11.5927 11.2498 11.4896 11.1521 11.3893C11.1294 11.37 11.1068 11.3507 11.0832 11.3314C10.9891 11.2679 10.8931 11.209 10.7946 11.152C10.397 10.9478 9.98713 10.7803 9.57554 10.6119C8.44805 10.2016 7.30311 9.86121 6.1512 9.53461C5.05248 9.22365 3.94853 8.93571 2.83934 8.67719C2.84719 8.67903 2.85504 8.68085 2.86289 8.68269C2.52629 8.60725 2.18883 8.53549 1.85049 8.46833C1.29939 8.35885 0.900014 7.82987 0.986342 7.23003C1.06831 6.65871 1.60895 6.20975 2.16093 6.31831C3.23 6.52991 4.28948 6.79117 5.3446 7.06809C6.34478 7.33029 7.34584 7.60445 8.33381 7.91265C8.89364 8.08653 9.45085 8.26593 10.002 8.46833C10.2871 8.57229 10.5679 8.68545 10.8487 8.80137C11.3509 9.00653 11.8776 9.2393 12.3101 9.5843C12.7801 9.96058 13.1307 10.4408 13.4647 10.9468C13.7202 11.3314 13.9704 11.7196 14.2181 12.1097C14.7273 12.9092 15.2156 13.7215 15.765 14.4916C16.3815 15.3564 17.0224 16.2009 17.6555 17.051C18.9984 18.857 20.3404 20.6639 21.6806 22.4717C23.007 24.2583 24.3394 26.0394 25.6491 27.8399C27.0426 29.7535 28.4055 31.6919 29.7737 33.6267C30.4922 34.6423 31.2038 35.6635 31.904 36.693C32.2789 37.2441 32.6443 37.8035 33.0071 38.3628C33.1623 38.6011 33.3166 38.8403 33.4675 39.0804C33.6192 39.3233 33.7988 39.5689 33.8956 39.8449C33.8921 39.8394 33.8886 39.8339 33.8843 39.8293C33.9096 39.8928 33.9288 39.9599 33.9427 40.028C33.9418 40.017 33.941 40.0069 33.9392 39.9958C33.9488 40.0372 33.9558 40.0805 33.961 40.1237C34.0099 40.5561 33.7858 40.9904 33.4247 41.1946C33.2748 41.2792 33.1012 41.3234 32.9286 41.3234C32.6992 41.3271 32.469 41.2498 32.2946 41.0906Z" fill="black"/>
<path d="M11.2088 9.70761C10.2086 8.56037 9.16134 7.45637 8.08791 6.38457C8.12279 6.41769 8.1568 6.45081 8.19168 6.48393C7.67022 5.98345 7.14528 5.47376 6.58894 5.01468C6.24712 4.79112 6.04133 4.35873 6.10411 3.92173C6.18869 3.33109 6.72236 2.92629 7.27782 3.01001C7.61093 3.06061 7.85683 3.29705 8.1036 3.51693C8.33294 3.72209 8.56141 3.92817 8.789 4.13609C9.25988 4.56481 9.71419 5.01376 10.1615 5.471C11.0292 6.35788 11.8802 7.26686 12.6982 8.20526C13.0784 8.64226 13.0766 9.32765 12.6642 9.74257C12.4688 9.93945 12.2072 10.0397 11.9465 10.0397C11.6753 10.0406 11.4033 9.93025 11.2088 9.70761Z" fill="black"/>
<path d="M12.8909 10.0921C12.3258 10.0774 11.8768 9.57234 11.8846 8.97894C11.9003 7.74706 11.9204 6.51425 11.9395 5.28237C11.9491 4.67057 11.9596 4.05968 11.9709 3.4488C11.9762 3.16728 11.9814 2.88668 11.9875 2.60424C11.9953 2.2574 11.9997 1.9078 12.2238 1.62352C12.5831 1.16812 13.2266 1.07428 13.6722 1.44964C13.9512 1.68516 14.089 2.06421 14.0533 2.42669C14.0288 2.90417 14.0323 3.38348 14.0236 3.86096C14.0132 4.45252 14.0036 5.04318 13.994 5.63566C13.9757 6.76634 13.9591 7.89701 13.9443 9.02861C13.9364 9.61281 13.4612 10.0912 12.9136 10.0912C12.9057 10.093 12.8979 10.0931 12.8909 10.0921Z" fill="black"/>
<path d="M0.0053421 12.5679C-0.0522099 11.991 0.36199 11.4179 0.922686 11.3728C2.47223 11.2477 4.01654 11.0535 5.55824 10.8511C7.14789 10.6432 8.73668 10.4224 10.3211 10.1777C10.8818 10.0774 11.4399 9.97896 11.9892 9.82072C12.1758 9.75816 12.359 9.68917 12.5403 9.61189C12.6598 9.55117 12.7767 9.4877 12.8926 9.4187C12.9685 9.36442 13.0426 9.3092 13.1159 9.2494C13.1568 9.21076 13.197 9.1703 13.2362 9.1289C13.2658 9.0921 13.2946 9.05437 13.3217 9.01665C13.6024 8.56493 13.8231 8.06905 14.0559 7.58973C14.4648 6.74149 14.8668 5.89049 15.2601 5.03489C15.486 4.54177 15.7135 4.05141 15.9272 3.55277C16.0353 3.30161 16.1417 3.04862 16.2411 2.79286C16.3135 2.60886 16.3684 2.41196 16.4635 2.23808C16.7416 1.72288 17.4035 1.56373 17.877 1.86365C18.3357 2.15345 18.4909 2.76065 18.279 3.25837C18.2833 3.24917 18.2886 3.23996 18.2929 3.22984C18.2092 3.40372 18.1543 3.60246 18.0845 3.7837C17.979 4.05418 17.8613 4.32004 17.7471 4.58592C17.5186 5.1186 17.2709 5.64302 17.0285 6.16742C16.562 7.17298 16.0885 8.17393 15.6002 9.16753C15.2697 9.83913 14.941 10.5025 14.3628 10.9799C13.4411 11.7426 12.2892 12.0232 11.1591 12.2284C10.0926 12.4216 9.02095 12.5697 7.94839 12.7196C5.68468 13.0334 3.41573 13.3517 1.13894 13.5348C1.11104 13.5366 1.08313 13.5385 1.05523 13.5385C0.528543 13.5385 0.0620221 13.1392 0.0053421 12.5679Z" fill="black"/>
<path d="M58.0021 39.7566C57.4762 39.5165 57.2574 38.8762 57.4658 38.326C57.5477 38.1098 57.696 37.912 57.8085 37.7133C57.9759 37.4198 58.1459 37.1273 58.3169 36.8356C58.5802 36.3857 58.8557 35.9414 59.1391 35.5044C59.7966 34.4924 60.4628 33.485 61.1317 32.4813C62.4554 30.4922 63.7878 28.5115 65.1193 26.5298C66.4622 24.5306 67.799 22.5296 69.1288 20.5222C69.1183 20.5387 69.1079 20.5553 69.0974 20.5709C69.1096 20.5516 69.1218 20.5332 69.1349 20.5139C69.1488 20.4937 69.1619 20.4725 69.1759 20.4522C69.1654 20.4679 69.1541 20.4844 69.1436 20.5001C71.6419 16.6572 74.1062 12.7905 76.6201 8.9596C77.4023 7.76728 78.1862 6.57682 78.9911 5.40198C79.3198 4.92174 80.0157 4.87297 80.4395 5.22901C80.654 5.41025 80.7935 5.67797 80.8223 5.96685C80.8511 6.25849 80.7647 6.52438 80.6043 6.75806C79.9564 7.7029 79.3251 8.65784 78.6938 9.61464C78.7016 9.60268 78.7094 9.58982 78.7182 9.57786C78.6946 9.61282 78.6719 9.64869 78.6484 9.68365C78.6458 9.68825 78.6423 9.69284 78.6397 9.69744C78.6414 9.6956 78.6423 9.69285 78.644 9.69101C76.1449 13.4971 73.7042 17.3454 71.2146 21.1579C68.6588 25.0706 66.0201 28.9227 63.4311 32.8097C62.8059 33.7481 62.1807 34.6874 61.5581 35.6286C61.1456 36.2634 60.7358 36.8982 60.3373 37.5431C59.9876 38.108 59.6641 38.6903 59.3301 39.2663C59.1566 39.6324 58.7834 39.8449 58.4067 39.8449C58.2672 39.8431 58.1302 39.8146 58.0021 39.7566Z" fill="black"/>
<path d="M76.6358 11.8052C76.042 11.5678 75.6374 10.8925 75.5781 10.243C75.5232 9.64133 75.5624 9.03321 75.579 8.43061C75.5938 7.90529 75.6077 7.38181 75.6217 6.85649C75.64 6.14441 75.6583 5.43232 75.6714 4.72116C75.6766 4.38444 75.6819 4.04865 75.6897 3.71193C75.6967 3.41385 75.6897 3.10564 75.7342 2.81032C75.8231 2.2252 76.3498 1.80936 76.9079 1.8986C77.4599 1.98692 77.8593 2.5518 77.7721 3.13508C77.7424 3.64568 77.7433 4.15904 77.7328 4.67056C77.7206 5.29524 77.7066 5.919 77.6918 6.54184C77.677 7.10028 77.6622 7.65688 77.6456 8.21532C77.6308 8.75628 77.6046 9.30093 77.6133 9.84189C77.6229 9.84281 77.6325 9.84464 77.643 9.84556C77.9029 9.86028 78.1601 9.85569 78.4191 9.84649C79.6861 9.74437 80.9435 9.54287 82.2001 9.34415C83.4244 9.15003 84.6469 8.95133 85.8694 8.74433C86.424 8.65049 86.9464 9.14729 87.0022 9.71217C87.0301 9.99461 86.9516 10.2826 86.7833 10.5043C86.6054 10.7398 86.3621 10.8612 86.0848 10.9082C84.0042 11.2605 81.9193 11.6221 79.8265 11.888C79.2754 11.9579 78.7243 12.0057 78.1688 12.0287C78.0956 12.0315 78.0223 12.0333 77.9491 12.0333C77.5009 12.0333 77.0596 11.9735 76.6358 11.8052Z" fill="black"/>
<path d="M84.3338 15.0261C82.2829 14.5864 80.2311 14.1466 78.174 13.74C77.65 13.636 77.1241 13.5357 76.6036 13.4134C75.8048 13.2238 74.9197 13.05 74.3154 12.4216C73.8777 11.9662 73.6449 11.3388 73.3911 10.7573C73.1609 10.2311 72.9316 9.70577 72.7005 9.18045C72.4145 8.53001 72.1258 7.88048 71.8355 7.23188C71.5477 6.58604 71.273 5.93376 70.9678 5.29712C70.7132 4.76904 70.8841 4.10939 71.3873 3.82419C71.873 3.54819 72.5287 3.73865 72.7833 4.26673C73.0214 4.76077 73.235 5.26768 73.4591 5.76908C73.7225 6.3588 73.9867 6.94761 74.2474 7.53825C74.4837 8.07461 74.7192 8.61004 74.9537 9.14732C75.1935 9.6984 75.4176 10.2642 75.6993 10.7932C75.7106 10.8107 75.722 10.8272 75.7342 10.8447C75.7377 10.8484 75.7403 10.8512 75.7438 10.8549C75.7568 10.8659 75.7691 10.8769 75.7821 10.8889C75.8031 10.9027 75.8249 10.9165 75.8467 10.9294C75.8972 10.9551 75.9487 10.9781 76.001 11.0002C76.3655 11.1281 76.7378 11.2182 77.1128 11.3084C78.3537 11.5743 79.5989 11.8061 80.8406 12.0674C82.1094 12.3351 83.3781 12.6056 84.6451 12.877C84.9198 12.9359 85.1579 13.0711 85.3253 13.314C85.4831 13.5431 85.5494 13.8347 85.5093 14.1153C85.4369 14.6195 84.9948 15.0454 84.5091 15.0454C84.4498 15.0445 84.3923 15.039 84.3338 15.0261Z" fill="black"/>
</svg>
