<svg width="56" height="114" viewBox="0 0 56 114" fill="none" xmlns="http://www.w3.org/2000/svg">
<path d="M20.0685 44.6349C19.7712 44.6248 19.4747 44.6138 19.1782 44.6036C18.9027 44.5935 18.6245 44.5429 18.3507 44.5116C18.0595 44.4785 17.7673 44.4454 17.4743 44.4113C17.2058 44.381 16.9354 44.312 16.6695 44.2614C16.4026 44.2117 16.1376 44.1629 15.8716 44.1133C15.0912 43.9679 14.3177 43.7305 13.5643 43.4748C12.1464 42.9909 10.7765 42.3322 9.4973 41.5253C8.85725 41.1214 8.24947 40.655 7.65564 40.1784C7.02518 39.6734 6.43307 39.1186 5.86366 38.539C4.73878 37.3945 3.78655 36.0706 2.96949 34.6686C2.1594 33.2766 1.57256 31.754 1.22376 30.1633C0.881935 28.6067 0.872327 26.9994 1.07114 25.4216C1.27083 23.8254 1.77225 22.289 2.42625 20.84C3.73861 17.931 5.69361 15.3265 8.01662 13.2445C8.97408 12.3852 10.0135 11.594 11.1192 10.9583C11.6354 10.6621 12.1438 10.3447 12.6801 10.0898C13.205 9.84051 13.7239 9.57465 14.2645 9.36673C14.6046 9.23517 14.9438 9.10453 15.2839 8.97389C15.4993 8.89017 15.7208 8.82853 15.9396 8.76045C16.271 8.65833 16.6032 8.55621 16.9355 8.45501C17.1648 8.38417 17.402 8.33723 17.6339 8.28111C17.9112 8.21395 18.1868 8.14587 18.4632 8.07871C18.7693 8.00511 19.0841 7.95819 19.3927 7.89747C19.9901 7.78155 20.5883 7.69231 21.1899 7.60399C21.3888 7.57455 21.5841 7.55339 21.7838 7.53591C22.1247 7.50739 22.4674 7.46048 22.8092 7.45404C23.0987 7.44944 23.39 7.44485 23.6795 7.43933C23.9577 7.43473 24.2341 7.45497 24.5114 7.46693C24.9884 7.48901 25.4627 7.53776 25.9327 7.62424C26.2327 7.67944 26.5275 7.76317 26.8196 7.85609C26.9364 7.83033 27.0576 7.82849 27.1797 7.85609C29.2908 8.33541 31.4072 8.86624 33.4354 9.65468C34.44 10.0457 35.4088 10.5342 36.347 11.0761C36.824 11.3512 37.2905 11.6474 37.737 11.9758C38.214 12.3264 38.6674 12.6971 39.1156 13.089C40.0068 13.8692 40.7785 14.7919 41.5032 15.7405C42.1598 16.6007 42.7405 17.5529 43.2236 18.5327C43.4948 19.0838 43.7538 19.6394 43.9736 20.2163C44.195 20.7986 44.3729 21.3893 44.5264 21.9956C44.6659 22.5503 44.7549 23.117 44.8072 23.6884C44.8403 24.0518 44.8394 24.4198 44.8516 24.7841C44.8612 25.0914 44.8473 25.4115 44.8211 25.7188C44.7976 25.9911 44.7897 26.2699 44.7514 26.5413C44.706 26.8522 44.672 27.1678 44.6075 27.4741C44.5499 27.7455 44.5081 28.0271 44.4313 28.292C44.3441 28.592 44.27 28.9002 44.1636 29.1927C44.0677 29.4549 43.984 29.7272 43.8741 29.9821C43.7433 30.2811 43.6221 30.5865 43.4783 30.8772C43.3448 31.1477 43.2105 31.4191 43.0771 31.6896C42.8094 32.2315 42.4851 32.7421 42.1703 33.2536C41.8869 33.7145 41.5721 34.1626 41.2329 34.5793C41.0393 34.8185 40.8535 35.0669 40.6477 35.2941C40.4158 35.5481 40.1847 35.802 39.9528 36.0559C39.6048 36.4377 39.2255 36.7947 38.8488 37.1452C38.3718 37.5868 37.8887 38.0128 37.3969 38.4341C36.9827 38.7892 36.5459 39.1131 36.116 39.447C35.9128 39.6044 35.6895 39.7405 35.4776 39.885C35.2614 40.034 35.0469 40.1886 34.8228 40.3256C34.3179 40.6348 33.8182 40.9485 33.2968 41.2282C33.0125 41.3809 32.7274 41.5345 32.4422 41.6872C32.1859 41.8252 31.9129 41.9375 31.6505 42.0617C31.3993 42.1794 31.1482 42.2981 30.897 42.4159C30.6319 42.541 30.3503 42.6358 30.0791 42.7443C29.8376 42.8409 29.596 42.9384 29.3536 43.036C29.0728 43.1491 28.7746 43.2282 28.4868 43.3239C28.2305 43.4085 27.975 43.4941 27.7177 43.5788C27.4317 43.6735 27.137 43.7388 26.8466 43.8161C26.5432 43.8961 26.2397 43.9762 25.9371 44.0562C25.7008 44.1179 25.4558 44.1519 25.2168 44.1988C24.8959 44.2605 24.5742 44.324 24.2541 44.3865C24.0004 44.4362 23.7423 44.4555 23.4859 44.484C23.1615 44.5218 22.8371 44.5576 22.5119 44.5954C22.2625 44.623 22.0044 44.6165 21.7541 44.6248C21.4359 44.6358 21.1184 44.6469 20.7993 44.6588C20.7662 44.6598 20.7321 44.6607 20.6981 44.6607C20.488 44.6607 20.2761 44.6423 20.0685 44.6349ZM20.815 42.4849C21.0757 42.4941 21.3443 42.4674 21.605 42.4573C21.83 42.449 22.055 42.4416 22.2799 42.4334C22.8049 42.3736 23.3307 42.3137 23.8556 42.2539C24.3806 42.1518 24.9055 42.0488 25.4313 41.9467C25.713 41.8915 25.9938 41.7976 26.272 41.724C26.5493 41.6514 26.8265 41.5777 27.103 41.5041C27.5049 41.3698 27.907 41.2373 28.309 41.1039C28.6299 40.9972 28.9403 40.8721 29.2551 40.7452C29.596 40.6081 29.9448 40.4839 30.2788 40.3265C30.6764 40.1398 31.0749 39.9521 31.4726 39.7654C31.8911 39.5409 32.3079 39.3164 32.7265 39.0919C32.9009 38.9981 33.0674 38.884 33.2375 38.78C33.4511 38.6494 33.6639 38.5188 33.8784 38.3881C34.3755 38.0486 34.8707 37.7119 35.3469 37.3412C35.5884 37.1544 35.8343 36.9731 36.0663 36.7735C36.334 36.5435 36.6025 36.3144 36.8702 36.0844C37.2565 35.7266 37.6446 35.3724 38.016 34.9979C38.4163 34.595 38.8 34.1828 39.1828 33.7624C39.3842 33.513 39.5857 33.2646 39.788 33.0153C39.8848 32.8957 39.9676 32.7595 40.0556 32.6335C40.1524 32.4964 40.2492 32.3594 40.346 32.2214C40.578 31.846 40.8108 31.4716 41.0236 31.0833C41.2451 30.6804 41.4517 30.2737 41.6558 29.8615C41.7665 29.6076 41.8764 29.3528 41.9871 29.0989C42.083 28.8781 42.158 28.6426 42.2391 28.4144C42.3106 28.1678 42.3821 27.9204 42.4536 27.6738C42.5269 27.4226 42.5661 27.154 42.6202 26.8964C42.6124 26.9332 42.6045 26.97 42.5975 27.0068C42.6368 26.7354 42.6769 26.4658 42.7161 26.1944C42.7536 25.9295 42.7615 25.6553 42.7841 25.3876C42.7798 25.4345 42.7772 25.4805 42.7728 25.5265C42.7789 25.2616 42.785 24.9966 42.7911 24.7316C42.7964 24.5228 42.7824 24.3112 42.7728 24.1014C42.751 23.8144 42.7205 23.5301 42.6795 23.2467C42.6062 22.8364 42.506 22.4381 42.4048 22.0351C42.3359 21.8198 42.2679 21.6027 42.199 21.3874C42.1258 21.1565 42.0264 20.9302 41.94 20.7039C41.7508 20.2761 41.5538 19.8566 41.348 19.437C41.1492 19.0341 40.9181 18.6486 40.6896 18.2622C40.3129 17.6853 39.9205 17.1288 39.5054 16.5832C39.0947 16.091 38.6709 15.6209 38.2262 15.1627C37.9472 14.8996 37.6655 14.6429 37.3777 14.3899C37.0987 14.147 36.8005 13.929 36.5031 13.711C36.0192 13.3834 35.5282 13.0789 35.0251 12.7864C34.1609 12.3227 33.2828 11.9105 32.3742 11.5545C30.8665 11.02 29.3292 10.5931 27.7805 10.2177C27.4788 10.3548 27.123 10.3364 26.83 10.1533C26.7751 10.1285 26.7202 10.1046 26.6652 10.0825C26.3583 9.97851 26.0522 9.87732 25.7392 9.79728C25.4374 9.73472 25.1357 9.69056 24.8297 9.65928C24.1661 9.60592 23.5051 9.61236 22.8406 9.6234C22.6584 9.63904 22.4753 9.65467 22.2921 9.66939C22.0881 9.68595 21.8806 9.6924 21.6791 9.72184C21.2231 9.789 20.767 9.85615 20.311 9.92331C19.9439 9.99507 19.5767 10.0668 19.2088 10.1386C18.8739 10.2039 18.5434 10.2876 18.2121 10.3677C17.8833 10.4477 17.5554 10.5222 17.2328 10.6216C16.8604 10.7357 16.4881 10.8507 16.1158 10.9648C15.6344 11.1506 15.1548 11.3355 14.6735 11.5214C14.4459 11.6088 14.2244 11.7348 14.0029 11.8397C13.7849 11.9427 13.5669 12.0467 13.348 12.1506C12.7315 12.5048 12.1089 12.848 11.5099 13.2344C10.7774 13.7238 10.078 14.2602 9.40834 14.8416C8.74911 15.435 8.12738 16.0671 7.53791 16.7359C6.91094 17.4691 6.33105 18.2392 5.79303 19.046C5.33349 19.7581 4.91056 20.4923 4.5295 21.255C4.21645 21.9072 3.93656 22.5733 3.69414 23.2578C3.52323 23.7739 3.37758 24.2937 3.26248 24.8264C3.16046 25.3609 3.08548 25.8973 3.03578 26.4401C3.00264 26.9084 2.99303 27.3748 3.00698 27.8449C3.03053 28.281 3.07327 28.7134 3.13693 29.1449C3.22238 29.6362 3.334 30.1192 3.46829 30.5985C3.63136 31.1339 3.82232 31.6555 4.03945 32.1689C4.30541 32.7605 4.60797 33.3263 4.93497 33.882C5.33261 34.5324 5.76686 35.1543 6.23164 35.7523C6.69205 36.3236 7.18126 36.8628 7.7001 37.3752C8.36282 38.0072 9.06304 38.5868 9.79378 39.1296C10.3684 39.5418 10.9614 39.9135 11.577 40.2511C12.2999 40.6329 13.0402 40.9678 13.8006 41.2585C14.5427 41.5281 15.2961 41.7489 16.0617 41.9301C16.6276 42.0562 17.2014 42.1482 17.7708 42.2531C17.9993 42.2954 18.2373 42.3073 18.4676 42.334C18.7318 42.3644 18.9951 42.3947 19.2602 42.4251C19.7756 42.449 20.2953 42.4665 20.815 42.4849Z" fill="black"/>
<path d="M21.3033 86.7948C19.0623 86.6964 16.816 86.5621 14.5846 86.3192C13.4431 86.1941 12.3086 86.0414 11.1803 85.815C10.6832 85.7157 10.1783 85.6044 9.70747 85.4084C9.45459 85.3035 9.17291 85.1849 8.96451 84.9935C8.72645 84.7755 8.53025 84.5427 8.4012 84.2354C8.25732 83.895 8.22245 83.5233 8.20763 83.1553C8.19367 82.8434 8.19106 82.5362 8.20414 82.2252C8.25036 81.1295 8.3419 80.0338 8.40905 78.9399C8.47881 77.789 8.55031 76.638 8.62268 75.4862C8.76569 73.211 8.93487 70.9368 9.10142 68.6626C9.27146 66.3331 9.43104 64.0027 9.58625 61.6724C9.74408 59.2914 9.90628 56.9105 10.0981 54.5323C10.2996 52.0391 10.5132 49.5468 10.7312 47.0545C10.8149 46.095 10.8995 45.1354 10.9841 44.1758C11.025 43.7158 11.0652 43.2558 11.1053 42.7958C11.1262 42.5585 11.1471 42.323 11.1663 42.0856C11.1829 41.886 11.1933 41.679 11.2657 41.4931C11.4567 40.9954 12.0122 40.7222 12.5022 40.8703C13.0141 41.0239 13.3071 41.5594 13.2321 42.0939C13.233 42.0911 13.2338 42.0874 13.2347 42.0847C13.178 42.4426 13.1702 42.8161 13.1379 43.1767C13.0961 43.6542 13.0542 44.1308 13.0123 44.6073C12.933 45.5025 12.8536 46.3986 12.776 47.2946C12.6095 49.2101 12.4455 51.1246 12.2833 53.04C12.1002 55.3124 11.9206 57.5858 11.7697 59.86C11.6075 62.3173 11.4445 64.7756 11.2701 67.231C11.1079 69.508 10.93 71.7832 10.78 74.0602C10.6283 76.3391 10.4957 78.6197 10.3519 80.8995C10.3117 81.5444 10.2533 82.1893 10.2542 82.8352C10.2612 82.9925 10.2699 83.1498 10.2847 83.3062C10.3388 83.3329 10.3946 83.3577 10.4504 83.3807C10.746 83.481 11.0434 83.5638 11.346 83.6356C11.9441 83.7552 12.5415 83.8748 13.1466 83.9539C13.866 84.0486 14.5837 84.1342 15.3048 84.2115C17.1099 84.3706 18.9158 84.4912 20.7252 84.5914C22.518 84.6899 24.3091 84.6807 26.1019 84.6144C27.5913 84.5399 29.0833 84.4543 30.5666 84.2878C32.0446 84.1231 33.5157 83.9116 34.9815 83.6503C34.9606 83.654 34.9388 83.6586 34.9178 83.6622C35.598 83.538 36.293 83.4359 36.9592 83.24C36.9845 83.2298 37.0098 83.2197 37.0351 83.2096C37.0542 83.1995 37.0734 83.1884 37.0926 83.1783C37.1048 83.1664 37.1162 83.1544 37.1284 83.1424C37.1353 83.1342 37.1423 83.125 37.1502 83.1167C37.1475 83.1213 37.1441 83.1259 37.1415 83.1305L37.1449 83.1268C37.165 83.0946 37.1842 83.0615 37.2025 83.0274C37.2435 82.9336 37.281 82.8388 37.3158 82.7422C37.3621 82.5822 37.4039 82.423 37.4405 82.2602C37.5234 81.8241 37.5696 81.3871 37.6158 80.9455C37.6742 79.8829 37.7056 78.8194 37.6926 77.754C37.6786 76.5819 37.6455 75.4117 37.6027 74.2405C37.6045 74.2874 37.6062 74.3334 37.6071 74.3794C37.4135 69.7132 37.1397 65.0451 36.5947 60.4083C36.3122 57.9952 35.9921 55.5866 35.6739 53.1781C35.3704 50.879 35.0992 48.5771 34.8551 46.2698C34.6039 43.8888 34.372 41.5051 34.0851 39.1278C34.0145 38.5399 34.4531 37.9925 35.0024 37.9327C35.5701 37.8702 36.0645 38.3127 36.1351 38.9006C36.3959 41.0616 36.6113 43.2291 36.8371 45.3939C37.0778 47.7031 37.3411 50.0096 37.6411 52.3105C37.9411 54.6206 38.2646 56.927 38.5358 59.2408C38.8105 61.5822 39.0459 63.9282 39.2168 66.2807C39.3895 68.6681 39.5281 71.0555 39.6284 73.4475C39.7278 75.822 39.8333 78.2122 39.699 80.5876C39.6563 81.3356 39.597 82.09 39.4305 82.8214C39.2874 83.4516 39.0851 84.0735 38.6788 84.5721C38.5192 84.7662 38.3178 84.9585 38.0989 85.0772C37.8626 85.2041 37.6254 85.2971 37.3716 85.3753C37.1519 85.4424 36.9226 85.4811 36.6976 85.528C36.436 85.5823 36.1726 85.632 35.9102 85.6816C35.4088 85.7755 34.9065 85.8656 34.4025 85.9493C32.2539 86.3054 30.0957 86.5446 27.9244 86.6863C26.4603 86.781 24.9954 86.839 23.5295 86.839C22.7883 86.8427 22.0462 86.828 21.3033 86.7948Z" fill="black"/>
<path d="M9.76061 113.267C9.2845 113.07 8.87118 112.72 8.52587 112.33C8.11429 111.866 7.80212 111.281 7.63644 110.669C7.30944 109.454 7.48731 108.013 8.44127 107.158C9.00807 106.651 9.7833 106.59 10.4966 106.584C10.9361 106.58 11.3712 106.674 11.7985 106.769C12.2258 106.863 12.6504 106.988 13.0603 107.149C13.7928 107.434 14.4659 107.866 15.1941 108.161C15.1993 108.163 15.2045 108.165 15.2106 108.166C15.2411 107.971 15.2603 107.775 15.2786 107.579C15.4443 105.401 15.5908 103.221 15.7521 101.043C15.9257 98.7042 16.1192 96.3674 16.3311 94.0316C16.5631 91.4832 16.775 88.9311 17.0628 86.3882C17.129 85.7994 17.6949 85.3909 18.2365 85.4774C18.805 85.5685 19.166 86.1278 19.0998 86.7157C18.887 88.598 18.7239 90.4877 18.5504 92.3747C18.3742 94.2975 18.2007 96.2212 18.0394 98.1467C18.0403 98.1311 18.042 98.1154 18.0429 98.0998C18.0411 98.1265 18.0385 98.1532 18.0368 98.1789C18.035 98.1992 18.0333 98.2185 18.0315 98.2387C18.0324 98.224 18.0342 98.2084 18.0359 98.1937C17.858 100.454 17.695 102.716 17.5319 104.978C17.4927 105.521 17.4534 106.062 17.415 106.604C17.3732 107.177 17.347 107.755 17.2729 108.325C17.245 108.544 17.2075 108.761 17.1351 108.968C17.0305 109.266 16.8831 109.525 16.7018 109.777C16.6207 109.891 16.5274 109.99 16.4245 110.075C16.4384 110.289 16.3939 110.508 16.2823 110.701C15.8629 111.427 15.3336 112.065 14.6752 112.558C13.8102 113.204 12.7847 113.505 11.7375 113.57C11.6258 113.577 11.5142 113.581 11.4043 113.581C10.841 113.582 10.2951 113.488 9.76061 113.267ZM11.5378 111.407C11.7357 111.393 11.9328 111.374 12.1298 111.346C12.3069 111.31 12.4821 111.267 12.6557 111.215C12.7699 111.175 12.8815 111.129 12.9923 111.079C13.117 111.014 13.239 110.945 13.3594 110.87C13.4841 110.784 13.6044 110.692 13.7213 110.593C13.825 110.497 13.9244 110.397 14.0195 110.291C14.0761 110.223 14.1311 110.153 14.1851 110.082C14.0151 110.006 13.8494 109.923 13.6872 109.842C13.2068 109.601 12.7307 109.344 12.2336 109.142C11.9563 109.052 11.6781 108.97 11.3956 108.898C11.1759 108.85 10.957 108.806 10.7355 108.774C10.596 108.764 10.4573 108.759 10.3169 108.759C10.1844 108.768 10.0527 108.779 9.92108 108.796C9.86527 108.807 9.81033 108.818 9.75452 108.83C9.75016 108.833 9.74666 108.838 9.7423 108.842C9.72661 108.862 9.71093 108.882 9.69611 108.902C9.67692 108.936 9.65773 108.971 9.63855 109.005C9.62634 109.033 9.615 109.061 9.60454 109.089C9.59233 109.132 9.58013 109.175 9.5688 109.217C9.5592 109.27 9.55136 109.325 9.54612 109.379C9.54264 109.443 9.54088 109.508 9.54088 109.573C9.54786 109.681 9.55918 109.786 9.57313 109.892C9.58534 109.954 9.5993 110.015 9.61587 110.075C9.63767 110.144 9.66122 110.213 9.68738 110.28C9.72923 110.372 9.77369 110.461 9.82078 110.549C9.87223 110.63 9.92632 110.708 9.98212 110.787C10.0397 110.855 10.0981 110.92 10.1591 110.984C10.2175 111.036 10.2769 111.087 10.3388 111.135C10.3728 111.158 10.4085 111.18 10.4434 111.202C10.5071 111.234 10.5716 111.263 10.637 111.292C10.7067 111.315 10.7765 111.336 10.8471 111.355C10.9282 111.37 11.0085 111.384 11.0904 111.396C11.2413 111.408 11.3887 111.41 11.5378 111.407Z" fill="black"/>
<path d="M33.5977 112.432C33.0457 112.305 32.5242 112.117 32.0219 111.843C31.0811 111.328 30.3477 110.481 29.8306 109.514C29.7085 109.286 29.6815 109.026 29.7321 108.782C29.5167 108.534 29.3911 108.214 29.3475 107.883C29.2629 107.257 29.2682 106.617 29.2481 105.986C29.2315 105.449 29.2158 104.912 29.2019 104.375C29.1391 102.057 29.0903 99.7374 29.0493 97.4181C29.004 94.8016 28.9612 92.1851 28.867 89.5705C28.8322 88.8014 28.7755 88.0295 28.7642 87.2594C28.7563 86.666 29.2725 86.184 29.8184 86.1978C30.3957 86.2116 30.8168 86.7176 30.8256 87.31C30.8256 87.3192 30.8256 87.3294 30.8256 87.3386C30.8735 88.4407 30.9328 89.5438 30.9642 90.646C31.0008 91.899 31.0305 93.152 31.0558 94.4051C31.1029 96.6738 31.1334 98.9416 31.1831 101.209C31.2241 103.061 31.2668 104.914 31.3313 106.767C31.6278 106.598 31.9217 106.423 32.2251 106.268C32.6794 106.036 33.1485 105.852 33.643 105.739C34.229 105.605 34.8498 105.601 35.4428 105.682C35.6111 105.705 35.7785 105.728 35.9459 105.751C36.2546 105.793 36.5459 105.884 36.8371 105.993C37.4039 106.208 37.9193 106.605 38.3343 107.058C38.6692 107.424 38.9378 107.901 39.0537 108.396C39.1767 108.923 39.1662 109.443 39.025 109.965C38.7477 110.986 37.894 111.826 36.9801 112.221C36.6671 112.356 36.3322 112.466 35.9957 112.515C35.6939 112.561 35.3948 112.58 35.0896 112.59C35.0382 112.592 34.9867 112.593 34.9353 112.593C34.4888 112.592 34.0319 112.531 33.5977 112.432ZM35.2876 110.41C35.4271 110.398 35.564 110.383 35.7026 110.363C35.8177 110.336 35.9302 110.305 36.0427 110.271C36.0994 110.251 36.1544 110.228 36.2093 110.204C36.2764 110.17 36.3427 110.134 36.4081 110.096C36.4944 110.034 36.579 109.97 36.661 109.902C36.7168 109.849 36.77 109.795 36.8223 109.74C36.8633 109.688 36.9017 109.637 36.9392 109.583C36.9592 109.55 36.9775 109.517 36.9958 109.483C37.0098 109.453 37.022 109.422 37.0342 109.391C37.049 109.341 37.063 109.291 37.0752 109.24C37.0778 109.219 37.0813 109.198 37.0839 109.177C37.0848 109.153 37.0848 109.129 37.0848 109.105C37.0822 109.076 37.0795 109.049 37.076 109.02C37.0699 108.987 37.0621 108.954 37.0534 108.921C37.0464 108.901 37.0394 108.88 37.0316 108.86C37.0063 108.808 36.9792 108.755 36.9513 108.705C36.9322 108.675 36.9112 108.646 36.8912 108.617C36.8371 108.554 36.7822 108.493 36.7246 108.434C36.6584 108.376 36.5921 108.32 36.5232 108.266C36.4404 108.21 36.3566 108.158 36.2712 108.108C36.1726 108.06 36.0741 108.015 35.9738 107.974C35.9372 107.963 35.9006 107.953 35.864 107.942C35.5815 107.884 35.2928 107.848 35.0059 107.818C34.8455 107.809 34.6868 107.804 34.5263 107.808C34.4095 107.817 34.2944 107.829 34.1784 107.844C34.0441 107.872 33.9124 107.904 33.7808 107.943C33.5994 108.008 33.4224 108.081 33.2462 108.161C32.7928 108.396 32.3542 108.659 31.906 108.905C31.9504 108.97 31.9966 109.034 32.0437 109.097C32.1623 109.241 32.2879 109.378 32.4187 109.51C32.4885 109.573 32.5591 109.634 32.6315 109.692C32.7815 109.794 32.9349 109.891 33.0919 109.98C33.2122 110.038 33.3343 110.091 33.4581 110.141C33.5968 110.189 33.7363 110.233 33.8784 110.272C34.147 110.329 34.4156 110.374 34.6885 110.403C34.8882 110.412 35.087 110.414 35.2876 110.41Z" fill="black"/>
<path d="M19.1329 27.522C18.5696 27.5082 18.1179 27.0022 18.1266 26.4097C18.1519 24.7657 18.2155 23.1226 18.2853 21.4813C18.3202 20.6432 18.3594 19.8032 18.3952 18.9641C18.4301 18.1601 18.478 17.3523 18.4553 16.5473C18.4545 16.54 18.4545 16.5317 18.4536 16.5243C18.4545 16.5271 18.4545 16.5299 18.4553 16.5326C18.4553 16.528 18.4553 16.5234 18.4553 16.5188C18.4501 16.4746 18.4484 16.4305 18.4484 16.3854C18.4484 16.3836 18.4484 16.3826 18.4484 16.3808C18.4571 15.8417 18.8643 15.3798 19.371 15.3246C19.8985 15.2658 20.338 15.6338 20.4819 16.1545C20.5342 16.3458 20.5194 16.5685 20.5211 16.7663C20.5229 17.0055 20.5185 17.2438 20.5141 17.483C20.5054 17.9089 20.4854 18.334 20.4671 18.7599C20.4304 19.6183 20.3912 20.4757 20.3546 21.335C20.2822 23.0416 20.2151 24.75 20.1889 26.4594C20.1793 27.0436 19.7058 27.522 19.1573 27.522C19.1486 27.522 19.1407 27.522 19.1329 27.522Z" fill="black"/>
<path d="M25.6223 25.9773C25.0564 25.9635 24.6073 25.4575 24.6152 24.865C24.6326 23.4501 24.6501 22.0342 24.6666 20.6192C24.6745 19.909 24.6832 19.1978 24.6919 18.4867C24.6963 18.1132 24.6997 17.7396 24.7024 17.367C24.7041 17.1821 24.705 16.9954 24.7067 16.8104C24.7085 16.6274 24.7024 16.4415 24.7512 16.2649C24.9073 15.6945 25.4854 15.3559 26.0261 15.5187C26.4795 15.6558 26.7812 16.1121 26.7716 16.5924V16.5896C26.7455 17.2437 26.7603 17.9025 26.7524 18.5566C26.7437 19.2843 26.7359 20.0129 26.7263 20.7407C26.7097 22.1317 26.6931 23.5228 26.6766 24.9147C26.6696 25.4989 26.1926 25.9773 25.645 25.9773C25.6371 25.9773 25.6302 25.9773 25.6223 25.9773Z" fill="black"/>
<path d="M6.1924 38.1452C5.8715 38.1314 5.54451 37.9695 5.36662 37.677C5.0963 37.2326 5.07623 36.6714 5.09367 36.158C5.11373 35.5766 5.16082 34.9915 5.26023 34.4192C5.36836 33.8019 5.49304 33.191 5.63779 32.5811C5.88544 31.535 6.23687 30.4954 6.84203 29.6159C7.25013 29.0225 7.73757 28.5082 8.32181 28.1099C8.87553 27.7318 9.52083 27.4806 10.174 27.384C10.7992 27.2911 11.4296 27.3306 12.0461 27.4659C12.6016 27.5864 13.1283 27.8044 13.6419 28.0547C14.6447 28.5441 15.5803 29.1743 16.5204 29.7815C17.0619 30.132 17.6095 30.4697 18.1676 30.7908C18.492 30.9545 18.8146 31.1128 19.1512 31.2471C19.4067 31.3382 19.6639 31.4145 19.9273 31.4789C20.1156 31.5166 20.3031 31.5461 20.4941 31.57C20.7208 31.5875 20.9458 31.5939 21.1734 31.5884C21.4001 31.5728 21.6233 31.547 21.8474 31.5102C22.068 31.4633 22.2843 31.4072 22.5014 31.3428C22.811 31.237 23.1127 31.1146 23.4109 30.9784C23.9341 30.7181 24.4268 30.4099 24.9186 30.0897C25.3494 29.7751 25.781 29.4632 26.1952 29.1237C26.6382 28.7603 27.0777 28.3932 27.5137 28.0197C27.9148 27.6747 28.3133 27.326 28.717 26.9856C29.1312 26.637 29.5411 26.28 29.9771 25.9617C30.4366 25.6268 30.9031 25.3011 31.4063 25.0435C31.8676 24.8071 32.3341 24.6231 32.8355 24.5016C33.4494 24.3535 34.0798 24.3517 34.7016 24.4299C35.8169 24.5706 36.8476 25.0757 37.7492 25.7676C38.3151 26.2018 38.8331 26.6912 39.2865 27.2534C39.7818 27.8891 40.183 28.5772 40.496 29.3335C40.7567 29.9655 40.9442 30.6325 41.0741 31.3078C41.1857 31.8874 40.8701 32.4771 40.3103 32.617C39.7775 32.7504 39.1802 32.3916 39.0685 31.811C39.0136 31.5222 38.9465 31.237 38.868 30.9536C38.7729 30.6417 38.6639 30.3354 38.5384 30.0345C38.4259 29.787 38.3047 29.5469 38.1704 29.3114C38.0326 29.0878 37.8861 28.8716 37.7257 28.6665C37.5565 28.4632 37.3795 28.27 37.1937 28.0832C36.9653 27.8716 36.7298 27.6729 36.4831 27.4834C36.2642 27.326 36.0418 27.1788 35.8108 27.0427C35.6154 26.9451 35.4192 26.8559 35.2178 26.7731C35.0678 26.7262 34.9196 26.6839 34.7678 26.6452C34.5899 26.6121 34.4138 26.5836 34.2342 26.5606C34.1025 26.5532 33.9726 26.5495 33.8409 26.5505C33.7005 26.5606 33.5627 26.5762 33.4232 26.5965C33.2715 26.6287 33.1233 26.6646 32.9733 26.7069C32.8285 26.7584 32.6864 26.8136 32.5451 26.8761C32.2024 27.0546 31.8745 27.2478 31.5493 27.4585C29.8 28.7327 28.2627 30.2995 26.5109 31.5718C26.0496 31.9076 25.5796 32.2315 25.086 32.5139C24.6797 32.7457 24.2707 32.9592 23.8425 33.145C23.1458 33.4495 22.409 33.64 21.6617 33.7283C20.3511 33.8838 19.0387 33.5756 17.8379 33.0328C17.2886 32.7844 16.7671 32.4652 16.2518 32.1487C15.6806 31.7982 15.1208 31.4274 14.5575 31.064C14.0526 30.7383 13.539 30.4347 13.0158 30.144C12.7428 30.0106 12.4734 29.879 12.1926 29.765C12.0112 29.7006 11.8299 29.6435 11.6441 29.5948C11.4854 29.5626 11.3259 29.5377 11.1654 29.5175C11.0346 29.5092 10.9056 29.5046 10.7748 29.5046C10.6623 29.5119 10.5515 29.523 10.439 29.5386C10.3231 29.5635 10.2097 29.5911 10.0946 29.6224C9.98473 29.6601 9.87746 29.7015 9.76933 29.7475C9.66469 29.8008 9.56267 29.8579 9.46064 29.9186C9.35513 29.9931 9.25398 30.0695 9.15283 30.1504C9.02377 30.27 8.90256 30.3933 8.78397 30.5249C8.68282 30.6509 8.58692 30.7788 8.49361 30.9122C8.382 31.0907 8.27996 31.2719 8.18404 31.4596C8.08638 31.6749 7.99918 31.8929 7.91721 32.1156C7.70008 32.7899 7.54486 33.4799 7.39749 34.1745C7.29896 34.7357 7.21962 35.2923 7.16643 35.86C7.15945 36.0504 7.15158 36.2408 7.15245 36.4313C7.15681 36.504 7.16118 36.5757 7.16816 36.6475C7.22048 36.7809 7.24839 36.9272 7.2449 37.0808C7.23269 37.6512 6.7749 38.1434 6.23077 38.1434C6.21944 38.1462 6.20635 38.1452 6.1924 38.1452Z" fill="black"/>
<path d="M19.9229 14.5758C19.0544 14.4185 18.1877 14.2492 17.3218 14.0744C16.9111 13.9916 16.5003 13.9115 16.0914 13.8223C15.8568 13.7717 15.624 13.7202 15.3911 13.6641C15.2351 13.6263 15.0807 13.5803 14.9255 13.5398C14.5235 13.4708 14.1582 13.1599 14.0788 12.7211C14.057 12.63 14.0439 12.5343 14.0518 12.4423C14.0893 11.9795 14.3151 11.6428 14.7162 11.4505C14.9604 11.3346 15.2403 11.3778 15.488 11.4496C15.6876 11.5076 15.8882 11.5563 16.0888 11.6042C17.4656 11.9013 18.8478 12.1746 20.2334 12.4257C20.7862 12.526 21.183 13.0707 21.0975 13.6641C21.0225 14.1857 20.5769 14.5896 20.0843 14.5905C20.0311 14.5905 19.977 14.5859 19.9229 14.5758Z" fill="black"/>
<path d="M25.4985 14.0118C24.9683 13.7698 24.7608 13.1341 24.9622 12.5821C25.1244 12.1415 25.5586 11.9685 25.938 11.802C26.2153 11.6805 26.4978 11.5756 26.7777 11.4634C27.4247 11.203 28.0718 10.9418 28.7179 10.6796C29.2411 10.4671 29.8489 10.7596 30.0477 11.3107C30.2474 11.8664 29.9736 12.5012 29.4495 12.7137C28.9324 12.9235 28.4153 13.1323 27.8991 13.3411C27.4265 13.5316 26.9469 13.7091 26.483 13.9198C26.3112 14.0357 26.1054 14.0983 25.9005 14.0983C25.7627 14.0983 25.6258 14.0698 25.4985 14.0118Z" fill="black"/>
<path d="M4.58967 73.602C4.35946 73.5063 4.14409 73.2791 4.02724 73.0509C3.73861 72.4861 3.90341 71.8043 4.24873 71.3131C4.93673 70.3314 6.02236 69.8126 6.99464 69.2054C6.8185 69.0039 6.64063 68.8042 6.47059 68.5972C6.13748 68.1915 5.80786 67.7784 5.50441 67.346C4.88354 66.461 4.30713 65.5456 3.75429 64.6127C3.18051 63.644 2.62943 62.6614 2.09228 61.6696C1.55251 60.6742 1.03193 59.6484 0.645631 58.5748C0.211375 57.3668 -0.0476305 56.1027 0.00730554 54.8046C0.0648575 53.4457 0.620333 52.1872 1.46356 51.1724C2.19168 50.2966 2.99305 49.4897 3.80227 48.6976C5.46953 47.0683 7.2048 45.5098 9.02554 44.071C9.65599 43.5732 10.2882 43.082 10.9431 42.621C11.0974 42.5125 11.2613 42.4159 11.4201 42.3156C11.7401 42.1132 12.1368 41.9513 12.5144 42.0111C12.9434 42.0801 13.3027 42.4269 13.4082 42.8704C13.5442 43.4444 13.185 44.0443 12.6435 44.1795C12.5772 44.1961 12.5109 44.2053 12.4455 44.208C12.3295 44.2743 12.2171 44.3451 12.1046 44.4169C10.61 45.474 9.19908 46.6598 7.80911 47.8623C6.24823 49.2552 4.72658 50.7005 3.30522 52.2534C3.09071 52.512 2.88143 52.7686 2.68959 53.0456C2.60065 53.1891 2.51605 53.3344 2.43583 53.4844C2.3713 53.6224 2.31201 53.7613 2.2562 53.9058C2.21086 54.0493 2.17075 54.1937 2.13674 54.3418C2.1132 54.4808 2.09402 54.6188 2.07745 54.7586C2.06437 54.9656 2.06002 55.1708 2.06263 55.3787C2.07746 55.6446 2.10272 55.9077 2.13847 56.1717C2.19428 56.4965 2.26491 56.8157 2.34862 57.1322C2.51082 57.6685 2.71663 58.1819 2.93463 58.6953C3.73513 60.3908 4.64811 62.0229 5.59946 63.6283C6.24998 64.7065 6.92315 65.771 7.69226 66.76C7.9338 67.0618 8.18058 67.358 8.43346 67.6487C8.54857 67.7803 8.66628 67.9081 8.77877 68.0415C8.88254 67.9459 8.98542 67.8502 9.08919 67.7554C9.27493 67.5843 9.45891 67.4104 9.6743 67.2826C10.0083 67.0829 10.3815 67.1381 10.7076 67.3157C10.9073 67.4242 11.0643 67.646 11.1428 67.864C11.2404 68.1345 11.2212 68.4142 11.1253 68.6819C11.0451 68.9036 10.8969 69.094 10.7565 69.2771C10.6475 69.4206 10.5358 69.5623 10.4225 69.7022C10.3632 69.7739 10.3039 69.8457 10.2437 69.9165C10.2934 70.1714 10.2586 70.4409 10.1129 70.6636C9.72751 71.2533 9.27406 71.7933 8.7029 72.1917C8.31573 72.4612 7.83787 72.7207 7.37135 72.6747C7.29985 72.7299 7.22748 72.7851 7.15511 72.8393C6.94932 72.9939 6.73131 73.1319 6.51593 73.2717C6.1462 73.5091 5.7442 73.6756 5.31517 73.7373C5.27157 73.7437 5.22886 73.7465 5.18526 73.7465C4.98034 73.7428 4.77802 73.6802 4.58967 73.602Z" fill="black"/>
<path d="M35.8317 41.4122C35.4393 41.3763 35.1341 41.1895 34.93 40.8271C34.6327 40.3027 34.8768 39.6568 35.271 39.2778C35.5291 39.0294 35.8134 38.8187 36.0846 38.5878C36.327 38.3817 36.5703 38.1766 36.8136 37.9705C37.1318 37.6696 37.4492 37.3697 37.7675 37.0689C38.0692 36.7837 38.3509 36.4736 38.6386 36.1737C39.2203 35.5702 39.7818 34.9464 40.3417 34.3218C40.7009 33.9041 41.0602 33.4873 41.4203 33.0696C41.7342 32.7044 42.0298 32.3226 42.3298 31.9454C42.5984 31.6077 42.8696 31.2747 43.1207 30.9233C43.4634 30.4449 43.8044 29.9646 44.1488 29.4871C44.9074 28.3187 45.6617 27.1494 46.3567 25.9378C46.7666 25.2239 47.1712 24.5109 47.5653 23.7877C47.9054 23.1649 48.2271 22.531 48.5498 21.899C48.9247 21.1105 49.3076 20.3249 49.6415 19.5162C50.006 18.6311 50.3548 17.7452 50.6792 16.8436C50.8432 16.3422 51.008 15.8408 51.1458 15.3302C51.2966 14.769 51.4318 14.2068 51.5556 13.6383C51.7448 12.6033 51.8826 11.5655 51.9733 10.5158C52.0457 9.51578 52.1119 8.51206 52.0919 7.51018C52.0831 7.35286 52.0718 7.19646 52.0544 7.04098C51.7553 6.9959 51.4614 6.92507 51.178 6.80455C50.6365 6.57455 50.1552 6.22218 49.822 5.70974C49.6834 5.49538 49.591 5.25433 49.5439 5.00133C49.516 4.85137 49.5081 4.68669 49.523 4.52569C49.516 4.51741 49.5081 4.50914 49.5011 4.49994C49.3267 4.29662 49.1881 4.06845 49.0573 3.83201C48.7713 3.31405 48.5943 2.73815 48.6361 2.13371C48.6719 1.62035 48.8812 1.1079 49.2404 0.751857C49.6407 0.356257 50.1499 0.105105 50.694 0.0232246C51.5582 -0.107415 52.3622 0.332341 53.0389 0.859501C53.5176 1.23302 53.9588 1.64886 54.3486 2.1245C54.7898 2.65994 55.1212 3.26714 55.2781 3.9599C55.4168 4.57354 55.3348 5.28838 55.041 5.83946C54.8221 6.24886 54.5056 6.61043 54.1079 6.82847C54.1123 6.86895 54.1166 6.90942 54.121 6.9499C54.1751 7.51478 54.1637 8.08518 54.1454 8.6519C54.128 9.21494 54.094 9.77891 54.053 10.3419C53.9693 11.4873 53.8437 12.6263 53.6353 13.7533C53.4278 14.8803 53.1409 15.9935 52.7842 17.0782C52.0474 19.3202 51.1065 21.485 50.0383 23.5725C48.9771 25.648 47.8208 27.6766 46.5581 29.6224C46.2477 30.1036 45.9451 30.5921 45.612 31.0567C45.3897 31.3676 45.1673 31.6777 44.9458 31.9886C44.8072 32.1827 44.6755 32.3861 44.5273 32.5719C44.1174 33.088 43.7058 33.6032 43.2951 34.1184C42.9289 34.5784 42.5313 35.0118 42.1485 35.4561C41.4073 36.3172 40.6381 37.1526 39.8525 37.9677C39.665 38.1627 39.4766 38.3578 39.2892 38.5528C39.072 38.7792 38.8314 38.9852 38.6038 39.1996C38.1713 39.6081 37.7222 39.9889 37.2705 40.3726C37.1161 40.5032 36.9566 40.6256 36.8013 40.7535C36.6452 41.1242 36.3008 41.414 35.9075 41.414C35.8805 41.4159 35.8561 41.414 35.8317 41.4122ZM36.3104 39.3532C36.2938 39.344 36.2773 39.3358 36.2616 39.3266C36.2206 39.3109 36.1796 39.2962 36.1386 39.2796C36.1194 39.2769 36.0994 39.2732 36.0802 39.2704C36.1604 39.2898 36.2372 39.3164 36.3104 39.3532ZM50.6897 2.34622C50.7028 2.3315 50.7158 2.31678 50.7307 2.30298C50.7586 2.27446 50.7882 2.24869 50.8179 2.22569C50.7961 2.23489 50.7734 2.24319 50.7516 2.25239C50.7403 2.25883 50.7289 2.26433 50.7176 2.26985C50.715 2.27169 50.7115 2.27447 50.7089 2.27631C50.7019 2.28367 50.6949 2.29101 50.6871 2.29745C50.6871 2.29745 50.6862 2.30022 50.6862 2.30206C50.6862 2.3085 50.6862 2.31586 50.6853 2.3223C50.6879 2.33058 50.6888 2.33886 50.6897 2.34622Z" fill="black"/>
</svg>
