<svg width="89" height="107" viewBox="0 0 89 107" fill="none" xmlns="http://www.w3.org/2000/svg">
<path d="M42.2041 37.1954C41.9068 37.1852 41.6103 37.1742 41.3138 37.1641C41.0382 37.1539 40.7601 37.1033 40.4863 37.0721C40.195 37.0389 39.9029 37.0058 39.6099 36.9718C39.3413 36.9414 39.071 36.8724 38.805 36.8227C38.5382 36.7731 38.2731 36.7243 38.0072 36.6746C37.2267 36.5293 36.4533 36.2928 35.6999 36.0361C34.282 35.5522 32.9121 34.8935 31.6328 34.0867C30.9928 33.6828 30.385 33.2173 29.7912 32.7398C29.1607 32.2347 28.5686 31.68 27.9992 31.1004C26.8743 29.9559 25.9221 28.632 25.1051 27.2299C24.295 25.8389 23.7081 24.3153 23.3593 22.7247C23.0175 21.1671 23.0079 19.5608 23.2067 17.983C23.4064 16.3868 23.9078 14.8504 24.5618 13.4014C25.8742 10.4923 27.8292 7.88783 30.1522 5.80587C31.1097 4.94659 32.1491 4.15539 33.2548 3.51967C33.771 3.22343 34.2794 2.90603 34.8157 2.65119C35.3406 2.40187 35.8594 2.13599 36.4001 1.92807C36.7402 1.79651 37.0794 1.66587 37.4194 1.53523C37.634 1.45243 37.8563 1.38987 38.0752 1.32179C38.4074 1.21967 38.7388 1.11755 39.071 1.01635C39.3003 0.945508 39.5375 0.898589 39.7695 0.842469C40.0468 0.775309 40.3223 0.707228 40.5988 0.640068C40.9048 0.566468 41.2196 0.519549 41.5292 0.458829C42.1265 0.342909 42.7247 0.253669 43.3264 0.165349C43.5252 0.135909 43.7196 0.114747 43.9193 0.0972675C44.2603 0.0687475 44.603 0.0218303 44.9448 0.0153903C45.2343 0.0107903 45.5256 0.0061879 45.8151 0.000667901C46.0932 -0.0039321 46.3697 0.0163103 46.6469 0.0282703C47.1239 0.0503503 47.5974 0.0991081 48.0683 0.185588C48.3683 0.240788 48.663 0.324511 48.9551 0.417431C49.072 0.391671 49.1932 0.389831 49.3153 0.417431C51.4264 0.896751 53.5427 1.42759 55.571 2.21603C56.5747 2.60703 57.5443 3.09555 58.4826 3.63743C58.9596 3.91251 59.4261 4.20875 59.8726 4.53719C60.3496 4.88771 60.803 5.25847 61.2512 5.65039C62.1424 6.43055 62.9141 7.35331 63.6387 8.30183C64.2962 9.16203 64.8761 10.1142 65.3592 11.094C65.6304 11.6451 65.8894 12.2008 66.1091 12.7776C66.3306 13.36 66.5085 13.9506 66.6611 14.5569C66.8006 15.1117 66.8896 15.6784 66.9419 16.2497C66.975 16.6131 66.9741 16.9811 66.9863 17.3454C66.9959 17.6527 66.9811 17.9729 66.9558 18.2801C66.9323 18.5534 66.9244 18.8312 66.8861 19.1026C66.8407 19.4136 66.8076 19.7291 66.7422 20.0355C66.6846 20.306 66.6428 20.5884 66.566 20.8534C66.4788 21.1533 66.4047 21.4615 66.2983 21.7541C66.2024 22.0163 66.1187 22.2886 66.0088 22.5434C65.878 22.8424 65.7568 23.1479 65.6129 23.4386C65.4795 23.71 65.3461 23.9805 65.2118 24.251C64.9441 24.7928 64.6197 25.3034 64.3049 25.815C64.0215 26.275 63.7067 26.7239 63.3675 27.1407C63.174 27.379 62.9882 27.6283 62.7824 27.8555C62.5505 28.1094 62.3194 28.3633 62.0874 28.6173C61.7395 28.9991 61.3602 29.356 60.9835 29.7065C60.5065 30.1481 60.0234 30.5741 59.5316 30.9955C59.1174 31.3506 58.6805 31.6744 58.2506 32.0084C58.0475 32.1657 57.8242 32.3019 57.6123 32.4463C57.3961 32.5953 57.1816 32.7499 56.9575 32.887C56.4526 33.1961 55.9529 33.5098 55.4315 33.7895C55.1472 33.9422 54.8621 34.0949 54.5769 34.2486C54.3197 34.3875 54.0476 34.4988 53.7851 34.623C53.534 34.7408 53.2829 34.8595 53.0317 34.9772C52.7666 35.1023 52.485 35.1971 52.2138 35.3057C51.9722 35.4023 51.7307 35.4998 51.4883 35.5973C51.2075 35.7105 50.9093 35.7896 50.6215 35.8853C50.3652 35.9699 50.1097 36.0555 49.8524 36.1401C49.5664 36.2349 49.2717 36.3002 48.9813 36.3775C48.6778 36.4575 48.3744 36.5375 48.0718 36.6176C47.8355 36.6792 47.5904 36.7133 47.3515 36.7602C47.0306 36.8218 46.7089 36.8853 46.3888 36.9479C46.1351 36.9975 45.877 37.0169 45.6206 37.0454C45.2962 37.0831 44.9718 37.119 44.6466 37.1567C44.3972 37.1843 44.1391 37.1779 43.8888 37.1861C43.5705 37.1972 43.2531 37.2082 42.934 37.2202C42.9 37.2211 42.8668 37.222 42.8328 37.222C42.6235 37.2211 42.4125 37.2036 42.2041 37.1954ZM42.9505 35.0462C43.2113 35.0554 43.4798 35.0287 43.7406 35.0186C43.9655 35.0103 44.1905 35.003 44.4155 34.9947C44.9404 34.9349 45.4663 34.8751 45.9912 34.8153C46.5161 34.7132 47.0411 34.6101 47.5669 34.508C47.8486 34.4528 48.1302 34.359 48.4075 34.2854C48.6848 34.2127 48.9621 34.1382 49.2385 34.0655C49.6405 33.9312 50.0425 33.7987 50.4445 33.6653C50.7654 33.5595 51.0758 33.4335 51.3906 33.3065C51.7324 33.1694 52.0804 33.0452 52.4144 32.8879C52.812 32.7011 53.2105 32.5135 53.6081 32.3267C54.0267 32.1022 54.4444 31.8777 54.8621 31.6533C55.0365 31.5594 55.203 31.4453 55.373 31.3414C55.5867 31.2107 55.7995 31.0801 56.014 30.9495C56.511 30.61 57.0054 30.2733 57.4833 29.9025C57.7248 29.7157 57.9707 29.5345 58.2027 29.3349C58.4704 29.1049 58.739 28.8758 59.0067 28.6458C59.393 28.2879 59.781 27.9337 60.1525 27.5593C60.5527 27.1563 60.9364 26.7442 61.3192 26.3237C61.5206 26.0744 61.7221 25.826 61.9244 25.5767C62.0212 25.4571 62.104 25.3209 62.1921 25.1949C62.2889 25.0578 62.3857 24.9207 62.4825 24.7827C62.7144 24.4073 62.9472 24.0329 63.16 23.6447C63.3815 23.2417 63.5882 22.8351 63.7922 22.4229C63.9021 22.169 64.0128 21.9142 64.1236 21.6602C64.2195 21.4394 64.2945 21.2048 64.3747 20.9757C64.4462 20.7292 64.5177 20.4817 64.5892 20.2351C64.6625 19.984 64.7017 19.7154 64.7558 19.4578C64.7479 19.4946 64.7401 19.5313 64.7331 19.5681C64.7723 19.2967 64.8124 19.0272 64.8517 18.7558C64.8892 18.4908 64.897 18.2167 64.9197 17.949C64.9153 17.9959 64.9127 18.0419 64.9084 18.0879C64.9145 17.8229 64.9206 17.558 64.9267 17.293C64.9319 17.0842 64.918 16.8725 64.9084 16.6628C64.8866 16.3757 64.856 16.0915 64.8151 15.8081C64.7418 15.3978 64.6415 14.9994 64.5404 14.5965C64.4715 14.3803 64.4035 14.1641 64.3346 13.9488C64.2613 13.7179 64.1619 13.4916 64.0756 13.2652C63.8864 12.8374 63.6893 12.4179 63.4835 11.9984C63.2838 11.5954 63.0536 11.2099 62.8252 10.8235C62.4485 10.2467 62.0561 9.69011 61.641 9.14455C61.2303 8.65235 60.8065 8.18223 60.3618 7.72407C60.0827 7.46095 59.8011 7.20427 59.5133 6.95127C59.2343 6.70747 58.936 6.49035 58.6378 6.27231C58.1539 5.94479 57.6629 5.64027 57.1598 5.34771C56.2956 4.88403 55.4175 4.47187 54.5089 4.11583C53.0012 3.58131 51.4639 3.15443 49.9152 2.77907C49.6135 2.91615 49.2577 2.89775 48.9647 2.71467C48.9098 2.68983 48.8549 2.66591 48.7999 2.64383C48.493 2.53987 48.1869 2.43867 47.8738 2.35955C47.5721 2.29607 47.2704 2.25283 46.9644 2.22155C46.3008 2.16819 45.6398 2.17463 44.9753 2.18567C44.7931 2.20131 44.6099 2.21695 44.4268 2.23167C44.2228 2.24823 44.0153 2.25467 43.8138 2.28411C43.3578 2.35127 42.9017 2.41843 42.4456 2.48559C42.0785 2.55735 41.7106 2.62911 41.3434 2.70087C41.0086 2.76619 40.6781 2.84991 40.3467 2.92995C40.018 3.00999 39.6901 3.08451 39.3675 3.18387C38.9951 3.29795 38.6228 3.41295 38.2505 3.52703C37.7691 3.71195 37.2895 3.89779 36.8082 4.08363C36.5806 4.17103 36.3591 4.29707 36.1376 4.40195C35.9196 4.50499 35.7016 4.60895 35.4827 4.71291C34.8662 5.06711 34.2436 5.41027 33.6446 5.79759C32.9121 6.28703 32.2127 6.82339 31.543 7.40575C30.8838 7.99915 30.2621 8.63119 29.6726 9.30003C29.0456 10.0333 28.4657 10.8033 27.9277 11.6101C27.4673 12.3222 27.0453 13.0564 26.6642 13.8191C26.3511 14.4713 26.0712 15.1374 25.8288 15.8219C25.6579 16.338 25.5123 16.8578 25.3972 17.3905C25.2952 17.9241 25.2202 18.4614 25.1705 19.0042C25.1373 19.4725 25.1269 19.9389 25.1417 20.409C25.1661 20.8451 25.208 21.2775 25.2716 21.709C25.3571 22.2003 25.4687 22.6833 25.603 23.1626C25.766 23.698 25.957 24.2197 26.1741 24.733C26.4401 25.3246 26.7427 25.8904 27.0697 26.4461C27.4673 27.0965 27.9007 27.7184 28.3663 28.3164C28.8268 28.8878 29.3159 29.4269 29.8348 29.9393C30.4975 30.5714 31.1977 31.1509 31.9285 31.6937C32.5031 32.1059 33.0961 32.4776 33.7117 32.8152C34.4346 33.197 35.1758 33.5319 35.9353 33.8226C36.6774 34.0922 37.4308 34.313 38.1964 34.4942C38.7623 34.6203 39.3361 34.7123 39.9055 34.8171C40.134 34.8595 40.372 34.8714 40.6022 34.8981C40.8665 34.9285 41.1298 34.9588 41.394 34.9883C41.912 35.0094 42.4317 35.0278 42.9505 35.0462Z" fill="black"/>
<path d="M41.7733 16.3675C41.2231 16.3537 40.7391 15.8467 40.767 15.2552C40.8316 13.8982 40.9589 12.5467 41.094 11.1971C41.1621 10.5245 41.2432 9.85479 41.333 9.18503C41.3801 8.84095 41.435 8.49963 41.4926 8.15831C41.5178 8.00743 41.5501 7.85747 41.5806 7.70843C41.6399 7.41679 41.7297 7.08559 41.9565 6.88503C42.28 6.59891 42.6776 6.50139 43.0778 6.67343C43.2034 6.72771 43.3211 6.81695 43.4144 6.92183C43.7109 7.25119 43.772 7.73787 43.601 8.13163C43.5984 8.14083 43.5958 8.15095 43.5932 8.16015C43.4171 9.05623 43.3011 9.96611 43.1999 10.8741C43.0996 11.7877 43.0142 12.7031 42.9375 13.6194C42.893 14.1806 42.8546 14.7427 42.8276 15.3058C42.7997 15.8891 42.3584 16.3675 41.796 16.3675C41.789 16.3684 41.7812 16.3684 41.7733 16.3675Z" fill="black"/>
<path d="M48.2444 14.521C47.9724 14.5146 47.7108 14.3922 47.5233 14.1843C47.328 13.969 47.246 13.7013 47.2382 13.4087C47.2042 12.1769 47.2103 10.945 47.2233 9.71311C47.2294 9.09395 47.2373 8.47387 47.2565 7.85471C47.2678 7.52443 47.2791 7.19415 47.2922 6.86295C47.3027 6.58051 47.3018 6.29347 47.3306 6.01195C47.3899 5.42223 47.9672 5.01559 48.5043 5.10115C48.7755 5.14439 49.0231 5.30447 49.1836 5.53907C49.3336 5.75711 49.3876 6.00827 49.3737 6.27047C49.3754 6.24839 49.378 6.22539 49.3798 6.20331C49.3397 6.78843 49.3344 7.37999 49.3153 7.96695C49.2952 8.59347 49.29 9.22183 49.283 9.84927C49.269 11.0517 49.2664 12.256 49.2978 13.4593C49.3135 14.0435 48.7973 14.521 48.2645 14.521C48.2584 14.521 48.2514 14.521 48.2444 14.521Z" fill="black"/>
<path d="M43.1276 25.9005C42.5006 25.8416 41.8815 25.6604 41.3016 25.4074C40.849 25.2114 40.4383 24.9023 40.0494 24.5923C39.4643 24.1249 38.9228 23.6226 38.4188 23.0595C37.9287 22.5112 37.5407 21.8543 37.1875 21.2021C36.8431 20.5663 36.5631 19.8828 36.3626 19.1827C36.1734 18.5239 35.9946 17.6693 36.5161 17.1228C36.9146 16.7051 37.5912 16.7364 37.9732 17.1587C38.2086 17.419 38.2932 17.7695 38.2374 18.098C38.2374 18.1081 38.2365 18.1191 38.2365 18.1293C38.2374 18.1431 38.2391 18.1569 38.2409 18.1707C38.2723 18.3215 38.3098 18.4697 38.3507 18.6178C38.4379 18.8947 38.5373 19.1643 38.6472 19.432C38.8234 19.8257 39.0178 20.2066 39.2306 20.5811C39.4006 20.8571 39.5794 21.1239 39.7695 21.3851C39.9622 21.617 40.1628 21.8387 40.3694 22.0577C40.7801 22.445 41.2092 22.8019 41.6591 23.1368C41.7725 23.215 41.8867 23.2868 42.0044 23.3549C42.1169 23.4082 42.2294 23.4588 42.3445 23.5048C42.5058 23.5591 42.6663 23.6079 42.8311 23.6502C43.0578 23.6971 43.2836 23.7311 43.513 23.756C43.7345 23.7689 43.9551 23.7744 44.1774 23.7707C44.4809 23.7523 44.7809 23.7192 45.0808 23.6686C45.3355 23.6152 45.5866 23.5517 45.836 23.4763C46.0915 23.388 46.3409 23.2877 46.5877 23.1755C46.8676 23.0347 47.1379 22.882 47.4047 22.7136C47.7675 22.4643 48.1032 22.1883 48.438 21.9013C48.7162 21.6262 48.9848 21.3474 49.2481 21.0576C49.5795 20.6491 49.8951 20.2333 50.1977 19.8009C50.4027 19.4817 50.5997 19.1587 50.7837 18.8248C50.9677 18.489 51.1377 18.1449 51.306 17.7999C51.6191 17.1412 51.913 16.4742 52.1589 15.7833C52.1885 15.694 52.2173 15.6039 52.2461 15.5146C52.4248 14.9534 52.9646 14.6011 53.5218 14.7694C54.0432 14.9267 54.4069 15.5533 54.2281 16.1154C53.8837 17.201 53.4233 18.2341 52.9149 19.2443C52.4021 20.2646 51.8162 21.2425 51.1011 22.1193C50.8997 22.3659 50.6965 22.6041 50.4838 22.8397C50.2832 23.0623 50.0704 23.2684 49.8585 23.4772C49.6606 23.6723 49.4373 23.8443 49.2272 24.0255C48.9734 24.2445 48.6883 24.4349 48.4084 24.6134C48.0683 24.8296 47.7204 25.0274 47.355 25.1939C46.7237 25.4837 46.0671 25.6963 45.3887 25.8168C44.9125 25.9014 44.439 25.941 43.9638 25.941C43.6856 25.9391 43.4075 25.9263 43.1276 25.9005Z" fill="black"/>
<path d="M43.4397 79.3562C41.1987 79.2577 38.9524 79.1234 36.721 78.8805C35.5795 78.7554 34.445 78.6027 33.3167 78.3764C32.8196 78.277 32.3148 78.1657 31.8439 77.9697C31.591 77.8639 31.3093 77.7462 31.1009 77.5548C30.8629 77.3368 30.6667 77.104 30.5376 76.7967C30.3937 76.4563 30.3589 76.0847 30.3432 75.7167C30.3292 75.4048 30.3275 75.0975 30.3397 74.7865C30.3859 73.6908 30.4774 72.5951 30.5455 71.5012C30.6152 70.3503 30.6867 69.1994 30.7591 68.0466C30.9012 65.7715 31.0713 63.4972 31.2378 61.223C31.4079 58.8935 31.5674 56.5632 31.7227 54.2328C31.8805 51.8519 32.0436 49.4709 32.2345 47.0927C32.436 44.5995 32.6496 42.1072 32.8676 39.6149C32.9513 38.6554 33.0359 37.6958 33.1205 36.7363C33.1615 36.2772 33.2016 35.8163 33.2417 35.3563C33.2626 35.1189 33.2835 34.8834 33.3027 34.646C33.3193 34.4464 33.3298 34.2394 33.4021 34.0535C33.5931 33.5558 34.1486 33.2826 34.6386 33.4307C35.1505 33.5843 35.4435 34.1198 35.3685 34.6543C35.3694 34.6515 35.3702 34.6479 35.3711 34.6451C35.3144 35.003 35.3066 35.3765 35.2743 35.7371C35.2325 36.2146 35.1906 36.6912 35.1487 37.1677C35.0694 38.0629 34.99 38.959 34.9124 39.8551C34.7459 41.7705 34.5819 43.685 34.4198 45.6005C34.2366 47.8729 34.057 50.1462 33.9062 52.4213C33.7431 54.8787 33.5809 57.3369 33.4065 59.7924C33.2443 62.0694 33.0664 64.3436 32.9164 66.6215C32.7647 68.9004 32.6322 71.1811 32.4883 73.4608C32.4482 74.1057 32.3897 74.7507 32.3906 75.3965C32.3976 75.5538 32.4063 75.7111 32.4211 75.8675C32.4752 75.8942 32.531 75.9191 32.5868 75.9421C32.8824 76.0423 33.1798 76.1251 33.4824 76.1969C34.0806 76.3165 34.6779 76.4361 35.283 76.5152C36.0024 76.61 36.7201 76.6955 37.4412 76.7728C39.2463 76.932 41.0522 77.0525 42.8607 77.1528C44.6535 77.2521 46.4446 77.242 48.2375 77.1758C49.7277 77.1013 51.2188 77.0157 52.7021 76.8492C54.1802 76.6845 55.6512 76.472 57.117 76.2116C57.0961 76.2153 57.0743 76.219 57.0534 76.2236C57.7335 76.0994 58.4285 75.9973 59.0947 75.8013C59.12 75.7912 59.1453 75.7811 59.1706 75.7709C59.1898 75.7608 59.209 75.7498 59.2282 75.7397C59.2404 75.7277 59.2517 75.7157 59.2639 75.7038C59.2709 75.6955 59.2779 75.6863 59.2857 75.678C59.2822 75.6826 59.2796 75.6872 59.277 75.6918L59.2805 75.6881C59.3005 75.6559 59.3197 75.6228 59.338 75.5888C59.379 75.4949 59.4165 75.4002 59.4514 75.3036C59.4976 75.1435 59.5395 74.9843 59.577 74.8215C59.6598 74.3854 59.706 73.9484 59.7522 73.5068C59.8107 72.4442 59.842 71.3807 59.829 70.3153C59.815 69.1433 59.7819 67.973 59.7392 66.8019C59.7409 66.8488 59.7426 66.8948 59.7444 66.9408C59.5508 62.2745 59.277 57.6065 58.732 52.9697C58.4495 50.5565 58.1294 48.1479 57.8112 45.7394C57.5077 43.4403 57.2365 41.1385 56.9923 38.8311C56.7412 36.4501 56.5093 34.0664 56.2224 31.6891C56.1517 31.1013 56.5904 30.5539 57.1397 30.4941C57.7074 30.4315 58.2018 30.874 58.2724 31.4619C58.5332 33.623 58.7486 35.7905 58.9744 37.9553C59.2151 40.2645 59.4784 42.5709 59.7784 44.8718C60.0784 47.1819 60.4019 49.4884 60.6731 51.8022C60.9477 54.1436 61.1823 56.4896 61.3541 58.842C61.5276 61.2294 61.6654 63.6168 61.7657 66.0088C61.8651 68.3833 61.9706 70.7735 61.8363 73.1489C61.7936 73.8969 61.7343 74.6513 61.5677 75.3818C61.4256 76.012 61.2224 76.6339 60.8161 77.1325C60.6565 77.3267 60.4551 77.5189 60.2362 77.6376C59.9999 77.7646 59.7627 77.8575 59.5089 77.9357C59.2892 78.0029 59.0599 78.0415 58.8349 78.0884C58.5733 78.1427 58.3099 78.1924 58.0475 78.2421C57.5461 78.3368 57.0429 78.4261 56.5398 78.5098C54.3903 78.8658 52.233 79.105 50.0617 79.2467C48.5976 79.3415 47.1326 79.3994 45.6668 79.3994C44.9247 79.4031 44.1827 79.3884 43.4397 79.3562Z" fill="black"/>
<path d="M31.8962 105.827C31.4201 105.63 31.0068 105.281 30.6606 104.891C30.249 104.426 29.9368 103.841 29.772 103.229C29.445 102.015 29.6229 100.573 30.5769 99.7186C31.1437 99.2116 31.9189 99.15 32.6322 99.1445C33.0716 99.1408 33.5068 99.2346 33.9341 99.3294C34.3613 99.4232 34.786 99.5484 35.1958 99.7094C35.9283 99.9946 36.6015 100.426 37.3296 100.721C37.3349 100.723 37.3401 100.725 37.3462 100.727C37.3767 100.532 37.3959 100.336 37.4142 100.139C37.5799 97.9614 37.7264 95.7819 37.8877 93.6033C38.0612 91.2647 38.2548 88.9279 38.4667 86.592C38.6987 84.0436 38.9106 81.4915 39.1975 78.9486C39.2637 78.3598 39.8297 77.9514 40.3712 78.0378C40.9397 78.1289 41.3007 78.6883 41.2344 79.2762C41.0217 81.1585 40.8586 83.0482 40.6851 84.9351C40.5089 86.8579 40.3354 88.7816 40.1741 90.7072C40.175 90.6915 40.1767 90.6759 40.1776 90.6602C40.1758 90.6869 40.1732 90.7136 40.1715 90.7394C40.1697 90.7596 40.168 90.7789 40.1662 90.7992C40.1671 90.7844 40.1689 90.7688 40.1697 90.7541C39.9918 93.0145 39.8288 95.2768 39.6657 97.5382C39.6265 98.081 39.5872 98.6228 39.5489 99.1647C39.507 99.7379 39.4809 100.316 39.4067 100.885C39.3788 101.104 39.3413 101.321 39.269 101.528C39.1643 101.826 39.0169 102.086 38.8356 102.338C38.7545 102.451 38.6612 102.55 38.5583 102.636C38.5722 102.849 38.5278 103.068 38.417 103.261C37.9976 103.987 37.4683 104.625 36.8099 105.118C35.9449 105.765 34.9194 106.066 33.8721 106.13C33.7605 106.137 33.6489 106.141 33.539 106.141C32.9775 106.142 32.4316 106.048 31.8962 105.827ZM33.6742 103.968C33.8721 103.954 34.0692 103.936 34.2663 103.907C34.4433 103.871 34.6186 103.828 34.7921 103.777C34.9063 103.736 35.018 103.69 35.1287 103.641C35.2534 103.576 35.3763 103.507 35.4958 103.433C35.6205 103.346 35.7408 103.254 35.8577 103.156C35.9615 103.059 36.0609 102.959 36.1568 102.853C36.2135 102.785 36.2684 102.715 36.3225 102.644C36.1524 102.568 35.9867 102.485 35.8246 102.404C35.3432 102.163 34.868 101.906 34.3709 101.704C34.0936 101.615 33.8155 101.532 33.5329 101.46C33.3132 101.412 33.0943 101.368 32.8728 101.336C32.7333 101.327 32.5947 101.321 32.4543 101.321C32.3217 101.33 32.1901 101.341 32.0584 101.358C32.0034 101.369 31.9476 101.38 31.8918 101.392C31.8875 101.397 31.884 101.4 31.8796 101.405C31.8639 101.425 31.8482 101.445 31.8334 101.466C31.8142 101.5 31.795 101.535 31.7759 101.569C31.7637 101.596 31.7523 101.624 31.7418 101.652C31.7296 101.696 31.7174 101.738 31.7061 101.78C31.6965 101.834 31.6887 101.888 31.6826 101.942C31.6791 102.007 31.6773 102.071 31.6773 102.136C31.6843 102.244 31.6956 102.349 31.7096 102.456C31.7218 102.517 31.7366 102.578 31.7523 102.639C31.7741 102.708 31.7977 102.776 31.8238 102.843C31.8657 102.935 31.9101 103.024 31.9572 103.113C32.0096 103.194 32.0627 103.273 32.1186 103.35C32.1761 103.418 32.2345 103.483 32.2956 103.548C32.354 103.6 32.4133 103.651 32.4743 103.699C32.5092 103.722 32.5441 103.744 32.5798 103.766C32.6435 103.798 32.708 103.827 32.7734 103.856C32.8432 103.879 32.9129 103.9 32.9836 103.918C33.0647 103.933 33.1449 103.947 33.2269 103.959C33.3777 103.968 33.5251 103.971 33.6742 103.968Z" fill="black"/>
<path d="M55.7341 104.992C55.1821 104.865 54.6606 104.677 54.1584 104.403C53.2166 103.887 52.4841 103.042 51.967 102.075C51.8449 101.847 51.8179 101.586 51.8685 101.342C51.6531 101.095 51.5275 100.775 51.4839 100.444C51.3993 99.8179 51.4054 99.1776 51.3845 98.5465C51.368 98.0092 51.3523 97.4728 51.3383 96.9356C51.2755 94.6172 51.2267 92.2978 51.1857 89.9785C51.1404 87.362 51.0976 84.7456 51.0035 82.1309C50.9686 81.3618 50.9119 80.5899 50.9006 79.8199C50.8927 79.2265 51.4098 78.7444 51.9548 78.7582C52.5321 78.772 52.9532 79.278 52.962 79.8705C52.962 79.8797 52.962 79.8898 52.962 79.899C53.0099 81.0012 53.0692 82.1042 53.1006 83.2064C53.1372 84.4594 53.1669 85.7125 53.1922 86.9655C53.2393 89.2333 53.2698 91.502 53.3195 93.7698C53.3605 95.6218 53.4032 97.4747 53.4677 99.3276C53.7642 99.1583 54.0581 98.9835 54.3607 98.828C54.815 98.5961 55.2841 98.4121 55.7785 98.299C56.3645 98.1656 56.9854 98.1619 57.5783 98.2429C57.7466 98.2659 57.9141 98.2889 58.0815 98.3109C58.3902 98.3533 58.6814 98.4444 58.9727 98.5538C59.5395 98.7682 60.0548 99.1656 60.4699 99.6183C60.8047 99.9844 61.0733 100.461 61.1893 100.956C61.3122 101.482 61.3018 102.004 61.1605 102.525C60.8832 103.547 60.0295 104.387 59.1157 104.781C58.8026 104.917 58.4678 105.026 58.1312 105.076C57.8295 105.122 57.5304 105.14 57.2252 105.15C57.1737 105.152 57.1223 105.153 57.0717 105.153C56.6252 105.153 56.1683 105.091 55.7341 104.992ZM57.4231 102.971C57.5626 102.959 57.6995 102.944 57.8382 102.924C57.9533 102.896 58.0658 102.866 58.1783 102.832C58.235 102.812 58.2899 102.789 58.3457 102.765C58.4128 102.731 58.4791 102.695 58.5445 102.656C58.6317 102.594 58.7154 102.53 58.7974 102.463C58.8532 102.41 58.9064 102.356 58.9587 102.301C58.9997 102.249 59.0381 102.198 59.0756 102.145C59.0956 102.111 59.1139 102.078 59.1322 102.044C59.1453 102.014 59.1584 101.984 59.1706 101.952C59.1854 101.903 59.1994 101.852 59.2116 101.801C59.2151 101.78 59.2177 101.759 59.2203 101.738C59.2212 101.714 59.2212 101.69 59.2212 101.666C59.2194 101.638 59.216 101.61 59.2133 101.582C59.2064 101.548 59.1994 101.515 59.1907 101.482C59.1837 101.462 59.1767 101.442 59.1689 101.421C59.1436 101.369 59.1165 101.317 59.0886 101.266C59.0695 101.237 59.0485 101.207 59.0285 101.179C58.9744 101.115 58.9195 101.054 58.8619 100.996C58.7965 100.938 58.7294 100.881 58.6605 100.827C58.5777 100.771 58.4939 100.72 58.4085 100.669C58.3099 100.621 58.2114 100.576 58.1111 100.536C58.0745 100.524 58.0379 100.514 58.0013 100.503C57.7187 100.445 57.4301 100.409 57.1432 100.379C56.9828 100.37 56.8232 100.365 56.6636 100.369C56.5476 100.378 56.4317 100.39 56.3157 100.406C56.1814 100.433 56.0497 100.466 55.918 100.504C55.7367 100.57 55.5588 100.642 55.3826 100.722C54.9292 100.957 54.4906 101.22 54.0424 101.467C54.0868 101.531 54.1331 101.595 54.1802 101.659C54.2987 101.802 54.4243 101.939 54.5551 102.072C54.6249 102.134 54.6955 102.196 54.7679 102.254C54.9179 102.356 55.0713 102.452 55.2283 102.542C55.3495 102.6 55.4707 102.653 55.5945 102.703C55.7332 102.752 55.8727 102.795 56.0148 102.835C56.2834 102.892 56.552 102.936 56.8249 102.965C57.0237 102.974 57.2226 102.974 57.4231 102.971Z" fill="black"/>
<path d="M33.8041 37.5459C32.708 37.2745 31.6756 36.7905 30.6484 36.3195C30.0973 36.0656 29.5601 35.7712 29.0177 35.4961C28.5652 35.267 28.1126 35.0288 27.6687 34.7813C26.7174 34.2495 25.7756 33.7012 24.8382 33.1409C23.838 32.542 22.8396 31.9394 21.8298 31.358C20.8506 30.7949 19.8704 30.2319 18.8868 29.6762C17.8823 29.1095 16.8681 28.5566 15.8714 27.9733C14.907 27.4102 13.9557 26.8288 13.0148 26.2244C12.0835 25.6254 11.1452 25.0366 10.2052 24.4524C9.24774 23.8581 8.2929 23.2601 7.33021 22.6741C6.84363 22.3787 6.63523 21.7375 6.90555 21.203C7.16279 20.6933 7.81417 20.4596 8.29987 20.755C10.1851 21.9031 12.0626 23.0697 13.9225 24.2648C14.873 24.8756 15.8322 25.4653 16.8071 26.0339C17.7881 26.6061 18.7839 27.1508 19.7719 27.7083C21.7557 28.827 23.7247 29.9743 25.6814 31.1445C26.6398 31.7186 27.6016 32.2816 28.5756 32.8254C29.5182 33.3516 30.487 33.8291 31.4489 34.3157C31.829 34.4905 32.2084 34.6653 32.5886 34.8392C32.8188 34.945 33.0647 35.0232 33.301 35.1152C33.4832 35.1852 33.6698 35.245 33.8538 35.3066C33.9942 35.3498 34.1346 35.3931 34.2767 35.428C34.8244 35.5633 35.1714 36.1613 35.0424 36.7363C34.9316 37.2331 34.4991 37.5725 34.0326 37.5725C33.9576 37.5744 33.8809 37.5652 33.8041 37.5459Z" fill="black"/>
<path d="M8.72018 22.9436C7.55518 22.0669 6.35444 21.2444 5.19555 20.3584C4.92872 20.1551 4.67497 19.9325 4.4186 19.7163C4.15613 19.4936 3.89714 19.2508 3.65909 18.9987C3.40446 18.7291 3.14984 18.4614 2.90219 18.1835C2.62577 17.8753 2.35545 17.5552 2.05287 17.2737L2.05025 17.2718C1.61599 17.0179 1.41194 16.4346 1.58983 15.9369C1.79039 15.3766 2.3912 15.1025 2.91876 15.303C3.2632 15.4346 3.53265 15.7428 3.78291 16.0124C4.01835 16.2654 4.24769 16.5239 4.4779 16.7815C4.86681 17.2148 5.27926 17.615 5.6987 18.0134C6.0257 18.2884 6.35357 18.5561 6.6919 18.8156C7.03809 19.0796 7.39474 19.3299 7.7479 19.5829C8.47689 20.1063 9.20239 20.6335 9.92005 21.1735C10.377 21.5176 10.4851 22.2104 10.1581 22.6906C9.95842 22.985 9.63839 23.1414 9.31488 23.1414C9.10735 23.1433 8.89894 23.0779 8.72018 22.9436Z" fill="black"/>
<path d="M8.45247 22.3723C8.08362 21.0558 7.78016 19.7163 7.48281 18.3795C7.32149 17.6536 7.16627 16.9268 7.02414 16.1973C6.88375 15.4787 6.72504 14.7501 6.6858 14.0169C6.65528 13.4253 7.1436 12.9175 7.69209 12.9037C8.265 12.8899 8.71408 13.371 8.74634 13.9607C8.83877 14.7473 8.99399 15.5201 9.14484 16.2966C9.53114 18.1293 9.9279 19.9674 10.4328 21.7688C10.5924 22.3364 10.2654 22.9519 9.72908 23.1157C9.63578 23.1442 9.54248 23.1571 9.44917 23.1571C9.00271 23.1571 8.58502 22.8433 8.45247 22.3723Z" fill="black"/>
<path d="M0.0385453 24.2353C-0.114055 23.6759 0.199864 23.0393 0.74312 22.8875C2.00665 22.537 3.27802 22.215 4.54853 21.8948C5.86263 21.5636 7.19418 21.2794 8.47514 20.824C8.63995 20.7586 8.80389 20.6933 8.9687 20.628C9.22419 20.5268 9.48667 20.5038 9.74565 20.6078C10.0029 20.7099 10.2157 20.9233 10.3264 21.1892C10.5427 21.7099 10.3212 22.4128 9.79535 22.6216C9.13699 22.882 8.47863 23.1313 7.79411 23.308C7.08082 23.491 6.36578 23.6704 5.65074 23.8507C4.20409 24.2151 2.75482 24.5766 1.31602 24.9768C1.22446 25.0026 1.13203 25.0145 1.04135 25.0145C0.590521 25.0155 0.170217 24.7165 0.0385453 24.2353Z" fill="black"/>
<path d="M2.83156 28.4048C2.35545 28.138 2.11652 27.4406 2.4069 26.9337C2.61443 26.5703 2.95364 26.3522 3.28064 26.1213C3.51782 25.9539 3.75675 25.7892 3.99481 25.6236C4.47964 25.2859 4.96273 24.9446 5.44756 24.6061C5.94373 24.2592 6.44077 23.9161 6.9474 23.5876C7.40607 23.2896 7.87957 23.0181 8.33998 22.7228L8.34173 22.721C8.34783 22.7118 8.35394 22.7035 8.35917 22.6943C8.41149 22.595 8.45945 22.4956 8.50479 22.3935C8.5824 22.192 8.65041 21.9878 8.7132 21.7817C9.09077 20.294 9.3672 18.7825 9.73257 17.2912C10.1049 15.7741 10.4982 14.2616 10.9228 12.7601C11.0022 12.4768 11.147 12.2376 11.3911 12.0803C11.6204 11.9331 11.9012 11.8871 12.1628 11.9524C12.686 12.083 13.0889 12.693 12.9284 13.2615C12.3024 15.4815 11.7321 17.7208 11.2498 19.9803C11.1313 20.5351 11.0231 21.0944 10.8827 21.6427C10.7825 22.0365 10.683 22.4284 10.561 22.8157C10.3656 23.4294 10.0761 24.0596 9.58084 24.4616C9.35935 24.641 9.09688 24.7717 8.85534 24.9189C8.63036 25.055 8.40887 25.1958 8.18738 25.3365C7.74353 25.6199 7.30579 25.9152 6.87328 26.217C5.9664 26.8499 5.05865 27.4811 4.15525 28.1205C4.1134 28.1527 4.07329 28.1858 4.03318 28.2207C3.91546 28.3449 3.77332 28.4397 3.60241 28.4912C3.50998 28.5188 3.41406 28.5336 3.31814 28.5336C3.14984 28.5317 2.98154 28.4894 2.83156 28.4048Z" fill="black"/>
<path d="M57.7553 36.2073C57.2862 35.8531 57.206 35.1833 57.5164 34.6902C57.7946 34.2467 58.1321 33.841 58.4521 33.4316C58.7555 33.0425 59.0843 32.6809 59.4252 32.3276C59.7984 31.9403 60.176 31.5585 60.5553 31.1767C60.701 31.0295 60.8448 30.8805 60.9931 30.7351C60.9957 30.7323 60.9983 30.7296 61.0009 30.7277C61.0506 30.6689 61.1056 30.6155 61.1649 30.5677C61.1623 30.5704 61.1596 30.5732 61.157 30.575C61.1588 30.5732 61.1605 30.5723 61.1614 30.5704C61.1623 30.5695 61.164 30.5686 61.1649 30.5677L61.1657 30.5658C61.1823 30.5493 61.1989 30.5336 61.2146 30.518C61.2259 30.5069 61.2372 30.4959 61.2486 30.4849C61.2852 30.449 61.321 30.414 61.3576 30.3781C61.4143 30.3193 61.4753 30.2631 61.5346 30.2052C61.5581 30.1822 61.5817 30.1592 61.6061 30.1371C61.6192 30.1233 61.6331 30.1095 61.6471 30.0957C61.6776 30.0663 61.7073 30.0359 61.7378 30.0056C61.7561 29.9862 61.7753 29.9678 61.7944 29.9494C61.8101 29.9347 61.825 29.92 61.8407 29.9053C61.8747 29.8721 61.9096 29.8381 61.9436 29.805C61.975 29.77 62.0081 29.7378 62.043 29.7084C62.0909 29.6615 62.1398 29.6136 62.1877 29.5667C62.1528 29.5998 62.1197 29.6339 62.0848 29.667C62.1685 29.5851 62.2496 29.4949 62.3368 29.4121C62.3804 29.3615 62.4275 29.3137 62.4781 29.2705C62.5051 29.2429 62.5339 29.2162 62.5636 29.1913C62.5775 29.1785 62.5923 29.1656 62.6063 29.1527C62.6926 29.0662 62.785 28.9862 62.8714 28.9043C63.1757 28.6173 63.4809 28.3302 63.7852 28.0423C64.1349 27.7138 64.4854 27.3872 64.8421 27.0652C65.8048 26.1912 66.7744 25.3255 67.7476 24.4635C69.455 22.9519 71.1685 21.4477 72.8837 19.9472C74.6024 18.4448 76.3385 16.9645 78.0363 15.4346C79.6591 13.9736 81.2671 12.4961 82.9056 11.0554C83.1401 10.8493 83.3738 10.6432 83.6084 10.4371C84.04 10.0581 84.7071 10.1418 85.0577 10.5972C85.4152 11.0618 85.3376 11.7472 84.9059 12.1263C83.2369 13.5918 81.5827 15.0739 79.9408 16.5717C78.1863 18.1707 76.3952 19.719 74.6033 21.2701C72.8601 22.7789 71.1336 24.3108 69.4035 25.8361C68.6344 26.5142 67.8636 27.1903 67.1041 27.8794C66.1361 28.7571 65.1778 29.6431 64.2265 30.5401C64.127 30.6339 64.0285 30.7268 63.93 30.8198C63.9326 30.8179 63.9343 30.8151 63.9361 30.8133C63.9282 30.8207 63.9195 30.829 63.9117 30.8363C63.8907 30.8584 63.8689 30.8805 63.8463 30.9007C63.8349 30.9127 63.8236 30.9237 63.8114 30.9357C63.8088 30.9384 63.807 30.9403 63.8044 30.943C63.8306 30.9182 63.8559 30.8924 63.882 30.8676C63.855 30.8943 63.828 30.92 63.8009 30.9467C63.7905 30.9568 63.78 30.967 63.7695 30.9771C63.7338 31.012 63.6972 31.0479 63.6614 31.0829C63.6047 31.1417 63.5446 31.1979 63.4861 31.2558C63.4626 31.2788 63.439 31.3018 63.4155 31.323C63.4024 31.3377 63.3885 31.3515 63.3745 31.3653C63.3414 31.3975 63.3091 31.4306 63.276 31.4628C63.262 31.4776 63.2472 31.4923 63.2324 31.5061C63.2123 31.5254 63.1923 31.5447 63.1713 31.564C63.1399 31.5953 63.1077 31.6266 63.0763 31.6569C63.0458 31.691 63.0135 31.7223 62.9804 31.7508C62.9516 31.7784 62.9237 31.8069 62.8949 31.8345C62.8252 31.9053 62.7563 31.979 62.6839 32.0489C62.642 32.0976 62.5958 32.1436 62.5479 32.186C62.52 32.2145 62.4903 32.2421 62.4598 32.2678C62.4423 32.2844 62.4249 32.3 62.4066 32.3157C62.2435 32.4804 62.0796 32.6459 61.9165 32.8097C61.6794 33.0489 61.4395 33.2872 61.2059 33.5301C60.9155 33.83 60.6295 34.1299 60.3495 34.4409C60.1237 34.6902 59.9214 34.9653 59.7139 35.2312C59.7426 35.1944 59.7723 35.1575 59.8011 35.1198C59.5944 35.3931 59.3781 35.6636 59.195 35.9561C59.0075 36.2542 58.684 36.4069 58.3596 36.4069C58.1443 36.406 57.9306 36.3407 57.7553 36.2073Z" fill="black"/>
<path d="M84.4447 17.7015C83.8595 17.6831 83.2762 17.6518 82.6928 17.6058C82.0423 17.5533 81.3822 17.4623 80.7526 17.2819C80.1814 17.1191 79.6216 16.8403 79.2196 16.373C79.0496 16.1761 78.8857 15.9277 78.8203 15.6673C78.7854 15.5303 78.7418 15.3895 78.7435 15.2469C78.7461 15.0629 78.7618 14.8945 78.7985 14.7142C78.8455 14.4787 78.9249 14.245 78.9894 14.015C79.0627 13.7537 79.1359 13.4915 79.21 13.2312C79.3679 12.6672 79.5248 12.1033 79.6809 11.5393C79.7481 11.2973 79.8135 11.0563 79.8806 10.8134C79.9748 10.473 80.0524 10.1105 80.2111 9.79499C80.4134 9.39295 80.8259 9.17307 81.2505 9.21079C81.8103 9.26047 82.2254 9.82535 82.1679 10.4049C82.1513 10.5733 82.099 10.7279 82.0196 10.8613C81.9961 10.9321 81.9751 11.0039 81.9533 11.0756C81.7563 11.7868 81.5609 12.4979 81.363 13.2091C81.2627 13.567 81.1624 13.9249 81.0622 14.2818C80.995 14.521 80.9218 14.7611 80.859 15.0031C80.8913 15.0224 80.9235 15.0399 80.9567 15.0574C81.0578 15.1006 81.1581 15.1393 81.261 15.1742C81.4057 15.2147 81.5505 15.2506 81.697 15.2837C82.4521 15.4051 83.2055 15.4705 83.9677 15.5137C85.1536 15.5505 86.3421 15.5523 87.528 15.4999C88.0896 15.4751 88.571 15.9765 88.5832 16.5607C88.5971 17.1605 88.1384 17.649 87.5777 17.6739C86.9194 17.7033 86.2584 17.7189 85.5983 17.7189C85.2111 17.7189 84.8275 17.7134 84.4447 17.7015Z" fill="black"/>
<path d="M86.1154 20.8617C86.0884 20.8488 86.0622 20.8359 86.0352 20.823C86.0552 20.8331 86.0753 20.8423 86.0954 20.8525C85.1056 20.3805 84.1142 19.9131 83.1183 19.4531C82.1269 18.9959 81.1206 18.5902 80.0969 18.224C79.8588 18.1504 79.6199 18.0704 79.3766 18.0115C79.067 17.9361 78.7583 17.8643 78.4453 17.8027C78.481 17.8091 78.5159 17.8156 78.5508 17.8211C78.3372 17.7834 78.1366 17.7401 77.9343 17.6527C77.7224 17.5607 77.5777 17.4181 77.4303 17.2369C77.2053 16.9618 77.1425 16.5588 77.0667 16.2147C76.9594 15.7336 76.8713 15.2469 76.7833 14.7621C76.6952 14.2782 76.6132 13.7933 76.5339 13.3075C76.4973 13.0785 76.4624 12.8475 76.4284 12.6175C76.3734 12.2449 76.2679 11.8365 76.3202 11.4602C76.3603 11.1722 76.4789 10.9146 76.6961 10.7288C76.9167 10.5402 77.1748 10.4795 77.4521 10.4924C77.5515 10.497 77.6396 10.5291 77.7329 10.5604C78.2003 10.7168 78.4549 11.2633 78.3843 11.7537C78.4209 12.0453 78.4723 12.337 78.5168 12.6268C78.5656 12.9469 78.6153 13.2671 78.6703 13.5863C78.781 14.2276 78.897 14.8679 79.0243 15.5063C79.0147 15.4603 79.0051 15.4144 78.9955 15.3684C79.0199 15.4843 79.0444 15.6002 79.0705 15.7152C79.6678 15.8348 80.2599 15.9866 80.8355 16.1918C81.5854 16.4595 82.3213 16.7511 83.0547 17.063C83.6939 17.3353 84.3235 17.6352 84.953 17.9324C85.6646 18.2673 86.3761 18.6021 87.0851 18.9416C87.5969 19.1863 87.7609 19.915 87.5097 20.4127C87.3798 20.6694 87.1513 20.8644 86.8863 20.9454C86.7947 20.973 86.7049 20.9859 86.6151 20.9859C86.445 20.9868 86.2785 20.9399 86.1154 20.8617Z" fill="black"/>
</svg>
