<svg width="47" height="107" viewBox="0 0 47 107" fill="none" xmlns="http://www.w3.org/2000/svg">
<path d="M19.1286 37.1954C18.8313 37.1852 18.5348 37.1742 18.2383 37.1641C17.9627 37.1539 17.6846 37.1033 17.4108 37.0721C17.1195 37.0389 16.8274 37.0058 16.5344 36.9718C16.2658 36.9414 15.9955 36.8724 15.7295 36.8227C15.4627 36.7731 15.1976 36.7243 14.9317 36.6746C14.1512 36.5293 13.3778 36.2928 12.6244 36.0361C11.2065 35.5522 9.83659 34.8935 8.55736 34.0867C7.91731 33.6828 7.30953 33.2173 6.7157 32.7398C6.08524 32.2347 5.49313 31.68 4.92372 31.1004C3.79884 29.9559 2.84661 28.632 2.02955 27.2299C1.21946 25.8389 0.63262 24.3153 0.28382 22.7247C-0.0580043 21.1671 -0.0675918 19.5608 0.130352 17.983C0.33004 16.3868 0.831428 14.8504 1.48543 13.4014C2.79779 10.4923 4.75282 7.88783 7.07583 5.80587C8.03328 4.94659 9.07269 4.15539 10.1784 3.51967C10.6946 3.22343 11.203 2.90603 11.7393 2.65119C12.2642 2.40187 12.783 2.13599 13.3237 1.92807C13.6638 1.79651 14.003 1.66587 14.3431 1.53523C14.5576 1.45243 14.7791 1.38987 14.9988 1.32179C15.3302 1.21967 15.6624 1.11755 15.9946 1.01635C16.224 0.945508 16.4612 0.898589 16.694 0.842469C16.9713 0.775309 17.2468 0.707228 17.5232 0.640068C17.8293 0.566468 18.1441 0.519549 18.4528 0.458829C19.0501 0.342909 19.6483 0.253669 20.25 0.165349C20.4488 0.135909 20.6441 0.114747 20.8438 0.0972675C21.1848 0.0687475 21.5275 0.0218303 21.8693 0.0153903C22.1588 0.0107903 22.45 0.0061879 22.7395 0.000667901C23.0177 -0.0039321 23.2941 0.0163103 23.5714 0.0282703C24.0484 0.0503503 24.5228 0.0991081 24.9928 0.185588C25.2928 0.240788 25.5875 0.324511 25.8796 0.417431C25.9965 0.391671 26.1177 0.389831 26.2398 0.417431C28.3509 0.896751 30.4672 1.42759 32.4955 2.21603C33.4992 2.60703 34.4688 3.09555 35.4071 3.63743C35.8841 3.91251 36.3506 4.20875 36.7971 4.53719C37.274 4.88771 37.7275 5.25847 38.1757 5.65039C39.0669 6.43055 39.8386 7.35331 40.5632 8.30183C41.2198 9.16203 41.8006 10.1142 42.2837 11.094C42.5549 11.6451 42.8147 12.2008 43.0336 12.7776C43.2551 13.36 43.433 13.9506 43.5865 14.5569C43.726 15.1117 43.8149 15.6784 43.8672 16.2497C43.9004 16.6131 43.8995 16.9811 43.9117 17.3454C43.9213 17.6527 43.9073 17.9729 43.8812 18.2801C43.8576 18.5534 43.8498 18.8312 43.8114 19.1026C43.7661 19.4136 43.7321 19.7291 43.6675 20.0355C43.61 20.306 43.5681 20.5884 43.4914 20.8534C43.4042 21.1533 43.3301 21.4615 43.2237 21.7541C43.1278 22.0163 43.0441 22.2886 42.9342 22.5434C42.8034 22.8424 42.6822 23.1479 42.5383 23.4386C42.4049 23.71 42.2706 23.9805 42.1372 24.251C41.8695 24.7928 41.5451 25.3034 41.2303 25.815C40.9469 26.275 40.6321 26.7239 40.2929 27.1407C40.0993 27.379 39.9136 27.6283 39.7078 27.8555C39.4759 28.1094 39.2448 28.3633 39.0128 28.6173C38.6649 28.9991 38.2856 29.356 37.9089 29.7065C37.4319 30.1481 36.9488 30.5741 36.457 30.9955C36.0428 31.3506 35.6059 31.6744 35.176 32.0084C34.9729 32.1657 34.7496 32.3019 34.5377 32.4463C34.3215 32.5953 34.107 32.7499 33.8829 32.887C33.378 33.1961 32.8783 33.5098 32.3569 33.7895C32.0726 33.9422 31.7874 34.0949 31.5023 34.2486C31.245 34.3875 30.973 34.4988 30.7105 34.623C30.4594 34.7408 30.2082 34.8595 29.9571 34.9772C29.692 35.1023 29.4104 35.1971 29.1392 35.3057C28.8976 35.4023 28.6561 35.4998 28.4137 35.5973C28.1329 35.7105 27.8346 35.7896 27.5469 35.8853C27.2905 35.9699 27.035 36.0555 26.7778 36.1401C26.4918 36.2349 26.197 36.3002 25.9067 36.3775C25.6032 36.4575 25.2998 36.5375 24.9963 36.6176C24.76 36.6792 24.515 36.7133 24.276 36.7602C23.9551 36.8218 23.6334 36.8853 23.3133 36.9479C23.0596 36.9975 22.8015 37.0169 22.5451 37.0454C22.2207 37.0831 21.8963 37.119 21.5711 37.1567C21.3217 37.1843 21.0636 37.1779 20.8133 37.1861C20.495 37.1972 20.1776 37.2082 19.8585 37.2202C19.8245 37.2211 19.7913 37.222 19.7573 37.222C19.5489 37.2211 19.337 37.2036 19.1286 37.1954ZM19.8759 35.0462C20.1366 35.0554 20.4052 35.0287 20.6659 35.0186C20.8909 35.0103 21.1159 35.003 21.3409 34.9947C21.8658 34.9349 22.3916 34.8751 22.9166 34.8153C23.4415 34.7132 23.9665 34.6101 24.4923 34.508C24.7739 34.4528 25.0547 34.359 25.3329 34.2854C25.6102 34.2127 25.8875 34.1382 26.1639 34.0655C26.5659 33.9312 26.9679 33.7987 27.3699 33.6653C27.6899 33.5595 28.0012 33.4335 28.316 33.3065C28.6578 33.1694 29.0057 33.0452 29.3397 32.8879C29.7373 32.7011 30.1359 32.5135 30.5335 32.3267C30.9521 32.1022 31.3689 31.8777 31.7874 31.6533C31.9618 31.5594 32.1284 31.4453 32.2984 31.3414C32.5121 31.2107 32.7248 31.0801 32.9394 30.9495C33.4364 30.61 33.9317 30.2733 34.4087 29.9025C34.6502 29.7157 34.8961 29.5345 35.1281 29.3349C35.3958 29.1049 35.6643 28.8758 35.932 28.6458C36.3183 28.2879 36.7064 27.9337 37.0779 27.5593C37.4781 27.1563 37.8618 26.7442 38.2446 26.3237C38.446 26.0744 38.6474 25.826 38.8498 25.5767C38.9465 25.4571 39.0294 25.3209 39.1175 25.1949C39.2143 25.0578 39.3111 24.9207 39.4078 24.7827C39.6398 24.4073 39.8726 24.0329 40.0854 23.6447C40.3069 23.2417 40.5135 22.8351 40.7176 22.4229C40.8274 22.169 40.9382 21.9142 41.0489 21.6602C41.1449 21.4394 41.2199 21.2048 41.3009 20.9757C41.3725 20.7292 41.444 20.4817 41.5155 20.2351C41.5887 19.984 41.628 19.7154 41.682 19.4578C41.6742 19.4946 41.6663 19.5313 41.6594 19.5681C41.6986 19.2967 41.7378 19.0272 41.7779 18.7558C41.8154 18.4908 41.8233 18.2167 41.8451 17.949C41.8407 17.9959 41.8381 18.0419 41.8337 18.0879C41.8398 17.8229 41.8459 17.558 41.852 17.293C41.8573 17.0842 41.8433 16.8725 41.8337 16.6628C41.8119 16.3757 41.7814 16.0915 41.7404 15.8081C41.6672 15.3978 41.5669 14.9994 41.4658 14.5965C41.3969 14.3803 41.3289 14.1641 41.26 13.9488C41.1867 13.7179 41.0873 13.4916 41.001 13.2652C40.8118 12.8374 40.6147 12.4179 40.4089 11.9984C40.2101 11.5954 39.979 11.2099 39.7505 10.8235C39.3738 10.2467 38.9814 9.69011 38.5664 9.14455C38.1557 8.65235 37.7319 8.18223 37.2871 7.72407C37.0081 7.46095 36.7264 7.20427 36.4387 6.95127C36.1596 6.70747 35.8606 6.49035 35.5632 6.27231C35.0792 5.94479 34.5883 5.64027 34.0852 5.34771C33.221 4.88403 32.3429 4.47187 31.4343 4.11583C29.9266 3.58131 28.3892 3.15443 26.8406 2.77907C26.5389 2.91615 26.1831 2.89775 25.8901 2.71467C25.8352 2.68983 25.7802 2.66591 25.7253 2.64383C25.4183 2.53987 25.1123 2.43867 24.7992 2.35955C24.4975 2.29607 24.1958 2.25283 23.8897 2.22155C23.2261 2.16819 22.5652 2.17463 21.9007 2.18567C21.7185 2.20131 21.5353 2.21695 21.3522 2.23167C21.1481 2.24823 20.9406 2.25467 20.7392 2.28411C20.2831 2.35127 19.8271 2.41843 19.371 2.48559C19.0039 2.55735 18.6359 2.62911 18.2688 2.70087C17.934 2.76619 17.6035 2.84991 17.2721 2.92995C16.9434 3.00999 16.6164 3.08451 16.2929 3.18387C15.9205 3.29795 15.5482 3.41295 15.1758 3.52703C14.6945 3.71195 14.2149 3.89779 13.7335 4.08363C13.5059 4.17103 13.2845 4.29707 13.063 4.40195C12.845 4.50499 12.627 4.60895 12.4081 4.71291C11.7916 5.06711 11.169 5.41027 10.5699 5.79759C9.83744 6.28703 9.1381 6.82339 8.4684 7.40575C7.80917 7.99915 7.18744 8.63119 6.59797 9.30003C5.971 10.0333 5.39112 10.8033 4.85309 11.6101C4.39355 12.3222 3.97062 13.0564 3.58956 13.8191C3.27651 14.4713 2.99662 15.1374 2.7542 15.8219C2.58242 16.338 2.43764 16.8578 2.32254 17.3905C2.22052 17.9241 2.14554 18.4614 2.09584 19.0042C2.0627 19.4725 2.05222 19.9389 2.06704 20.409C2.09059 20.8451 2.13333 21.2775 2.19699 21.709C2.28332 22.2003 2.39406 22.6833 2.52835 23.1626C2.69142 23.698 2.88238 24.2197 3.09951 24.733C3.36547 25.3246 3.66804 25.8904 3.99504 26.4461C4.39267 27.0965 4.82605 27.7184 5.2917 28.3164C5.75212 28.8878 6.24133 29.4269 6.76017 29.9393C7.42289 30.5714 8.1231 31.1509 8.85384 31.6937C9.42849 32.1059 10.0214 32.4776 10.6371 32.8152C11.36 33.197 12.1003 33.5319 12.8607 33.8226C13.6028 34.0922 14.3561 34.313 15.1218 34.4942C15.6877 34.6203 16.2615 34.7123 16.8309 34.8171C17.0593 34.8595 17.2974 34.8714 17.5276 34.8981C17.7918 34.9285 18.0552 34.9588 18.3194 34.9883C18.8365 35.0094 19.3562 35.0278 19.8759 35.0462Z" fill="black"/>
<path d="M18.6987 16.3675C18.1485 16.3537 17.6645 15.8467 17.6924 15.2552C17.7569 13.8982 17.8842 12.5467 18.0194 11.1971C18.0865 10.5245 18.1685 9.85479 18.2583 9.18503C18.3054 8.84095 18.3604 8.49963 18.4179 8.15831C18.4432 8.00743 18.4755 7.85747 18.506 7.70843C18.5653 7.41679 18.6551 7.08559 18.8818 6.88503C19.2053 6.59891 19.603 6.50139 20.0032 6.67343C20.1288 6.72771 20.2465 6.81695 20.3398 6.92183C20.6363 7.25119 20.6973 7.73787 20.5264 8.13163C20.5238 8.14083 20.5212 8.15095 20.5186 8.16015C20.3424 9.05623 20.2264 9.96611 20.1253 10.8741C20.025 11.7877 19.9396 12.7031 19.8628 13.6194C19.8184 14.1806 19.78 14.7427 19.7538 15.3058C19.7259 15.8891 19.2847 16.3675 18.7222 16.3675C18.7144 16.3684 18.7065 16.3684 18.6987 16.3675Z" fill="black"/>
<path d="M25.1689 14.521C24.8969 14.5146 24.6353 14.3922 24.4478 14.1843C24.2525 13.969 24.1705 13.7013 24.1626 13.4087C24.1286 12.1769 24.1347 10.945 24.1478 9.71311C24.1539 9.09395 24.1618 8.47387 24.181 7.85471C24.1923 7.52443 24.2036 7.19415 24.2167 6.86295C24.2272 6.58051 24.2263 6.29347 24.2551 6.01195C24.3144 5.42223 24.8916 5.01559 25.4288 5.10115C25.7 5.14439 25.9476 5.30447 26.1081 5.53907C26.258 5.75711 26.313 6.00827 26.2982 6.27047C26.2999 6.24839 26.3017 6.22539 26.3043 6.20331C26.2642 6.78843 26.2589 7.37999 26.2397 7.96695C26.2197 8.59347 26.2145 9.22183 26.2075 9.84927C26.1935 11.0517 26.1909 12.256 26.2223 13.4593C26.238 14.0435 25.7218 14.521 25.189 14.521C25.1829 14.521 25.1759 14.521 25.1689 14.521Z" fill="black"/>
<path d="M20.3642 79.3562C18.1232 79.2577 15.8769 79.1234 13.6455 78.8805C12.504 78.7554 11.3696 78.6027 10.2412 78.3764C9.74415 78.277 9.23924 78.1657 8.76836 77.9697C8.51548 77.8639 8.23383 77.7462 8.02542 77.5548C7.78736 77.3368 7.59117 77.104 7.46211 76.7967C7.31823 76.4563 7.28336 76.0847 7.26766 75.7167C7.25371 75.4048 7.25197 75.0975 7.26418 74.7865C7.31039 73.6908 7.40194 72.5951 7.46908 71.5012C7.53884 70.3503 7.61034 69.1994 7.68272 68.0466C7.82486 65.7715 7.9949 63.4972 8.16058 61.223C8.33062 58.8935 8.4902 56.5632 8.64541 54.2328C8.80324 51.8519 8.96544 49.4709 9.15728 47.0927C9.35871 44.5995 9.57236 42.1072 9.79036 39.6149C9.87408 38.6554 9.95864 37.6958 10.0432 36.7363C10.0842 36.2772 10.1243 35.8163 10.1644 35.3563C10.1854 35.1189 10.2063 34.8834 10.2255 34.646C10.2421 34.4464 10.2525 34.2394 10.3249 34.0535C10.5158 33.5558 11.0713 33.2826 11.5614 33.4307C12.0732 33.5843 12.3662 34.1198 12.2912 34.6543C12.2921 34.6515 12.293 34.6479 12.2939 34.6451C12.2372 35.003 12.2293 35.3765 12.1971 35.7371C12.1552 36.2146 12.1134 36.6912 12.0715 37.1677C11.9922 38.0629 11.9128 38.959 11.8343 39.8551C11.6678 41.7705 11.5038 43.685 11.3416 45.6005C11.1585 47.8729 10.9789 50.1462 10.828 52.4213C10.6658 54.8787 10.5028 57.3369 10.3284 59.7924C10.1662 62.0694 9.9883 64.3436 9.83832 66.6215C9.68659 68.9004 9.55405 71.1811 9.41017 73.4608C9.37006 74.1057 9.31163 74.7507 9.3125 75.3965C9.31948 75.5538 9.3282 75.7111 9.34303 75.8675C9.39709 75.8942 9.45287 75.9191 9.50868 75.9421C9.80429 76.0423 10.1016 76.1251 10.4042 76.1969C11.0024 76.3165 11.6006 76.4361 12.2049 76.5152C12.9243 76.61 13.642 76.6955 14.3631 76.7728C16.1682 76.932 17.9741 77.0525 19.7835 77.1528C21.5763 77.2521 23.3674 77.242 25.1602 77.1758C26.6496 77.1013 28.1416 77.0157 29.6249 76.8492C31.1029 76.6845 32.574 76.472 34.0398 76.2116C34.0189 76.2153 33.9971 76.219 33.9762 76.2236C34.6563 76.0994 35.3513 75.9973 36.0175 75.8013C36.0428 75.7912 36.0681 75.7811 36.0933 75.7709C36.1125 75.7608 36.1317 75.7498 36.1509 75.7397C36.1622 75.7277 36.1745 75.7157 36.1867 75.7038C36.1937 75.6955 36.2006 75.6863 36.2085 75.678C36.205 75.6826 36.2024 75.6872 36.1997 75.6918L36.2032 75.6881C36.2233 75.6559 36.2425 75.6228 36.2608 75.5888C36.3018 75.4949 36.3393 75.4002 36.3742 75.3036C36.4204 75.1435 36.4614 74.9843 36.4989 74.8215C36.5817 74.3854 36.6279 73.9484 36.6741 73.5068C36.7325 72.4442 36.7639 71.3807 36.7509 70.3153C36.7369 69.1433 36.7037 67.973 36.661 66.8019C36.6628 66.8488 36.6645 66.8948 36.6654 66.9408C36.4718 62.2745 36.198 57.6065 35.653 52.9697C35.3705 50.5565 35.0505 48.1479 34.7322 45.7394C34.4287 43.4403 34.1575 41.1385 33.9133 38.8311C33.6622 36.4501 33.4303 34.0664 33.1434 31.6891C33.0727 31.1013 33.5114 30.5539 34.0607 30.4941C34.6284 30.4315 35.1228 30.874 35.1935 31.4619C35.4542 33.623 35.6696 35.7905 35.8954 37.9553C36.1361 40.2645 36.3994 42.5709 36.6994 44.8718C36.9994 47.1819 37.3229 49.4884 37.5941 51.8022C37.8687 54.1436 38.1033 56.4896 38.2751 58.842C38.4478 61.2294 38.5864 63.6168 38.6867 66.0088C38.7861 68.3833 38.8916 70.7735 38.7573 73.1489C38.7146 73.8969 38.6553 74.6513 38.4887 75.3818C38.3457 76.012 38.1434 76.6339 37.7362 77.1325C37.5766 77.3267 37.3752 77.5189 37.1563 77.6376C36.9192 77.7646 36.6828 77.8575 36.4291 77.9357C36.2093 78.0029 35.98 78.0415 35.755 78.0884C35.4934 78.1427 35.2301 78.1924 34.9676 78.2421C34.4662 78.3368 33.9631 78.4261 33.4599 78.5098C31.3104 78.8658 29.1531 79.105 26.9818 79.2467C25.5178 79.3415 24.0528 79.3994 22.587 79.3994C21.8492 79.4031 21.1072 79.3884 20.3642 79.3562Z" fill="black"/>
<path d="M8.82069 105.827C8.34458 105.63 7.93123 105.281 7.58505 104.891C7.17346 104.426 6.8613 103.841 6.69649 103.229C6.36949 102.015 6.54739 100.573 7.50135 99.7185C8.06815 99.2116 8.84336 99.15 9.55665 99.1445C9.99614 99.1408 10.4313 99.2346 10.8585 99.3294C11.2858 99.4232 11.7105 99.5483 12.1203 99.7093C12.8528 99.9945 13.526 100.426 14.2541 100.721C14.2593 100.723 14.2655 100.725 14.2707 100.727C14.3012 100.532 14.3204 100.336 14.3387 100.139C14.5044 97.9613 14.6509 95.7819 14.8122 93.6033C14.9848 91.2647 15.1793 88.9279 15.3912 86.592C15.6231 84.0436 15.835 81.4915 16.1219 78.9486C16.1882 78.3598 16.7541 77.9513 17.2957 78.0378C17.8642 78.1289 18.2261 78.6883 18.1589 79.2761C17.9462 81.1585 17.7831 83.0481 17.6096 84.9351C17.4334 86.8579 17.2599 88.7816 17.0986 90.7071C17.0994 90.6915 17.1012 90.6759 17.1021 90.6602C17.1003 90.6869 17.0977 90.7136 17.096 90.7393C17.0942 90.7596 17.0925 90.7789 17.0907 90.7991C17.0916 90.7844 17.0933 90.7688 17.0942 90.7541C16.9163 93.0145 16.7533 95.2768 16.5902 97.5381C16.5509 98.0809 16.5117 98.6228 16.4733 99.1647C16.4315 99.7379 16.4045 100.316 16.3304 100.885C16.3025 101.104 16.2649 101.321 16.1926 101.528C16.0879 101.826 15.9405 102.086 15.7592 102.338C15.6781 102.451 15.5848 102.55 15.4819 102.636C15.4958 102.849 15.4514 103.068 15.3397 103.261C14.9203 103.987 14.391 104.625 13.7327 105.118C12.8676 105.765 11.8422 106.066 10.7949 106.13C10.6833 106.137 10.5717 106.141 10.4618 106.141C9.90196 106.142 9.3561 106.048 8.82069 105.827ZM10.5987 103.968C10.7966 103.954 10.9937 103.936 11.1908 103.907C11.3678 103.871 11.5431 103.828 11.7166 103.777C11.8308 103.736 11.9424 103.69 12.0532 103.641C12.1779 103.576 12.3 103.507 12.4203 103.433C12.545 103.346 12.6653 103.254 12.7822 103.156C12.886 103.059 12.9854 102.959 13.0813 102.853C13.138 102.785 13.1929 102.715 13.247 102.644C13.0769 102.568 12.9112 102.485 12.749 102.404C12.2677 102.163 11.7925 101.906 11.2954 101.704C11.0181 101.615 10.7399 101.532 10.4574 101.46C10.2377 101.412 10.0188 101.368 9.79733 101.336C9.65781 101.327 9.51915 101.321 9.37876 101.321C9.24621 101.33 9.11453 101.341 8.98286 101.358C8.92792 101.369 8.87213 101.38 8.81633 101.392C8.81197 101.397 8.80847 101.4 8.80411 101.405C8.78842 101.425 8.77271 101.445 8.75789 101.466C8.7387 101.5 8.71954 101.535 8.70035 101.569C8.68815 101.596 8.67681 101.624 8.66635 101.652C8.65414 101.696 8.64192 101.738 8.63058 101.78C8.62099 101.834 8.61314 101.888 8.60791 101.942C8.60442 102.007 8.60269 102.071 8.60269 102.136C8.60967 102.244 8.621 102.349 8.63582 102.456C8.64803 102.517 8.66197 102.578 8.67853 102.639C8.70033 102.708 8.72388 102.776 8.75004 102.843C8.79189 102.935 8.83639 103.024 8.88435 103.113C8.93579 103.194 8.98985 103.273 9.04566 103.35C9.10321 103.418 9.16164 103.483 9.2218 103.548C9.28023 103.6 9.33951 103.651 9.40055 103.699C9.43456 103.722 9.47031 103.744 9.50607 103.766C9.56972 103.798 9.63339 103.827 9.69966 103.856C9.76942 103.879 9.83918 103.9 9.90981 103.918C9.99091 103.933 10.0711 103.947 10.1531 103.959C10.3022 103.968 10.4496 103.971 10.5987 103.968Z" fill="black"/>
<path d="M32.6585 104.992C32.1057 104.865 31.5851 104.677 31.0829 104.403C30.142 103.887 29.4086 103.042 28.8915 102.075C28.7694 101.847 28.7424 101.586 28.793 101.342C28.5776 101.095 28.452 100.775 28.4084 100.444C28.3238 99.8179 28.3291 99.1776 28.309 98.5465C28.2925 98.0092 28.2768 97.4728 28.2628 96.9356C28.2 94.6172 28.1512 92.2978 28.1111 89.9785C28.0657 87.362 28.023 84.7456 27.9288 82.1309C27.894 81.3618 27.8373 80.5899 27.8259 79.8199C27.8181 79.2265 28.3352 78.7444 28.8802 78.7582C29.4574 78.772 29.8786 79.278 29.8873 79.8705C29.8873 79.8797 29.8873 79.8898 29.8873 79.899C29.9362 81.0012 29.9946 82.1042 30.026 83.2064C30.0626 84.4594 30.0922 85.7125 30.1175 86.9655C30.1646 89.2333 30.1952 91.502 30.2449 93.7698C30.2859 95.6218 30.3286 97.4747 30.3931 99.3276C30.6896 99.1583 30.9834 98.9835 31.2869 98.828C31.7412 98.5961 32.2103 98.4121 32.7048 98.299C33.2907 98.1656 33.9116 98.1619 34.5046 98.2429C34.6729 98.2659 34.8403 98.2889 35.0077 98.3109C35.3164 98.3533 35.6076 98.4444 35.8989 98.5538C36.4657 98.7682 36.9811 99.1656 37.3961 99.6183C37.731 99.9844 37.9995 100.461 38.1155 100.956C38.2385 101.482 38.228 102.004 38.0867 102.525C37.8095 103.547 36.9558 104.387 36.0419 104.781C35.7289 104.917 35.394 105.026 35.0574 105.076C34.7557 105.122 34.4566 105.14 34.1514 105.15C34.1 105.152 34.0494 105.153 33.9971 105.153C33.5497 105.153 33.0928 105.091 32.6585 104.992ZM34.3476 102.971C34.4871 102.959 34.6249 102.944 34.7627 102.924C34.8778 102.896 34.9903 102.866 35.1028 102.832C35.1594 102.812 35.2144 102.789 35.2702 102.765C35.3373 102.731 35.4036 102.695 35.469 102.656C35.5562 102.594 35.6399 102.53 35.7219 102.463C35.7777 102.41 35.8309 102.356 35.8832 102.301C35.9242 102.249 35.9625 102.198 36 102.145C36.0201 102.111 36.0384 102.078 36.0567 102.044C36.0707 102.014 36.0829 101.984 36.0951 101.952C36.1099 101.903 36.1239 101.852 36.1361 101.801C36.1396 101.78 36.1422 101.759 36.1448 101.738C36.1457 101.714 36.1457 101.69 36.1457 101.666C36.1439 101.638 36.1413 101.61 36.1378 101.582C36.1309 101.548 36.1239 101.515 36.1152 101.482C36.1082 101.462 36.1012 101.442 36.0933 101.421C36.0681 101.369 36.041 101.317 36.0131 101.266C35.994 101.237 35.973 101.207 35.953 101.179C35.8989 101.115 35.844 101.054 35.7864 100.996C35.7201 100.938 35.6539 100.881 35.585 100.827C35.5021 100.771 35.4184 100.72 35.333 100.669C35.2344 100.621 35.1359 100.576 35.0356 100.536C34.999 100.524 34.9624 100.514 34.9257 100.503C34.6432 100.445 34.3546 100.409 34.0677 100.379C33.9072 100.37 33.7485 100.365 33.5881 100.369C33.4713 100.378 33.3562 100.39 33.2402 100.406C33.1059 100.433 32.9742 100.466 32.8425 100.504C32.6612 100.57 32.4842 100.642 32.308 100.722C31.8546 100.957 31.4159 101.22 30.9677 101.467C31.0122 101.531 31.0584 101.595 31.1055 101.659C31.2241 101.802 31.3497 101.939 31.4805 102.072C31.5502 102.134 31.6209 102.196 31.6932 102.254C31.8432 102.356 31.9967 102.452 32.1537 102.542C32.2749 102.6 32.3961 102.653 32.5199 102.703C32.6585 102.752 32.7981 102.795 32.9402 102.835C33.2088 102.892 33.4774 102.936 33.7503 102.965C33.9482 102.974 34.1471 102.974 34.3476 102.971Z" fill="black"/>
<path d="M11.4227 25.5978C10.8612 25.5739 10.4025 25.0854 10.4164 24.4856C10.4295 23.9014 10.9091 23.4 11.4707 23.4239C12.5153 23.469 13.5679 23.4018 14.6116 23.365C15.7452 23.3254 16.8788 23.2859 18.0124 23.2491C20.2988 23.1773 22.5852 23.1111 24.8716 23.0504C27.7867 22.9731 30.7018 22.9004 33.6177 22.8424C34.1793 22.8314 34.6371 23.3806 34.624 23.9547C34.6101 24.5656 34.1314 25.0053 33.5698 25.0164C29.1453 25.1038 24.7207 25.2179 20.298 25.3522C18.7711 25.3982 17.2442 25.447 15.7173 25.4985C14.9543 25.5242 14.1896 25.5518 13.4266 25.5776C12.9662 25.5923 12.5049 25.6107 12.0436 25.6107C11.8361 25.6107 11.6294 25.607 11.4227 25.5978Z" fill="black"/>
<path d="M4.55135 75.437C3.8895 73.2584 3.56514 70.9768 3.27214 68.7164C2.97566 66.4283 2.98264 64.0814 3.21198 61.7879C3.4448 59.4612 3.80842 57.1548 4.28715 54.8704C4.76762 52.5704 5.27774 50.2768 5.83843 47.998C6.40698 45.6925 6.99907 43.3934 7.62081 41.1026C8.24254 38.8164 8.84857 36.5201 9.58802 34.2725C9.64645 34.094 9.70749 33.9155 9.77638 33.7417C9.88625 33.4657 10.1043 33.2651 10.3606 33.1519C10.8795 32.9247 11.4968 33.243 11.6904 33.7831C11.7933 34.071 11.7706 34.3691 11.6564 34.623C11.6599 34.6175 11.6643 34.6111 11.6678 34.6056C11.6294 34.7031 11.5945 34.8015 11.5596 34.8999C10.8341 37.1079 10.2377 39.362 9.62815 41.6058C9.0038 43.9003 8.40823 46.2031 7.83969 48.5141C7.27463 50.8113 6.76188 53.1224 6.27356 55.4399C6.05468 56.5383 5.84106 57.6387 5.67451 58.7473C5.49924 59.9239 5.3501 61.1015 5.23151 62.2856C5.18442 62.9112 5.13997 63.5368 5.12602 64.1651C5.10945 64.8873 5.11466 65.6086 5.13385 66.3308C5.18181 67.1487 5.25333 67.962 5.35797 68.7753C5.45563 69.5343 5.56899 70.2905 5.68933 71.0449C5.88902 72.2198 6.11223 73.3891 6.43836 74.5326C6.45231 74.5768 6.46541 74.6209 6.47849 74.6642C6.56133 74.9365 6.57003 75.2143 6.46103 75.4821C6.35116 75.7498 6.13928 75.9642 5.88029 76.0663C5.76781 76.1114 5.64659 76.1334 5.52626 76.1334C5.1077 76.1334 4.68477 75.874 4.55135 75.437Z" fill="black"/>
<path d="M5.74778 71.8674C5.48792 71.6401 5.21847 71.4276 4.95425 71.2087C4.629 70.9409 4.49209 70.4727 4.60458 70.0577C4.73625 69.572 5.15393 69.2822 5.61871 69.2711C5.66231 69.2702 5.70766 69.2776 5.75126 69.2831C5.95618 69.307 6.13756 69.4036 6.28144 69.5444C6.53258 69.7505 6.78546 69.9519 7.0305 70.1672C7.46301 70.5444 7.55107 71.2261 7.1953 71.6944C6.99474 71.9594 6.68518 72.102 6.3765 72.1029C6.15326 72.1011 5.92915 72.0265 5.74778 71.8674Z" fill="black"/>
<path d="M3.18756 78.1712C2.61902 78.0801 2.25714 77.5208 2.32341 76.9329C2.46816 75.6569 2.63472 74.3827 2.80564 73.1103C2.88586 72.5132 2.96521 71.9152 3.05328 71.3191C3.09775 71.0182 3.13875 70.7155 3.19368 70.4165C3.28001 69.94 3.33756 69.3779 3.74914 69.077C4.2113 68.7394 4.85396 68.8332 5.18794 69.3208C5.39722 69.6244 5.4321 70.0265 5.30827 70.3641C5.29781 70.4018 5.28908 70.4395 5.28036 70.4782C5.08503 71.5601 4.94728 72.654 4.80252 73.7442C4.64731 74.9153 4.4947 76.0874 4.36128 77.2613C4.29937 77.7968 3.82674 78.1841 3.33406 78.1841C3.28523 78.1823 3.23639 78.1786 3.18756 78.1712Z" fill="black"/>
<path d="M8.40472 71.1038C7.76816 70.9594 7.13161 70.8122 6.49941 70.6447C5.85587 70.4727 5.2045 70.3025 4.61852 69.9639C4.65427 69.9832 4.69087 70.0035 4.72837 70.0228C4.74668 70.0302 4.76501 70.0366 4.78332 70.043C4.28715 69.8406 3.99329 69.2776 4.14414 68.7228C4.29587 68.1635 4.88448 67.7992 5.41901 67.9767C5.50709 68.0062 5.58643 68.0457 5.66666 68.0908C5.76781 68.1423 5.87071 68.1874 5.97535 68.2297C6.8177 68.514 7.68445 68.7155 8.54686 68.9142C8.5425 68.9133 8.53903 68.9124 8.53467 68.9114C8.59484 68.9252 8.655 68.939 8.71517 68.9528C8.98985 69.0145 9.22616 69.1451 9.39533 69.3908C9.55229 69.6198 9.61943 69.9115 9.57932 70.1921C9.50782 70.6889 9.06744 71.1231 8.58435 71.1231C8.52418 71.124 8.46489 71.1176 8.40472 71.1038Z" fill="black"/>
<path d="M37.7728 79.3939C37.3054 79.0986 37.1101 78.3985 37.4179 77.9026C37.996 76.9688 38.5262 76 39.0093 75.0073C39.0084 75.0092 39.0076 75.0119 39.0058 75.0138C39.0538 74.9153 39.1009 74.8178 39.1488 74.7194C39.7732 73.3964 40.3574 72.056 40.8571 70.676C41.0036 70.2049 41.137 69.7348 41.2617 69.2564C41.3506 68.8157 41.4291 68.3778 41.498 67.9325C41.5686 67.4771 41.6053 67.0144 41.6445 66.5553C41.7422 64.8883 41.7413 63.2258 41.6829 61.5579C41.5913 59.7565 41.4544 57.9616 41.2817 56.1667C41.1126 54.4122 40.851 52.6697 40.5789 50.93C40.3164 49.4139 40.0505 47.8959 39.6982 46.3981C39.5063 45.5802 39.3119 44.7633 39.1035 43.9509C38.9082 43.191 38.6954 42.4384 38.4844 41.6831C38.3047 41.0971 38.1321 40.5064 37.9411 39.925C37.697 39.1816 37.4484 38.4419 37.1912 37.7032C36.7578 36.4547 36.273 35.2284 35.7585 34.0149C35.5789 33.6166 35.4027 33.2173 35.1978 32.8318C34.9353 32.4159 34.9641 31.932 35.2327 31.5282H35.2335C35.5571 31.0433 36.2625 31.001 36.6819 31.3552C36.7552 31.4168 36.8197 31.4886 36.8747 31.5686L36.8755 31.5695C36.8912 31.5925 36.9061 31.6156 36.92 31.6395C37.1851 32.07 37.3787 32.5503 37.588 33.0121C37.8461 33.5825 38.0771 34.1667 38.3091 34.7491C38.7285 35.8071 39.1262 36.8826 39.4811 37.9672C39.8429 39.0731 40.2109 40.178 40.5257 41.2986C40.8431 42.4283 41.1571 43.559 41.4256 44.7025C41.709 45.9059 41.9758 47.113 42.2095 48.3274C42.4432 49.5335 42.6368 50.746 42.8278 51.9595C43.1853 54.2374 43.4155 56.5393 43.5821 58.8402C43.6693 60.0334 43.7312 61.2267 43.7739 62.4227C43.814 63.5616 43.7896 64.7043 43.7486 65.8432C43.7295 66.4035 43.692 66.9767 43.6248 67.5342C43.5568 68.0917 43.4914 68.6492 43.378 69.1994C43.2533 69.8121 43.1077 70.4119 42.922 71.0063C42.7389 71.5969 42.5217 72.171 42.2941 72.7432C41.8895 73.7626 41.4378 74.7672 40.9591 75.7498C40.98 75.7075 41.0001 75.6661 41.021 75.6228C40.4577 76.7839 39.863 77.9247 39.1872 79.0185C38.9823 79.3497 38.6413 79.5448 38.2899 79.5448C38.1146 79.5466 37.9368 79.4988 37.7728 79.3939Z" fill="black"/>
<path d="M36.9043 75.3836C36.5163 74.9558 36.532 74.2557 36.9383 73.8472C37.6481 73.1324 38.3614 72.4194 39.0756 71.7082C39.4183 71.3678 39.7627 71.0274 40.108 70.6898C40.4629 70.343 40.8118 69.9547 41.2303 69.6916C41.7125 69.3871 42.3691 69.6309 42.6264 70.1341C42.7528 70.3825 42.7825 70.6787 42.7084 70.9483C42.636 71.2142 42.4746 71.4203 42.2619 71.5693C42.2811 71.5564 42.3003 71.5445 42.3194 71.5316C42.2723 71.5638 42.2279 71.6006 42.1834 71.6374C41.5355 72.2271 40.9216 72.861 40.299 73.4811C39.652 74.1251 39.0067 74.7728 38.3623 75.4195C38.1652 75.6173 37.908 75.7157 37.6507 75.7157C37.3769 75.7157 37.104 75.6044 36.9043 75.3836Z" fill="black"/>
<path d="M42.4529 79.8015C42.3674 78.139 42.2863 76.4757 42.2052 74.8132C42.1625 73.9484 42.1232 73.0845 42.0753 72.2207C42.0535 71.8223 42.0282 71.4239 42.0081 71.0256C41.9933 70.71 41.9968 70.3963 42.1564 70.1157C42.3526 69.7698 42.6935 69.5996 43.0667 69.5858C43.6292 69.5646 44.0861 70.1323 44.073 70.6981C44.0721 70.745 44.0678 70.7919 44.0608 70.8388C44.0608 70.8471 44.0608 70.8563 44.0608 70.8655C44.1288 72.2989 44.2117 73.7322 44.2814 75.1647C44.3529 76.6348 44.4253 78.1059 44.502 79.5751C44.5169 79.8631 44.4567 80.1363 44.2832 80.3663C44.1114 80.5936 43.8576 80.7408 43.5847 80.7702C43.5516 80.7739 43.5184 80.7757 43.4853 80.7757C42.9813 80.7748 42.4825 80.3571 42.4529 79.8015Z" fill="black"/>
<path d="M44.8099 74.4397C44.0224 73.3081 43.2159 72.1903 42.3901 71.0891C42.2636 70.9308 42.1363 70.7763 41.9968 70.6318C42.0317 70.6649 42.0657 70.6981 42.0997 70.7312C41.8695 70.5104 41.6951 70.2813 41.6611 69.9409C41.6027 69.3521 42.0195 68.8065 42.5784 68.7458C42.8627 68.7145 43.1356 68.813 43.3432 68.9951C43.3388 68.9887 43.3336 68.9832 43.3292 68.9767C43.6257 69.2509 43.8786 69.5711 44.1227 69.8958C44.3992 70.2638 44.6695 70.6346 44.9398 71.0063C45.4604 71.7202 45.9757 72.4387 46.4806 73.1646C46.8129 73.643 46.7021 74.3367 46.2495 74.6835C46.0699 74.8206 45.8606 74.8859 45.6531 74.8859C45.3305 74.8859 45.0113 74.7295 44.8099 74.4397Z" fill="black"/>
</svg>
