<svg width="46" height="107" viewBox="0 0 46 107" fill="none" xmlns="http://www.w3.org/2000/svg">
<path d="M19.1285 37.1981C18.8311 37.188 18.5346 37.1769 18.2381 37.1668C17.9626 37.1567 17.6844 37.1061 17.4106 37.0748C17.1194 37.0417 16.8272 37.0086 16.5342 36.9745C16.2657 36.9442 15.9954 36.8752 15.7294 36.8246C15.4626 36.7749 15.1975 36.7262 14.9315 36.6765C14.1511 36.5311 13.3776 36.2938 12.6242 36.038C11.2063 35.5541 9.83641 34.8953 8.55719 34.0885C7.91714 33.6846 7.30936 33.2191 6.71553 32.7416C6.08507 32.2365 5.49298 31.6818 4.92357 31.1022C3.79869 29.9577 2.84646 28.6338 2.0294 27.2317C1.21931 25.8398 0.632455 24.3172 0.283655 22.7265C-0.0581691 21.1689 -0.0677605 19.5626 0.131056 17.9848C0.330744 16.3886 0.832144 14.8522 1.48614 13.4032C2.7985 10.4942 4.75353 7.88967 7.07654 5.8077C8.03399 4.94842 9.07341 4.15722 10.1791 3.5215C10.6953 3.22526 11.2028 2.90786 11.7391 2.65302C12.2641 2.40462 12.7829 2.13875 13.3235 1.92991C13.6636 1.79835 14.0028 1.6677 14.3429 1.53614C14.5574 1.45334 14.7789 1.39078 14.9987 1.3227C15.33 1.22058 15.6622 1.11846 15.9945 1.01726C16.2238 0.946424 16.461 0.899508 16.6929 0.843388C16.9702 0.776228 17.2458 0.708147 17.5222 0.640987C17.8283 0.567387 18.1431 0.520461 18.4518 0.459741C19.0491 0.343821 19.6473 0.254589 20.249 0.165349C20.4478 0.135909 20.6431 0.114744 20.8428 0.0972641C21.1838 0.0687441 21.5264 0.0218199 21.8683 0.0153799C22.1578 0.0107799 22.449 0.006188 22.7385 0.000667998C23.0167 -0.003932 23.2931 0.0163069 23.5704 0.0282669C24.0474 0.0503469 24.5218 0.0991117 24.9918 0.185592C25.2917 0.240792 25.5865 0.324511 25.8786 0.417431C25.9954 0.391671 26.1167 0.388911 26.2387 0.417431C28.3498 0.896751 30.4662 1.42759 32.4945 2.21603C33.4981 2.60703 34.4678 3.09555 35.4061 3.63743C35.8831 3.91251 36.3496 4.20875 36.796 4.53719C37.273 4.88771 37.7273 5.25846 38.1747 5.65038C39.0659 6.43054 39.8376 7.3533 40.5622 8.30182C41.2197 9.16202 41.7996 10.1142 42.2827 11.094C42.5539 11.6451 42.8137 12.2008 43.0326 12.7776C43.2541 13.36 43.432 13.9506 43.5846 14.5569C43.7241 15.1117 43.813 15.6784 43.8653 16.2497C43.8985 16.6131 43.8976 16.9811 43.9098 17.3454C43.9194 17.6527 43.9046 17.9729 43.8793 18.2802C43.8557 18.5525 43.8479 18.8312 43.8095 19.1026C43.7642 19.4136 43.7311 19.7291 43.6657 20.0355C43.6081 20.3069 43.5662 20.5884 43.4895 20.8534C43.4023 21.1533 43.3282 21.4615 43.2218 21.7541C43.1259 22.0163 43.0422 22.2886 42.9323 22.5434C42.8015 22.8424 42.6803 23.1479 42.5364 23.4386C42.403 23.71 42.2696 23.9805 42.1353 24.2509C41.8676 24.7928 41.5432 25.3034 41.2284 25.815C40.945 26.2759 40.6302 26.7239 40.291 27.1407C40.0974 27.3789 39.9117 27.6283 39.7059 27.8555C39.474 28.1094 39.2429 28.3633 39.0109 28.6173C38.663 28.9991 38.2837 29.356 37.907 29.7065C37.43 30.1481 36.9469 30.5741 36.4551 30.9955C36.0409 31.3506 35.604 31.6744 35.1741 32.0084C34.9709 32.1657 34.7477 32.3019 34.5358 32.4463C34.3196 32.5944 34.105 32.7499 33.8809 32.887C33.3761 33.1961 32.8764 33.5098 32.3549 33.7895C32.0707 33.9422 31.7855 34.0959 31.5004 34.2486C31.2431 34.3866 30.9711 34.4988 30.7086 34.623C30.4575 34.7408 30.2063 34.8595 29.9552 34.9772C29.6901 35.1024 29.4085 35.1971 29.1373 35.3057C28.8957 35.4023 28.6542 35.4998 28.4118 35.5973C28.131 35.7105 27.8328 35.7896 27.545 35.8853C27.2886 35.9699 27.0331 36.0555 26.7759 36.1401C26.4899 36.2339 26.1951 36.3002 25.9048 36.3775C25.6013 36.4575 25.2978 36.5375 24.9953 36.6176C24.759 36.6792 24.5139 36.7133 24.275 36.7602C23.9541 36.8218 23.6323 36.8853 23.3123 36.9479C23.0586 36.9976 22.8004 37.0169 22.5441 37.0454C22.2197 37.0831 21.8953 37.119 21.57 37.1567C21.3207 37.1843 21.0625 37.1779 20.8123 37.1861C20.494 37.1972 20.1766 37.2082 19.8574 37.2202C19.8234 37.2211 19.7903 37.222 19.7563 37.222C19.5479 37.2239 19.336 37.2064 19.1285 37.1981ZM19.8749 35.049C20.1356 35.0582 20.4042 35.0315 20.6649 35.0214C20.8899 35.0131 21.1149 35.0057 21.3398 34.9975C21.8648 34.9377 22.3906 34.8779 22.9155 34.8181C23.4405 34.7159 23.9654 34.6129 24.4912 34.5108C24.7729 34.4556 25.0546 34.3617 25.3319 34.2881C25.6092 34.2155 25.8864 34.1409 26.1629 34.0683C26.5649 33.9349 26.9669 33.8015 27.3688 33.6681C27.6897 33.5623 28.0002 33.4362 28.315 33.3093C28.6568 33.1722 29.0047 33.048 29.3387 32.8907C29.7363 32.7039 30.1348 32.5162 30.5325 32.3295C30.951 32.1059 31.3678 31.8805 31.7864 31.656C31.9608 31.5622 32.1282 31.4481 32.2974 31.3441C32.511 31.2135 32.7238 31.0829 32.9383 30.9522C33.4354 30.6128 33.9298 30.276 34.4076 29.9062C34.6492 29.7194 34.8951 29.5382 35.127 29.3385C35.3947 29.1085 35.6633 28.8795 35.931 28.6495C36.3173 28.2916 36.7054 27.9374 37.0768 27.5629C37.4771 27.16 37.8607 26.7478 38.2436 26.3274C38.445 26.0781 38.6464 25.8297 38.8487 25.5803C38.9455 25.4607 39.0284 25.3246 39.1164 25.1985C39.2132 25.0615 39.31 24.9244 39.4068 24.7864C39.6388 24.411 39.8716 24.0366 40.0843 23.6483C40.3058 23.2454 40.5125 22.8387 40.7165 22.4266C40.8273 22.1727 40.9372 21.9178 41.0479 21.6639C41.1438 21.4431 41.2188 21.2085 41.299 20.9794C41.3705 20.7329 41.4421 20.4854 41.5136 20.2388C41.5868 19.9877 41.626 19.719 41.6801 19.4614C41.6723 19.4982 41.6644 19.535 41.6574 19.5718C41.6967 19.3004 41.7359 19.0309 41.776 18.7595C41.8135 18.4945 41.8214 18.2203 41.844 17.9526C41.8397 17.9995 41.8371 18.0455 41.8327 18.0906C41.8388 17.8257 41.8449 17.5607 41.851 17.2957C41.8563 17.0869 41.8423 16.8753 41.8327 16.6655C41.8109 16.3785 41.7804 16.0942 41.7394 15.8109C41.6662 15.4005 41.5659 15.0022 41.4647 14.5992C41.3958 14.3839 41.3278 14.1677 41.2589 13.9515C41.1857 13.7206 41.0863 13.4943 40.9999 13.268C40.8107 12.8402 40.6137 12.4207 40.4079 12.0011C40.2082 11.5982 39.978 11.2127 39.7495 10.8263C39.3728 10.2495 38.9804 9.69287 38.5653 9.14731C38.1546 8.65511 37.7308 8.18498 37.2861 7.72682C37.0071 7.4637 36.7254 7.20703 36.4376 6.95403C36.1595 6.71115 35.8604 6.4931 35.563 6.27506C35.0791 5.94754 34.5881 5.64303 34.085 5.35047C33.2208 4.88679 32.3427 4.47463 31.4341 4.11859C29.9264 3.58407 28.3891 3.15718 26.8404 2.78182C26.5387 2.9189 26.1829 2.90051 25.8899 2.71743C25.835 2.69259 25.7801 2.66866 25.7251 2.64658C25.4182 2.54262 25.1121 2.44142 24.7991 2.36138C24.4974 2.29882 24.1956 2.25467 23.8896 2.22339C23.226 2.17003 22.565 2.17647 21.9005 2.18751C21.7183 2.20315 21.5352 2.21879 21.352 2.23351C21.148 2.25007 20.9405 2.2565 20.739 2.28594C20.283 2.3531 19.8269 2.42027 19.3709 2.48743C19.0038 2.55919 18.6358 2.63094 18.2687 2.7027C17.9338 2.76802 17.6033 2.85175 17.272 2.93179C16.9432 3.01183 16.6153 3.08635 16.2927 3.18571C15.9204 3.29979 15.548 3.41478 15.1757 3.52886C14.6943 3.71378 14.2147 3.89963 13.7334 4.08547C13.5058 4.17287 13.2843 4.2989 13.0628 4.40378C12.8448 4.50682 12.6268 4.61078 12.4079 4.71474C11.7914 5.06894 11.1688 5.41211 10.5698 5.79851C9.83729 6.28795 9.13794 6.8243 8.46825 7.40574C7.80902 7.99914 7.18728 8.63119 6.59781 9.30003C5.97084 10.0333 5.39096 10.8033 4.85294 11.6102C4.39339 12.3222 3.97047 13.0564 3.58941 13.8191C3.27636 14.4714 2.99645 15.1374 2.75403 15.8219C2.58312 16.338 2.4375 16.8578 2.32239 17.3905C2.22037 17.9241 2.14537 18.4614 2.09567 19.0042C2.06341 19.4725 2.05207 19.9389 2.0669 20.409C2.09044 20.8451 2.13317 21.2775 2.19682 21.709C2.28228 22.2003 2.3939 22.6833 2.52818 23.1626C2.69125 23.698 2.88221 24.2197 3.09934 24.733C3.3653 25.3246 3.66789 25.8904 3.99489 26.4461C4.39252 27.0965 4.8259 27.7184 5.29155 28.3164C5.75197 28.8877 6.24116 29.4269 6.76 29.9393C7.42272 30.5713 8.12206 31.151 8.8528 31.6938C9.42745 32.1059 10.0204 32.4776 10.636 32.8152C11.3589 33.197 12.1001 33.5319 12.8596 33.8226C13.6017 34.0922 14.3551 34.313 15.1207 34.4942C15.6867 34.6203 16.2604 34.7123 16.8299 34.8171C17.0583 34.8595 17.2964 34.8714 17.5266 34.8981C17.7908 34.9285 18.0541 34.9588 18.3192 34.9883C18.8355 35.0122 19.3552 35.0306 19.8749 35.049Z" fill="black"/>
<path d="M20.3632 79.3589C18.1222 79.2605 15.8759 79.1262 13.6444 78.8833C12.503 78.7582 11.3676 78.6055 10.2401 78.3791C9.74311 78.2798 9.23822 78.1685 8.76734 77.9725C8.51446 77.8667 8.23281 77.749 8.0244 77.5576C7.78634 77.3396 7.59014 77.1068 7.46109 76.7995C7.31721 76.4591 7.28233 76.0874 7.2675 75.7194C7.25355 75.4075 7.25094 75.1003 7.26402 74.7893C7.31023 73.6936 7.40179 72.5979 7.46981 71.504C7.53957 70.3531 7.61107 69.2021 7.68345 68.0503C7.82558 65.7751 7.99562 63.5009 8.16217 61.2267C8.33221 58.8972 8.49179 56.5669 8.64701 54.2365C8.80484 51.8555 8.9679 49.4737 9.15887 47.0964C9.3603 44.6032 9.57394 42.1109 9.79194 39.6186C9.87565 38.6591 9.96024 37.6995 10.0448 36.74C10.0858 36.28 10.1259 35.82 10.166 35.36C10.187 35.1226 10.2079 34.8871 10.2271 34.6497C10.2436 34.4501 10.2541 34.2431 10.3265 34.0572C10.5174 33.5595 11.0729 33.2863 11.563 33.4344C12.0748 33.588 12.3678 34.1235 12.2928 34.658C12.2937 34.6552 12.2946 34.6515 12.2955 34.6488C12.2388 35.0067 12.2309 35.3802 12.1987 35.7408C12.1568 36.2183 12.115 36.6949 12.0731 37.1714C11.9937 38.0666 11.9144 38.9627 11.8359 39.8588C11.6694 41.7742 11.5054 43.6887 11.3432 45.6041C11.1601 47.8765 10.9805 50.1499 10.8296 52.425C10.6666 54.8823 10.5044 57.3406 10.3291 59.7961C10.1669 62.0731 9.98901 64.3473 9.83903 66.6252C9.6873 68.9041 9.55476 71.1848 9.41088 73.4645C9.37077 74.1094 9.31234 74.7544 9.31321 75.4002C9.32019 75.5575 9.32891 75.7148 9.34373 75.8712C9.3978 75.8979 9.45361 75.9227 9.50942 75.9457C9.80502 76.046 10.1032 76.1288 10.4058 76.2006C11.004 76.3202 11.6013 76.4398 12.2065 76.5189C12.9259 76.6137 13.6436 76.6992 14.3647 76.7765C16.1697 76.9357 17.9757 77.0562 19.7851 77.1565C21.5779 77.2558 23.369 77.2457 25.1618 77.1795C26.6521 77.1049 28.1432 77.0194 29.6265 76.8529C31.1045 76.6882 32.5756 76.4757 34.0414 76.2153C34.0205 76.219 33.9987 76.2227 33.9777 76.2273C34.6579 76.1031 35.3529 76.001 36.0191 75.805C36.0444 75.7949 36.0697 75.7847 36.0949 75.7746C36.1141 75.7645 36.1333 75.7535 36.1525 75.7433C36.1647 75.7314 36.176 75.7194 36.1883 75.7075C36.1952 75.6992 36.2022 75.69 36.2101 75.6817C36.2066 75.6863 36.2039 75.6909 36.2013 75.6955L36.2048 75.6918C36.2249 75.6596 36.2441 75.6265 36.2624 75.5925C36.3034 75.4986 36.3409 75.4039 36.3757 75.3073C36.422 75.1472 36.4638 74.988 36.5013 74.8252C36.5841 74.3891 36.6304 73.9521 36.6766 73.5105C36.735 72.4479 36.7664 71.3844 36.7533 70.319C36.7394 69.1469 36.7071 67.9767 36.6635 66.8055C36.6652 66.8525 36.667 66.8985 36.6687 66.9445C36.4751 62.2782 36.2013 57.6101 35.6563 52.9733C35.3738 50.5602 35.0538 48.1516 34.7355 45.7431C34.432 43.444 34.1609 41.1421 33.9167 38.8348C33.6656 36.4538 33.4336 34.0701 33.1467 31.6928C33.0761 31.1049 33.5147 30.5576 34.0641 30.4978C34.6317 30.4352 35.1262 30.8777 35.1968 31.4656C35.4575 33.6267 35.6729 35.7942 35.8987 37.959C36.1394 40.2682 36.4028 42.5746 36.7027 44.8755C37.0027 47.1856 37.3262 49.4921 37.5974 51.8059C37.8721 54.1473 38.1067 56.4933 38.2784 58.8457C38.452 61.2331 38.5897 63.6205 38.69 66.0125C38.7894 68.387 38.8941 70.7772 38.7607 73.1526C38.7179 73.9006 38.6586 74.655 38.4921 75.3855C38.3499 76.0157 38.1468 76.6376 37.7404 77.1362C37.5808 77.3303 37.3794 77.5226 37.1605 77.6413C36.9242 77.7683 36.687 77.8612 36.4333 77.9394C36.2135 78.0065 35.9842 78.0452 35.7592 78.0921C35.4976 78.1464 35.2343 78.1961 34.9718 78.2457C34.4704 78.3405 33.9673 78.4298 33.4641 78.5135C31.3146 78.8695 29.1573 79.1087 26.986 79.2504C25.5219 79.3452 24.057 79.4031 22.5912 79.4031C21.8482 79.4059 21.1061 79.3911 20.3632 79.3589Z" fill="black"/>
<path d="M8.82054 105.83C8.34442 105.633 7.9311 105.284 7.58491 104.894C7.17333 104.429 6.86115 103.844 6.69634 103.232C6.36934 102.019 6.54723 100.576 7.5012 99.7222C8.068 99.2153 8.84321 99.1537 9.5565 99.1482C9.99599 99.1445 10.4311 99.2383 10.8584 99.3331C11.2857 99.4278 11.7103 99.5521 12.1202 99.7131C12.8527 99.9983 13.5258 100.43 14.254 100.725C14.2592 100.727 14.2644 100.729 14.2705 100.731C14.3011 100.536 14.3202 100.34 14.3386 100.143C14.5042 97.965 14.6507 95.7856 14.812 93.607C14.9856 91.2684 15.1792 88.9316 15.3911 86.5957C15.623 84.0473 15.8349 81.4952 16.1218 78.9523C16.1881 78.3635 16.754 77.9551 17.2955 78.0415C17.864 78.1326 18.2251 78.692 18.1588 79.2798C17.946 81.1622 17.783 83.0518 17.6094 84.9388C17.4333 86.8616 17.2598 88.7853 17.0984 90.7109C17.0993 90.6952 17.101 90.6796 17.1019 90.6639C17.1002 90.6906 17.0976 90.7173 17.0958 90.7431C17.0941 90.7633 17.0923 90.7826 17.0906 90.8029C17.0915 90.7881 17.0932 90.7725 17.0941 90.7578C16.9162 93.0182 16.7531 95.2805 16.5901 97.5418C16.5508 98.0846 16.5116 98.6265 16.4732 99.1684C16.4313 99.7416 16.4052 100.319 16.3311 100.889C16.3032 101.108 16.2657 101.325 16.1933 101.532C16.0887 101.83 15.9413 102.089 15.7599 102.341C15.6788 102.455 15.5855 102.554 15.4826 102.64C15.4966 102.853 15.4521 103.072 15.3414 103.265C14.9219 103.991 14.3926 104.629 13.7343 105.122C12.8692 105.768 11.8438 106.069 10.7956 106.134C10.684 106.141 10.5724 106.145 10.4625 106.145C9.90094 106.145 9.35507 106.051 8.82054 105.83ZM10.5977 103.971C10.7956 103.957 10.9927 103.939 11.1898 103.91C11.3668 103.874 11.5412 103.831 11.7156 103.779C11.8298 103.739 11.9414 103.693 12.0522 103.643C12.1769 103.579 12.2998 103.509 12.4193 103.434C12.544 103.348 12.6643 103.256 12.7812 103.158C12.8849 103.061 12.9843 102.961 13.0794 102.855C13.1361 102.787 13.191 102.717 13.2451 102.646C13.075 102.569 12.9093 102.487 12.7472 102.406C12.2658 102.165 11.7906 101.908 11.2935 101.706C11.0162 101.617 10.7381 101.534 10.4555 101.462C10.2358 101.414 10.0169 101.37 9.79543 101.338C9.65591 101.329 9.51726 101.323 9.37687 101.323C9.24433 101.332 9.11265 101.343 8.98098 101.36C8.92517 101.371 8.87024 101.382 8.81443 101.394C8.81007 101.398 8.80658 101.402 8.80222 101.406C8.78653 101.426 8.77083 101.446 8.75601 101.467C8.73682 101.501 8.71764 101.536 8.69846 101.57C8.68625 101.597 8.67491 101.625 8.66445 101.653C8.65224 101.697 8.64003 101.739 8.62869 101.781C8.6191 101.835 8.61125 101.889 8.60602 101.943C8.60253 102.008 8.60079 102.072 8.60079 102.137C8.60777 102.245 8.6191 102.351 8.63306 102.456C8.64526 102.518 8.66009 102.579 8.67578 102.64C8.69758 102.709 8.72113 102.777 8.74729 102.844C8.78914 102.936 8.83362 103.025 8.8807 103.114C8.93215 103.195 8.98621 103.273 9.04202 103.351C9.09957 103.419 9.158 103.484 9.21817 103.549C9.27659 103.601 9.33589 103.652 9.3978 103.7C9.43268 103.723 9.46756 103.745 9.50331 103.767C9.56697 103.799 9.6315 103.828 9.6969 103.857C9.76666 103.88 9.83641 103.901 9.90705 103.919C9.98814 103.935 10.0684 103.948 10.1503 103.96C10.3012 103.971 10.4486 103.974 10.5977 103.971Z" fill="black"/>
<path d="M32.6575 104.995C32.1056 104.868 31.5841 104.68 31.0818 104.406C30.1401 103.89 29.4076 103.044 28.8905 102.077C28.7684 101.849 28.7414 101.589 28.7919 101.345C28.5766 101.098 28.451 100.777 28.4074 100.446C28.3228 99.8207 28.3289 99.1804 28.308 98.5492C28.2914 98.012 28.2757 97.4756 28.2618 96.9383C28.199 94.6199 28.1502 92.3006 28.11 89.9813C28.0647 87.3648 28.022 84.7483 27.9278 82.1337C27.8929 81.3646 27.8362 80.5927 27.8249 79.8226C27.8171 79.2292 28.3342 78.7472 28.8792 78.761C29.4564 78.7748 29.8776 79.2808 29.8863 79.8732C29.8863 79.8824 29.8863 79.8925 29.8863 79.9017C29.9343 81.0039 29.9936 82.107 30.025 83.2091C30.0607 84.4622 30.0912 85.7152 30.1165 86.9683C30.1636 89.237 30.1941 91.5048 30.2438 93.7726C30.2848 95.6246 30.3275 97.4774 30.3921 99.3303C30.6886 99.161 30.9824 98.9862 31.2859 98.8308C31.7402 98.5989 32.2093 98.4149 32.7037 98.3017C33.2897 98.1683 33.9106 98.1647 34.5036 98.2457C34.6718 98.2687 34.8393 98.2916 35.0067 98.3137C35.3154 98.356 35.6066 98.4471 35.8979 98.5566C36.4647 98.771 36.98 99.1684 37.3951 99.621C37.73 99.9872 37.9985 100.464 38.1145 100.959C38.2375 101.486 38.227 102.007 38.0857 102.528C37.8084 103.549 36.9547 104.389 36.0409 104.784C35.7278 104.919 35.393 105.029 35.0564 105.078C34.7547 105.124 34.4556 105.143 34.1504 105.153C34.0989 105.155 34.0475 105.156 33.996 105.156C33.5496 105.156 33.0918 105.094 32.6575 104.995ZM34.3475 102.974C34.487 102.962 34.6239 102.947 34.7625 102.927C34.8776 102.899 34.9901 102.869 35.1026 102.835C35.1593 102.814 35.2142 102.791 35.27 102.767C35.3372 102.733 35.4035 102.698 35.468 102.659C35.5552 102.597 35.6389 102.533 35.7209 102.465C35.7767 102.412 35.8299 102.358 35.8822 102.303C35.9232 102.251 35.9615 102.2 35.999 102.146C36.0191 102.113 36.0374 102.08 36.0557 102.046C36.0688 102.016 36.0819 101.985 36.0941 101.954C36.1089 101.904 36.1229 101.854 36.1351 101.803C36.1386 101.782 36.1412 101.761 36.1438 101.74C36.1447 101.716 36.1447 101.692 36.1447 101.668C36.1429 101.64 36.1394 101.612 36.1368 101.583C36.1307 101.55 36.1229 101.517 36.1141 101.484C36.1072 101.464 36.1002 101.444 36.0923 101.423C36.067 101.371 36.04 101.318 36.0121 101.268C35.9929 101.238 35.972 101.209 35.9519 101.18C35.8979 101.117 35.8429 101.056 35.7854 100.997C35.72 100.939 35.6528 100.883 35.584 100.83C35.5011 100.774 35.4174 100.722 35.3319 100.672C35.2334 100.624 35.1349 100.579 35.0346 100.538C34.998 100.528 34.9614 100.517 34.9247 100.506C34.6422 100.448 34.3536 100.412 34.0667 100.382C33.9062 100.373 33.7475 100.368 33.5871 100.372C33.4711 100.381 33.3551 100.393 33.2392 100.409C33.1049 100.436 32.9732 100.468 32.8415 100.507C32.6601 100.572 32.4823 100.645 32.3061 100.725C31.8527 100.96 31.4141 101.223 30.9658 101.469C31.0103 101.534 31.0565 101.598 31.1036 101.662C31.2222 101.805 31.3478 101.942 31.4786 102.075C31.5483 102.137 31.619 102.199 31.6914 102.257C31.8413 102.359 31.9948 102.456 32.1518 102.545C32.273 102.603 32.3942 102.656 32.518 102.706C32.6567 102.755 32.7962 102.798 32.9383 102.837C33.2069 102.894 33.4755 102.939 33.7484 102.968C33.9481 102.976 34.1469 102.978 34.3475 102.974Z" fill="black"/>
<path d="M10.7494 13.2477C10.1852 13.0684 9.54604 12.7463 9.47279 12.0527C9.41088 11.4639 9.8338 10.9183 10.3901 10.8576C10.636 10.83 10.8724 10.8999 11.0659 11.0361C11.0816 11.0453 11.0965 11.0554 11.1121 11.0646C11.1627 11.0903 11.2142 11.1133 11.2665 11.1354C11.3929 11.1805 11.5202 11.2191 11.651 11.2541C11.815 11.2872 11.9789 11.313 12.1446 11.3323C12.3129 11.3424 12.4803 11.3452 12.6495 11.3415C12.8492 11.3268 13.0462 11.3047 13.2442 11.2743C13.4936 11.2228 13.7386 11.1612 13.9828 11.0867C14.22 11.0039 14.4537 10.9128 14.6839 10.8088C14.8792 10.7113 15.0702 10.6073 15.2568 10.4923C15.3928 10.3985 15.5245 10.301 15.6535 10.197C15.7922 10.0701 15.9238 9.93759 16.0503 9.79775C16.2107 9.60179 16.3616 9.40123 16.5055 9.19239C16.7549 8.80507 16.9763 8.40487 17.1848 7.99179C17.4158 7.47843 17.6208 6.95678 17.8065 6.4241C17.8361 6.33302 17.8658 6.24103 17.8937 6.14995C18.0707 5.58783 18.614 5.23638 19.1694 5.40474C19.6926 5.56298 20.0528 6.18767 19.8757 6.74979C19.3752 8.34783 18.6933 9.90999 17.6356 11.1869C16.5473 12.5016 14.9455 13.1971 13.3392 13.4566C13.0619 13.5017 12.7812 13.5228 12.5004 13.5228C11.9057 13.5228 11.3127 13.4262 10.7494 13.2477Z" fill="black"/>
<path d="M35.1985 12.4069C34.3222 12.3673 33.4458 12.2587 32.5773 12.1336C31.6242 11.9965 30.6851 11.8144 29.7512 11.5697C27.6104 11.0066 25.5167 9.97991 24.0465 8.19603C23.3821 7.38919 22.9365 6.4379 22.5798 5.4443C22.4394 5.05698 22.3897 4.62826 22.6007 4.25658C22.7952 3.91434 23.1466 3.72206 23.5198 3.72206C24.0439 3.72206 24.4764 4.18206 24.5226 4.71658C24.5959 4.9199 24.6718 5.12139 24.7528 5.32287C24.8662 5.57955 24.9874 5.82979 25.1226 6.07451C25.2656 6.30727 25.4173 6.53174 25.5821 6.74794C25.7478 6.94574 25.9213 7.13434 26.1027 7.3165C26.3364 7.53362 26.5797 7.73418 26.8334 7.92462C27.1352 8.13622 27.4447 8.32942 27.7647 8.50882C28.1859 8.7287 28.6184 8.92006 29.0605 9.09118C29.6552 9.30278 30.2587 9.46194 30.8673 9.62294C31.4821 9.75082 32.0942 9.8695 32.7151 9.95966C33.3237 10.0471 33.9324 10.1216 34.5437 10.1851C34.7774 10.2053 35.0111 10.2228 35.2456 10.2338C35.8063 10.2596 36.265 10.7444 36.2519 11.3461C36.2397 11.9147 35.7828 12.4087 35.2404 12.4087C35.2273 12.4078 35.2134 12.4069 35.1985 12.4069Z" fill="black"/>
<path d="M17.5684 22.79C17.3199 21.2913 17.2292 19.7604 17.1595 18.2415C17.122 17.4485 17.1011 16.6536 17.081 15.8596C17.0714 15.4833 17.0688 15.1071 17.0731 14.7299C17.0766 14.3711 17.1194 13.9929 17.3382 13.7031C17.5423 13.4336 17.8492 13.2901 18.1736 13.2901C18.7361 13.2901 19.193 13.82 19.1799 14.4023C19.1782 14.5008 19.1633 14.5946 19.138 14.6839C19.118 15.2543 19.1389 15.8265 19.1529 16.3969C19.1642 16.8633 19.1816 17.3298 19.1982 17.7962C19.2671 19.2701 19.3482 20.7513 19.5601 22.2104C19.5644 22.2361 19.5688 22.2619 19.5723 22.2877C19.6203 22.571 19.5976 22.847 19.4537 23.0982C19.3124 23.3475 19.0761 23.5306 18.8076 23.5977C18.7343 23.6161 18.6593 23.6244 18.5843 23.6244C18.1248 23.6235 17.6522 23.2932 17.5684 22.79Z" fill="black"/>
<path d="M25.0424 21.6096C24.8645 19.9978 24.6709 18.3887 24.4756 16.7805C24.3831 16.016 24.2872 15.2524 24.1974 14.4879C24.1084 13.7409 24.0291 12.9782 24.0675 12.2256C24.0971 11.6331 24.5471 11.1492 25.1217 11.1639C25.6702 11.1768 26.1576 11.6837 26.128 12.2762C26.1219 12.3986 26.1193 12.5219 26.1158 12.6451C26.1855 14.0583 26.394 15.4603 26.564 16.8643C26.748 18.3694 26.9267 19.8754 27.0933 21.3824C27.1587 21.9703 26.7305 22.5167 26.1759 22.5775C26.1402 22.5811 26.1053 22.583 26.0704 22.583C25.5507 22.583 25.1034 22.1607 25.0424 21.6096Z" fill="black"/>
<path d="M26.2998 30.0938C26.1036 29.7783 26.0669 29.4443 26.1376 29.0773C26.2038 28.7313 26.3521 28.4084 26.4838 28.0864C26.6477 27.689 26.8265 27.297 27.0104 26.9097C27.2363 26.4341 27.4665 25.9658 27.7107 25.5012C27.8938 25.1535 28.0891 24.8186 28.3019 24.4892C28.6829 23.9004 29.1259 23.365 29.5951 22.8544C30.2813 22.1073 31.0513 21.421 31.8562 20.8212C32.6235 20.248 33.4249 19.6739 34.3204 19.351C34.8506 19.1597 35.4462 19.4136 35.6494 19.9821C35.8429 20.5222 35.5822 21.1938 35.0512 21.3851C34.9116 21.4357 34.7765 21.4928 34.6431 21.5535C34.4094 21.6777 34.1827 21.812 33.9577 21.9519C33.608 22.1874 33.2662 22.4339 32.927 22.6869C32.5442 22.9712 32.1884 23.2951 31.8291 23.6106C31.8649 23.5793 31.9006 23.5481 31.9373 23.5168C31.5483 23.894 31.1629 24.2675 30.7993 24.6714C30.5255 24.9943 30.2665 25.3292 30.025 25.6806C29.7171 26.1655 29.4538 26.6696 29.1861 27.1793C28.8294 27.9291 28.4632 28.6789 28.1737 29.4609C28.1685 29.4765 28.1641 29.4931 28.1589 29.5087C28.1484 29.8261 28.0106 30.1325 27.7412 30.3386C27.565 30.4738 27.3479 30.541 27.1308 30.541C26.8064 30.5391 26.4846 30.3901 26.2998 30.0938ZM28.1205 29.1711C28.1127 29.1361 28.1048 29.1003 28.0961 29.0653C28.0865 29.0469 28.0769 29.0276 28.0673 29.0092C28.0891 29.0616 28.1066 29.1159 28.1205 29.1711Z" fill="black"/>
<path d="M11.7566 35.4059C11.8342 35.7491 11.7435 36.0913 11.5455 36.3443C11.549 36.3416 11.5516 36.3397 11.5551 36.3379C11.5761 36.3066 11.5961 36.2753 11.617 36.2441C11.3947 36.624 11.2063 37.0251 11.0119 37.4217C10.7241 38.0289 10.4459 38.637 10.1782 39.2561C10.0213 39.6186 9.87217 39.9848 9.72654 40.3528C9.74747 40.1081 9.76927 39.8652 9.7902 39.6205C9.87391 38.6609 9.95849 37.7013 10.0431 36.7418C10.0841 36.2827 10.1242 35.8218 10.1643 35.3618C10.1748 35.2468 10.1843 35.1318 10.1948 35.0168C10.1294 34.9846 10.064 34.9505 9.99948 34.9165C10.1381 34.761 10.3151 34.6534 10.5148 34.6C11.059 34.4528 11.6292 34.8355 11.7566 35.4059Z" fill="black"/>
<path d="M10.4948 57.4087C10.4451 58.141 10.3945 58.8733 10.3422 59.6056C10.2585 59.6102 10.1739 59.6121 10.0902 59.613C9.95152 59.6148 9.81461 59.6157 9.67684 59.6157C9.2792 59.6157 8.88244 59.6093 8.48481 59.5983C8.4168 59.5964 8.34704 59.5918 8.27815 59.5872C8.3296 58.8623 8.38018 58.1382 8.43075 57.4123C8.58597 57.4215 8.74205 57.4298 8.89901 57.4344C9.29316 57.4464 9.68643 57.4436 10.0814 57.439C10.221 57.4298 10.3579 57.4197 10.4948 57.4087Z" fill="black"/>
<path d="M37.3881 29.253C37.1344 29.1371 36.9312 28.9135 36.8344 28.6403C36.735 28.3661 36.7603 28.0929 36.8518 27.8224C36.8545 27.8159 36.8562 27.8095 36.8579 27.804C37.0306 27.2455 37.1588 26.6742 37.2809 26.102C37.4326 25.3338 37.58 24.5637 37.6576 23.7826C37.682 23.434 37.6916 23.0853 37.6829 22.7357C37.6689 22.5186 37.648 22.3051 37.6192 22.0908C37.5922 21.9436 37.5599 21.7982 37.5233 21.6529C37.505 21.5931 37.484 21.5351 37.4631 21.4762C37.3698 21.2812 37.273 21.0963 37.2469 20.8736C37.1771 20.2857 37.6131 19.7383 38.1642 19.6785C38.608 19.6288 39.0092 19.8901 39.1958 20.2885C39.1905 20.2747 39.1853 20.2609 39.181 20.2462C39.7146 21.249 39.7844 22.4569 39.7355 23.5812C39.7059 24.2914 39.5908 24.9971 39.4609 25.6935C39.2743 26.7027 39.0737 27.7166 38.7441 28.6853C38.6028 29.1012 38.1912 29.3358 37.7884 29.3358C37.6506 29.3376 37.5128 29.31 37.3881 29.253Z" fill="black"/>
<path d="M37.7657 29.2153C37.5512 29.034 37.4117 28.7663 37.3829 28.4783C37.3532 28.1849 37.4422 27.9236 37.6009 27.6862C37.6105 27.6724 37.6201 27.6577 37.6297 27.6439C38.0779 26.9226 38.4546 26.1554 38.8339 25.3918C39.3118 24.4009 39.7713 23.4036 40.1349 22.3585C40.2771 21.9197 40.4026 21.4762 40.5064 21.0254C40.5596 20.7494 40.6023 20.4734 40.632 20.1947C40.6398 20.0511 40.6433 19.9095 40.6424 19.7659C40.6346 19.6436 40.6241 19.5222 40.6102 19.4007C40.584 19.26 40.5526 19.122 40.516 18.984V18.983C40.434 18.7098 40.4244 18.4329 40.5334 18.1652C40.6433 17.8974 40.8552 17.6831 41.1142 17.58C41.6164 17.3795 42.2748 17.6463 42.4431 18.2111C42.6489 18.9002 42.7352 19.5893 42.689 20.3106C42.628 21.2702 42.3699 22.2205 42.0629 23.1212C41.7795 23.9529 41.4351 24.7551 41.0671 25.5481C40.7976 26.1296 40.5125 26.7046 40.2212 27.2741C39.9117 27.8804 39.5917 28.4784 39.215 29.0423C39.0318 29.3156 38.7275 29.448 38.4223 29.448C38.186 29.448 37.9488 29.3698 37.7657 29.2153Z" fill="black"/>
<path d="M39.6597 28.3008C39.3187 28.2934 38.9944 28.1729 38.7659 27.8997C38.4842 27.5611 38.4127 27.137 38.5653 26.7165C38.6229 26.5574 38.7188 26.4231 38.8348 26.3062C39.0824 26.0551 39.4277 25.964 39.7478 26.0302C39.848 25.9575 39.9448 25.8821 40.0408 25.803C40.2936 25.5702 40.5334 25.3246 40.7654 25.0679C40.9738 24.8195 41.1839 24.5729 41.3784 24.3126C41.613 23.9998 41.8362 23.6833 42.0559 23.3604C42.4004 22.8102 42.7239 22.2545 43.0186 21.6731C43.2951 21.0898 43.554 20.4983 43.8034 19.9021C44.0302 19.3602 44.6414 19.0989 45.1594 19.3363C45.6713 19.57 45.9224 20.225 45.6957 20.7669C45.4358 21.387 45.1655 22.0025 44.8769 22.6087C44.5568 23.2776 44.1836 23.9069 43.7912 24.5306C43.3796 25.1875 42.9035 25.7919 42.4117 26.3817C41.9304 26.9594 41.3871 27.5399 40.754 27.93C40.4349 28.1269 40.0687 28.3017 39.6911 28.3017C39.6806 28.3008 39.6702 28.3008 39.6597 28.3008Z" fill="black"/>
<path d="M38.9412 53.8299C38.4441 53.6698 37.9697 53.4288 37.5198 53.1592C37.0716 52.8896 36.674 52.4821 36.3095 52.1003C35.911 51.6835 35.9458 50.9631 36.3435 50.5639C36.7585 50.1462 37.4021 50.1812 37.8006 50.5988C37.8677 50.6697 37.9349 50.7387 38.0029 50.8068C38.1494 50.9429 38.2976 51.0736 38.4502 51.2005C38.5531 51.2714 38.6569 51.3385 38.7633 51.4038C38.9804 51.5142 39.2001 51.6145 39.4251 51.7093C39.5891 51.7663 39.7539 51.816 39.923 51.8583C40.0059 51.8749 40.0887 51.8878 40.1724 51.8979C40.2858 51.9052 40.3974 51.908 40.5099 51.9061C40.5622 51.9006 40.6137 51.8942 40.666 51.8896C40.6372 51.8951 40.6076 51.8997 40.5788 51.9052C40.5814 51.9052 40.584 51.9052 40.5875 51.9052C40.6721 51.8914 40.7558 51.8721 40.8386 51.8491C40.8857 51.8326 40.9319 51.8132 40.9782 51.7939C41.054 51.7544 41.1273 51.7102 41.1988 51.6624C41.1883 51.6716 41.177 51.6808 41.1665 51.69C41.1796 51.6798 41.1918 51.6688 41.2049 51.6578C41.2197 51.6476 41.2345 51.6375 41.2493 51.6265C41.2363 51.6348 41.2241 51.643 41.211 51.6513C41.2746 51.5961 41.3348 51.5382 41.3932 51.4765C41.4682 51.3845 41.538 51.2916 41.6051 51.1941C41.6714 51.0864 41.7298 50.9751 41.7821 50.8601C41.7621 50.9024 41.7411 50.9448 41.7211 50.9871C41.749 50.9245 41.7743 50.861 41.7978 50.7966C41.8493 50.6338 41.8938 50.47 41.933 50.3035C41.9966 49.9686 42.0376 49.6338 42.0786 49.2943C42.1074 48.8803 42.1292 48.469 42.1405 48.0541C42.1527 47.6226 42.1431 47.1921 42.1388 46.7606C42.0943 45.6989 42.0289 44.6418 41.9347 43.5829C41.8458 42.5884 41.6984 41.6022 41.5502 40.6159C41.3025 39.2249 41.0401 37.8366 40.7235 36.4612C40.5526 35.7215 40.3826 34.9818 40.196 34.2458C40.0189 33.543 39.8271 32.8456 39.6327 32.1473C39.4269 31.4389 39.2219 30.7296 39.0205 30.0194C38.8853 29.541 38.7615 29.0543 38.6883 28.5611C38.6072 28.0174 38.8827 27.4268 39.3867 27.2391C39.9161 27.0422 40.5142 27.3063 40.7157 27.8702C40.7837 28.0598 40.7959 28.264 40.761 28.4581C40.8936 29.1159 41.095 29.7636 41.2781 30.4067C41.6103 31.5475 41.9365 32.6901 42.2269 33.8438C42.5198 35.0058 42.7762 36.1769 43.0308 37.3481C43.2776 38.4824 43.486 39.6278 43.6587 40.7778C43.8357 41.9508 43.9953 43.133 44.0711 44.3189C44.1391 45.3861 44.1958 46.4506 44.2063 47.5196C44.2159 48.5886 44.1653 49.6825 43.9508 50.7286C43.9002 50.9751 43.8383 51.2162 43.7598 51.4554C43.6796 51.7019 43.575 51.9282 43.4607 52.1601C43.3273 52.4315 43.1355 52.679 42.9436 52.9053C42.7335 53.1537 42.4919 53.3662 42.2242 53.5428C41.7568 53.851 41.2537 54.012 40.7078 54.0718C40.598 54.0838 40.4881 54.0893 40.3773 54.0893C39.8916 54.0884 39.3998 53.9789 38.9412 53.8299Z" fill="black"/>
<path d="M16.8909 57.152C16.5648 57.1455 16.2386 57.1382 15.9125 57.1308C15.6858 57.1262 15.4573 57.1308 15.2315 57.1124C14.4467 57.0489 13.6619 56.9947 12.8814 56.8879C12.1524 56.7886 11.4217 56.6423 10.7163 56.4252C10.0056 56.2062 9.33763 55.8529 8.70368 55.4546C7.47591 54.6827 6.30132 53.7434 5.561 52.4241C5.19476 51.7709 4.94711 51.0735 4.78317 50.3348C4.61139 49.5657 4.56866 48.7662 4.56953 47.9787C4.5704 47.2077 4.65324 46.4358 4.78491 45.6777C4.89566 45.0393 5.04216 44.3989 5.23138 43.7807C5.41014 43.1993 5.57843 42.6123 5.78335 42.0401C6.18796 40.9131 6.6074 39.7943 7.06432 38.6894C7.52648 37.5753 7.99649 36.4547 8.54149 35.3802C8.89116 34.6911 9.25043 33.6791 10.1242 33.6791C10.6866 33.6791 11.1435 34.209 11.1305 34.7914C11.1244 35.0895 11.0031 35.3535 10.8139 35.543C10.8122 35.5458 10.8096 35.5485 10.8078 35.5513C10.6334 35.8393 10.4878 36.1447 10.3361 36.4465C10.0937 36.9635 9.85298 37.4805 9.62016 38.0022C9.35071 38.6075 9.09608 39.2166 8.84233 39.8293C8.39848 40.9002 8.0026 41.9913 7.61107 43.0833C7.34598 43.9472 7.07479 44.8037 6.88295 45.6906C6.79226 46.1589 6.71901 46.6281 6.67192 47.1037C6.63792 47.5674 6.62484 48.0292 6.6353 48.4938C6.65274 48.8425 6.685 49.1885 6.73383 49.5353C6.78092 49.7966 6.8376 50.0523 6.90649 50.3081C6.97015 50.5105 7.0434 50.7065 7.12449 50.9015C7.19512 51.0515 7.27012 51.1977 7.34947 51.3422C7.46283 51.5225 7.58142 51.6964 7.70786 51.8675C7.86308 52.057 8.02527 52.2364 8.19705 52.4094C8.43598 52.632 8.68276 52.8409 8.94087 53.0377C9.38297 53.3524 9.83903 53.6486 10.3099 53.9136C10.5453 54.0341 10.7843 54.1427 11.0293 54.242C11.3363 54.3524 11.6467 54.4407 11.9641 54.5162C12.6033 54.6505 13.2451 54.7499 13.893 54.8244C14.2923 54.8566 14.6917 54.8888 15.0902 54.9219C15.4469 54.9504 15.8044 54.9523 16.1619 54.9605C16.495 54.9679 16.8281 54.9826 17.1612 54.9716C17.585 54.9578 18.0079 54.9431 18.4326 54.9302C18.9078 54.8879 19.3831 54.8465 19.8601 54.8041C20.1025 54.7821 20.3466 54.7305 20.5873 54.6937C20.8105 54.6597 21.0329 54.6257 21.2561 54.5916C21.8726 54.4647 22.49 54.3432 23.1021 54.1923C23.8346 54.0111 24.5636 53.8207 25.2935 53.6219C26.6006 53.2687 27.9016 52.885 29.1983 52.4894C30.3336 52.1196 31.4576 51.7267 32.5459 51.2235C33.0116 50.9889 33.4728 50.7442 33.9149 50.4645C34.0675 50.3541 34.214 50.24 34.3571 50.1176C34.814 49.6797 35.2212 49.1793 35.706 48.7763C35.9833 48.5472 36.2728 48.3503 36.6147 48.2455C37.0219 48.1203 37.4291 48.1176 37.8477 48.1866C38.343 48.2685 38.8173 48.5049 39.2498 48.7625C39.739 49.0523 39.8873 49.7561 39.6047 50.2547C39.31 50.7727 38.6804 50.919 38.1912 50.6292C38.1555 50.608 38.1206 50.5869 38.0849 50.5657C37.9671 50.5059 37.8477 50.4498 37.7265 50.3992C37.6506 50.3734 37.5739 50.3504 37.4971 50.3293C37.4614 50.3228 37.4247 50.3173 37.3881 50.3109C37.3576 50.309 37.3262 50.3081 37.2948 50.3081C37.2739 50.3108 37.253 50.3145 37.232 50.3173C37.2233 50.3201 37.2137 50.3228 37.205 50.3256C37.1911 50.332 37.178 50.3385 37.164 50.344C37.1501 50.3532 37.1361 50.3615 37.1213 50.3707C37.0672 50.4102 37.0149 50.4516 36.9635 50.4949C36.5937 50.8389 36.2659 51.2281 35.8987 51.5749C35.6999 51.7645 35.4941 51.9429 35.2805 52.1131C35.0573 52.2889 34.8087 52.4333 34.5672 52.5777C33.6429 53.1297 32.6505 53.5686 31.6477 53.9329C29.5052 54.7121 27.3087 55.3212 25.1147 55.9146C24.5488 56.0673 23.9794 56.2071 23.4091 56.3479C22.8693 56.4813 22.3235 56.5834 21.7802 56.6966C21.2282 56.8116 20.6649 56.876 20.1086 56.9606C19.8897 56.9937 19.6647 57.0011 19.445 57.0204C19.1258 57.0489 18.8058 57.0885 18.4858 57.0986C18.2076 57.1078 17.9312 57.117 17.653 57.1262C17.428 57.1327 17.1996 57.1501 16.9737 57.1501C16.9458 57.1529 16.9188 57.1529 16.8909 57.152Z" fill="black"/>
<path d="M32.7046 52.1794C32.6 51.85 32.6157 51.5142 32.6601 51.1747C32.7081 50.8113 32.818 50.4544 32.9244 50.1057C33.0517 49.6908 33.2121 49.2915 33.3944 48.9014C33.7344 48.1792 34.1225 47.4883 34.5175 46.7983C34.6474 46.572 34.7835 46.3457 34.9256 46.1267C35.0363 45.9565 35.1593 45.8093 35.2979 45.663C35.468 45.4836 35.693 45.3787 35.9092 45.2794C36.0758 45.203 36.2903 45.1763 36.4708 45.1745C36.7132 45.1708 36.9312 45.2039 37.1666 45.2674C37.5617 45.3714 37.92 45.6216 38.2436 45.8746C38.6447 46.1892 39.0031 46.5839 39.3222 46.9878C39.596 47.3347 39.8533 47.6916 40.0913 48.0651C40.4061 48.5564 40.3268 49.2271 39.8602 49.5841C39.4173 49.9226 38.7354 49.8315 38.4215 49.3403C38.2322 49.044 38.0299 48.7588 37.8206 48.4782C37.6436 48.2602 37.4588 48.0532 37.266 47.8489C37.1457 47.7367 37.0228 47.6291 36.8946 47.526C36.8292 47.4819 36.762 47.4395 36.694 47.3991C36.6687 47.388 36.6434 47.3761 36.619 47.3641C36.1856 48.0431 35.8063 48.7625 35.4244 49.4755C35.3354 49.6659 35.2456 49.8564 35.1558 50.0477C35.0738 50.2235 35.0102 50.4121 34.9422 50.5951C34.8567 50.8748 34.7739 51.1527 34.7102 51.4397C34.7015 51.4903 34.6928 51.54 34.6867 51.5906C34.6867 51.6062 34.6867 51.6219 34.6867 51.6375C34.6884 51.6504 34.6902 51.6632 34.6919 51.6761C34.6902 51.6688 34.6884 51.6605 34.6867 51.6522C34.6867 51.6614 34.6867 51.6715 34.6867 51.6807C34.7277 52.1601 34.4896 52.6302 34.0344 52.8114C33.9202 52.8574 33.7998 52.8786 33.6786 52.8786C33.2601 52.8777 32.8415 52.6164 32.7046 52.1794Z" fill="black"/>
</svg>
