<svg width="80" height="107" viewBox="0 0 80 107" fill="none" xmlns="http://www.w3.org/2000/svg">
<path d="M37.0343 37.1981C36.737 37.188 36.4405 37.1769 36.144 37.1668C35.8685 37.1567 35.5903 37.1061 35.3165 37.0748C35.0252 37.0417 34.7331 37.0086 34.4401 36.9745C34.1715 36.9442 33.9012 36.8752 33.6353 36.8246C33.3684 36.7749 33.1034 36.7262 32.8374 36.6765C32.057 36.5311 31.2835 36.2938 30.5309 36.038C29.1131 35.5541 27.7432 34.8953 26.4639 34.0885C25.8239 33.6846 25.2161 33.2191 24.6223 32.7416C23.9918 32.2365 23.3997 31.6818 22.8303 31.1022C21.7054 29.9577 20.7532 28.6338 19.9362 27.2317C19.1261 25.8398 18.5392 24.3172 18.1904 22.7265C17.8486 21.1689 17.839 19.5626 18.0378 17.9848C18.2375 16.3886 18.7389 14.8522 19.3929 13.4032C20.7053 10.4942 22.6603 7.88967 24.9833 5.8077C25.9407 4.94842 26.9802 4.15722 28.0859 3.5215C28.6021 3.22526 29.1096 2.90786 29.6467 2.65302C30.1717 2.40462 30.6905 2.13875 31.2312 1.92991C31.5712 1.79835 31.9105 1.6677 32.2505 1.53614C32.465 1.45334 32.6865 1.39078 32.9063 1.3227C33.2376 1.22058 33.5699 1.11846 33.9021 1.01726C34.1314 0.946424 34.3686 0.899508 34.6006 0.843388C34.8779 0.776228 35.1534 0.708147 35.4298 0.640987C35.7359 0.567387 36.0507 0.520461 36.3603 0.459741C36.9576 0.343821 37.5558 0.254589 38.1575 0.165349C38.3563 0.135909 38.5507 0.114744 38.7504 0.0972641C39.0914 0.0687441 39.4341 0.0218199 39.7759 0.0153799C40.0654 0.0107799 40.3566 0.006188 40.6462 0.000667998C40.9243 -0.003932 41.2007 0.0163069 41.478 0.0282669C41.955 0.0503469 42.4294 0.0991117 42.8994 0.185592C43.1994 0.240792 43.4941 0.324511 43.7862 0.417431C43.9031 0.391671 44.0243 0.388911 44.1464 0.417431C46.2575 0.896751 48.3738 1.42759 50.4021 2.21603C51.4058 2.60703 52.3754 3.09555 53.3137 3.63743C53.7907 3.91251 54.2572 4.20875 54.7037 4.53719C55.1806 4.88771 55.6341 5.25846 56.0823 5.65038C56.9735 6.43054 57.7452 7.3533 58.4698 8.30182C59.1264 9.16202 59.7072 10.1142 60.1903 11.094C60.4615 11.6451 60.7205 12.2008 60.9402 12.7776C61.1617 13.36 61.3396 13.9506 61.4922 14.5569C61.6317 15.1117 61.7206 15.6784 61.773 16.2497C61.8061 16.6131 61.8052 16.9811 61.8174 17.3454C61.827 17.6527 61.8122 17.9729 61.7869 18.2802C61.7634 18.5525 61.7555 18.8312 61.7171 19.1026C61.6718 19.4136 61.6387 19.7291 61.5733 20.0355C61.5157 20.3069 61.4739 20.5884 61.3971 20.8534C61.3099 21.1533 61.2358 21.4615 61.1294 21.7541C61.0335 22.0163 60.9498 22.2886 60.8391 22.5434C60.7083 22.8424 60.587 23.1479 60.4432 23.4386C60.3097 23.71 60.1755 23.9805 60.042 24.2509C59.7743 24.7928 59.4499 25.3034 59.1352 25.815C58.8518 26.2759 58.537 26.7239 58.1978 27.1407C58.0042 27.3789 57.8184 27.6283 57.6127 27.8555C57.3807 28.1094 57.1496 28.3633 56.9177 28.6173C56.5697 28.9991 56.1904 29.356 55.8137 29.7065C55.3367 30.1481 54.8536 30.5741 54.3618 30.9955C53.9476 31.3506 53.5108 31.6744 53.0809 32.0084C52.8777 32.1657 52.6545 32.3019 52.4426 32.4463C52.2263 32.5944 52.0118 32.7499 51.7877 32.887C51.2828 33.1961 50.7831 33.5098 50.2617 33.7895C49.9774 33.9422 49.6923 34.0959 49.4071 34.2486C49.1499 34.3866 48.8778 34.4988 48.6154 34.623C48.3642 34.7408 48.1131 34.8595 47.8619 34.9772C47.5969 35.1024 47.3152 35.1971 47.044 35.3057C46.8025 35.4023 46.5609 35.4998 46.3185 35.5973C46.0377 35.7105 45.7395 35.7896 45.4526 35.8853C45.1962 35.9699 44.9407 36.0555 44.6835 36.1401C44.3975 36.2339 44.1028 36.3002 43.8124 36.3775C43.5089 36.4575 43.2055 36.5375 42.9029 36.6176C42.6666 36.6792 42.4215 36.7133 42.1826 36.7602C41.8617 36.8218 41.5399 36.8853 41.2199 36.9479C40.9662 36.9976 40.7081 37.0169 40.4517 37.0454C40.1273 37.0831 39.8029 37.119 39.4777 37.1567C39.2283 37.1843 38.9702 37.1779 38.7199 37.1861C38.4016 37.1972 38.0833 37.2082 37.7651 37.2202C37.7319 37.2211 37.6979 37.222 37.6639 37.222C37.4537 37.2239 37.2419 37.2064 37.0343 37.1981ZM37.7799 35.049C38.0406 35.0582 38.3092 35.0315 38.5699 35.0214C38.7949 35.0131 39.0199 35.0057 39.2448 34.9975C39.7698 34.9377 40.2956 34.8779 40.8206 34.8181C41.3455 34.7159 41.8704 34.6129 42.3962 34.5108C42.6779 34.4556 42.9587 34.3617 43.2369 34.2881C43.5142 34.2155 43.7915 34.1409 44.0679 34.0683C44.4699 33.9349 44.8719 33.8015 45.2738 33.6681C45.5947 33.5623 45.9052 33.4362 46.22 33.3093C46.5609 33.1722 46.9097 33.048 47.2437 32.8907C47.6413 32.7039 48.0398 32.5162 48.4375 32.3295C48.856 32.1059 49.2728 31.8805 49.6914 31.656C49.8658 31.5622 50.0332 31.4481 50.2024 31.3441C50.416 31.2135 50.6288 31.0829 50.8433 30.9522C51.3404 30.6128 51.8348 30.276 52.3118 29.9062C52.5533 29.7194 52.7992 29.5382 53.0312 29.3385C53.2989 29.1085 53.5674 28.8795 53.8352 28.6495C54.2214 28.2916 54.6095 27.9374 54.981 27.5629C55.3812 27.16 55.7649 26.7478 56.1477 26.3274C56.3491 26.0781 56.5506 25.8297 56.7529 25.5803C56.8497 25.4607 56.9325 25.3246 57.0206 25.1985C57.1174 25.0615 57.2141 24.9244 57.3109 24.7864C57.5429 24.411 57.7757 24.0366 57.9885 23.6483C58.21 23.2454 58.4166 22.8387 58.6207 22.4266C58.7306 22.1727 58.8413 21.9178 58.952 21.6639C59.048 21.4431 59.123 21.2085 59.2032 20.9794C59.2747 20.7329 59.3462 20.4854 59.4177 20.2388C59.4909 19.9877 59.5302 19.719 59.5842 19.4614C59.5764 19.4982 59.5685 19.535 59.5616 19.5718C59.6008 19.3004 59.64 19.0309 59.6802 18.7595C59.7177 18.4945 59.7255 18.2203 59.7482 17.9526C59.7438 17.9995 59.7412 18.0455 59.7368 18.0906C59.7429 17.8257 59.749 17.5607 59.7551 17.2957C59.7604 17.0869 59.7464 16.8753 59.7368 16.6655C59.715 16.3785 59.6845 16.0942 59.6435 15.8109C59.5703 15.4005 59.47 15.0022 59.3697 14.5992C59.3008 14.3839 59.2328 14.1677 59.1639 13.9515C59.0907 13.7206 58.9913 13.4943 58.905 13.268C58.7157 12.8402 58.5187 12.4207 58.3129 12.0011C58.1132 11.5982 57.883 11.2127 57.6545 10.8263C57.2778 10.2495 56.8854 9.69287 56.4703 9.14731C56.0596 8.65511 55.6358 8.18498 55.1911 7.72682C54.9121 7.4637 54.6304 7.20703 54.3427 6.95403C54.0636 6.71115 53.7645 6.4931 53.468 6.27506C52.9841 5.94754 52.4931 5.64303 51.99 5.35047C51.1258 4.88679 50.2477 4.47463 49.3391 4.11859C47.8314 3.58407 46.2941 3.15718 44.7454 2.78182C44.4437 2.9189 44.0879 2.90051 43.7949 2.71743C43.74 2.69259 43.6851 2.66866 43.6301 2.64658C43.3232 2.54262 43.0171 2.44142 42.7041 2.36138C42.4024 2.29882 42.1006 2.25467 41.7946 2.22339C41.131 2.17003 40.47 2.17647 39.8055 2.18751C39.6233 2.20315 39.4402 2.21879 39.2571 2.23351C39.053 2.25007 38.8455 2.2565 38.644 2.28594C38.188 2.3531 37.7319 2.42027 37.2759 2.48743C36.9088 2.55919 36.5408 2.63094 36.1737 2.7027C35.8388 2.76802 35.5083 2.85175 35.177 2.93179C34.8482 3.01183 34.5203 3.08635 34.1977 3.18571C33.8254 3.29979 33.453 3.41478 33.0807 3.52886C32.5993 3.71378 32.1197 3.89963 31.6384 4.08547C31.4108 4.17287 31.1893 4.2989 30.9678 4.40378C30.7498 4.50682 30.5318 4.61078 30.3129 4.71474C29.6964 5.06894 29.0738 5.41211 28.4748 5.79851C27.7423 6.28795 27.0429 6.8243 26.3732 7.40574C25.714 7.99914 25.0923 8.63119 24.5028 9.30003C23.8758 10.0333 23.296 10.8033 22.7579 11.6102C22.2984 12.3222 21.8755 13.0564 21.4944 13.8191C21.1814 14.4714 20.9015 15.1374 20.659 15.8219C20.4881 16.338 20.3425 16.8578 20.2274 17.3905C20.1254 17.9241 20.0504 18.4614 20.0007 19.0042C19.9675 19.4725 19.9571 19.9389 19.9719 20.409C19.9954 20.8451 20.0382 21.2775 20.1018 21.709C20.1873 22.2003 20.2989 22.6833 20.4332 23.1626C20.5963 23.698 20.7872 24.2197 21.0043 24.733C21.2703 25.3246 21.5729 25.8904 21.8999 26.4461C22.2975 27.0965 22.7309 27.7184 23.1966 28.3164C23.657 28.8877 24.1462 29.4269 24.665 29.9393C25.3277 30.5713 26.0279 31.151 26.7578 31.6938C27.3325 32.1059 27.9254 32.4776 28.541 32.8152C29.2639 33.197 30.0043 33.5319 30.7646 33.8226C31.5067 34.0922 32.2601 34.313 33.0257 34.4942C33.5917 34.6203 34.1654 34.7123 34.7349 34.8171C34.9633 34.8595 35.2014 34.8714 35.4316 34.8981C35.6958 34.9285 35.9591 34.9588 36.2234 34.9883C36.7413 35.0122 37.261 35.0306 37.7799 35.049Z" fill="black"/>
<path d="M38.2691 79.359C36.028 79.2605 33.7818 79.1262 31.5503 78.8833C30.4089 78.7582 29.2744 78.6055 28.146 78.3791C27.649 78.2798 27.1441 78.1685 26.6732 77.9725C26.4203 77.8667 26.1387 77.749 25.9303 77.5576C25.6922 77.3396 25.496 77.1068 25.367 76.7995C25.2231 76.4591 25.1882 76.0874 25.1725 75.7194C25.1585 75.4076 25.1568 75.1003 25.169 74.7893C25.2152 73.6936 25.3068 72.5979 25.3748 71.504C25.4446 70.3531 25.5161 69.2022 25.5884 68.0503C25.7306 65.7752 25.9006 63.5009 26.0663 61.2267C26.2363 58.8972 26.3959 56.5669 26.5511 54.2365C26.709 51.8556 26.8711 49.4737 27.063 47.0964C27.2644 44.6032 27.4781 42.1109 27.6961 39.6186C27.7798 38.6591 27.8644 37.6995 27.9489 36.74C27.9899 36.28 28.03 35.82 28.0701 35.36C28.0911 35.1226 28.112 34.8871 28.1312 34.6497C28.1478 34.4501 28.1582 34.2431 28.2306 34.0572C28.4216 33.5595 28.977 33.2863 29.4671 33.4344C29.979 33.588 30.272 34.1235 30.197 34.658C30.1978 34.6552 30.1987 34.6516 30.1996 34.6488C30.1429 35.0067 30.1351 35.3802 30.1028 35.7408C30.0609 36.2183 30.0191 36.6949 29.9772 37.1714C29.8979 38.0666 29.8185 38.9627 29.7409 39.8588C29.5743 41.7742 29.4104 43.6887 29.2482 45.6042C29.0651 47.8766 28.8855 50.1499 28.7346 52.425C28.5724 54.8824 28.4094 57.3406 28.235 59.7961C28.0728 62.0731 27.8949 64.3473 27.7449 66.6252C27.5932 68.9041 27.4606 71.1848 27.3167 73.4645C27.2766 74.1094 27.2182 74.7544 27.2191 75.4002C27.2261 75.5575 27.2348 75.7148 27.2496 75.8712C27.3037 75.8979 27.3595 75.9228 27.4153 75.9458C27.7109 76.046 28.0082 76.1288 28.3108 76.2006C28.909 76.3202 29.5063 76.4398 30.1115 76.5189C30.8309 76.6137 31.5486 76.6993 32.2697 76.7765C34.0747 76.9357 35.8807 77.0562 37.6901 77.1565C39.4829 77.2558 41.274 77.2457 43.0668 77.1795C44.5562 77.105 46.0482 77.0194 47.5315 76.8529C49.0104 76.6882 50.4806 76.4757 51.9464 76.2153C51.9255 76.219 51.9037 76.2227 51.8827 76.2273C52.5629 76.1031 53.2579 76.001 53.9241 75.805C53.9494 75.7949 53.9747 75.7848 53.9999 75.7746C54.0191 75.7645 54.0383 75.7535 54.0575 75.7434C54.0697 75.7314 54.081 75.7194 54.0932 75.7075C54.1002 75.6992 54.1072 75.69 54.1151 75.6817C54.1124 75.6863 54.1089 75.6909 54.1063 75.6955L54.1098 75.6918C54.1299 75.6596 54.1491 75.6265 54.1674 75.5925C54.2084 75.4986 54.2458 75.4039 54.2807 75.3073C54.3269 75.1472 54.3679 74.9881 54.4054 74.8252C54.4883 74.3891 54.5345 73.9521 54.5807 73.5105C54.6391 72.4479 54.6705 71.3844 54.6574 70.319C54.6435 69.147 54.6112 67.9767 54.5685 66.8056C54.5702 66.8525 54.572 66.8985 54.5728 66.9445C54.3793 62.2782 54.1055 57.6102 53.5605 52.9734C53.2779 50.5602 52.9579 48.1516 52.6396 45.7431C52.3362 43.444 52.065 41.1422 51.8208 38.8348C51.5697 36.4538 51.3377 34.0701 51.0508 31.6928C50.9802 31.105 51.4188 30.5576 51.9682 30.4978C52.5359 30.4352 53.0303 30.8777 53.1009 31.4656C53.3616 33.6267 53.577 35.7942 53.8029 37.959C54.0435 40.2682 54.3069 42.5746 54.6069 44.8755C54.9068 47.1856 55.2303 49.4921 55.5015 51.8059C55.7762 54.1473 56.0108 56.4933 56.1826 58.8457C56.3561 61.2331 56.4939 63.6205 56.5941 66.0125C56.6935 68.387 56.7982 70.7772 56.6648 73.1526C56.6221 73.9006 56.5628 74.655 56.3962 75.3855C56.2541 76.0157 56.0509 76.6376 55.6445 77.1362C55.485 77.3304 55.2835 77.5227 55.0647 77.6413C54.8283 77.7683 54.5912 77.8612 54.3374 77.9394C54.1177 78.0066 53.8883 78.0452 53.6634 78.0921C53.4018 78.1464 53.1384 78.1961 52.8759 78.2458C52.3745 78.3405 51.8714 78.4298 51.3682 78.5135C49.2196 78.8695 47.0614 79.1087 44.8902 79.2504C43.4261 79.3452 41.9611 79.4031 40.4953 79.4031C39.7541 79.4059 39.012 79.3912 38.2691 79.359Z" fill="black"/>
<path d="M26.7255 105.83C26.2494 105.633 25.8361 105.284 25.4899 104.894C25.0783 104.429 24.7661 103.844 24.6013 103.232C24.2743 102.019 24.4522 100.576 25.4062 99.7223C25.973 99.2153 26.7482 99.1537 27.4615 99.1482C27.901 99.1445 28.3361 99.2383 28.7634 99.3331C29.1907 99.4278 29.6153 99.5521 30.0252 99.7131C30.7577 99.9983 31.4309 100.43 32.159 100.725C32.1642 100.727 32.1694 100.729 32.1755 100.731C32.2061 100.536 32.2252 100.34 32.2436 100.143C32.4101 97.9651 32.5557 95.7856 32.7171 93.607C32.8906 91.2684 33.0842 88.9316 33.2961 86.5957C33.528 84.0473 33.7399 81.4952 34.0268 78.9523C34.0931 78.3635 34.659 77.9551 35.2005 78.0416C35.769 78.1326 36.1301 78.692 36.0638 79.2798C35.851 81.1622 35.6879 83.0519 35.5144 84.9388C35.3383 86.8616 35.1647 88.7853 35.0034 90.7109C35.0043 90.6952 35.006 90.6796 35.0069 90.664C35.0052 90.6906 35.0026 90.7173 35.0008 90.7431C34.9991 90.7633 34.9973 90.7826 34.9956 90.8029C34.9965 90.7882 34.9982 90.7725 34.9991 90.7578C34.8212 93.0182 34.6581 95.2805 34.4951 97.5419C34.4558 98.0847 34.4166 98.6265 34.3782 99.1684C34.3364 99.7416 34.3093 100.319 34.2361 100.889C34.2082 101.108 34.1707 101.325 34.0983 101.532C33.9937 101.83 33.8463 102.089 33.6649 102.342C33.5838 102.455 33.4905 102.554 33.3876 102.64C33.4016 102.853 33.3571 103.072 33.2455 103.265C32.8261 103.991 32.2967 104.629 31.6384 105.122C30.7734 105.769 29.7479 106.069 28.7006 106.134C28.589 106.141 28.4774 106.145 28.3675 106.145C27.8068 106.145 27.2609 106.051 26.7255 105.83ZM28.5035 103.971C28.7015 103.957 28.8986 103.939 29.0956 103.91C29.2727 103.874 29.4479 103.831 29.6214 103.779C29.7357 103.739 29.8473 103.693 29.958 103.643C30.0827 103.579 30.2057 103.509 30.3251 103.434C30.4498 103.348 30.5702 103.256 30.687 103.158C30.7908 103.061 30.8902 102.961 30.9853 102.855C31.0419 102.787 31.0969 102.717 31.1509 102.646C30.9809 102.569 30.8152 102.487 30.653 102.406C30.1717 102.165 29.6964 101.908 29.1994 101.706C28.9221 101.617 28.6439 101.534 28.3614 101.462C28.1417 101.414 27.9228 101.37 27.7013 101.338C27.5618 101.329 27.4231 101.323 27.2827 101.323C27.1502 101.332 27.0185 101.343 26.8869 101.36C26.831 101.371 26.7761 101.382 26.7203 101.394C26.7159 101.398 26.7125 101.402 26.7081 101.406C26.6924 101.426 26.6767 101.446 26.6619 101.467C26.6427 101.501 26.6235 101.536 26.6043 101.57C26.5921 101.597 26.5808 101.625 26.5703 101.653C26.5581 101.697 26.5459 101.739 26.5346 101.781C26.525 101.835 26.5171 101.889 26.5119 101.943C26.5084 102.008 26.5067 102.072 26.5067 102.137C26.5136 102.245 26.5241 102.351 26.5389 102.457C26.5511 102.518 26.566 102.579 26.5816 102.64C26.6034 102.709 26.627 102.777 26.6532 102.844C26.695 102.936 26.7395 103.025 26.7866 103.114C26.838 103.195 26.8921 103.273 26.9479 103.351C27.0055 103.419 27.0639 103.484 27.124 103.549C27.1825 103.601 27.2418 103.652 27.3028 103.7C27.3368 103.723 27.3726 103.745 27.4083 103.767C27.472 103.799 27.5365 103.828 27.6019 103.857C27.6717 103.88 27.7414 103.901 27.8121 103.919C27.8931 103.935 27.9734 103.948 28.0553 103.96C28.2071 103.971 28.3544 103.974 28.5035 103.971Z" fill="black"/>
<path d="M50.5634 104.995C50.0106 104.868 49.49 104.68 48.9877 104.406C48.0468 103.89 47.3135 103.044 46.7964 102.077C46.6743 101.849 46.6472 101.589 46.6978 101.345C46.4824 101.098 46.3569 100.778 46.3124 100.446C46.2278 99.8207 46.2339 99.1804 46.213 98.5493C46.1964 98.012 46.1807 97.4756 46.1668 96.9383C46.104 94.6199 46.0552 92.3006 46.0142 89.9813C45.9688 87.3648 45.9261 84.7483 45.8319 82.1337C45.797 81.3646 45.7404 80.5927 45.729 79.8226C45.7212 79.2292 46.2374 78.7472 46.7833 78.761C47.3605 78.7748 47.7817 79.2808 47.7904 79.8733C47.7904 79.8825 47.7904 79.8926 47.7904 79.9018C47.8384 81.0039 47.8977 82.107 47.9291 83.2092C47.9657 84.4622 47.9954 85.7152 48.0207 86.9683C48.0669 89.237 48.0983 91.5048 48.148 93.7726C48.1881 95.6246 48.2317 97.4775 48.2962 99.3303C48.5927 99.1611 48.8865 98.9863 49.19 98.8308C49.6443 98.5989 50.1134 98.4149 50.6079 98.3018C51.1939 98.1684 51.8147 98.1647 52.4077 98.2457C52.576 98.2687 52.7434 98.2916 52.9108 98.3137C53.2195 98.356 53.5108 98.4471 53.802 98.5566C54.3688 98.771 54.8842 99.1684 55.2992 99.6211C55.6341 99.9872 55.9027 100.464 56.0186 100.959C56.1416 101.486 56.1311 102.007 55.9899 102.528C55.7126 103.549 54.8589 104.389 53.945 104.784C53.632 104.919 53.2971 105.029 52.9605 105.079C52.6588 105.125 52.3597 105.143 52.0545 105.153C52.0031 105.155 51.9516 105.156 51.9002 105.156C51.4546 105.156 50.9977 105.094 50.5634 104.995ZM52.2533 102.974C52.3929 102.962 52.5298 102.947 52.6684 102.927C52.7835 102.899 52.896 102.869 53.0085 102.835C53.0652 102.814 53.1201 102.791 53.1759 102.767C53.243 102.733 53.3093 102.698 53.3747 102.659C53.4619 102.597 53.5456 102.533 53.6276 102.465C53.6834 102.412 53.7366 102.358 53.7889 102.303C53.8299 102.251 53.8683 102.2 53.9058 102.146C53.9258 102.113 53.9441 102.08 53.9625 102.046C53.9764 102.016 53.9886 101.985 54.0008 101.954C54.0156 101.904 54.0296 101.854 54.0418 101.803C54.0453 101.782 54.0479 101.761 54.0505 101.74C54.0514 101.716 54.0523 101.692 54.0514 101.668C54.0497 101.64 54.0462 101.612 54.0427 101.583C54.0366 101.55 54.0287 101.517 54.02 101.484C54.013 101.464 54.0061 101.444 53.9982 101.423C53.9729 101.371 53.9459 101.318 53.918 101.268C53.8988 101.238 53.8779 101.209 53.8569 101.18C53.8029 101.117 53.7479 101.056 53.6904 100.997C53.625 100.939 53.5578 100.883 53.489 100.83C53.4061 100.774 53.3224 100.722 53.237 100.672C53.1384 100.624 53.0399 100.579 52.9396 100.538C52.903 100.528 52.8664 100.517 52.8297 100.506C52.5472 100.448 52.2586 100.412 51.9717 100.382C51.8112 100.373 51.6516 100.368 51.4921 100.372C51.3752 100.381 51.2601 100.393 51.1441 100.409C51.0099 100.436 50.8782 100.468 50.7465 100.507C50.5651 100.572 50.3881 100.645 50.212 100.725C49.7585 100.96 49.3199 101.223 48.8717 101.469C48.9162 101.534 48.9624 101.598 49.0095 101.662C49.1281 101.805 49.2537 101.942 49.3845 102.075C49.4542 102.137 49.5249 102.199 49.5972 102.257C49.7472 102.359 49.9007 102.456 50.0576 102.545C50.1789 102.603 50.3001 102.656 50.4239 102.706C50.5625 102.755 50.702 102.798 50.8442 102.837C51.1128 102.894 51.3813 102.939 51.6543 102.968C51.854 102.976 52.0519 102.978 52.2533 102.974Z" fill="black"/>
<path d="M17.764 51.0717C16.9862 50.9696 16.2293 50.724 15.5003 50.4268C14.1155 49.8638 12.9 48.9336 11.8571 47.8296C11.4106 47.3586 11.0191 46.8305 10.6337 46.3043C10.2857 45.8296 9.9814 45.3236 9.68056 44.8148C9.1312 43.8865 8.67166 42.8975 8.22432 41.9122C7.78047 40.937 7.38196 39.9388 6.97561 38.9461C6.8919 38.74 6.80819 38.534 6.7236 38.3279C6.64338 38.3352 6.56315 38.3444 6.48293 38.3573C6.40619 38.3739 6.33033 38.3932 6.25534 38.4153C6.07134 38.4788 5.89172 38.5524 5.7147 38.6324C5.40863 38.7879 5.11825 38.9645 4.827 39.1494C4.45204 39.4208 4.08406 39.6987 3.72305 39.9903C3.35333 40.339 3.0054 40.7052 2.66706 41.0879C2.38192 41.4209 2.102 41.7576 1.83342 42.1063C1.48026 42.5663 0.828005 42.6519 0.385901 42.2793C-0.0500986 41.9122 -0.132934 41.2111 0.221097 40.7511C0.836729 39.9507 1.49596 39.1642 2.23019 38.4824C2.58073 38.1558 2.96005 37.8642 3.3446 37.5854C3.80938 37.2506 4.28462 36.9414 4.79387 36.6894C5.28568 36.4456 5.78795 36.2763 6.32423 36.1834C6.52828 36.1475 6.74541 36.1447 6.95207 36.1604C7.21716 36.1806 7.4587 36.2597 7.69763 36.3811C8.07695 36.5753 8.35338 36.8688 8.53039 37.2708C8.63154 37.499 8.72311 37.7326 8.81815 37.9654C9.15998 38.8017 9.50354 39.638 9.85844 40.4687C10.1418 41.1109 10.4375 41.7457 10.7444 42.3759C11.0452 42.9923 11.381 43.5847 11.7271 44.1735C11.8789 44.4035 12.0315 44.6345 12.1841 44.8663C12.3384 45.1 12.5137 45.3208 12.6802 45.5453C13.0116 45.9409 13.3395 46.331 13.704 46.6944C13.9909 46.9648 14.2873 47.2206 14.5995 47.4598C14.9021 47.676 15.2125 47.8747 15.5343 48.0569C15.877 48.2354 16.224 48.3945 16.5816 48.5353C16.8998 48.6484 17.2199 48.7459 17.5469 48.8251C17.8294 48.8839 18.1119 48.929 18.3979 48.9612C18.656 48.9796 18.9133 48.9861 19.1714 48.9806C19.3728 48.9668 19.5708 48.9456 19.7696 48.9134C19.9048 48.883 20.0373 48.8508 20.1707 48.8122C20.2928 48.769 20.4123 48.7229 20.5326 48.6723C20.6922 48.5914 20.8465 48.504 20.9991 48.4092C21.1561 48.297 21.3069 48.1783 21.4552 48.0532C21.6549 47.8664 21.8441 47.6714 22.0281 47.4671C22.3777 47.0531 22.7065 46.6171 23.0134 46.1663C23.2899 45.7366 23.5419 45.2923 23.7773 44.8359C23.9465 44.4836 24.1226 44.134 24.2743 43.7724C24.461 43.3299 24.6493 42.8902 24.8228 42.4412C25.1647 41.5598 25.4908 40.673 25.8169 39.7861C26.1448 38.8937 26.4744 38.004 26.8319 37.1254C27.0255 36.6507 27.2252 36.1788 27.4292 35.7086C27.6054 35.3048 27.7929 34.8953 28.0266 34.5255C28.2481 34.1777 28.6056 33.8972 29.0215 33.9284C29.2491 33.9459 29.4584 34.0122 29.6398 34.1658C29.8473 34.3406 30.0043 34.6175 30.0226 34.9027C30.0261 34.9542 30.0287 35.0076 30.0287 35.0591C30.0287 35.3738 29.8874 35.6562 29.672 35.8512C29.611 35.9598 29.5543 36.0711 29.4994 36.1834C28.4913 38.3371 27.7571 40.6141 26.8973 42.8331C26.4038 44.1064 25.8823 45.3668 25.224 46.5573C24.9519 47.0486 24.6432 47.526 24.3066 47.9704C24.0468 48.3135 23.7913 48.6567 23.5061 48.9778C23.0256 49.5197 22.5016 49.9843 21.9025 50.3725C21.2921 50.7663 20.598 50.9714 19.8987 51.092C19.6022 51.1435 19.2996 51.1637 18.997 51.1637C18.5837 51.1637 18.1686 51.1251 17.764 51.0717Z" fill="black"/>
<path d="M2.57289 43.3916C2.12294 43.0134 2.07236 42.3391 2.40895 41.8634C2.73944 41.3961 3.07952 40.9379 3.42832 40.4862C3.75619 40.063 4.10761 39.6637 4.4599 39.2635C4.62907 39.0703 4.82177 38.8983 5.00053 38.7161C5.20284 38.5128 5.42607 38.3297 5.64494 38.1476C5.87689 37.9553 6.12454 37.7823 6.3905 37.6471C6.80906 37.4318 7.27994 37.3582 7.69763 37.6075C8.0351 37.809 8.23042 38.1834 8.23042 38.5892C8.23042 39.1734 7.74123 39.6518 7.19798 39.6518C7.19362 39.6545 7.19012 39.6564 7.18576 39.6591C7.00264 39.7888 6.82737 39.9296 6.65646 40.075C6.24401 40.4494 5.8673 40.856 5.4967 41.2746C4.98484 41.9058 4.49128 42.5498 4.02128 43.2158C3.83031 43.4863 3.52597 43.6216 3.2199 43.6225C2.98969 43.6243 2.75775 43.547 2.57289 43.3916Z" fill="black"/>
<path d="M6.28935 45.5462C5.73214 45.4569 5.34323 44.893 5.4252 44.3079C5.54728 43.4458 5.67547 42.5838 5.8054 41.7227C5.94143 40.8201 6.09839 39.9186 6.20913 39.0133C6.21087 38.9958 6.21175 38.9792 6.2135 38.9618C6.26058 38.4254 6.76634 38.0261 7.25641 38.0381C7.80751 38.0519 8.29059 38.5579 8.26269 39.1504C8.26007 39.1991 8.25659 39.2479 8.25223 39.2957C8.25136 39.3215 8.24961 39.3481 8.24874 39.3739C8.24525 39.4595 8.23218 39.5432 8.21125 39.6232C8.19294 39.7447 8.17288 39.8652 8.15457 39.9857C8.12143 40.2093 8.08742 40.4337 8.05428 40.6564C7.98801 41.0897 7.92261 41.5221 7.85721 41.9554C7.72292 42.8478 7.58864 43.7393 7.46307 44.6335C7.38808 45.1662 6.93637 45.5572 6.43933 45.5572C6.38963 45.5572 6.33905 45.5535 6.28935 45.5462Z" fill="black"/>
<path d="M60.247 48.7837C59.559 48.78 58.8762 48.6659 58.2169 48.4598C57.5996 48.2676 57.011 47.9732 56.4572 47.6291C55.8617 47.2574 55.321 46.7689 54.8911 46.1957C54.3601 45.491 53.9659 44.6722 53.6241 43.8506C53.4018 43.3152 53.1811 42.7798 52.9867 42.2324C52.7818 41.6537 52.5873 41.075 52.399 40.4908C52.2054 39.8919 52.0589 39.2764 51.9159 38.6637C51.7807 38.0878 51.697 37.4962 51.6072 36.9102C51.5217 36.3508 51.4511 35.7896 51.3927 35.2266C51.3229 34.5485 51.2409 33.865 51.2252 33.1823C51.2113 32.5889 51.738 32.1068 52.2795 32.1206C52.5516 32.1271 52.8132 32.2485 53.0006 32.4564C53.1829 32.657 53.2675 32.9054 53.2832 33.175C53.2832 33.1667 53.2823 33.1575 53.2823 33.1492C53.359 34.497 53.5282 35.8356 53.7305 37.1678C53.8151 37.6259 53.9014 38.0795 54.0078 38.533C54.1011 38.9351 54.2145 39.3288 54.3278 39.7244C54.5223 40.3261 54.7237 40.9223 54.9347 41.5175C55.1274 42.0612 55.3498 42.5939 55.5713 43.1248C55.7745 43.5627 55.9759 43.9969 56.2148 44.4137C56.3134 44.5728 56.418 44.7265 56.5288 44.8774C56.6378 45.0098 56.7502 45.1368 56.8706 45.2582C57.0031 45.3788 57.1383 45.4919 57.2796 45.6005C57.4775 45.7366 57.678 45.8627 57.8856 45.9795C58.1045 46.0908 58.3259 46.193 58.5527 46.2859C58.7646 46.3622 58.9773 46.4285 59.1953 46.4846C59.4142 46.5288 59.6331 46.5628 59.8537 46.5876C60.1353 46.606 60.4153 46.6106 60.6969 46.6014C60.9803 46.583 61.2602 46.5536 61.5401 46.5085C61.7547 46.4644 61.9648 46.4119 62.175 46.3512C62.4278 46.2647 62.6755 46.1672 62.9214 46.0559C63.2153 45.9096 63.4987 45.7477 63.7759 45.5692C64.0689 45.3668 64.3488 45.1488 64.6192 44.9151C65.009 44.5572 65.3621 44.1699 65.7214 43.7789C66.3361 43.0631 66.9431 42.3391 67.5099 41.581C68.0932 40.8027 68.6321 39.9894 69.1684 39.1752C69.1422 39.2138 69.1161 39.2543 69.0899 39.293C69.6035 38.5018 70.1049 37.705 70.5627 36.8761C70.7755 36.4916 70.9795 36.1024 71.181 35.7114C71.2813 35.5164 71.419 35.3222 71.5917 35.1907C71.8062 35.026 72.0486 34.9809 72.3085 34.9864C72.5797 34.9929 72.8421 35.1152 73.0296 35.3232C73.2136 35.5274 73.3148 35.7684 73.4011 36.0306C73.5022 36.3434 73.5493 36.6783 73.6104 37.0012C73.6548 37.2349 73.6888 37.4704 73.7281 37.705C73.8118 38.2138 73.8973 38.7226 73.9984 39.2276C74.1981 40.224 74.4423 41.2084 74.7248 42.1827C74.8887 42.7494 74.4797 43.363 73.9609 43.4928C73.701 43.5572 73.4211 43.5121 73.1927 43.3676C72.945 43.2103 72.802 42.9702 72.7192 42.685C72.4454 41.742 72.2056 40.7889 72.0111 39.8238C71.9475 39.5055 71.8899 39.1862 71.8341 38.867C71.7234 39.0528 71.61 39.2378 71.4949 39.4199C70.8828 40.3868 70.2523 41.339 69.6018 42.2765C68.9452 43.2223 68.2127 44.111 67.4671 44.9786C66.9753 45.5508 66.4704 46.1138 65.9062 46.6079C64.818 47.5619 63.5553 48.2685 62.1688 48.5923C61.5567 48.7349 60.9245 48.78 60.2984 48.78C60.2818 48.7837 60.2644 48.7837 60.247 48.7837Z" fill="black"/>
<path d="M74.4562 41.9876C73.967 41.1688 73.4987 40.3372 73.0531 39.4898C72.8308 39.0666 72.6346 38.6287 72.4427 38.188C72.3399 37.9507 72.2518 37.7078 72.1681 37.4631C72.0312 37.0638 71.9536 36.6443 72.1785 36.2588C72.4733 35.7537 73.1072 35.5762 73.5929 35.8844C73.8484 36.0463 74.0167 36.3186 74.0717 36.6139C74.1423 36.8347 74.2225 37.0509 74.3062 37.2671C74.8163 38.4245 75.4276 39.5257 76.065 40.6095C76.0851 40.6435 76.106 40.6776 76.1261 40.7116C76.2734 40.9572 76.3528 41.2194 76.3092 41.5129C76.2682 41.799 76.1165 42.0612 75.895 42.2305C75.7197 42.3648 75.5 42.432 75.2802 42.432C74.9585 42.4329 74.635 42.2857 74.4562 41.9876Z" fill="black"/>
<path d="M76.8211 40.7217C76.2464 40.2332 75.6814 39.7309 75.1207 39.2267C74.8312 38.9664 74.546 38.6996 74.2644 38.4291C73.892 38.073 73.5232 37.7115 73.1159 37.3996C73.0872 37.3812 73.0584 37.3619 73.0287 37.3435C72.761 37.3656 72.5212 37.2726 72.305 37.1098C71.9963 36.878 71.8829 36.4575 71.9239 36.0776C71.9658 35.6939 72.2431 35.3609 72.5779 35.2247C73.4796 34.8576 74.3917 35.6286 75.0221 36.2266C75.3788 36.5652 75.7319 36.9074 76.093 37.2414C76.7504 37.8504 77.4236 38.442 78.1055 39.0206C78.5424 39.3923 78.6217 40.0832 78.2703 40.5478C78.0689 40.8137 77.7628 40.9545 77.4568 40.9545C77.2318 40.9536 77.0068 40.8781 76.8211 40.7217Z" fill="black"/>
<path d="M77.8212 37.7391C76.6624 37.3692 75.4878 37.05 74.3106 36.7519C73.7664 36.6378 73.2249 36.5422 72.6738 36.4713C72.6485 36.4695 72.6241 36.4685 72.5988 36.4667C72.4968 36.4989 72.3896 36.5127 72.2788 36.5035C72.155 36.4925 72.0626 36.4814 71.9405 36.4492C71.3222 36.2873 70.9673 35.4142 71.3405 34.8457C71.4792 34.6341 71.637 34.4639 71.8698 34.3709C72.114 34.2743 72.3652 34.2826 72.6206 34.2891C72.925 34.2964 73.2406 34.3433 73.5406 34.3949C74.1379 34.497 74.7274 34.623 75.316 34.7711C76.3467 35.0315 77.3757 35.3241 78.3898 35.6488C78.9278 35.8218 79.2522 36.4189 79.097 36.9948C78.9705 37.4612 78.5476 37.7832 78.1012 37.7832C78.0079 37.7823 77.9137 37.7685 77.8212 37.7391Z" fill="black"/>
<path d="M6.34778 38.4447C5.73302 38.2469 5.10692 38.0997 4.47996 37.9516C3.58877 37.7492 2.69497 37.5624 1.79768 37.3978C1.24483 37.2956 0.848076 36.7538 0.933532 36.1594C1.01637 35.5826 1.5544 35.1456 2.10725 35.2477C2.90513 35.3949 3.70038 35.5522 4.49216 35.7335C5.30486 35.9202 6.12107 36.0987 6.91633 36.3545C7.45348 36.5274 7.77874 37.1245 7.62265 37.7004C7.49708 38.166 7.07415 38.4898 6.62769 38.4898C6.53439 38.4889 6.44021 38.4751 6.34778 38.4447Z" fill="black"/>
<path d="M34.9014 19.2002C34.7418 18.3648 34.632 17.5202 34.5264 16.6766C34.4236 15.8652 34.352 15.0464 34.318 14.2285C34.2797 13.3112 34.25 12.3931 34.2631 11.4749C34.2692 11.025 34.2849 10.5807 34.3067 10.1317C34.3241 9.77567 34.3346 9.39203 34.4706 9.06083C34.5884 8.77471 34.8064 8.57508 35.0732 8.45272C35.5885 8.21812 36.2111 8.54932 36.403 9.08384C36.4989 9.35156 36.4867 9.62479 36.3943 9.86399C36.3794 9.97255 36.369 10.0811 36.3629 10.1906C36.3664 10.1446 36.3699 10.0977 36.3742 10.0526C36.3463 10.611 36.328 11.1658 36.321 11.7242C36.314 12.2266 36.3271 12.7298 36.3358 13.2312C36.3716 14.0831 36.4039 14.9387 36.4998 15.786C36.5905 16.5828 36.6916 17.3776 36.8128 18.1698C36.8425 18.3464 36.873 18.5221 36.907 18.6988C37.0177 19.2793 36.703 19.8681 36.1431 20.0088C36.0681 20.0272 35.9923 20.0364 35.9164 20.0364C35.4516 20.0346 34.9964 19.6997 34.9014 19.2002Z" fill="black"/>
<path d="M40.2799 20.2591C40.1134 18.4761 40.0035 16.684 39.9207 14.8936C39.8788 13.9856 39.8448 13.0766 39.8064 12.1677C39.789 11.7555 39.7663 11.3415 39.7332 10.9294C39.714 10.692 39.6965 10.4546 39.6756 10.2173C39.6625 10.0885 39.6486 9.95876 39.6407 9.82996C39.6285 9.634 39.6564 9.46656 39.7201 9.28256C39.9119 8.72412 40.5842 8.49228 41.0761 8.71676C41.3289 8.83268 41.5321 9.05624 41.6298 9.32948C41.6629 9.42148 41.6821 9.51439 41.6899 9.60639C41.6899 9.60455 41.6908 9.60272 41.6908 9.60272C41.7161 10.0066 41.7675 10.4077 41.7911 10.8116C41.8164 11.2348 41.8443 11.6589 41.8626 12.0821C41.9018 13.0058 41.9367 13.9286 41.9794 14.8522C42.0597 16.5791 42.1687 18.3105 42.33 20.0318C42.3858 20.6216 41.9742 21.1653 41.4126 21.2269C41.3778 21.2306 41.3429 21.2324 41.3089 21.2324C40.7935 21.2324 40.3322 20.812 40.2799 20.2591Z" fill="black"/>
<path d="M27.6603 12.6654C27.1179 12.5789 26.695 12.0094 26.7962 11.4271C26.8485 11.1226 27.0028 10.8466 27.2487 10.6708C27.4641 10.5163 27.6943 10.4068 27.9315 10.2946C28.3527 10.0977 28.7774 9.90632 29.1977 9.7076C30.0287 9.31476 30.8719 8.95136 31.716 8.59256C33.2804 7.93108 34.9084 7.45819 36.4902 6.84639C37.0169 6.64215 37.6194 6.91908 37.82 7.47752C38.0171 8.02584 37.7494 8.67628 37.2218 8.8796C35.8153 9.42332 34.3712 9.85387 32.9699 10.4151C31.4901 11.0066 30.0391 11.681 28.5934 12.3609C28.5454 12.3857 28.4983 12.4106 28.4521 12.4363C28.276 12.5872 28.0536 12.6774 27.8147 12.6774C27.7641 12.6774 27.7126 12.6737 27.6603 12.6654Z" fill="black"/>
<path d="M48.6555 12.8586C47.2873 12.6415 45.9183 12.4179 44.5562 12.1631C43.713 12.0048 42.8663 11.7905 42.0597 11.486C41.2609 11.1851 40.4822 10.7877 39.8177 10.2246C39.4977 9.95323 39.2536 9.62571 39.0382 9.25955C38.8716 8.97527 38.8446 8.63212 38.9117 8.31288C39.0007 7.886 39.3992 7.58148 39.7942 7.53088C39.8387 7.52536 39.8831 7.52536 39.9276 7.52536C40.3697 7.52536 40.7464 7.85288 40.8816 8.27516C40.9016 8.30276 40.9217 8.33036 40.9417 8.35796C40.9705 8.39108 41.001 8.42419 41.0316 8.45639C41.1188 8.53551 41.2068 8.61004 41.2984 8.68364C41.4737 8.806 41.6524 8.91824 41.8382 9.02404C42.1242 9.17308 42.4163 9.30556 42.7137 9.427C43.195 9.60272 43.6833 9.73335 44.1769 9.86399C45.763 10.2044 47.3649 10.4546 48.965 10.7086C49.5205 10.7969 49.9129 11.3627 49.8292 11.9469C49.7524 12.4805 49.3034 12.8706 48.8054 12.8706C48.7566 12.8706 48.706 12.8669 48.6555 12.8586Z" fill="black"/>
<path d="M40.6252 33.2799C40.3881 32.933 40.1369 32.5991 39.8797 32.2688C39.714 32.0701 39.5448 31.8778 39.3652 31.6938C39.2536 31.5907 39.1402 31.4941 39.0225 31.3994C38.9091 31.3212 38.7949 31.2485 38.6772 31.1795C38.5446 31.1142 38.413 31.0553 38.2778 31.0001C38.1304 30.9495 37.9822 30.9062 37.8322 30.8658C37.6421 30.8262 37.452 30.7959 37.2593 30.7738C37.0858 30.7637 36.9131 30.7609 36.7387 30.7655C36.5818 30.7775 36.4265 30.7949 36.2713 30.8198C36.1257 30.8501 35.9818 30.8851 35.8388 30.9256C35.7455 30.9587 35.654 30.9927 35.5633 31.0323C35.5406 31.0442 35.5179 31.0571 35.4961 31.07C35.4926 31.0728 35.4892 31.0746 35.4865 31.0774C35.4883 31.0755 35.49 31.0746 35.4918 31.0728C35.483 31.0783 35.4743 31.0829 35.4656 31.0884C35.3235 31.1979 35.1622 31.2697 34.9764 31.2908C34.7087 31.3203 34.4358 31.2375 34.2256 31.0608C33.8053 30.7075 33.6867 29.9752 34.0617 29.5327C34.2928 29.2604 34.5927 29.1049 34.9093 28.9651C35.429 28.7369 36.0141 28.6403 36.5722 28.6007C37.7084 28.5207 38.8359 28.8022 39.8343 29.3689C40.4883 29.7397 41.029 30.3285 41.4998 30.9274C41.7763 31.2788 42.0457 31.6358 42.2986 32.0075C42.6273 32.4886 42.5236 33.1768 42.0675 33.5255C41.8888 33.6626 41.6786 33.7279 41.4685 33.7279C41.1432 33.727 40.8241 33.5715 40.6252 33.2799Z" fill="black"/>
</svg>
