<svg width="44" height="107" viewBox="0 0 44 107" fill="none" xmlns="http://www.w3.org/2000/svg">
<path d="M19.1276 37.1954C18.8302 37.1852 18.5337 37.1742 18.2373 37.1641C17.9617 37.1539 17.6835 37.1033 17.4097 37.0721C17.1185 37.0389 16.8264 37.0058 16.5334 36.9718C16.2648 36.9414 15.9945 36.8724 15.7285 36.8227C15.4617 36.7731 15.1966 36.7243 14.9306 36.6746C14.1502 36.5293 13.3767 36.2928 12.6242 36.0361C11.2063 35.5522 9.8364 34.8935 8.55718 34.0867C7.91713 33.6828 7.30935 33.2173 6.71552 32.7398C6.08506 32.2347 5.49298 31.68 4.92356 31.1004C3.79868 29.9559 2.84646 28.632 2.02939 27.2299C1.21931 25.8389 0.632465 24.3153 0.283665 22.7247C-0.0581589 21.1671 -0.0677669 19.5608 0.131049 17.983C0.330737 16.3868 0.832151 14.8504 1.48615 13.4014C2.79851 10.4923 4.75352 7.88783 7.07653 5.80587C8.03398 4.94659 9.07342 4.15539 10.1791 3.51967C10.6953 3.22343 11.2028 2.90603 11.7391 2.65119C12.2641 2.40187 12.7829 2.13599 13.3235 1.92807C13.6636 1.79651 14.0028 1.66587 14.3429 1.53523C14.5583 1.45243 14.7789 1.38987 14.9987 1.32179C15.33 1.21967 15.6623 1.11755 15.9945 1.01635C16.2238 0.945508 16.461 0.898589 16.6938 0.842469C16.9711 0.775309 17.2467 0.707228 17.5231 0.640068C17.8292 0.566468 18.144 0.519549 18.4527 0.458829C19.05 0.342909 19.6481 0.253669 20.2498 0.165349C20.4486 0.135909 20.644 0.114747 20.8437 0.0972675C21.1846 0.0687475 21.5273 0.0218303 21.8692 0.0153903C22.1587 0.0107903 22.4499 0.0061879 22.7394 0.000667901C23.0176 -0.0039321 23.294 0.0163103 23.5713 0.0282703C24.0483 0.0503503 24.5218 0.0991081 24.9927 0.185588C25.2926 0.240788 25.5874 0.324511 25.8795 0.417431C25.9963 0.391671 26.1175 0.389831 26.2396 0.417431C28.3507 0.896751 30.467 1.42759 32.4953 2.21603C33.4999 2.60703 34.4687 3.09555 35.4069 3.63743C35.8839 3.91251 36.3504 4.20875 36.7969 4.53719C37.2739 4.88771 37.7273 5.25847 38.1755 5.65039C39.0667 6.43055 39.8384 7.35331 40.5631 8.30183C41.2206 9.16203 41.8004 10.1142 42.2835 11.094C42.5547 11.6451 42.8146 12.2008 43.0335 12.7776C43.2549 13.36 43.4328 13.9506 43.5854 14.5569C43.725 15.1117 43.8139 15.6784 43.8662 16.2497C43.8993 16.6131 43.8985 16.9811 43.9107 17.3454C43.9203 17.6527 43.9063 17.9729 43.8802 18.2801C43.8566 18.5534 43.8488 18.8312 43.8104 19.1026C43.7651 19.4136 43.7319 19.7291 43.6665 20.0355C43.609 20.306 43.568 20.5884 43.4904 20.8534C43.4032 21.1533 43.3291 21.4615 43.2227 21.7541C43.1267 22.0163 43.043 22.2886 42.9332 22.5434C42.8024 22.8424 42.6812 23.1479 42.5373 23.4386C42.4039 23.71 42.2696 23.9805 42.1362 24.251C41.8693 24.7928 41.5441 25.3034 41.2293 25.815C40.9459 26.275 40.6311 26.7239 40.2919 27.1407C40.0983 27.379 39.9126 27.6283 39.7068 27.8555C39.4748 28.1094 39.2437 28.3633 39.0118 28.6173C38.6639 28.9991 38.2845 29.356 37.9078 29.7065C37.4308 30.1481 36.9478 30.5741 36.456 30.9955C36.0418 31.3506 35.6049 31.6744 35.175 32.0084C34.9718 32.1657 34.7486 32.3019 34.5367 32.4463C34.3204 32.5953 34.1059 32.7499 33.8818 32.887C33.3769 33.1961 32.8773 33.5098 32.3558 33.7895C32.0716 33.9422 31.7864 34.0949 31.5013 34.2486C31.244 34.3875 30.972 34.4988 30.7095 34.623C30.4584 34.7408 30.2072 34.8595 29.9561 34.9772C29.691 35.1023 29.4093 35.1971 29.1381 35.3057C28.8966 35.4023 28.6551 35.4998 28.4126 35.5973C28.1319 35.7105 27.8336 35.7896 27.5459 35.8853C27.2895 35.9699 27.034 36.0555 26.7768 36.1401C26.4907 36.2349 26.196 36.3002 25.9056 36.3775C25.6022 36.4575 25.2987 36.5375 24.9961 36.6176C24.7598 36.6792 24.5148 36.7133 24.2759 36.7602C23.955 36.8218 23.6332 36.8853 23.3132 36.9479C23.0594 36.9975 22.8013 37.0169 22.5449 37.0454C22.2206 37.0831 21.8962 37.119 21.5709 37.1567C21.3215 37.1843 21.0634 37.1779 20.8132 37.1861C20.4949 37.1972 20.1775 37.2082 19.8583 37.2202C19.8252 37.2211 19.7912 37.222 19.7572 37.222C19.547 37.2211 19.3351 37.2036 19.1276 37.1954ZM19.874 35.0462C20.1347 35.0554 20.4033 35.0287 20.664 35.0186C20.889 35.0103 21.114 35.003 21.339 34.9947C21.8639 34.9349 22.3897 34.8751 22.9147 34.8153C23.4396 34.7132 23.9646 34.6101 24.4904 34.508C24.772 34.4528 25.0528 34.359 25.331 34.2854C25.6083 34.2127 25.8856 34.1382 26.162 34.0655C26.564 33.9312 26.966 33.7987 27.368 33.6653C27.688 33.5595 27.9993 33.4335 28.3141 33.3065C28.6559 33.1694 29.0039 33.0452 29.3378 32.8879C29.7355 32.7011 30.134 32.5135 30.5316 32.3267C30.9502 32.1022 31.367 31.8777 31.7855 31.6533C31.9599 31.5594 32.1273 31.4453 32.2965 31.3414C32.5101 31.2107 32.7229 31.0801 32.9374 30.9495C33.4345 30.61 33.9298 30.2733 34.4059 29.9025C34.6474 29.7157 34.8933 29.5345 35.1253 29.3349C35.393 29.1049 35.6616 28.8758 35.9293 28.6458C36.3156 28.2879 36.7036 27.9337 37.0751 27.5593C37.4753 27.1563 37.859 26.7442 38.2418 26.3237C38.4433 26.0744 38.6447 25.826 38.847 25.5767C38.9438 25.4571 39.0266 25.3209 39.1147 25.1949C39.2115 25.0578 39.3083 24.9207 39.4051 24.7827C39.637 24.4073 39.8698 24.0329 40.0826 23.6447C40.3041 23.2417 40.5108 22.8351 40.7148 22.4229C40.8256 22.169 40.9354 21.9142 41.0462 21.6602C41.1421 21.4394 41.2171 21.2048 41.2973 20.9757C41.3688 20.7292 41.4403 20.4817 41.5118 20.2351C41.5851 19.984 41.6243 19.7154 41.6784 19.4578C41.6705 19.4946 41.6627 19.5313 41.6557 19.5681C41.6949 19.2967 41.7342 19.0272 41.7743 18.7558C41.8118 18.4908 41.8196 18.2167 41.8423 17.949C41.838 17.9959 41.8353 18.0419 41.831 18.0879C41.8371 17.8229 41.8432 17.558 41.8493 17.293C41.8545 17.0842 41.8406 16.8725 41.8301 16.6628C41.8083 16.3757 41.7778 16.0915 41.7368 15.8081C41.6635 15.3978 41.5633 14.9994 41.463 14.5965C41.3941 14.3803 41.3261 14.1641 41.2572 13.9488C41.1839 13.7179 41.0845 13.4916 40.9982 13.2652C40.809 12.8374 40.6119 12.4179 40.4061 11.9984C40.2073 11.5954 39.9762 11.2099 39.7478 10.8235C39.3711 10.2467 38.9787 9.69011 38.5636 9.14455C38.1529 8.65235 37.7291 8.18223 37.2843 7.72407C37.0053 7.46095 36.7237 7.20427 36.4359 6.95127C36.1577 6.70747 35.8578 6.49035 35.5613 6.27231C35.0773 5.94479 34.5864 5.64027 34.0832 5.34771C33.2191 4.88403 32.341 4.47187 31.4324 4.11583C29.9247 3.58131 28.3873 3.15443 26.8387 2.77907C26.5369 2.91615 26.1812 2.89775 25.8882 2.71467C25.8332 2.68983 25.7783 2.66591 25.7234 2.64383C25.4164 2.53987 25.1104 2.43867 24.7973 2.35955C24.4956 2.29607 24.1939 2.25283 23.8878 2.22155C23.2242 2.16819 22.5633 2.17463 21.8988 2.18567C21.7165 2.20131 21.5334 2.21695 21.3503 2.23167C21.1463 2.24823 20.9387 2.25467 20.7373 2.28411C20.2812 2.35127 19.8252 2.41843 19.3691 2.48559C19.002 2.55735 18.634 2.62911 18.2669 2.70087C17.9321 2.76619 17.6016 2.84991 17.2702 2.92995C16.9415 3.00999 16.6136 3.08451 16.291 3.18387C15.9186 3.29795 15.5463 3.41295 15.1739 3.52703C14.6926 3.71195 14.213 3.89779 13.7316 4.08363C13.5041 4.17103 13.2826 4.29707 13.0611 4.40195C12.8431 4.50499 12.6251 4.60895 12.4062 4.71291C11.7897 5.06711 11.1671 5.41027 10.568 5.79759C9.83553 6.28703 9.13619 6.82339 8.46649 7.40575C7.80726 7.99915 7.18553 8.63119 6.59606 9.30003C5.96909 10.0333 5.3892 10.8033 4.85118 11.6101C4.39164 12.3222 3.96874 13.0564 3.58767 13.8191C3.27463 14.4713 2.99471 15.1374 2.75229 15.8219C2.58138 16.338 2.43576 16.8578 2.32066 17.3905C2.21863 17.9241 2.14363 18.4614 2.09393 19.0042C2.06079 19.4725 2.05121 19.9389 2.06516 20.409C2.0887 20.8451 2.13142 21.2775 2.19508 21.709C2.28053 22.2003 2.39215 22.6833 2.52644 23.1626C2.68951 23.698 2.88047 24.2197 3.0976 24.733C3.36356 25.3246 3.66615 25.8904 3.99315 26.4461C4.39078 27.0965 4.82504 27.7184 5.28982 28.3164C5.75023 28.8878 6.23941 29.4269 6.75825 29.9393C7.42097 30.5714 8.12119 31.1509 8.85105 31.6937C9.4257 32.1059 10.0187 32.4776 10.6343 32.8152C11.3572 33.197 12.0975 33.5319 12.8579 33.8226C13.6 34.0922 14.3534 34.313 15.119 34.4942C15.6849 34.6203 16.2587 34.7123 16.8281 34.8171C17.0566 34.8595 17.2946 34.8714 17.5248 34.8981C17.789 34.9285 18.0524 34.9588 18.3175 34.9883C18.8346 35.0094 19.3543 35.0278 19.874 35.0462Z" fill="black"/>
<path d="M18.6968 16.3675C18.1466 16.3537 17.6626 15.8467 17.6905 15.2552C17.755 13.8982 17.8824 12.5467 18.0175 11.1971C18.0855 10.5245 18.1666 9.85479 18.2565 9.18503C18.3035 8.84095 18.3585 8.49963 18.416 8.15831C18.4413 8.00743 18.4736 7.85747 18.5041 7.70843C18.5634 7.41679 18.6532 7.08559 18.8799 6.88503C19.2034 6.59891 19.6011 6.50139 20.0013 6.67343C20.1269 6.72771 20.2446 6.81695 20.3379 6.92183C20.6344 7.25119 20.6954 7.73787 20.5245 8.13163C20.5219 8.14083 20.5193 8.15095 20.5167 8.16015C20.3405 9.05623 20.2246 9.96611 20.1234 10.8741C20.0231 11.7877 19.9377 12.7031 19.8609 13.6194C19.8165 14.1806 19.7781 14.7427 19.7519 15.3058C19.724 15.8891 19.2828 16.3675 18.7203 16.3675C18.7125 16.3684 18.7047 16.3684 18.6968 16.3675Z" fill="black"/>
<path d="M25.1671 14.521C24.895 14.5146 24.6334 14.3922 24.4459 14.1843C24.2506 13.969 24.1686 13.7013 24.1608 13.4087C24.1268 12.1769 24.1329 10.945 24.146 9.71311C24.1521 9.09395 24.1599 8.47387 24.1791 7.85471C24.1904 7.52443 24.2018 7.19415 24.2149 6.86295C24.2253 6.58051 24.2244 6.29347 24.2532 6.01195C24.3125 5.42223 24.8898 5.01559 25.4269 5.10115C25.6981 5.14439 25.9458 5.30447 26.1062 5.53907C26.2562 5.75711 26.3103 6.00827 26.2963 6.27047C26.2981 6.24839 26.3007 6.22539 26.3024 6.20331C26.2623 6.78843 26.2571 7.37999 26.2379 7.96695C26.2178 8.59347 26.2126 9.22183 26.2056 9.84927C26.1917 11.0517 26.1891 12.256 26.2213 13.4593C26.237 14.0435 25.7208 14.521 25.188 14.521C25.181 14.521 25.174 14.521 25.1671 14.521Z" fill="black"/>
<path d="M20.3624 79.3562C18.1213 79.2577 15.875 79.1234 13.6436 78.8805C12.5021 78.7554 11.3668 78.6027 10.2393 78.3764C9.74225 78.277 9.23737 78.1657 8.76649 77.9697C8.51361 77.8639 8.23194 77.7462 8.02353 77.5548C7.78547 77.3368 7.58928 77.104 7.46022 76.7967C7.31634 76.4563 7.28147 76.0847 7.26577 75.7167C7.25182 75.4048 7.25008 75.0975 7.26228 74.7865C7.3085 73.6908 7.40005 72.5951 7.46807 71.5012C7.53783 70.3503 7.60933 69.1994 7.68171 68.0466C7.82384 65.7715 7.99389 63.4972 8.16044 61.223C8.33048 58.8935 8.49006 56.5632 8.64528 54.2328C8.80311 51.8519 8.9653 49.4709 9.15714 47.0927C9.35858 44.5995 9.57307 42.1072 9.7902 39.6149C9.87391 38.6554 9.9585 37.6958 10.0431 36.7363C10.0841 36.2772 10.1242 35.8163 10.1643 35.3563C10.1852 35.1189 10.2062 34.8834 10.2253 34.646C10.2419 34.4464 10.2524 34.2394 10.3247 34.0535C10.5157 33.5558 11.0712 33.2826 11.5612 33.4307C12.0731 33.5843 12.3661 34.1198 12.2911 34.6543C12.292 34.6515 12.2928 34.6479 12.2937 34.6451C12.237 35.003 12.2292 35.3765 12.1969 35.7371C12.1551 36.2146 12.1132 36.6912 12.0714 37.1677C11.992 38.0629 11.9127 38.959 11.835 39.8551C11.6685 41.7705 11.5046 43.685 11.3424 45.6005C11.1592 47.8729 10.9796 50.1462 10.8288 52.4213C10.6657 54.8787 10.5035 57.3369 10.3282 59.7924C10.166 62.0694 9.98817 64.3436 9.83818 66.6215C9.68645 68.9004 9.55389 71.1811 9.41001 73.4608C9.36989 74.1057 9.31147 74.7507 9.31234 75.3965C9.31932 75.5538 9.32804 75.7111 9.34286 75.8675C9.39693 75.8942 9.45274 75.9191 9.50855 75.9421C9.80415 76.0423 10.1024 76.1251 10.4041 76.1969C11.0023 76.3165 11.5996 76.4361 12.2048 76.5152C12.9233 76.61 13.6418 76.6955 14.363 76.7728C16.168 76.932 17.9748 77.0525 19.7833 77.1528C21.5762 77.2521 23.3672 77.242 25.1601 77.1758C26.6495 77.1013 28.1414 77.0157 29.6247 76.8492C31.1028 76.6845 32.5738 76.472 34.0397 76.2116C34.0187 76.2153 33.9969 76.219 33.976 76.2236C34.6562 76.0994 35.3511 75.9973 36.0173 75.8013C36.0426 75.7912 36.0679 75.7811 36.0932 75.7709C36.1124 75.7608 36.1316 75.7498 36.1508 75.7397C36.163 75.7277 36.1743 75.7157 36.1865 75.7038C36.1935 75.6955 36.2005 75.6863 36.2083 75.678C36.2048 75.6826 36.2022 75.6872 36.1996 75.6918L36.2031 75.6881C36.2231 75.6559 36.2423 75.6228 36.2607 75.5888C36.3016 75.4949 36.3391 75.4002 36.374 75.3036C36.4202 75.1435 36.4621 74.9843 36.4996 74.8215C36.5824 74.3854 36.6286 73.9484 36.6749 73.5068C36.7333 72.4442 36.7647 71.3807 36.7516 70.3153C36.7376 69.1433 36.7054 67.973 36.6626 66.8019C36.6644 66.8488 36.6661 66.8948 36.6679 66.9408C36.4743 62.2745 36.2005 57.6065 35.6555 52.9697C35.373 50.5565 35.0529 48.1479 34.7347 45.7394C34.4312 43.4403 34.16 41.1385 33.9158 38.8311C33.6647 36.4501 33.4327 34.0664 33.1458 31.6891C33.0752 31.1013 33.5138 30.5539 34.0632 30.4941C34.6309 30.4315 35.1253 30.874 35.1959 31.4619C35.4567 33.623 35.672 35.7905 35.8979 37.9553C36.1386 40.2645 36.4019 42.5709 36.7019 44.8718C37.0018 47.1819 37.3253 49.4884 37.5965 51.8022C37.8712 54.1436 38.1067 56.4896 38.2776 58.842C38.4511 61.2294 38.5889 63.6168 38.6892 66.0088C38.7886 68.3833 38.8932 70.7735 38.7598 73.1489C38.7171 73.8969 38.6578 74.6513 38.4912 75.3818C38.3491 76.012 38.1459 76.6339 37.7395 77.1325C37.58 77.3267 37.3786 77.5189 37.1597 77.6376C36.9234 77.7646 36.6862 77.8575 36.4324 77.9357C36.2127 78.0029 35.9833 78.0415 35.7584 78.0884C35.4968 78.1427 35.2334 78.1924 34.971 78.2421C34.4696 78.3368 33.9673 78.4261 33.4633 78.5098C31.3138 78.8658 29.1564 79.105 26.9852 79.2467C25.5211 79.3415 24.0561 79.3994 22.5903 79.3994C21.8474 79.4031 21.1053 79.3884 20.3624 79.3562Z" fill="black"/>
<path d="M8.81968 105.827C8.34357 105.63 7.93022 105.281 7.58404 104.891C7.17246 104.426 6.8603 103.841 6.69549 103.229C6.36849 102.015 6.54638 100.573 7.50035 99.7185C8.06715 99.2116 8.84235 99.15 9.55565 99.1445C9.99513 99.1408 10.4302 99.2346 10.8575 99.3294C11.2848 99.4232 11.7095 99.5483 12.1193 99.7093C12.8518 99.9945 13.525 100.426 14.2531 100.721C14.2583 100.723 14.2636 100.725 14.2697 100.727C14.3002 100.532 14.3194 100.336 14.3377 100.139C14.5034 97.9613 14.6499 95.7819 14.8112 93.6033C14.9847 91.2647 15.1783 88.9279 15.3902 86.592C15.6221 84.0436 15.834 81.4915 16.1209 78.9486C16.1872 78.3598 16.7531 77.9513 17.2946 78.0378C17.8632 78.1289 18.2242 78.6883 18.1579 79.2761C17.9452 81.1585 17.7821 83.0481 17.6086 84.9351C17.4324 86.8579 17.2589 88.7816 17.0976 90.7071C17.0984 90.6915 17.1002 90.6759 17.101 90.6602C17.0993 90.6869 17.0967 90.7136 17.095 90.7393C17.0932 90.7596 17.0915 90.7789 17.0897 90.7991C17.0906 90.7844 17.0923 90.7688 17.0932 90.7541C16.9153 93.0145 16.7522 95.2768 16.5892 97.5381C16.5499 98.0809 16.5107 98.6228 16.4723 99.1647C16.4305 99.7379 16.4043 100.316 16.3302 100.885C16.3023 101.104 16.2648 101.321 16.1924 101.528C16.0878 101.826 15.9404 102.086 15.759 102.338C15.6779 102.451 15.5846 102.55 15.4818 102.636C15.4957 102.849 15.4512 103.068 15.3396 103.261C14.9202 103.987 14.3909 104.625 13.7325 105.118C12.8675 105.765 11.842 106.066 10.7948 106.13C10.6831 106.137 10.5715 106.141 10.4617 106.141C9.90009 106.142 9.35422 106.048 8.81968 105.827ZM10.5968 103.968C10.7948 103.954 10.9918 103.936 11.1889 103.907C11.3659 103.871 11.5403 103.828 11.7147 103.777C11.8289 103.736 11.9406 103.69 12.0513 103.641C12.176 103.576 12.2989 103.507 12.4184 103.433C12.5431 103.346 12.6635 103.254 12.7803 103.156C12.8841 103.059 12.9835 102.959 13.0785 102.853C13.1352 102.785 13.1901 102.715 13.2442 102.644C13.0742 102.568 12.9085 102.485 12.7463 102.404C12.2649 102.163 11.7897 101.906 11.2927 101.704C11.0154 101.615 10.7372 101.532 10.4547 101.46C10.2349 101.412 10.0161 101.368 9.79456 101.336C9.65504 101.327 9.51639 101.321 9.37599 101.321C9.24345 101.33 9.1118 101.341 8.98012 101.358C8.92432 101.369 8.86937 101.38 8.81356 101.392C8.8092 101.397 8.80571 101.4 8.80135 101.405C8.78565 101.425 8.76998 101.445 8.75515 101.466C8.73597 101.5 8.71678 101.535 8.69759 101.569C8.68538 101.596 8.67405 101.624 8.66358 101.652C8.65137 101.696 8.63918 101.738 8.62784 101.78C8.61825 101.834 8.6104 101.888 8.60517 101.942C8.60168 102.007 8.59993 102.071 8.59993 102.136C8.6069 102.244 8.61823 102.349 8.63218 102.456C8.64439 102.517 8.65922 102.578 8.67492 102.639C8.69672 102.708 8.72026 102.776 8.74642 102.843C8.78828 102.935 8.83276 103.024 8.87985 103.113C8.9313 103.194 8.98536 103.273 9.04117 103.35C9.09872 103.418 9.15712 103.483 9.21816 103.548C9.27659 103.6 9.3359 103.651 9.39694 103.699C9.43182 103.722 9.4667 103.744 9.50245 103.766C9.56611 103.798 9.63062 103.827 9.69602 103.856C9.76578 103.879 9.83554 103.9 9.90617 103.918C9.98727 103.933 10.0675 103.947 10.1495 103.959C10.3003 103.968 10.4477 103.971 10.5968 103.968Z" fill="black"/>
<path d="M32.6567 104.992C32.1047 104.865 31.5832 104.677 31.081 104.403C30.1392 103.887 29.4067 103.042 28.8896 102.075C28.7675 101.847 28.7405 101.586 28.7911 101.342C28.5757 101.095 28.4501 100.775 28.4057 100.444C28.3211 99.8179 28.3272 99.1776 28.3071 98.5465C28.2906 98.0092 28.2749 97.4728 28.2609 96.9356C28.1981 94.6172 28.1493 92.2978 28.1092 89.9785C28.0638 87.362 28.0211 84.7456 27.9269 82.1309C27.8921 81.3618 27.8354 80.5899 27.824 79.8199C27.8162 79.2265 28.3333 78.7444 28.8783 78.7582C29.4556 78.772 29.8767 79.278 29.8855 79.8705C29.8855 79.8797 29.8855 79.8898 29.8855 79.899C29.9334 81.0012 29.9927 82.1042 30.0241 83.2064C30.0607 84.4594 30.0904 85.7125 30.1157 86.9655C30.1628 89.2333 30.1933 91.502 30.243 93.7698C30.284 95.6218 30.3267 97.4747 30.3912 99.3276C30.6877 99.1583 30.9815 98.9835 31.285 98.828C31.7393 98.5961 32.2084 98.4121 32.7029 98.299C33.2889 98.1656 33.9097 98.1619 34.5027 98.2429C34.671 98.2659 34.8384 98.2889 35.0058 98.3109C35.3145 98.3533 35.6058 98.4444 35.897 98.5538C36.4638 98.7682 36.9792 99.1656 37.3942 99.6183C37.7291 99.9844 37.9977 100.461 38.1128 100.956C38.2357 101.482 38.2253 102.004 38.084 102.525C37.8067 103.547 36.953 104.387 36.0392 104.781C35.7261 104.917 35.3913 105.026 35.0547 105.076C34.753 105.122 34.4539 105.14 34.1487 105.15C34.0972 105.152 34.0458 105.153 33.9943 105.153C33.5479 105.153 33.0909 105.091 32.6567 104.992ZM34.3466 102.971C34.4861 102.959 34.623 102.944 34.7617 102.924C34.8768 102.896 34.9893 102.866 35.1018 102.832C35.1584 102.812 35.2134 102.789 35.2692 102.765C35.3363 102.731 35.4026 102.695 35.4671 102.656C35.5543 102.594 35.638 102.53 35.72 102.463C35.7758 102.41 35.829 102.356 35.8813 102.301C35.9223 102.249 35.9607 102.198 35.9982 102.145C36.0182 102.111 36.0365 102.078 36.0548 102.044C36.0688 102.014 36.081 101.984 36.0932 101.952C36.108 101.903 36.122 101.852 36.1342 101.801C36.1377 101.78 36.1403 101.759 36.1429 101.738C36.1438 101.714 36.1438 101.69 36.1438 101.666C36.1412 101.638 36.1386 101.61 36.1359 101.582C36.129 101.548 36.122 101.515 36.1133 101.482C36.1063 101.462 36.0993 101.442 36.0915 101.421C36.0662 101.369 36.0392 101.317 36.0112 101.266C35.9921 101.237 35.9711 101.207 35.9502 101.179C35.8961 101.115 35.8412 101.054 35.7837 100.996C35.7183 100.938 35.6511 100.881 35.5822 100.827C35.4994 100.771 35.4157 100.72 35.3302 100.669C35.2317 100.621 35.1331 100.576 35.0329 100.536C34.9962 100.524 34.9596 100.514 34.923 100.503C34.6405 100.445 34.3518 100.409 34.0649 100.379C33.9045 100.37 33.7458 100.365 33.5853 100.369C33.4685 100.378 33.3534 100.39 33.2374 100.406C33.1031 100.433 32.9715 100.466 32.8398 100.504C32.6584 100.57 32.4814 100.642 32.3052 100.722C31.8518 100.957 31.4132 101.22 30.965 101.467C31.0095 101.531 31.0557 101.595 31.1028 101.659C31.2214 101.802 31.3469 101.939 31.4777 102.072C31.5475 102.134 31.6181 102.196 31.6905 102.254C31.8405 102.356 31.9939 102.452 32.1509 102.542C32.2712 102.6 32.3933 102.653 32.5172 102.703C32.6558 102.752 32.7953 102.795 32.9375 102.835C33.206 102.892 33.4746 102.936 33.7475 102.965C33.9472 102.974 34.1452 102.974 34.3466 102.971Z" fill="black"/>
<path d="M16.2779 52.8482C15.1879 52.7857 14.097 52.6872 13.0122 52.5658C11.8821 52.4407 10.7512 52.3008 9.63064 52.0947C8.52843 51.8914 7.4454 51.62 6.37807 51.264C5.8165 51.0772 5.27587 50.8196 4.76662 50.5087C4.18761 50.1554 3.71847 49.6485 3.39409 49.0339C3.12551 48.5242 3.00606 47.9069 2.99298 47.3282C2.97554 46.5609 3.11505 45.7927 3.37927 45.0788C3.66005 44.3198 4.05071 43.616 4.46666 42.9325C4.7518 42.4651 5.04217 42.0014 5.34475 41.5451C5.95602 40.626 6.58037 39.7171 7.22303 38.8228C7.87616 37.9166 8.52841 37.0095 9.19985 36.118C9.53819 35.67 9.8774 35.2247 10.2341 34.7932C10.4093 34.5807 10.6064 34.3673 10.8619 34.2651C11.0729 34.1805 11.3092 34.1676 11.5272 34.2329C11.9127 34.3489 12.2484 34.7362 12.271 35.1713C12.2859 35.4593 12.2257 35.7316 12.0522 35.9625C11.9833 36.0536 11.9013 36.1318 11.8098 36.1944C11.8063 36.1981 11.8028 36.2017 11.7993 36.2063C10.9247 37.2689 10.1259 38.3987 9.31498 39.5137C8.50314 40.6297 7.71397 41.7631 6.94835 42.9159C6.46439 43.6712 5.98044 44.4284 5.56972 45.2315C5.46421 45.4551 5.36918 45.6814 5.28198 45.9142C5.22006 46.1055 5.16773 46.2987 5.12239 46.4947C5.0971 46.6401 5.07618 46.7845 5.05961 46.9317C5.05351 47.0587 5.05089 47.1847 5.05176 47.3117C5.05612 47.3834 5.06309 47.4552 5.07268 47.5269C5.09012 47.6217 5.11018 47.7137 5.13372 47.8075C5.15204 47.8627 5.17209 47.9179 5.19389 47.9722C5.21656 48.0191 5.24011 48.0661 5.2654 48.1111C5.29592 48.159 5.32817 48.2059 5.36218 48.251C5.38921 48.2823 5.41625 48.3135 5.44502 48.3439C5.52961 48.4212 5.61594 48.4939 5.70576 48.5638C5.82522 48.642 5.94469 48.7165 6.06677 48.7873C6.32924 48.9207 6.59694 49.0385 6.86987 49.1471C7.53608 49.3899 8.21887 49.5684 8.90513 49.7359C9.77626 49.9217 10.65 50.0772 11.5316 50.1986C12.4376 50.3237 13.3462 50.4231 14.2566 50.5133C16.3904 50.7009 18.525 50.8058 20.6658 50.838C22.7856 50.8693 24.9063 50.8316 27.027 50.7985C27.7237 50.7874 28.4205 50.7755 29.1172 50.7653C29.6788 50.758 30.1366 51.3026 30.1235 51.8785C30.1096 52.4867 29.6308 52.9319 29.0693 52.9402C26.9608 52.9706 24.8523 53.0111 22.7438 53.0193C22.5842 53.0203 22.4246 53.0203 22.265 53.0203C20.2682 53.0184 18.273 52.9641 16.2779 52.8482Z" fill="black"/>
<path d="M31.1429 55.6092C30.0346 55.577 28.9324 55.4104 27.8485 55.1749C26.3722 54.8548 24.9308 54.3865 23.4859 53.9403C22.1003 53.5134 20.7181 53.0561 19.3177 52.6881C19.1084 52.6431 18.9009 52.6026 18.6881 52.5759C18.4623 52.5593 18.2373 52.5557 18.0106 52.5621C17.783 52.5777 17.5563 52.6072 17.3287 52.633C16.1837 52.8538 15.0597 53.1675 13.947 53.5226C13.1997 53.7728 12.4638 54.0452 11.7478 54.381C11.2351 54.6211 10.6081 54.2797 10.418 53.7498C10.323 53.4876 10.33 53.1895 10.4355 52.9319C10.5497 52.6532 10.7581 52.4683 11.0162 52.3477C12.0025 51.8841 13.0306 51.54 14.0665 51.2198C14.5784 51.0616 15.0963 50.9181 15.616 50.7883C16.127 50.6605 16.6485 50.5243 17.1708 50.4636C17.6156 50.4139 18.0541 50.3762 18.5024 50.3872C18.9558 50.3983 19.4119 50.4746 19.8522 50.5896C20.3702 50.7258 20.8829 50.8804 21.3957 51.034C22.4054 51.3367 23.4117 51.6531 24.4198 51.9641C25.6249 52.3367 26.8291 52.7056 28.0525 53.0028C28.8635 53.1767 29.6736 53.3091 30.4967 53.3965C31.0513 53.4324 31.6024 53.4481 32.1579 53.4416C32.525 53.4168 32.8886 53.3827 33.2557 53.3386C33.6272 53.2687 33.9926 53.1914 34.3562 53.081C34.5698 53.0056 34.7765 52.9218 34.9832 52.8289C35.2273 52.7065 35.4645 52.5722 35.6973 52.425C35.9188 52.2714 36.1333 52.1104 36.3417 51.9374C36.5039 51.7875 36.6583 51.6338 36.8091 51.4719C36.9818 51.2667 37.144 51.0551 37.2966 50.8343C37.3838 50.6927 37.4649 50.5501 37.5433 50.4019C37.6061 50.263 37.6646 50.1241 37.7186 49.9815C37.7631 49.838 37.8023 49.6945 37.8381 49.5482C37.8765 49.3393 37.9061 49.1305 37.9288 48.9198C37.9593 48.4479 37.9532 47.9787 37.9384 47.5058C37.8259 45.8792 37.6262 44.2655 37.3855 42.6546C37.1954 41.535 36.994 40.419 36.742 39.3132C36.4769 38.1485 36.1726 36.9994 35.8491 35.8521C35.5534 34.8668 35.2439 33.8879 34.8637 32.9348C34.8306 32.8612 34.7966 32.7876 34.7599 32.7149C34.5672 32.4132 34.5358 32.0139 34.6736 31.6809C34.8262 31.3092 35.1419 31.0957 35.5107 31.0323C35.6406 31.0102 35.7793 31.0341 35.9049 31.0691C36.1351 31.1325 36.3243 31.2825 36.4542 31.4775L36.4551 31.4766C36.5938 31.6744 36.6914 31.9155 36.783 32.1418C36.8911 32.4123 36.9931 32.6828 37.0943 32.956C37.2835 33.4666 37.4474 33.9901 37.6053 34.5117C37.9567 35.681 38.2776 36.8577 38.5714 38.0454C39.1365 40.3243 39.5054 42.6574 39.7809 44.9924C39.9152 46.1304 40.0294 47.2841 40.012 48.4331C40.0042 48.9934 39.9597 49.5602 39.8306 50.103C39.7443 50.4673 39.6309 50.815 39.487 51.1573C39.3205 51.5556 39.0929 51.9181 38.8549 52.2723C38.4328 52.9025 37.8843 53.4407 37.3036 53.9025C36.6809 54.3984 35.9737 54.7793 35.243 55.0618C34.4835 55.3562 33.6856 55.4767 32.8877 55.5733C32.552 55.6137 32.2111 55.6257 31.8701 55.6257C31.6277 55.6229 31.3844 55.6165 31.1429 55.6092Z" fill="black"/>
<path d="M16.0668 52.2521C16.0634 52.2484 16.059 52.2456 16.0555 52.242C15.9779 52.1914 15.8994 52.1444 15.8192 52.0994C15.7163 52.0524 15.6143 52.0055 15.5105 51.9586C15.051 51.7912 14.5897 51.6568 14.1162 51.5372C13.3209 51.3735 12.5257 51.2419 11.7191 51.1527C10.8845 51.0828 10.0518 51.0542 9.21466 51.0818C9.09607 51.0873 8.97837 51.0947 8.86065 51.1012C8.58771 51.1186 8.32784 51.0533 8.10984 50.8712C7.89445 50.6899 7.7558 50.4213 7.72616 50.1342C7.66948 49.5648 8.08193 48.9741 8.6435 48.9392C10.18 48.8435 11.7112 48.9226 13.2328 49.1609C13.9671 49.275 14.7048 49.4231 15.4172 49.642C15.78 49.7534 16.1392 49.8766 16.4854 50.0349C16.7793 50.1692 17.1071 50.3228 17.3487 50.551C17.558 50.7479 17.7018 50.9889 17.7324 51.2879C17.7603 51.5694 17.6818 51.8574 17.5135 52.0791C17.3173 52.3395 16.9964 52.4904 16.6807 52.4904C16.4601 52.4904 16.2404 52.4158 16.0668 52.2521Z" fill="black"/>
<path d="M31.4917 57.5218C31.2091 57.4758 30.9894 57.313 30.8115 57.083C30.7286 56.9763 30.6449 56.8677 30.5604 56.761C30.59 56.7987 30.6205 56.8364 30.6502 56.8742C29.8235 55.83 28.9768 54.7848 28.0525 53.8345C28.0281 53.8124 28.0037 53.7912 27.9784 53.7701C27.5685 53.6174 27.2398 53.1941 27.2764 52.7176C27.3069 52.3211 27.4866 51.9669 27.8284 51.7727C28.0342 51.6559 28.2757 51.6191 28.5059 51.6559C28.7745 51.6982 28.9882 51.8565 29.2062 52.0165C29.371 52.138 29.514 52.3027 29.6587 52.4508C29.7546 52.5492 29.8471 52.6514 29.9395 52.7535C30.1113 52.9412 30.2796 53.1334 30.4461 53.3248C31.1481 54.1298 31.8256 54.9605 32.4814 55.8088C32.8363 56.2679 32.6846 56.9947 32.2503 57.3268C32.0733 57.4611 31.8596 57.5338 31.6434 57.5338C31.5937 57.5338 31.5431 57.5301 31.4917 57.5218ZM29.2899 53.0552C29.2933 53.0497 29.296 53.0442 29.2995 53.0387C29.3082 52.9945 29.3178 52.9494 29.3273 52.9062C29.33 52.8722 29.3326 52.839 29.3352 52.805C29.3265 52.8905 29.3117 52.9743 29.2899 53.0552Z" fill="black"/>
<path d="M35.4462 56.7665C34.4843 56.1602 33.5086 55.576 32.5293 55.0001C31.5658 54.4334 30.5987 53.875 29.6325 53.3156C29.5759 53.2935 29.5201 53.2668 29.4634 53.2337C29.0439 52.989 28.9009 52.4664 29.0021 52C29.112 51.4885 29.6666 51.1287 30.1479 51.2244C30.1854 51.2318 30.2229 51.241 30.2595 51.252C30.2229 51.2438 30.1871 51.2355 30.1505 51.2272H30.1514C30.1252 51.2244 30.1 51.2226 30.0747 51.2208C30.2055 51.2355 30.3293 51.2695 30.4444 51.3256C30.4304 51.3183 30.4173 51.3109 30.4034 51.3036H30.4043C30.3694 51.2907 30.3336 51.2769 30.2988 51.264C30.6057 51.3634 30.8795 51.563 31.1577 51.7286C31.4289 51.8887 31.7035 52.0451 31.9773 52.2015C32.4674 52.4821 32.9575 52.7636 33.4449 53.0497C34.4722 53.6523 35.495 54.2632 36.5039 54.8998C36.9853 55.2044 37.1475 55.8842 36.8588 56.3912C36.667 56.7288 36.3199 56.9174 35.9668 56.9174C35.7889 56.9183 35.6084 56.8696 35.4462 56.7665Z" fill="black"/>
<path d="M29.9351 52.8427C29.7538 52.8087 29.5933 52.7369 29.4468 52.6173C29.1329 52.3652 28.9672 51.8675 29.0972 51.4664C29.2053 51.1389 29.4085 50.8711 29.7241 50.7451C29.9883 50.6393 30.2743 50.6145 30.5525 50.5832C30.9571 50.5363 31.3713 50.5455 31.7777 50.5353C32.5764 50.5179 33.3769 50.539 34.1748 50.5482C35.672 50.5648 37.1701 50.597 38.6665 50.6779C39.2272 50.7083 39.6858 51.1849 39.6728 51.7902C39.6597 52.3698 39.1792 52.8823 38.6176 52.8519C37.3968 52.7857 36.1743 52.7553 34.9517 52.7341C33.703 52.7121 32.4526 52.6955 31.2039 52.7213C30.9554 52.7341 30.7086 52.7479 30.4618 52.7838C30.3485 52.8317 30.2255 52.8593 30.1008 52.8593C30.045 52.8583 29.9901 52.8537 29.9351 52.8427Z" fill="black"/>
<path d="M14.7571 29.8004C14.3534 29.564 14.1712 29.023 14.2959 28.5648C14.4267 28.0837 14.8391 27.8481 15.2193 27.6099C15.4329 27.4765 15.6614 27.3615 15.8872 27.2538C16.1419 27.1342 16.3939 27.0082 16.6546 26.9042C16.8918 26.8095 17.1264 26.7046 17.3688 26.6246C17.6792 26.5224 17.9905 26.3982 18.307 26.3173C18.6166 26.2382 18.9262 26.1581 19.2366 26.0799C19.5244 26.0063 19.8208 25.964 20.1121 25.9088C20.6213 25.8122 21.1367 25.7441 21.652 25.7027C22.2075 25.6586 22.7656 25.6162 23.3228 25.6153C24.4137 25.6125 25.5045 25.6457 26.5902 25.7818C28.1755 25.9796 29.7712 26.2179 31.3129 26.6715C31.8544 26.8316 32.1727 27.4507 32.0192 28.0174C31.864 28.5897 31.2842 28.9209 30.7435 28.7626C30.454 28.6771 30.1645 28.6016 29.8715 28.5317C28.5251 28.2309 27.1605 28.0266 25.7923 27.8813C25.2299 27.838 24.6692 27.8077 24.1059 27.793C23.5661 27.7782 23.0263 27.7976 22.4874 27.8178C22.1927 27.8408 21.8979 27.8647 21.6023 27.8877C21.2875 27.9126 20.971 27.9705 20.658 28.0128C20.3597 28.0708 20.0606 28.1269 19.7615 28.1839C19.4328 28.2465 19.1075 28.3514 18.7832 28.4351C18.4317 28.5501 18.0786 28.6605 17.735 28.7994C17.374 28.9448 17.0234 29.1012 16.672 29.2659C16.4549 29.3846 16.2395 29.5042 16.0276 29.6339C16.0189 29.6403 16.0102 29.6458 16.0015 29.6523C15.8079 29.8482 15.5515 29.9485 15.2899 29.9485C15.1094 29.9467 14.9254 29.8979 14.7571 29.8004Z" fill="black"/>
</svg>
