<svg width="51" height="107" viewBox="0 0 51 107" fill="none" xmlns="http://www.w3.org/2000/svg">
<path d="M22.1558 37.1963C21.8584 37.1861 21.5628 37.1751 21.2655 37.165C20.9899 37.1549 20.7117 37.1043 20.4379 37.073C20.1467 37.0399 19.8546 37.0067 19.5616 36.9727C19.293 36.9423 19.0227 36.8733 18.7567 36.8227C18.4899 36.7731 18.2248 36.7243 17.9589 36.6746C17.1784 36.5292 16.405 36.2919 15.6515 36.0361C14.2337 35.5522 12.8638 34.8935 11.5845 34.0867C10.9445 33.6828 10.3367 33.2163 9.74287 32.7398C9.11242 32.2347 8.52033 31.6799 7.95092 31.1003C6.82604 29.9559 5.87381 28.632 5.05675 27.2299C4.24666 25.8379 3.65979 24.3153 3.31099 22.7247C2.96917 21.168 2.95959 19.5608 3.1584 17.983C3.35809 16.3868 3.85948 14.8504 4.51348 13.4014C5.82584 10.4923 7.78087 7.88783 10.1039 5.80587C11.0613 4.94659 12.1007 4.15537 13.2064 3.51965C13.7227 3.22341 14.2302 2.90601 14.7665 2.65117C15.2914 2.40185 15.8102 2.13599 16.3509 1.92807C16.691 1.79651 17.0302 1.66587 17.3703 1.53523C17.5848 1.45151 17.8062 1.38987 18.026 1.32179C18.3574 1.21967 18.6896 1.11755 19.0218 1.01635C19.2512 0.945512 19.4883 0.898568 19.7203 0.842448C19.9976 0.775288 20.2731 0.707207 20.5496 0.640047C20.8556 0.566447 21.1704 0.519535 21.4791 0.458815C22.0764 0.342895 22.6746 0.253655 23.2763 0.165335C23.4751 0.135895 23.6704 0.11473 23.8701 0.09725C24.2111 0.06873 24.5538 0.0218199 24.8956 0.0153799C25.1851 0.0107799 25.4764 0.006188 25.7659 0.000667998C26.044 -0.003932 26.3205 0.0163069 26.5978 0.0282669C27.0748 0.0503469 27.5491 0.0990977 28.0191 0.185578C28.3191 0.240778 28.6138 0.324511 28.906 0.417431C29.0228 0.391671 29.144 0.389831 29.2661 0.417431C31.3772 0.896751 33.4935 1.42758 35.5218 2.21602C36.5255 2.60702 37.4952 3.09555 38.4334 3.63743C38.9104 3.91251 39.3769 4.20875 39.8234 4.53719C40.3004 4.88771 40.7538 5.25846 41.202 5.65038C42.0932 6.43054 42.8649 7.35329 43.5896 8.30181C44.2462 9.16201 44.8269 10.1142 45.31 11.094C45.5812 11.6451 45.8402 12.2008 46.0599 12.7776C46.2814 13.36 46.4593 13.9506 46.6119 14.5569C46.7514 15.1117 46.8404 15.6784 46.8927 16.2497C46.9258 16.6131 46.9249 16.9811 46.9372 17.3454C46.9467 17.6527 46.9319 17.9729 46.9066 18.2801C46.8831 18.5525 46.8753 18.8312 46.8369 19.1026C46.7915 19.4136 46.7575 19.7291 46.693 20.0355C46.6354 20.3069 46.5936 20.5884 46.5169 20.8534C46.4297 21.1533 46.3555 21.4615 46.2491 21.7541C46.1532 22.0163 46.0695 22.2886 45.9588 22.5434C45.828 22.8424 45.7068 23.1479 45.5629 23.4386C45.4295 23.7091 45.2952 23.9804 45.1618 24.2509C44.8941 24.7928 44.5697 25.3034 44.2549 25.8149C43.9715 26.2759 43.6567 26.7239 43.3175 27.1407C43.1239 27.3799 42.9382 27.6282 42.7324 27.8555C42.5004 28.1094 42.2693 28.3633 42.0374 28.6173C41.6895 28.9991 41.3102 29.356 40.9335 29.7065C40.4565 30.1481 39.9734 30.5741 39.4816 30.9955C39.0674 31.3506 38.6305 31.6744 38.2006 32.0084C37.9974 32.1657 37.7742 32.3019 37.5623 32.4463C37.346 32.5953 37.1315 32.7499 36.9074 32.887C36.4025 33.1961 35.9029 33.5098 35.3814 33.7895C35.0972 33.9422 34.812 34.0959 34.5269 34.2486C34.2696 34.3866 33.9976 34.4988 33.7351 34.623C33.484 34.7408 33.2328 34.8594 32.9817 34.9772C32.7166 35.1023 32.4349 35.1971 32.1637 35.3057C31.9222 35.4023 31.6807 35.4998 31.4382 35.5973C31.1575 35.7105 30.8592 35.7896 30.5723 35.8852C30.316 35.9699 30.0605 36.0555 29.8032 36.1401C29.5172 36.2349 29.2225 36.3002 28.9321 36.3774C28.6287 36.4575 28.3252 36.5375 28.0226 36.6176C27.7863 36.6792 27.5413 36.7133 27.3023 36.7602C26.9814 36.8218 26.6597 36.8853 26.3396 36.9479C26.0859 36.9976 25.8278 37.0169 25.5714 37.0454C25.247 37.0831 24.9227 37.119 24.5974 37.1567C24.348 37.1843 24.0899 37.1778 23.8396 37.1861C23.5213 37.1972 23.2039 37.2082 22.8848 37.2202C22.8508 37.2211 22.8176 37.222 22.7836 37.222C22.5752 37.222 22.3633 37.2036 22.1558 37.1963ZM22.9022 35.0462C23.163 35.0554 23.4315 35.0287 23.6923 35.0186C23.9172 35.0103 24.1422 35.003 24.3672 34.9947C24.8921 34.9349 25.4179 34.8751 25.9429 34.8153C26.4678 34.7132 26.9928 34.6101 27.5186 34.508C27.8003 34.4528 28.0819 34.359 28.3592 34.2854C28.6365 34.2127 28.9138 34.1391 29.1902 34.0655C29.5922 33.9312 29.9942 33.7987 30.3962 33.6653C30.7171 33.5586 31.0275 33.4335 31.3423 33.3065C31.6841 33.1694 32.0321 33.0452 32.366 32.8879C32.7637 32.7011 33.1622 32.5135 33.5598 32.3267C33.9784 32.1031 34.3952 31.8777 34.8138 31.6533C34.9882 31.5594 35.1556 31.4453 35.3247 31.3414C35.5384 31.2107 35.7511 31.0801 35.9656 30.9495C36.4627 30.61 36.958 30.2733 37.435 29.9025C37.6765 29.7157 37.9224 29.5345 38.1544 29.3349C38.4221 29.1049 38.6907 28.8758 38.9584 28.6458C39.3447 28.2879 39.7327 27.9337 40.1042 27.5593C40.5044 27.1563 40.8881 26.7441 41.2709 26.3237C41.4723 26.0744 41.6738 25.826 41.8761 25.5767C41.9729 25.4571 42.0557 25.3209 42.1438 25.1948C42.2406 25.0578 42.3374 24.9207 42.4341 24.7827C42.6661 24.4073 42.8989 24.0329 43.1117 23.6447C43.3332 23.2417 43.5399 22.835 43.7439 22.4229C43.8538 22.169 43.9645 21.9141 44.0753 21.6602C44.1712 21.4394 44.2462 21.2039 44.3264 20.9757C44.3979 20.7292 44.4694 20.4817 44.5409 20.2351C44.6142 19.984 44.6534 19.7153 44.7074 19.4577C44.6996 19.4945 44.6918 19.5313 44.6848 19.5681C44.724 19.2967 44.7633 19.0272 44.8034 18.7558C44.8409 18.4908 44.8487 18.2167 44.8714 17.949C44.867 17.9959 44.8644 18.0419 44.8601 18.0879C44.8662 17.8229 44.8723 17.5579 44.8784 17.293C44.8836 17.0841 44.8697 16.8725 44.8601 16.6628C44.8383 16.3757 44.8077 16.0914 44.7668 15.8081C44.6935 15.3978 44.5932 14.9994 44.493 14.5965C44.4241 14.3812 44.356 14.164 44.2871 13.9488C44.2139 13.7178 44.1145 13.4915 44.0282 13.2652C43.8389 12.8374 43.6419 12.4179 43.4361 11.9984C43.2364 11.5954 43.0062 11.2099 42.7777 10.8235C42.401 10.2467 42.0086 9.6901 41.5935 9.14454C41.1828 8.65234 40.759 8.18222 40.3143 7.72406C40.0353 7.46094 39.7536 7.20426 39.4659 6.95126C39.1877 6.70838 38.8886 6.49034 38.5913 6.2723C38.1073 5.94478 37.6164 5.64025 37.1132 5.34769C36.2491 4.88401 35.3709 4.47186 34.4623 4.11582C32.9546 3.5813 31.4173 3.15442 29.8686 2.77906C29.5669 2.91614 29.2111 2.89773 28.9181 2.71465C28.8632 2.68981 28.8083 2.66589 28.7533 2.64381C28.4464 2.53985 28.1403 2.43866 27.8273 2.35862C27.5256 2.29606 27.2239 2.2519 26.9178 2.22062C26.2542 2.16726 25.5932 2.1737 24.9288 2.18474C24.7465 2.20038 24.5634 2.21601 24.3803 2.23073C24.1762 2.24729 23.9687 2.25374 23.7673 2.28318C23.3112 2.35034 22.8551 2.41749 22.3991 2.48465C22.032 2.55641 21.664 2.62818 21.2969 2.69994C20.962 2.76526 20.6315 2.84897 20.3002 2.92901C19.9714 3.00905 19.6436 3.08357 19.3209 3.18293C18.9486 3.29701 18.5762 3.41203 18.2039 3.52611C17.7225 3.71195 17.243 3.89685 16.7616 4.08269C16.534 4.17009 16.3125 4.29614 16.091 4.40102C15.873 4.50406 15.655 4.60803 15.4362 4.71199C14.8196 5.06619 14.197 5.40933 13.598 5.79573C12.8655 6.28517 12.1661 6.82154 11.4965 7.40298C10.8372 7.99638 10.2155 8.62841 9.62602 9.29725C8.99905 10.0305 8.41917 10.8005 7.88114 11.6074C7.4216 12.3195 6.99867 13.0536 6.61761 13.8163C6.30543 14.4686 6.02467 15.1347 5.78225 15.8191C5.61134 16.3353 5.46572 16.8551 5.35062 17.3877C5.24859 17.9223 5.17359 18.4586 5.12389 19.0014C5.09163 19.4697 5.08117 19.9361 5.09512 20.4063C5.11867 20.8423 5.16138 21.2747 5.22504 21.7062C5.31049 22.1975 5.42212 22.6805 5.5564 23.1598C5.71947 23.6953 5.91043 24.2169 6.12756 24.7302C6.39352 25.3218 6.69611 25.8876 7.02311 26.4433C7.42075 27.0938 7.85413 27.7157 8.31978 28.3137C8.78019 28.885 9.26938 29.4241 9.78822 29.9365C10.4509 30.5686 11.1512 31.1482 11.8819 31.691C12.4565 32.1031 13.0495 32.4748 13.6651 32.8124C14.388 33.1942 15.1283 33.5291 15.8887 33.8198C16.6308 34.0894 17.3842 34.3102 18.1498 34.4915C18.7157 34.6175 19.2895 34.7095 19.859 34.8144C20.0874 34.8567 20.3255 34.8687 20.5557 34.8953C20.819 34.9257 21.0832 34.9561 21.3475 34.9864C21.8628 35.0103 22.3834 35.0278 22.9022 35.0462Z" fill="black"/>
<path d="M21.7251 16.3684C21.1748 16.3546 20.6909 15.8477 20.7188 15.2561C20.7833 13.8991 20.9106 12.5476 21.0458 11.198C21.1138 10.5255 21.1949 9.85571 21.2847 9.18595C21.3309 8.84187 21.3867 8.50055 21.4443 8.15923C21.4696 8.00835 21.5018 7.85841 21.5323 7.70937C21.5916 7.41773 21.6814 7.08651 21.9082 6.88595C22.2317 6.59983 22.6293 6.50233 23.0296 6.67437C23.1551 6.72865 23.2728 6.81788 23.3661 6.92276C23.6626 7.25212 23.7237 7.7388 23.5528 8.13256C23.5502 8.14176 23.5475 8.15189 23.5449 8.16109C23.3688 9.05717 23.2528 9.96703 23.1517 10.8751C23.0514 11.7886 22.9659 12.704 22.8892 13.6204C22.8447 14.1816 22.8063 14.7437 22.7793 15.3058C22.7514 15.8891 22.3102 16.3684 21.7477 16.3684C21.7407 16.3693 21.7329 16.3684 21.7251 16.3684Z" fill="black"/>
<path d="M28.1961 14.522C27.9241 14.5155 27.6625 14.3932 27.475 14.1852C27.2797 13.97 27.1977 13.7022 27.1899 13.4097C27.1559 12.1778 27.162 10.9459 27.175 9.71402C27.1811 9.09486 27.189 8.47479 27.2082 7.85563C27.2195 7.52535 27.2309 7.19507 27.2439 6.86387C27.2544 6.58143 27.2535 6.2944 27.2823 6.01288C27.3416 5.42316 27.9189 5.0165 28.456 5.10206C28.7272 5.1453 28.9749 5.3054 29.1353 5.54C29.2853 5.75804 29.3394 6.00918 29.3254 6.27138C29.3271 6.2493 29.3289 6.2263 29.3315 6.20422C29.2914 6.78934 29.2861 7.38092 29.267 7.96788C29.2469 8.5944 29.2417 9.22275 29.2347 9.85019C29.2208 11.0536 29.2181 12.2569 29.2504 13.4603C29.2661 14.0445 28.7499 14.522 28.2171 14.522C28.2101 14.522 28.2031 14.522 28.1961 14.522Z" fill="black"/>
<path d="M23.3906 79.3562C21.1495 79.2577 18.9033 79.1234 16.6718 78.8805C15.5304 78.7554 14.3959 78.6027 13.2675 78.3764C12.7705 78.277 12.2656 78.1657 11.7947 77.9697C11.5418 77.8649 11.2602 77.7462 11.0518 77.5548C10.8137 77.3368 10.6175 77.104 10.4885 76.7967C10.3446 76.4563 10.3097 76.0847 10.294 75.7167C10.28 75.4048 10.2774 75.0975 10.2905 74.7866C10.3367 73.6908 10.4283 72.5951 10.4963 71.5012C10.5661 70.3503 10.6376 69.1994 10.71 68.0475C10.8521 65.7724 11.0221 63.4981 11.1878 61.2239C11.3579 58.8945 11.5174 56.5641 11.6726 54.2337C11.8305 51.8528 11.9935 49.4718 12.1845 47.0936C12.3859 44.6004 12.6004 42.1081 12.8176 39.6159C12.9013 38.6563 12.9859 37.6967 13.0705 36.7372C13.1114 36.2772 13.1515 35.8172 13.1916 35.3572C13.2126 35.1198 13.2335 34.8843 13.2527 34.6469C13.2693 34.4473 13.2797 34.2403 13.3521 34.0545C13.5431 33.5567 14.0985 33.2835 14.5886 33.4316C15.1005 33.5853 15.3935 34.1207 15.3185 34.6552C15.3193 34.6525 15.3202 34.6488 15.3211 34.646C15.2644 35.0039 15.2566 35.3774 15.2243 35.7381C15.1824 36.2156 15.1406 36.6921 15.0987 37.1687C15.0194 38.0638 14.94 38.9599 14.8615 39.856C14.695 41.7714 14.531 43.6859 14.3689 45.6014C14.1857 47.8738 14.0061 50.1471 13.8553 52.4214C13.6931 54.8787 13.53 57.3369 13.3556 59.7924C13.1934 62.0694 13.0155 64.3446 12.8655 66.6216C12.7138 68.9004 12.5813 71.1811 12.4374 73.4608C12.3973 74.1057 12.3388 74.7507 12.3397 75.3965C12.3467 75.5538 12.3554 75.7111 12.3702 75.8675C12.4243 75.8942 12.4801 75.9191 12.5359 75.9421C12.8315 76.0423 13.1289 76.1251 13.4315 76.1969C14.0297 76.3165 14.627 76.4361 15.2321 76.5152C15.9507 76.61 16.6692 76.6955 17.3903 76.7728C19.1954 76.932 21.0013 77.0525 22.8098 77.1528C24.6026 77.2512 26.3937 77.242 28.1866 77.1758C29.6759 77.1013 31.1679 77.0157 32.6512 76.8492C34.1292 76.6845 35.6003 76.4729 37.0661 76.2116C37.0452 76.2153 37.0234 76.2199 37.0025 76.2236C37.6826 76.0994 38.3776 75.9973 39.0438 75.8013C39.0691 75.7912 39.0944 75.781 39.1197 75.7709C39.1389 75.7608 39.1581 75.7498 39.1773 75.7397C39.1886 75.7277 39.2008 75.7157 39.2121 75.7038C39.2191 75.6955 39.2261 75.6863 39.2339 75.678C39.2313 75.6826 39.2278 75.6872 39.2252 75.6918L39.2287 75.6881C39.2488 75.6559 39.2679 75.6228 39.2863 75.5888C39.3272 75.4949 39.3647 75.4002 39.3996 75.3036C39.4458 75.1435 39.4868 74.9843 39.5243 74.8215C39.6071 74.3854 39.6534 73.9484 39.6996 73.5068C39.758 72.4442 39.7894 71.3807 39.7763 70.3153C39.7624 69.1433 39.7301 67.973 39.6865 66.8019C39.6882 66.8488 39.69 66.8948 39.6917 66.9408C39.4982 62.2745 39.2243 57.6065 38.6793 52.9697C38.3968 50.5565 38.0768 48.148 37.7585 45.7394C37.455 43.4403 37.1839 41.1385 36.9397 38.8311C36.6886 36.4502 36.4566 34.0664 36.1697 31.6891C36.0991 31.1013 36.5377 30.5539 37.0871 30.4941C37.6547 30.4315 38.1492 30.874 38.2198 31.4619C38.4805 33.623 38.6959 35.7905 38.9218 37.9552C39.1624 40.2644 39.4258 42.5709 39.7257 44.8718C40.0257 47.1819 40.3492 49.4884 40.6204 51.8022C40.8951 54.1436 41.1305 56.4896 41.3015 58.842C41.475 61.2294 41.6127 63.6168 41.713 66.0088C41.8124 68.3833 41.9171 70.7735 41.7837 73.149C41.7409 73.8969 41.6816 74.6513 41.5151 75.3827C41.373 76.0129 41.1698 76.6348 40.7634 77.1335C40.6039 77.3276 40.4024 77.5198 40.1835 77.6385C39.9472 77.7655 39.7101 77.8584 39.4563 77.9366C39.2366 78.0038 39.0072 78.0424 38.7822 78.0893C38.5206 78.1436 38.2573 78.1933 37.9948 78.243C37.4934 78.3368 36.9903 78.427 36.4871 78.5107C34.3377 78.8667 32.1803 79.106 30.009 79.2476C28.545 79.3424 27.08 79.4003 25.6142 79.4003C24.8756 79.404 24.1335 79.3893 23.3906 79.3562Z" fill="black"/>
<path d="M11.8479 105.828C11.3718 105.631 10.9585 105.282 10.6132 104.892C10.2016 104.427 9.88941 103.842 9.7246 103.23C9.3976 102.016 9.57549 100.574 10.5295 99.7195C11.0963 99.2126 11.8715 99.1509 12.5848 99.1454C13.0242 99.1417 13.4594 99.2355 13.8867 99.3303C14.3139 99.4241 14.7386 99.5493 15.1484 99.7103C15.8809 99.9955 16.5541 100.427 17.2822 100.722C17.2875 100.724 17.2927 100.726 17.2988 100.728C17.3293 100.533 17.3485 100.337 17.3668 100.14C17.5325 97.9623 17.679 95.7828 17.8403 93.6042C18.013 91.2656 18.2074 88.9288 18.4193 86.5929C18.6513 84.0445 18.8632 81.4924 19.15 78.9496C19.2163 78.3608 19.7822 77.9523 20.3238 78.0387C20.8923 78.1298 21.2533 78.6892 21.187 79.2771C20.9743 81.1594 20.8112 83.0491 20.6377 84.936C20.4615 86.8588 20.288 88.7825 20.1267 90.7081C20.1275 90.6924 20.1293 90.6768 20.1302 90.6611C20.1284 90.6878 20.1258 90.7145 20.1241 90.7403C20.1223 90.7605 20.1206 90.7798 20.1188 90.8001C20.1197 90.7853 20.1214 90.7697 20.1223 90.755C19.9444 93.0154 19.7814 95.2777 19.6183 97.5391C19.5791 98.0819 19.5398 98.6238 19.5015 99.1656C19.4596 99.7388 19.4326 100.317 19.3585 100.886C19.3306 101.105 19.293 101.322 19.2207 101.529C19.116 101.827 18.9687 102.087 18.7873 102.339C18.7062 102.452 18.6129 102.551 18.51 102.637C18.5239 102.85 18.4795 103.069 18.3679 103.262C17.9484 103.988 17.4191 104.626 16.7608 105.119C15.8957 105.766 14.8703 106.067 13.823 106.131C13.7114 106.138 13.5998 106.142 13.4899 106.142C12.9292 106.143 12.3833 106.049 11.8479 105.828ZM13.6259 103.968C13.8239 103.954 14.0209 103.936 14.218 103.907C14.395 103.871 14.5703 103.828 14.7438 103.777C14.858 103.736 14.9697 103.69 15.0804 103.641C15.2051 103.575 15.3281 103.506 15.4475 103.432C15.5722 103.345 15.6926 103.253 15.8094 103.155C15.9132 103.058 16.0126 102.958 16.1076 102.852C16.1643 102.784 16.2193 102.714 16.2733 102.643C16.1033 102.567 15.9376 102.484 15.7754 102.403C15.2941 102.162 14.8188 101.905 14.3218 101.703C14.0445 101.614 13.7663 101.531 13.4838 101.459C13.2641 101.411 13.0452 101.367 12.8237 101.335C12.6842 101.326 12.5455 101.32 12.4051 101.32C12.2726 101.329 12.1409 101.341 12.0092 101.357C11.9534 101.368 11.8985 101.379 11.8427 101.391C11.8383 101.395 11.8348 101.399 11.8305 101.403C11.8148 101.423 11.7991 101.444 11.7843 101.464C11.7651 101.498 11.7459 101.532 11.7267 101.567C11.7145 101.594 11.7032 101.622 11.6927 101.651C11.6805 101.694 11.6683 101.736 11.657 101.778C11.6474 101.832 11.6395 101.886 11.6343 101.94C11.6308 102.005 11.629 102.069 11.629 102.134C11.636 102.242 11.6474 102.347 11.6613 102.454C11.6735 102.515 11.6883 102.576 11.704 102.637C11.7258 102.706 11.7494 102.774 11.7755 102.841C11.8174 102.933 11.8619 103.022 11.909 103.111C11.9604 103.192 12.0145 103.27 12.0703 103.348C12.1278 103.416 12.1863 103.481 12.2464 103.545C12.3048 103.597 12.3641 103.648 12.4261 103.697C12.4601 103.72 12.4958 103.742 12.5316 103.763C12.5952 103.795 12.6598 103.825 12.7252 103.853C12.7949 103.876 12.8647 103.897 12.9353 103.917C13.0164 103.931 13.0966 103.945 13.1786 103.957C13.3286 103.969 13.4759 103.972 13.6259 103.968Z" fill="black"/>
<path d="M35.6858 104.993C35.1338 104.866 34.6123 104.678 34.11 104.404C33.1692 103.889 32.4358 103.043 31.9187 102.076C31.7966 101.847 31.7696 101.587 31.8202 101.343C31.6048 101.096 31.4792 100.776 31.4356 100.444C31.3511 99.8188 31.3563 99.1785 31.3362 98.5474C31.3196 98.0101 31.3039 97.4737 31.29 96.9365C31.2272 94.6181 31.1784 92.2987 31.1383 89.9794C31.0929 87.3629 31.0502 84.7465 30.956 82.1318C30.9211 81.3627 30.8645 80.5908 30.8531 79.8208C30.8453 79.2274 31.3624 78.7453 31.9074 78.7591C32.4846 78.7729 32.9058 79.2789 32.9145 79.8714C32.9145 79.8806 32.9145 79.8907 32.9145 79.8999C32.9625 81.0021 33.0218 82.1051 33.0532 83.2073C33.0898 84.4603 33.1195 85.7134 33.1447 86.9664C33.1918 89.2351 33.2224 91.5029 33.2721 93.7707C33.313 95.6227 33.3558 97.4756 33.4203 99.3285C33.7168 99.1592 34.0106 98.9844 34.3141 98.8289C34.7684 98.5971 35.2375 98.4131 35.732 98.2999C36.3179 98.1665 36.9388 98.1628 37.5318 98.2438C37.7001 98.2668 37.8675 98.2898 38.0349 98.3119C38.3436 98.3542 38.6349 98.4453 38.9261 98.5547C39.4929 98.7691 40.0082 99.1665 40.4233 99.6192C40.7582 99.9853 41.0268 100.462 41.1427 100.957C41.2657 101.484 41.2552 102.005 41.114 102.526C40.8367 103.548 39.983 104.388 39.0691 104.782C38.7561 104.917 38.4212 105.027 38.0846 105.077C37.7829 105.123 37.4838 105.141 37.1786 105.151C37.1272 105.153 37.0766 105.154 37.0243 105.154C36.5769 105.153 36.1191 105.092 35.6858 104.993ZM37.3748 102.972C37.5143 102.96 37.6521 102.944 37.7899 102.925C37.905 102.897 38.0175 102.867 38.13 102.833C38.1866 102.813 38.2416 102.79 38.2974 102.766C38.3645 102.732 38.4308 102.696 38.4953 102.657C38.5825 102.595 38.6662 102.531 38.7482 102.463C38.804 102.41 38.8572 102.356 38.9095 102.301C38.9505 102.249 38.9889 102.198 39.0264 102.145C39.0464 102.111 39.0648 102.078 39.0831 102.044C39.097 102.014 39.1092 101.984 39.1214 101.952C39.1363 101.903 39.1502 101.852 39.1624 101.801C39.165 101.78 39.1685 101.759 39.1711 101.738C39.172 101.714 39.172 101.69 39.172 101.666C39.1703 101.638 39.1676 101.61 39.1642 101.582C39.158 101.548 39.1502 101.515 39.1415 101.482C39.1345 101.462 39.1275 101.442 39.1197 101.421C39.0944 101.369 39.0674 101.317 39.0395 101.266C39.0194 101.237 38.9994 101.207 38.9784 101.179C38.9244 101.115 38.8694 101.054 38.8119 100.995C38.7465 100.938 38.6793 100.881 38.6105 100.827C38.5276 100.771 38.4439 100.72 38.3584 100.669C38.2599 100.621 38.1614 100.576 38.0611 100.535C38.0245 100.524 37.9878 100.514 37.9512 100.503C37.6687 100.445 37.38 100.409 37.0932 100.379C36.9327 100.37 36.774 100.365 36.6136 100.369C36.4967 100.378 36.3816 100.39 36.2656 100.406C36.1313 100.433 35.9997 100.466 35.868 100.504C35.6866 100.57 35.5096 100.642 35.3335 100.722C34.88 100.957 34.4414 101.22 33.9932 101.467C34.0377 101.531 34.0839 101.595 34.131 101.659C34.2496 101.802 34.3751 101.939 34.5059 102.071C34.5757 102.134 34.6463 102.195 34.7187 102.253C34.8687 102.355 35.0222 102.452 35.1791 102.541C35.2995 102.599 35.4215 102.652 35.5454 102.702C35.684 102.75 35.8235 102.794 35.9657 102.834C36.2342 102.891 36.5028 102.935 36.7758 102.964C36.9754 102.974 37.1742 102.975 37.3748 102.972Z" fill="black"/>
<path d="M22.6188 31.0948C22.0669 30.9817 21.5384 30.6155 21.1696 30.1776C20.7039 29.6237 20.4118 28.9632 20.206 28.2603C19.9174 27.2713 19.8947 26.1958 19.9889 25.1737C20.0839 24.1396 20.3656 23.1046 20.7711 22.1598C21.1687 21.2324 21.7198 20.3465 22.4514 19.6721C23.1063 19.0677 23.9687 18.5561 24.8555 18.5184C24.9715 18.5138 25.0848 18.5313 25.1904 18.5672C25.452 18.4053 25.7772 18.3593 26.0728 18.4844C26.5585 18.6896 27.0189 18.9701 27.3895 19.3657C27.7907 19.7945 28.0776 20.294 28.3296 20.8313C28.5729 21.3493 28.7464 21.9013 28.8841 22.4588C29.1222 23.4211 29.056 24.4819 28.7856 25.4313C28.62 26.0137 28.4534 26.6025 28.2049 27.1535C28.027 27.5482 27.8491 27.9365 27.6232 28.3054C27.216 28.9705 26.7207 29.5363 26.1217 30.0138C25.6229 30.4103 25.0622 30.7443 24.4701 30.9559C24.1858 31.058 23.8998 31.1252 23.6025 31.1583C23.5083 31.1694 23.4141 31.174 23.3217 31.174C23.0853 31.174 22.8534 31.1427 22.6188 31.0948ZM23.3862 28.9991C23.442 28.9926 23.4969 28.9843 23.5519 28.9742C23.6487 28.9494 23.7428 28.9199 23.8379 28.8877C23.98 28.8289 24.1178 28.7645 24.2547 28.6936C24.4282 28.5924 24.5957 28.4848 24.7613 28.3698C24.9401 28.2327 25.1102 28.0883 25.275 27.9337C25.3779 27.8252 25.4764 27.7138 25.5723 27.5979C25.6944 27.4323 25.8086 27.263 25.9176 27.0873C26.0781 26.7984 26.2176 26.5022 26.3536 26.1995C26.4722 25.8849 26.5829 25.5721 26.6867 25.2519C26.7844 24.8995 26.8681 24.549 26.9335 24.1884C26.9466 24.0899 26.9562 23.9915 26.9631 23.8931C26.9657 23.7431 26.9632 23.595 26.9553 23.445C26.9379 23.3024 26.9178 23.1617 26.8925 23.02C26.8419 22.8176 26.787 22.6189 26.726 22.4183C26.6187 22.1294 26.5045 21.847 26.3763 21.5673C26.3074 21.4376 26.2359 21.3115 26.1583 21.1864C26.1016 21.1082 26.0432 21.0319 25.9821 20.9564C25.9307 20.9031 25.8784 20.8515 25.8243 20.8009C25.7728 20.7605 25.7205 20.7228 25.6673 20.685C25.5915 20.64 25.5147 20.5976 25.4371 20.5581C25.4232 20.5516 25.4084 20.5452 25.3944 20.5397C25.2532 20.6271 25.0901 20.6813 24.9174 20.6905C24.8869 20.6951 24.8573 20.6997 24.8267 20.7043C24.791 20.7135 24.7561 20.7246 24.7212 20.7366C24.5965 20.789 24.4753 20.8451 24.3541 20.9058C24.2521 20.9656 24.1536 21.0273 24.0568 21.0953C23.96 21.1726 23.8658 21.2517 23.7742 21.3364C23.6321 21.4827 23.4987 21.6354 23.3696 21.7964C23.2388 21.9758 23.115 22.1589 22.9964 22.3475C22.8656 22.583 22.747 22.8231 22.6371 23.0706C22.5124 23.3825 22.4017 23.6962 22.3058 24.0173C22.216 24.3531 22.1436 24.6907 22.0843 25.0329C22.045 25.3181 22.018 25.6033 22.0023 25.8913C21.9971 26.1728 22.005 26.4516 22.0233 26.7322C22.0468 26.9493 22.0791 27.1637 22.1183 27.379C22.1602 27.5565 22.2072 27.7304 22.2622 27.9024C22.3128 28.0349 22.3659 28.1646 22.4235 28.2934C22.4776 28.3946 22.5343 28.4921 22.5953 28.5887C22.6258 28.632 22.6581 28.6743 22.6921 28.7157C22.7235 28.747 22.7549 28.7792 22.7863 28.8114C22.822 28.8399 22.8586 28.8675 22.897 28.8942C22.9188 28.907 22.9415 28.9199 22.9633 28.9319C22.9912 28.9429 23.02 28.954 23.0487 28.965C23.0766 28.9724 23.1045 28.9797 23.1333 28.9862C23.1717 28.9908 23.2109 28.9954 23.2502 29.0009C23.2955 29.0037 23.3408 29.0018 23.3862 28.9991Z" fill="black"/>
<path d="M39.3124 30.1785C38.7439 30.116 38.3506 29.5741 38.3951 28.9834C38.4038 28.8721 38.4117 28.7617 38.4186 28.6504C38.4204 28.529 38.4178 28.4094 38.4134 28.287C38.3916 28.0717 38.362 27.8592 38.3236 27.6458C38.2303 27.2327 38.1108 26.8297 37.9896 26.424C37.7864 25.849 37.5606 25.2896 37.3051 24.7367C37.1333 24.3991 36.9528 24.0697 36.747 23.7532C36.4278 23.2647 36.6354 22.5535 37.0941 22.2601C37.3234 22.1119 37.6042 22.0669 37.8658 22.1322C38.1448 22.2012 38.3515 22.3824 38.5102 22.6262C38.777 23.0338 39.0072 23.4644 39.2148 23.9078C39.397 24.297 39.581 24.6935 39.7232 25.101C39.8993 25.6043 40.0685 26.1085 40.2071 26.6255C40.3623 27.2106 40.4574 27.8049 40.4835 28.4121C40.4949 28.6771 40.4678 28.9457 40.4478 29.2098C40.4051 29.7636 39.9281 30.184 39.4162 30.184C39.3804 30.184 39.3464 30.1822 39.3124 30.1785Z" fill="black"/>
<path d="M39.3595 28.4949C38.8398 28.2888 38.552 27.6439 38.7587 27.0928C38.8424 26.8693 38.9191 26.643 38.9924 26.4148C39.145 25.8665 39.2645 25.3163 39.37 24.756C39.438 24.296 39.5025 23.8397 39.5313 23.3733C39.5365 23.1111 39.533 22.8507 39.5165 22.5894C39.4929 22.3557 39.4607 22.1258 39.4162 21.8958C39.3769 21.7292 39.3316 21.5655 39.2828 21.4008C39.2496 21.3051 39.2156 21.2104 39.1773 21.1175C38.9 20.6207 39.0796 19.9509 39.5418 19.6546C40.0301 19.3409 40.6553 19.5222 40.957 20.0208C41.0721 20.2112 41.1366 20.4302 41.2108 20.6409C41.4009 21.1855 41.5073 21.7559 41.5613 22.3328C41.6468 23.2482 41.5456 24.1442 41.4105 25.0449C41.2675 26.0045 41.0259 26.9576 40.6867 27.861C40.5254 28.2907 40.1321 28.5639 39.7153 28.5639C39.5976 28.5639 39.4772 28.5418 39.3595 28.4949Z" fill="black"/>
<path d="M38.9505 29.5971C38.5433 29.1923 38.5172 28.4903 38.9034 28.0607C39.186 27.746 39.4528 27.4176 39.7161 27.0855C40.6073 25.9373 41.5037 24.7716 42.2537 23.5131C42.4725 23.1267 42.674 22.7329 42.8545 22.3245C42.9565 22.0724 43.0489 21.8175 43.1309 21.5572C43.2015 21.2996 43.2608 21.0402 43.3088 20.7761C43.3393 20.5461 43.3672 20.3161 43.3864 20.0833C43.4344 19.4927 43.9689 19.0548 44.5183 19.1155C45.0851 19.1771 45.4836 19.719 45.4365 20.3097C45.4068 20.6795 45.3571 21.0447 45.2926 21.4091C45.1365 22.2895 44.7964 23.1258 44.4084 23.9179C43.9828 24.7864 43.4317 25.5877 42.8754 26.3679C42.4926 26.9052 42.0985 27.4305 41.7 27.954C41.2858 28.4995 40.8646 29.0414 40.4076 29.5483C40.2062 29.7728 39.9298 29.8869 39.6525 29.8869C39.3996 29.8869 39.1467 29.7921 38.9505 29.5971Z" fill="black"/>
<path d="M43.5442 53.1481C43.0341 52.7709 42.6434 52.2291 42.2973 51.6909C41.9781 51.1978 41.7139 50.6632 41.4671 50.1259C41.1968 49.5371 40.9387 48.9465 40.6875 48.3494C39.7807 46.1929 39.0046 43.9656 38.3872 41.6987C38.0768 40.5598 37.782 39.4135 37.5474 38.2543C37.2981 37.0187 37.0618 35.7822 36.842 34.5411C36.7914 34.255 36.7408 33.968 36.6903 33.6809C36.6249 33.3065 36.5569 32.9422 36.6258 32.5631C36.7313 31.9808 37.3364 31.6238 37.8657 31.7554C38.3698 31.8814 38.668 32.3626 38.6514 32.8778C38.7081 33.2918 38.7892 33.703 38.8616 34.1143C38.9409 34.5577 39.0203 35.0002 39.1005 35.4437C39.2557 36.2947 39.4266 37.1429 39.5967 37.9902C39.724 38.5349 39.8504 39.0804 39.9786 39.6269C40.078 40.051 40.1957 40.4687 40.3099 40.8873C40.4268 41.316 40.5358 41.7475 40.6692 42.1716C40.8445 42.7264 41.0224 43.2811 41.195 43.8368C41.8569 45.7477 42.5963 47.6263 43.4457 49.4525C43.6515 49.8619 43.8677 50.2612 44.1119 50.6476C44.22 50.8022 44.3325 50.9503 44.4511 51.0956C44.5261 51.1775 44.6037 51.2557 44.6839 51.3321C44.7502 51.3863 44.8182 51.4379 44.8888 51.4866C44.8505 51.4618 44.8121 51.436 44.7746 51.4121C44.8566 51.4701 44.9412 51.5216 45.0301 51.5667C45.0772 51.5869 45.1251 51.6062 45.174 51.6237C45.2228 51.6366 45.2716 51.6485 45.3213 51.6614C45.2969 51.6568 45.2725 51.6531 45.2481 51.6485C45.2376 51.6449 45.2272 51.6421 45.2167 51.6384C45.2263 51.6421 45.2359 51.6449 45.2455 51.6476C45.2272 51.644 45.2089 51.6412 45.1905 51.6384C45.2123 51.643 45.235 51.6476 45.2568 51.6513C45.2655 51.6541 45.2734 51.6568 45.2821 51.6596C45.2743 51.6568 45.2664 51.6541 45.2586 51.6522C45.3144 51.6623 45.3711 51.6697 45.4286 51.6743C45.5036 51.6752 45.5795 51.6725 45.6545 51.6651C45.6405 51.6679 45.6274 51.6716 45.6134 51.6743C45.6291 51.6706 45.6449 51.6679 45.6606 51.6642C45.678 51.6623 45.6963 51.6605 45.7137 51.6587C45.6989 51.6596 45.6841 51.6614 45.6693 51.6624C45.6911 51.6578 45.7129 51.6522 45.7338 51.6458C45.7102 51.6513 45.6867 51.6568 45.6632 51.6624C45.6361 51.6651 45.6082 51.667 45.5821 51.6697C45.6344 51.6614 45.6876 51.6532 45.7399 51.644C45.7887 51.6311 45.8367 51.6164 45.8846 51.5989C45.9422 51.575 45.9998 51.5492 46.0564 51.5216C46.155 51.4636 46.2483 51.4029 46.3416 51.3367C46.3948 51.2934 46.4462 51.2493 46.4959 51.2024C46.5945 51.0975 46.6869 50.9917 46.7776 50.8803C46.8569 50.7672 46.9328 50.6531 47.0052 50.5363C47.1272 50.3164 47.2389 50.0937 47.3426 49.8637C47.4717 49.5436 47.585 49.2197 47.6844 48.8885C47.7804 48.527 47.858 48.1627 47.9234 47.7928C47.9966 47.3098 48.0455 46.8268 48.0725 46.3392C48.0856 45.8654 48.0743 45.3944 48.0402 44.9224C47.9792 44.2941 47.8737 43.6786 47.7673 43.0585C47.694 42.7246 47.6217 42.3906 47.5484 42.0566C47.4717 41.7116 47.3723 41.3712 47.2833 41.0299C47.1246 40.4107 46.9215 39.8045 46.7244 39.1991C46.2753 37.9718 45.7887 36.7629 45.2812 35.5614C44.7502 34.3056 44.2026 33.06 43.6096 31.8364C43.0803 30.7876 42.5283 29.7452 41.8865 28.7681C41.7566 28.5786 41.6223 28.3928 41.4802 28.2134C41.1192 27.7598 41.2011 27.0524 41.6319 26.6844C42.074 26.3062 42.721 26.3909 43.0812 26.8444C43.7195 27.6476 44.2244 28.5612 44.724 29.4628C45.2891 30.484 45.7835 31.5475 46.2701 32.6128C46.7418 33.646 47.1717 34.7003 47.6112 35.7482C48.0673 36.8366 48.4911 37.9396 48.8582 39.0639C49.2253 40.1936 49.5052 41.3446 49.7589 42.5074C49.9368 43.318 50.045 44.1524 50.1095 44.9795C50.2351 46.5867 50.0302 48.228 49.5819 49.7653C49.3805 50.4562 49.0884 51.1343 48.7186 51.7424C48.3236 52.3928 47.8248 52.9356 47.1996 53.3414C46.6712 53.6836 46.0512 53.8427 45.4365 53.8464C45.4312 53.8464 45.4268 53.8464 45.4216 53.8464C44.738 53.8492 44.0944 53.5557 43.5442 53.1481Z" fill="black"/>
<path d="M8.24566 30.4002C7.83669 30.0929 7.66666 29.5474 7.54458 29.0579C7.34838 28.2741 7.30479 27.4479 7.29345 26.6411C7.27078 25.0274 7.50012 23.3963 8.05994 21.8893C8.3913 20.9969 8.86303 20.1661 9.35048 19.362C9.65917 18.8533 10.0263 18.374 10.4379 17.9535C10.6393 17.7484 10.8817 17.6177 11.1651 17.6113C11.4337 17.6049 11.6997 17.7107 11.895 17.9048C12.2891 18.2958 12.3449 19.0299 11.9412 19.4412C11.7877 19.5985 11.6456 19.7613 11.507 19.9306C11.268 20.26 11.0474 20.5976 10.8346 20.9463C10.5835 21.4045 10.3324 21.8617 10.1178 22.341C9.98879 22.6538 9.8737 22.9694 9.77342 23.2941C9.65831 23.7146 9.56501 24.1396 9.49176 24.5702C9.42898 25.0081 9.38886 25.4469 9.36618 25.8894C9.34874 26.4341 9.35572 26.976 9.39234 27.5206C9.4185 27.7939 9.45425 28.0643 9.50046 28.3357C9.53534 28.4912 9.5746 28.643 9.62256 28.7948C9.62343 28.7976 9.62517 28.8003 9.62604 28.8031C9.92601 29.1729 9.9635 29.7369 9.68533 30.1472C9.48565 30.4416 9.16563 30.598 8.84125 30.598C8.63371 30.5989 8.42529 30.5345 8.24566 30.4002Z" fill="black"/>
<path d="M9.52925 29.1969C8.98774 29.0626 8.62761 28.4627 8.76364 27.8886C9.11157 26.4185 9.77864 25.0661 10.4954 23.7615C10.8547 23.1083 11.2357 22.468 11.6438 21.8479C11.8427 21.5452 12.0397 21.2426 12.2473 20.9454C12.5786 20.4698 12.9065 20.0015 13.3286 19.6068C13.7489 19.214 14.4369 19.3225 14.7778 19.7669C14.9496 19.9895 15.0307 20.2793 15.0028 20.5645C14.9732 20.8571 14.8354 21.0981 14.6313 21.2904C14.5267 21.398 14.429 21.5121 14.3331 21.6299C13.666 22.5149 13.08 23.4736 12.5097 24.4304C12.0807 25.2105 11.6665 25.9953 11.2977 26.8095C11.1389 27.2143 10.989 27.6209 10.8582 28.0377C10.8268 28.1536 10.7971 28.2704 10.7692 28.3882C10.6533 28.8822 10.2286 29.2245 9.76207 29.2245C9.68534 29.2254 9.60686 29.2162 9.52925 29.1969Z" fill="black"/>
<path d="M9.3025 31.6845C8.90225 31.288 8.85952 30.5676 9.25628 30.1472C9.70449 29.6734 10.212 29.2548 10.6977 28.8224C11.1747 28.3974 11.6517 27.9723 12.1295 27.5473C12.5734 27.1517 13.0181 26.7561 13.4628 26.3623C13.6956 26.1572 13.932 25.9548 14.1744 25.7625C14.4063 25.5785 14.6418 25.3706 14.9077 25.2464C15.4213 25.0062 16.0413 25.2675 16.2654 25.8066C16.4791 26.3218 16.2724 26.9281 15.8155 27.1959C15.7597 27.2327 15.7047 27.2713 15.6507 27.3099C14.8083 27.9843 14.0087 28.7184 13.2003 29.4379C12.4112 30.1426 11.6142 30.839 10.8337 31.5566C10.8093 31.5824 10.784 31.6091 10.7596 31.6348C10.5512 31.8566 10.2731 31.9734 9.99575 31.9734C9.74723 31.9743 9.49957 31.8805 9.3025 31.6845Z" fill="black"/>
<path d="M10.8721 32.6551C10.648 32.4859 10.4945 32.2227 10.4536 31.9357C10.3716 31.3699 10.757 30.759 11.3159 30.6955C12.3205 30.5824 13.3242 30.449 14.3244 30.299C14.8885 30.2153 15.4501 30.1205 16.0126 30.0212C16.4677 29.9411 16.9264 29.8455 17.3877 29.8169C17.9484 29.7838 18.4306 30.3009 18.4428 30.8786C18.4568 31.4831 18.0007 31.9541 17.4426 31.9909C17.0084 32.0424 16.5767 32.1261 16.1468 32.2016C15.6193 32.2954 15.0908 32.38 14.5615 32.4592C13.5866 32.6054 12.6083 32.7342 11.629 32.8446C11.5802 32.8502 11.5322 32.8529 11.4843 32.8529C11.2654 32.8538 11.057 32.7941 10.8721 32.6551Z" fill="black"/>
<path d="M2.24194 51.9751C1.93238 51.8951 1.64723 51.7838 1.37343 51.6108C1.07259 51.4204 0.823193 51.1646 0.613913 50.8693C-0.212743 49.699 -0.0479527 48.124 0.209287 46.7836C0.330495 46.1497 0.500553 45.5222 0.685417 44.9049C0.776105 44.6022 0.866777 44.2996 0.957465 43.9969C1.05513 43.6703 1.18332 43.352 1.29668 43.0327C1.69693 41.891 2.20617 40.7944 2.70146 39.6968C3.19589 38.602 3.75833 37.5458 4.32164 36.4897C4.58935 35.9874 4.8867 35.4979 5.18231 35.014C5.51541 34.4684 5.84417 33.9192 6.19122 33.3819C6.765 32.4941 7.32482 31.6054 8.02155 30.8151C8.46801 30.3082 9.02522 29.7682 9.69753 29.666C9.98267 29.6237 10.2922 29.7084 10.5277 29.8859C10.7073 30.0221 10.818 30.2052 10.9183 30.4085C11.1756 30.9357 10.8756 31.6146 10.3864 31.8409C10.2347 31.9108 10.0681 31.9403 9.90419 31.9283C9.8449 31.9798 9.78648 32.0332 9.72805 32.0875C9.53709 32.2862 9.35657 32.495 9.1813 32.7103C8.31627 33.8428 7.59253 35.0922 6.84174 36.3094C6.8461 36.302 6.85044 36.2937 6.8548 36.2864C6.62198 36.6783 6.37957 37.0665 6.16418 37.4686C5.89474 37.9755 5.60262 38.476 5.35235 38.9939C5.08116 39.5561 4.8091 40.1191 4.53703 40.6812C4.31206 41.1495 4.10714 41.6307 3.89437 42.1063C3.65283 42.6997 3.40343 43.2885 3.19066 43.8948C3.07904 44.214 2.95523 44.5314 2.85757 44.8552C2.75467 45.1993 2.65265 45.5425 2.54975 45.8857C2.405 46.4597 2.2585 47.032 2.15386 47.6162C2.11374 47.8866 2.0806 48.1562 2.06229 48.4294C2.0588 48.5895 2.06142 48.7487 2.07014 48.9088C2.07886 48.9925 2.09108 49.0762 2.1059 49.159C2.12073 49.2216 2.13728 49.2841 2.15646 49.3458C2.1739 49.3936 2.19398 49.4396 2.2149 49.4856C2.23758 49.5233 2.25937 49.561 2.28204 49.5988C2.296 49.6172 2.30995 49.6356 2.3239 49.6531C2.34222 49.6705 2.3614 49.6889 2.38059 49.7064C2.40413 49.7248 2.42855 49.7441 2.45209 49.7625C2.47215 49.7745 2.49218 49.7855 2.51311 49.7966C2.54363 49.8076 2.57328 49.8186 2.6038 49.8297C2.63519 49.838 2.66746 49.8462 2.69886 49.8545C2.73199 49.8591 2.76599 49.8628 2.79913 49.8656C2.86104 49.8665 2.92209 49.8656 2.984 49.861C3.05289 49.8527 3.12264 49.8426 3.19066 49.8288C3.33105 49.792 3.46883 49.7496 3.60747 49.7027C3.78187 49.63 3.95193 49.55 4.1211 49.4635C4.3827 49.3145 4.63297 49.1498 4.87713 48.9732C5.15966 48.7505 5.4291 48.515 5.69157 48.2675C6.02293 47.9345 6.33334 47.5849 6.62895 47.215C6.95595 46.7872 7.26378 46.3438 7.54369 45.8801C7.71547 45.5949 7.88638 45.3107 8.05817 45.0255C8.81157 43.662 9.55365 42.293 10.2277 40.8836C10.8869 39.5054 11.4921 38.0969 12.0955 36.6902C12.0912 36.6994 12.0877 36.7096 12.0833 36.7188C12.0955 36.6902 12.1078 36.6617 12.12 36.6323C12.1261 36.6185 12.1322 36.6038 12.1383 36.59C12.1357 36.5955 12.1339 36.601 12.1313 36.6065C12.1732 36.5081 12.215 36.4106 12.2568 36.3131C12.426 35.9156 12.5943 35.5163 12.76 35.117C12.8725 34.8447 13.0486 34.6258 13.3111 34.5043C13.5553 34.3912 13.8378 34.3847 14.0872 34.4832C14.5921 34.6837 14.913 35.3424 14.688 35.8852C14.5014 36.336 14.3121 36.7841 14.1203 37.2312C14.122 37.2266 14.1238 37.222 14.1264 37.2174C13.2248 39.3261 12.3266 41.4411 11.2663 43.4688C10.7221 44.5102 10.178 45.5544 9.57283 46.5582C9.41674 46.8185 9.26154 47.0771 9.10458 47.3374C8.69822 48.0118 8.20468 48.642 7.69194 49.2298C6.6996 50.3697 5.47008 51.3366 4.07139 51.8307C3.69905 51.9622 3.27437 52.0487 2.86017 52.0487C2.64915 52.0496 2.43988 52.0266 2.24194 51.9751Z" fill="black"/>
</svg>
